<?xml version="1.0" encoding="UTF-8"?>
<svg id="_圖層_2" data-name="圖層 2" xmlns="http://www.w3.org/2000/svg" viewBox="0 0 870.93 714.35">
  <defs>
    <style>
      .cls-1 {
        fill: #b79430;
      }

      .cls-2 {
        fill: #af824e;
      }

      .cls-3 {
        fill: #c66d2a;
      }
    </style>
  </defs>
  <g id="_圖層_1-2" data-name="圖層 1">
    <g>
      <path class="cls-1" d="m697.19,68.26c-13.56,2.52-14.01-1.38-27.78-.77s-13.69,2.6-27.47,3.21c-13.78.61-13.87-1.39-27.65-.79-13.78.61-13.69,2.6-27.47,3.21-13.78.61-15.17-5.84-27.98-.71-5.6,2.24,6.2,2.79,11.57,5.55,5.37,2.76,4.46,4.54,9.83,7.29,5.37,2.76,6.28.98,11.65,3.73,5.37,2.76,4.46,4.54,9.83,7.3,5.37,2.76,8.18-.7,11.98,4,1.57,1.94-3.13,1.92-4.71,3.85s-.04,3.2-1.62,5.13-3.13.66-4.71,2.59c-1.59,1.93-.04,3.2-1.62,5.13-1.59,1.93-1.28,2.84-3.71,2.26-9.24-2.22-9.15-2.48-17.6-6.82-8.46-4.34-7.55-6.12-16.01-10.46-8.46-4.34-9.37-2.56-17.83-6.91-8.46-4.34-7.55-6.12-16.01-10.47-8.46-4.34-9.48-2.41-17.85-6.92-.16-.09,1.36-.39,1.48-.53s-1.43-1.41-1.31-1.55,1.67,1.12,1.79.98-1.43-1.41-1.31-1.56,1.16-.66.98-.66c-20.32.75-20.23,2.89-40.54,3.79-20.31.89-20.4-1.1-40.71-.21-20.31.89-20.22,2.89-40.53,3.79-20.31.89-20.4-1.1-40.71-.21-20.31.89-20.23,3.02-40.54,3.79-.13,0,.97-.92.99-1.05s-1.93-.53-1.91-.65,1.99.27,2.01.14-1.93-.53-1.91-.66,1.28-1.03,1.15-1.05c-12.45-1.49-12.69.63-25.16-.73-12.46-1.36-12.25-3.35-24.71-4.7-12.46-1.36-12.68.63-25.15-.73-12.47-1.36-12.25-3.35-24.72-4.71-12.47-1.36-13.32,2.85-25.33-.77-2.2-.66,2.06-2.74,2.9-4.88s-1.02-2.87-.19-5.02c.84-2.15,2.7-1.42,3.54-3.56s-1.02-2.88-.18-5.02.36-2.81,2.67-2.93c12.91-.7,12.9-.59,25.75.81,12.85,1.4,12.63,3.39,25.48,4.79,12.85,1.4,13.07-.59,25.92.81,12.85,1.4,12.64,3.39,25.49,4.79,12.85,1.4,13.1-.76,25.93.81.18.02-1.12.79-1.18.96s1.8.89,1.73,1.06-1.93-.56-1.99-.39,1.8.9,1.73,1.07-1.23.98-1.05.97c5.21-.06,5.14-2.23,10.35-2.46,5.2-.23,5.29,1.77,10.49,1.54,5.2-.23,5.11-2.23,10.31-2.46,5.2-.23,5.29,1.77,10.5,1.54,5.2-.23,5.21-.19,9.95-2.37q7.01-3.23,12.96-8.14c5.95-4.91,4.68-6.46,10.63-11.37,5.95-4.91,7.22-3.37,13.17-8.28,5.95-4.91,4.68-6.46,10.64-11.37,5.95-4.91,6.06-4.75,12.99-8.16,1.74-.86,1.69-.4,3.16.86,1.48,1.26.18,2.78,1.66,4.04s2.78-.26,4.26,1c1.48,1.26.19,2.78,1.67,4.05,1.48,1.26,5.45.58,4.48,2.26-2.77,4.77-5.76,2.24-10.01,5.75s-2.98,5.06-7.24,8.57-5.53,1.97-9.78,5.48c-4.26,3.51-2.98,5.06-7.24,8.57-4.26,3.51-14.74,6.77-9.24,7.25,29.41,2.58,29.54-3.29,59.03-4.59,29.5-1.3,29.58.7,59.08-.6,29.5-1.3,29.41-3.3,58.91-4.59,29.5-1.3,29.59.7,59.08-.6s29.46-5.34,58.98-4.59c2.07.05-1.42,2.83-1.84,4.86-.42,2.03,1.54,2.43,1.13,4.46s-2.37,1.63-2.79,3.66c-.42,2.03,1.01,2.13,1.15,4.2.18,2.79.39,4.73-1.65,5.11Z"/>
      <path class="cls-3" d="m79.96,178.64c5.61-6.06,7.87-3.59,14.4-8.65,6.53-5.06,5.3-6.64,11.83-11.71,6.53-5.06,7.75-3.48,14.28-8.54,6.53-5.07,5.31-6.65,11.84-11.71,6.53-5.07,10.59-1.61,14.55-8.86,1.98-3.62-4.82,1.1-8.91,1.69-4.09.59-4.37-1.39-8.46-.8-4.09.59-3.8,2.57-7.89,3.16s-4.38-1.39-8.46-.8-4.18,3.95-8.23,3.15c-1.43-.28.98-2.56.77-4s-2.19-1.15-2.4-2.6,1.77-1.73,1.56-3.17c-.21-1.44-2.19-1.16-2.4-2.6s-.43-1.58.93-2.09c6.08-2.32,5.94-2.85,12.37-3.78,6.44-.93,6.72,1.05,13.16.12,6.44-.93,6.15-2.91,12.59-3.84,6.44-.93,6.73,1.05,13.17.12,6.44-.93,6.16-3.02,12.61-3.84.11-.01-.85,1.24-.83,1.35s1.99-.18,2.01-.07-1.96.39-1.95.5,2-.18,2.01-.07-.44,1.22-.35,1.16c9.68-7.39,8.4-9.05,18.03-16.51,9.62-7.46,10.85-5.88,20.47-13.35,9.62-7.46,8.4-9.04,18.02-16.51,9.63-7.46,10.85-5.88,20.48-13.35,9.63-7.46,8.35-9.12,18.03-16.51.07-.05-.13,1.47-.08,1.54s1.63-1.16,1.68-1.09-1.53,1.29-1.48,1.36c.05.07,1.63-1.16,1.69-1.09s-.3,1.68-.22,1.64c6.93-3.62,5.95-5.47,12.84-9.16,6.89-3.7,7.84-1.94,14.72-5.64,6.89-3.7,5.94-5.46,12.83-9.16,6.89-3.7,7.84-1.94,14.73-5.64,6.89-3.7,5.55-6.86,13.01-9.24,1.39-.44.11,2.71.8,3.99s2.45.34,3.14,1.62-1.07,2.23-.38,3.51,2.45.34,3.14,1.62c.69,1.28,1.02,1.35-.12,2.26-6.31,5.02-6,5.48-13.1,9.29-7.1,3.81-8.05,2.05-15.15,5.87-7.1,3.81-6.15,5.57-13.25,9.39-7.1,3.82-8.05,2.05-15.16,5.87-7.1,3.82-6.12,5.68-13.28,9.4-.1.05.37-1.46.31-1.56s-1.82.85-1.87.75,1.71-1.05,1.65-1.15-1.82.85-1.87.74.28-1.55.19-1.49c-2.53,1.82-1.27,3.51-3.73,5.42s-3.69.33-6.15,2.24c-2.47,1.91-1.24,3.49-3.7,5.4-2.47,1.91-3.69.33-6.16,2.25-2.47,1.91-2.35,1.99-3.38,4.94-2.39,6.9-2.65,6.84-3.36,14.1-.71,7.26,1.28,7.46.57,14.72-.71,7.26-2.7,7.07-3.41,14.33-.71,7.27,1.28,7.46.57,14.73-.71,7.27-1.33,7.15-3.38,14.16-.39,1.33-.51,1.14-1.89,1.01-1.38-.13-1.18-2.13-2.56-2.26-1.38-.13-1.57,1.86-2.95,1.72s-1.18-2.13-2.56-2.26c-1.38-.13-3.67,2.23-3.85.86-.78-5.94,2.57-5.99,3.15-11.95.58-5.96-1.41-6.16-.82-12.12.58-5.96,2.57-5.77,3.16-11.73s-1.41-6.16-.82-12.12,7.45-14.82,1.82-12.77c-16.62,6.05-13.02,12.57-27,23.41-13.98,10.84-15.2,9.26-29.18,20.1-13.98,10.84-12.75,12.42-26.73,23.26-13.98,10.84-15.2,9.26-29.18,20.1-13.98,10.84-12.02,13.58-26.79,23.31-1.14.75-.6-2.53-1.44-3.61s-2.42.14-3.26-.94.74-2.31-.1-3.39-2.02.08-3.09-.77c-1.6-1.28-2.72-2.62-1.79-3.63Z"/>
      <path class="cls-1" d="m695.37,629.76c-13.56-2.52-13.55-2.59-27.33-3.19-13.78-.61-13.87,1.39-27.65.79-13.78-.61-13.69-2.6-27.47-3.21s-13.87,1.39-27.65.79c-13.78-.61-14.34,1.98-27.15-3.14-5.6-2.24,4.54-2.72,9.91-5.47,5.37-2.76,6.28-.98,11.66-3.73,5.37-2.76,4.46-4.54,9.83-7.29,5.37-2.76,6.29-.98,11.66-3.74s5.71-2.34,9.51-7.03c1.57-1.94-.03-1.93-1.61-3.86-1.58-1.93-3.13-.66-4.71-2.59-1.58-1.93-.04-3.2-1.62-5.13s-3.13-.66-4.72-2.6c-1.59-1.93-.2-6.05-2.63-5.47-9.24,2.22-7.77,6.2-16.22,10.54s-9.37,2.56-17.83,6.9c-8.46,4.34-7.55,6.12-16.01,10.46-8.46,4.34-9.37,2.56-17.84,6.91-8.46,4.34-7.62,5.95-15.99,10.46-.16.09-1.13-.1-1.01.04s1.66-1.13,1.78-.98-1.43,1.41-1.31,1.56,1.67-1.12,1.79-.98-.31-.07-.5-.07c-20.32-.75-20.39,1.1-40.7.21-20.31-.89-20.22-2.89-40.53-3.79-20.31-.89-20.4,1.1-40.71.21-20.31-.89-20.23-2.89-40.54-3.79-20.31-.89-20.39.98-40.71.21-.13,0-.92-.67-.89-.55s1.99-.28,2.01-.15-1.93.53-1.91.66,1.99-.27,2.01-.14-.92-.55-1.05-.54c-12.45,1.49-12.24,3.35-24.7,4.7-12.46,1.36-12.68-.63-25.14.73-12.46,1.36-12.25,3.35-24.71,4.7-12.47,1.36-12.68-.63-25.15.73s-12.53,1.05-24.54,4.67c-2.2.66-.38,1.55.46,3.7.84,2.14,2.7,1.42,3.54,3.56s-1.02,2.87-.18,5.02,2.7,1.42,3.54,3.57-1.61,5.53.69,5.66c12.91.7,12.8-3.39,25.65-4.79,12.85-1.4,13.07.59,25.92-.81s12.63-3.39,25.48-4.79c12.85-1.4,13.07.59,25.92-.81,12.85-1.4,12.64-3.22,25.47-4.79.18-.02.99.46.92.3s-1.93.56-1.99.4,1.8-.9,1.73-1.06-1.93.56-1.99.39.61.3.79.3c5.21.06,5.26-1.77,10.46-1.54,5.2.23,5.11,2.23,10.32,2.46,5.2.23,5.29-1.77,10.49-1.54,5.2.23,5.12,2.23,10.32,2.46,5.2.23,6.14-3.63,10.87-1.45,7.01,3.23,4.9,6.59,10.85,11.5,5.95,4.91,7.23,3.37,13.18,8.28,5.95,4.91,4.68,6.45,10.63,11.36,5.95,4.91,7.23,3.37,13.18,8.29,5.95,4.91,3.9,8.09,10.83,11.5,1.74.86,1.27-2.92,2.75-4.18,1.48-1.26,2.78.26,4.25-1s.18-2.78,1.66-4.04,2.78.26,4.26-1,2.43-1.1,1.45-2.78q-2.77-4.77-7.01-8.3c-4.26-3.51-5.53-1.97-9.79-5.48-4.25-3.51-2.98-5.05-7.24-8.57-4.26-3.51-5.53-1.97-9.79-5.49-4.26-3.51-13.29-6.32-7.79-6.8,29.41-2.58,29.45-.7,58.95.6,29.5,1.3,29.41,3.3,58.9,4.59,29.5,1.3,29.58-.7,59.08.6,29.5,1.3,29.41,3.3,58.91,4.59q29.5,1.3,59.02.6c2.07-.05.59-1.23.17-3.26-.42-2.03-2.37-1.63-2.79-3.66-.42-2.03,1.54-2.43,1.13-4.46-.42-2.03-2.87-1.82-2.81-3.89.05-1.88,2.02-2.67-.02-3.05Z"/>
      <path class="cls-2" d="m793.71,490.16c-7,4.38-7.38,3.87-13.57,9.35s-4.87,6.97-11.06,12.45-7.51,3.97-13.7,9.45-4.87,6.97-11.06,12.45c-6.19,5.48-5.49,6.71-13.36,9.25-3.93,1.27.7-3.28,2.04-7.18,1.34-3.91,3.23-3.26,4.57-7.16,1.34-3.91-.55-4.55.79-8.46,1.34-3.91,3.23-3.26,4.57-7.17,1.34-3.91.77-4,.74-8.13-.01-1.46-.05-1.43-1.43-1.9s-2.03,1.42-3.4.95-.73-2.36-2.1-2.84-2.03,1.42-3.41.95-2.52-3.66-3.29-2.42c-3.41,5.54-.31,7-2.42,13.15-2.11,6.15-4,5.5-6.11,11.66s-.22,6.8-2.33,12.95c-2.11,6.15-4,5.51-6.12,11.66-2.11,6.15-.32,6.75-2.33,12.94-.03.1-1.17.67-1.07.71s.75-1.86.85-1.82-.55,1.93-.44,1.96.75-1.86.86-1.82-.7.2-.78.27c-9.06,8.14-7.79,9.56-16.91,17.62-9.12,8.07-10.45,6.57-19.57,14.64-9.12,8.07-7.8,9.57-16.92,17.64-9.13,8.07-10.45,6.57-19.58,14.64-9.13,8.07-7.85,9.5-16.92,17.63-.06.06-1.36-.02-1.31.04s1.55-1.26,1.61-1.2-1.44,1.39-1.39,1.45c.06.07,1.56-1.26,1.62-1.19s-1.36.11-1.42.17c-4.85,6.13-3.35,7.33-8.27,13.41-4.92,6.08-6.47,4.82-11.39,10.9-4.91,6.08-3.36,7.34-8.27,13.41-4.92,6.08-6.47,4.83-11.39,10.91-4.92,6.08-4.46,6.39-8.18,13.27-.69,1.28-.38,1.22.76,2.13,1.13.92,2.39-.64,3.52.27s-.13,2.47,1.01,3.39c1.13.92,2.39-.64,3.53.28s1.19,4.32,2.29,3.37c6.1-5.26,3.64-7.65,8.7-13.92,5.07-6.27,6.62-5.01,11.69-11.28,5.07-6.27,3.51-7.52,8.58-13.79,5.07-6.27,6.63-5.01,11.7-11.28,5.07-6.27,3.59-7.45,8.58-13.79.07-.09,1.33-.23,1.24-.3s-1.34,1.48-1.43,1.41,1.17-1.63,1.08-1.7-1.35,1.48-1.44,1.41,1.06-.12,1.14-.2c2.26-2.15.98-3.54,3.32-5.6,2.34-2.06,3.66-.57,6-2.63,2.34-2.07,1.01-3.56,3.35-5.63,2.34-2.07,3.66-.57,6-2.64,2.34-2.07.78-5.42,3.87-5.87,7.22-1.06,7.32,2.64,14.59,3.29,7.27.65,7.45-1.34,14.72-.68,7.27.65,7.09,2.65,14.36,3.3,7.27.65,7.45-1.34,14.72-.68,7.27.65,7.29,4.01,14.55,3.3,1.38-.13-.97-2.46-.85-3.84.12-1.38,2.12-1.2,2.24-2.58.12-1.38-1.87-1.56-1.74-2.94.12-1.38,2.12-1.2,2.24-2.58.12-1.38.26-1.47-1.06-1.9-5.69-1.87-5.56-2.48-11.53-3.02-5.97-.54-6.15,1.46-12.11.92-5.97-.54-5.79-2.53-11.75-3.06s-6.15,1.46-12.12.92c-5.97-.54-14.05,3.59-10.99-1.56,9.03-15.2,11.73-12.98,24.98-24.69,13.25-11.72,14.57-10.22,27.82-21.93,13.25-11.72,11.93-13.21,25.18-24.93,13.25-11.72,14.58-10.22,27.83-21.94,13.25-11.72,12.81-12.18,25.12-24.88.95-.98.56-.99-.35-2.02s-2.41.3-3.31-.73.59-2.35-.32-3.38-2.87.28-3.47-.96c-.49-1.01.78-2.37-.39-1.64Z"/>
      <path class="cls-3" d="m79.97,516.06c5.61,6.06,5.18,6.53,11.71,11.59,6.53,5.06,7.76,3.48,14.28,8.55,6.53,5.06,5.3,6.64,11.83,11.7,6.53,5.07,7.76,3.49,14.29,8.55,6.53,5.07,7.61,4.15,11.57,11.4,1.98,3.62-3.35-.08-7.44-.67-4.09-.59-3.8-2.57-7.89-3.16-4.09-.59-4.37,1.39-8.46.8-4.09-.59-3.8-2.57-7.89-3.16s-4.07-.01-8.13.79c-1.43.28-1.39.32-1.6,1.76s1.77,1.73,1.56,3.17c-.21,1.44-2.19,1.15-2.4,2.6-.21,1.44,1.77,1.73,1.56,3.17s-3.13,3.16-1.76,3.68c6.08,2.32,6.93-.99,13.37-.07,6.44.93,6.15,2.91,12.59,3.84,6.44.93,6.72-1.05,13.16-.12,6.44.93,6.15,2.91,12.59,3.84,6.44.93,6.7-.95,13.15-.12.11.01.88,1.03.89.92s-1.96-.39-1.95-.5,2,.18,2.01.07-1.96-.39-1.95-.5.33.65.41.72c9.68,7.39,10.84,5.88,20.47,13.34,9.62,7.46,8.4,9.04,18.02,16.51,9.62,7.46,10.85,5.88,20.47,13.35,9.63,7.46,8.4,9.05,18.03,16.51,9.63,7.46,10.79,5.95,20.47,13.34.07.05.23,1.34.29,1.27s-1.53-1.29-1.48-1.36,1.63,1.16,1.68,1.09c.05-.07-1.53-1.3-1.47-1.37s.36,1.32.43,1.36c6.93,3.62,7.82,1.93,14.71,5.63,6.89,3.7,5.94,5.46,12.83,9.16s7.83,1.94,14.72,5.63c6.89,3.7,5.95,5.46,12.84,9.16,6.89,3.7,7.11,3.19,14.56,5.57,1.39.44,1.27.14,1.95-1.14s-1.07-2.23-.38-3.51c.69-1.28,2.45-.34,3.14-1.62s-1.07-2.23-.38-3.52c.69-1.28,4.02-1.97,2.88-2.88-6.31-5.02-8.2-2.15-15.3-5.96-7.1-3.81-6.16-5.58-13.26-9.39-7.1-3.81-8.05-2.05-15.15-5.86-7.1-3.82-6.16-5.58-13.26-9.39-7.1-3.82-7.99-2.15-15.14-5.86-.1-.05-.47-1.26-.53-1.16s1.71,1.05,1.66,1.14-1.82-.85-1.87-.74,1.71,1.05,1.65,1.15-.31-1.02-.41-1.08c-2.53-1.82-3.66-.31-6.12-2.22s-1.24-3.49-3.7-5.4-3.69-.33-6.16-2.24-1.24-3.49-3.71-5.41c-2.47-1.91-5.47.24-6.49-2.71-2.39-6.9,1.23-7.69.52-14.95-.71-7.26-2.7-7.07-3.41-14.33-.71-7.26,1.28-7.46.57-14.72-.71-7.27-2.7-7.07-3.41-14.34-.71-7.27,2.58-7.9.53-14.91-.39-1.33-2.24,1.41-3.62,1.55-1.38.13-1.57-1.86-2.95-1.72s-1.18,2.13-2.56,2.26-1.57-1.86-2.95-1.72c-1.38.13-1.49.02-1.67,1.39-.78,5.94-1.4,5.93-.82,11.89.58,5.96,2.57,5.77,3.16,11.73.58,5.96-1.41,6.16-.82,12.12.58,5.96,2.57,5.77,3.16,11.74.58,5.96,6.15,13.14.51,11.09-16.62-6.05-14.93-9.11-28.91-19.95-13.98-10.84-12.75-12.42-26.73-23.26-13.98-10.84-15.2-9.26-29.18-20.1-13.98-10.84-12.75-12.42-26.73-23.26-13.98-10.84-14.35-10.33-29.12-20.06-1.14-.75-1.08-.37-1.92.72s.74,2.31-.1,3.39-2.42-.14-3.26.94.81,2.76-.29,3.58c-.9.67-2.48-.32-1.54.69Z"/>
      <path class="cls-2" d="m157.92,602.65c-5.41-6.03-2.56-8.13-6.72-15.08-4.16-6.95-5.88-5.93-10.04-12.88-4.16-6.95-2.44-7.98-6.6-14.93-4.16-6.96-5.88-5.93-10.04-12.89-4.16-6.96.13-11.42-6.99-15.3-4.33-2.37.95,5.71,1.39,10.63.43,4.92-1.56,5.1-1.12,10.02s2.43,4.74,2.86,9.66-1.56,5.1-1.12,10.02,3.55,5.01,2.86,9.9c-.19,1.33-2.63-.47-3.85.1s-.36,2.38-1.57,2.96-2.07-1.23-3.29-.66-.36,2.38-1.58,2.96c-1.22.58-1.55,1.29-1.9,0-1.99-7.52-2.65-7.4-3.33-15.15-.68-7.75,1.31-7.93.62-15.68-.68-7.75-2.68-7.58-3.36-15.33-.68-7.75,1.31-7.93.62-15.68-.68-7.75-2.77-7.58-3.36-15.34,0-.1,1.51.79,1.6.74s-.77-1.85-.68-1.89.95,1.76,1.04,1.72-.76-1.85-.67-1.89,1.53.4,1.47.31c-6.05-10.3-7.85-9.23-13.99-19.48-6.13-10.25-4.42-11.28-10.55-21.52-6.13-10.25-7.85-9.22-13.98-19.47s-4.42-11.28-10.55-21.53c-6.13-10.25-7.93-9.18-13.99-19.48-.05-.08,1.73,0,1.79-.08s-1.56-1.25-1.51-1.33,1.68,1.09,1.74,1.01-1.56-1.25-1.5-1.33,1.9.16,1.86.07c-2.93-7.73-4.87-6.98-7.88-14.67-3.01-7.7-1.14-8.43-4.15-16.13-3.01-7.7-4.87-6.97-7.88-14.67-3.01-7.7-1.15-8.43-4.15-16.13-3.01-7.7-6.17-6.75-7.93-14.82-.33-1.54,2.79-.65,3.88-1.79,1.09-1.13-.35-2.52.74-3.65s2.53.25,3.62-.88-.35-2.52.74-3.66,1.23-2.39,2.05-1.05c4.47,7.25,4.88,7.05,7.98,14.98,3.1,7.94,1.24,8.66,4.34,16.6,3.1,7.94,4.96,7.21,8.06,15.15,3.1,7.94,1.24,8.67,4.34,16.6s5.07,7.18,8.07,15.16c.04.11-1.74-.25-1.82-.17s1.36,1.47,1.27,1.56-1.53-1.3-1.61-1.21,1.36,1.48,1.27,1.56-1.83-.14-1.77-.03c1.47,2.68,3.31,1.63,4.88,4.26,1.57,2.62-.15,3.65,1.42,6.27s3.29,1.6,4.86,4.22-.14,3.65,1.43,6.28q1.57,2.63,4.39,3.82c3.38,1.42,3.37,1.48,7.01,1.05,3.64-.43,3.41-2.42,7.05-2.85,3.64-.43,3.88,1.55,7.52,1.12,3.64-.43,3.41-2.42,7.05-2.85s3.61-.18,7.06,1.07c1.62.59,1.26.83,1.18,2.55-.08,1.72-2.08,1.63-2.16,3.36-.08,1.73,1.92,1.82,1.84,3.54-.08,1.73-2.08,1.64-2.16,3.36-.08,1.73,2.82,3.25,1.45,4.3-2.09,1.59-3.33-1.48-5.93-1.17-2.6.31-2.37,2.29-4.97,2.6s-2.84-1.68-5.44-1.37c-2.61.31-2.37,2.3-4.98,2.6-2.61.31-7.26-2.42-6.25,0,6.64,16.02,10.69,13.99,19.59,28.87,8.91,14.88,7.19,15.91,16.1,30.8,8.91,14.88,10.62,13.86,19.53,28.74,8.91,14.89,7.19,15.91,16.1,30.8,8.91,14.89,11.89,13.26,19.57,28.82.7,1.41-2.63,1.13-3.55,2.41-.92,1.28.7,2.45-.23,3.72-.92,1.28-2.54.1-3.47,1.38s.55,2.16-.14,3.58c-1.02,2.09-2.44,3.96-3.49,2.78Z"/>
      <path class="cls-1" d="m17.53,399.93c1.42-7.98,4.83-7.02,7.74-14.58s1.05-8.28,3.96-15.84c2.91-7.56,4.78-6.84,7.69-14.41s1.05-8.28,3.96-15.85c2.91-7.56,9.07-6.93,7.75-14.93-.81-4.87-3.91,4.27-7.52,7.64-3.61,3.37-4.97,1.91-8.58,5.28-3.61,3.38-2.24,4.84-5.85,8.21-3.61,3.38-4.98,1.92-8.59,5.29s-1.76,5.88-6.04,8.35c-1.16.67-1.25-2.36-2.45-2.97s-2.1,1.18-3.3.58-.3-2.39-1.51-2.99-2.1,1.18-3.3.58-1.97-.42-1.16-1.5c4.69-6.2,4.2-6.65,9.88-11.96s7.05-3.86,12.73-9.17c5.68-5.31,4.32-6.77,10-12.09,5.69-5.32,7.05-3.86,12.74-9.17,5.69-5.32,4.27-6.85,10.01-12.1.07-.07.31,1.68.4,1.72s.99-1.74,1.07-1.7-.81,1.83-.72,1.88.99-1.74,1.08-1.7.63,1.45.66,1.35c4.39-11.11,2.43-11.87,6.72-23.02s6.16-10.43,10.45-21.57,2.43-11.86,6.72-23.01c4.29-11.15,6.16-10.43,10.45-21.58,4.29-11.15,2.35-11.91,6.72-23.02.04-.09,1.06,1.36,1.16,1.36s.02-2,.12-2.01.17,1.99.27,1.99.02-2,.12-2.01,1.04,1.6,1.09,1.51c4.28-7.07,2.49-8.14,6.7-15.25,4.21-7.11,5.93-6.09,10.14-13.21,4.21-7.11,2.49-8.13,6.7-15.24,4.21-7.12,5.93-6.1,10.14-13.21s1.51-9.02,6.79-15.38c1-1.21,2.23,1.79,3.8,1.95s1.77-1.83,3.33-1.67,1.36,2.15,2.93,2.31,1.77-1.83,3.34-1.67c1.57.16,2.64-.51,2.09.97-2.96,7.99-2.54,8.19-6.88,15.52-4.34,7.33-6.06,6.31-10.4,13.65s-2.62,8.35-6.96,15.68c-4.34,7.34-6.06,6.32-10.4,13.65-4.34,7.34-2.53,8.42-6.97,15.7-.06.1-.87-1.53-.99-1.54s-.32,1.98-.44,1.97.08-2-.04-2.01-.33,1.98-.45,1.96-1.02-1.53-1.06-1.42c-1.21,2.81.75,3.61-.35,6.46-1.1,2.85-2.96,2.13-4.06,4.99-1.1,2.85.77,3.57-.33,6.43-1.1,2.86-2.97,2.14-4.07,4.99s-1.11,2.86-.3,5.81c.96,3.54.91,3.57,3.49,6.17,2.58,2.6,4,1.19,6.58,3.79s1.17,4.01,3.75,6.61c2.59,2.6,4.01,1.19,6.59,3.8,2.59,2.6,2.37,2.74,3.51,6.22.54,1.64.12,1.5-1.28,2.51s-2.57-.63-3.97.37-.25,2.63-1.65,3.63c-1.41,1-2.57-.63-3.98.38-1.41,1-.82,4.23-2.49,3.79-2.53-.67-.88-3.53-2.73-5.39-1.85-1.86-3.27-.45-5.11-2.31s-.43-3.27-2.27-5.13c-1.85-1.86-3.27-.45-5.12-2.32-1.85-1.86-2.57-7.21-3.86-4.92-8.53,15.1-4.43,17.04-10.66,33.22-6.23,16.19-8.1,15.47-14.34,31.65-6.23,16.19-4.37,16.9-10.6,33.09-6.24,16.19-8.1,15.47-14.34,31.66-6.24,16.19-3.12,17.53-10.64,33.17-.68,1.42-2.51-1.37-4.08-1.31s-1.5,2.06-3.07,2.12-1.65-1.94-3.22-1.88c-1.58.06-1.36,1.77-2.91,2.1-2.28.49-4.62.52-4.34-1.04Z"/>
      <path class="cls-3" d="m788.11,191.23c-5.61-6.06-5.18-6.53-11.71-11.59-6.53-5.06-7.76-3.48-14.28-8.55-6.53-5.06-5.3-6.64-11.83-11.7-6.53-5.07-7.76-3.49-14.29-8.55-6.53-5.07-7.61-4.15-11.57-11.4-1.98-3.62,3.35.08,7.44.67,4.09.59,3.8,2.57,7.89,3.16,4.09.59,4.37-1.39,8.46-.8,4.09.59,3.8,2.57,7.89,3.16,4.09.59,4.07.01,8.13-.79,1.43-.28,1.39-.32,1.6-1.76s-1.77-1.73-1.56-3.17c.21-1.44,2.19-1.15,2.4-2.6s-1.77-1.73-1.56-3.17,3.13-3.16,1.76-3.68c-6.08-2.32-6.93.99-13.37.07-6.44-.93-6.15-2.91-12.59-3.84-6.44-.93-6.72,1.05-13.16.12-6.44-.93-6.15-2.91-12.59-3.84-6.44-.93-6.7.95-13.15.12-.11-.01-.88-1.03-.89-.92s1.96.39,1.95.5-2-.18-2.01-.07,1.96.39,1.95.5-.33-.65-.41-.72c-9.68-7.39-10.84-5.88-20.47-13.34-9.62-7.46-8.4-9.04-18.02-16.51-9.62-7.46-10.85-5.88-20.47-13.35-9.63-7.46-8.4-9.05-18.03-16.51-9.63-7.46-10.79-5.95-20.47-13.34-.07-.05-.23-1.34-.29-1.27s1.53,1.29,1.48,1.36-1.63-1.16-1.68-1.09c-.05.07,1.53,1.3,1.47,1.37s-.36-1.32-.43-1.36c-6.93-3.62-7.82-1.93-14.71-5.63-6.89-3.7-5.94-5.46-12.83-9.16-6.89-3.7-7.83-1.94-14.72-5.63-6.89-3.7-5.95-5.46-12.84-9.16-6.89-3.7-7.11-3.19-14.56-5.57-1.39-.44-1.27-.14-1.95,1.14s1.07,2.23.38,3.51-2.45.34-3.14,1.62c-.69,1.28,1.07,2.23.38,3.52s-4.02,1.97-2.88,2.88c6.31,5.02,8.2,2.15,15.3,5.96,7.1,3.81,6.16,5.58,13.26,9.39,7.1,3.81,8.05,2.05,15.15,5.86,7.1,3.82,6.16,5.58,13.26,9.39,7.1,3.82,7.99,2.15,15.14,5.86.1.05.47,1.26.53,1.16s-1.71-1.05-1.66-1.14,1.82.85,1.87.74-1.71-1.05-1.65-1.15.31,1.02.41,1.08c2.53,1.82,3.66.31,6.12,2.22s1.24,3.49,3.7,5.4c2.47,1.91,3.69.33,6.16,2.24s1.24,3.49,3.71,5.41,5.47-.24,6.49,2.71c2.39,6.9-1.23,7.69-.52,14.95.71,7.26,2.7,7.07,3.41,14.33.71,7.26-1.28,7.46-.57,14.72.71,7.27,2.7,7.07,3.41,14.34.71,7.27-2.58,7.9-.53,14.91.39,1.33,2.24-1.41,3.62-1.55s1.57,1.86,2.95,1.72c1.38-.13,1.18-2.13,2.56-2.26,1.38-.13,1.57,1.86,2.95,1.72,1.38-.13,1.49-.02,1.67-1.39.78-5.94,1.4-5.93.82-11.89-.58-5.96-2.57-5.77-3.16-11.73-.58-5.96,1.41-6.16.82-12.12-.58-5.96-2.57-5.77-3.16-11.74-.58-5.96-6.15-13.14-.51-11.09,16.62,6.05,14.93,9.11,28.91,19.95,13.98,10.84,12.75,12.42,26.73,23.26,13.98,10.84,15.2,9.26,29.18,20.1,13.98,10.84,12.75,12.42,26.73,23.26,13.98,10.84,14.35,10.33,29.12,20.06,1.14.75,1.08.37,1.92-.72s-.74-2.31.1-3.39c.84-1.08,2.42.14,3.26-.94s-.81-2.76.29-3.58c.9-.67,2.48.32,1.54-.69Z"/>
      <path class="cls-2" d="m850.04,411.51c-1.42-7.98-.99-8.09-3.91-15.65-2.91-7.56-4.78-6.84-7.69-14.4s-1.05-8.28-3.96-15.84c-2.91-7.56-4.78-6.84-7.69-14.41-2.91-7.56-5.23-7.33-3.91-15.32.81-4.87,3.3,2.48,6.91,5.85,3.61,3.37,2.24,4.83,5.84,8.2s4.97,1.91,8.58,5.29c3.61,3.38,2.24,4.84,5.86,8.22s4.12,2.69,8.4,5.16c1.16.67,1.15,1.16,2.35.55,1.2-.6.3-2.39,1.51-2.99,1.2-.6,2.1,1.18,3.3.58s.31-2.39,1.51-3,4.47.16,3.65-.92c-4.69-6.2-7.16-3.98-12.84-9.29-5.68-5.32-4.32-6.78-10-12.09-5.68-5.31-7.05-3.85-12.73-9.17-5.69-5.32-4.32-6.78-10-12.1-5.69-5.32-6.98-3.92-12.73-9.17-.07-.07.14-1.59.05-1.54s.81,1.83.72,1.88-.99-1.74-1.08-1.7.81,1.83.72,1.88.34-1.08.3-1.17c-4.39-11.11-6.16-10.42-10.45-21.56-4.29-11.15-2.43-11.86-6.72-23.01-4.29-11.15-6.16-10.43-10.45-21.57-4.29-11.15-2.43-11.87-6.72-23.01s-6.07-10.45-10.45-21.57c-.04-.09.87-1.37.77-1.37s-.17,1.99-.27,1.99-.02-2-.12-2.01-.18,1.99-.27,1.99.75-1.44.69-1.52c-4.28-7.07-5.92-6.08-10.13-13.19-4.21-7.11-2.49-8.13-6.7-15.24-4.21-7.11-5.93-6.09-10.14-13.2s-2.49-8.13-6.7-15.25c-4.21-7.12-4.77-6.72-10.05-13.08-1-1.21-.9-1.47-2.46-1.32s-1.36,2.15-2.93,2.31-1.77-1.83-3.33-1.67-1.36,2.15-2.93,2.31-4.72-1.81-4.17-.33c2.96,7.99,6.14,6.47,10.48,13.8,4.34,7.33,2.62,8.35,6.96,15.68s6.06,6.31,10.4,13.64c4.34,7.34,2.62,8.35,6.96,15.69,4.34,7.34,5.96,6.36,10.4,13.64.06.1-.63,1.5-.51,1.49s-.08-2,.04-2.01.33,1.98.45,1.96-.08-2,.04-2.01-.62,1.25-.57,1.36c1.21,2.81,2.95,2.1,4.05,4.95s-.77,3.57.33,6.42c1.1,2.85,2.97,2.14,4.07,4.99,1.1,2.86-.77,3.58.33,6.43,1.1,2.86,4.9,2.66,4.1,5.62-.96,3.54-4.26,1.63-6.84,4.24-2.58,2.6-1.16,4.01-3.75,6.61-2.58,2.6-4,1.19-6.59,3.8-2.59,2.6-1.17,4.01-3.75,6.62-2.59,2.6-5.69.7-6.83,4.19-.54,1.64,2.94.5,4.34,1.5s.25,2.63,1.65,3.63c1.41,1,2.57-.63,3.97.37,1.41,1,.25,2.63,1.66,3.63,1.41,1,1.47.66,3.14.22,2.53-.67,2.81-.19,4.66-2.05,1.85-1.86.43-3.27,2.27-5.13s3.27-.45,5.11-2.31c1.85-1.86.43-3.27,2.28-5.13s2.25-4.82,3.54-2.53c8.53,15.1,8.04,15.33,14.27,31.52,6.23,16.19,4.37,16.91,10.6,33.09,6.23,16.19,8.1,15.47,14.33,31.65,6.24,16.19,4.37,16.91,10.6,33.1,6.24,16.19,6.79,15.95,14.3,31.58.68,1.42.63,1.49,2.21,1.55s1.65-1.94,3.22-1.88,1.5,2.06,3.07,2.12,2.03-2.35,3.52-1.82c1.37.48,2.11,2.79,1.84,1.24Z"/>
      <path class="cls-1" d="m819.68,319.56c-.16,8.1-3.68,7.69-5.38,15.61-1.7,7.92.26,8.34-1.44,16.27-1.7,7.92-3.66,7.5-5.35,15.43-1.7,7.92.26,8.34-1.44,16.27-1.7,7.92-7.88,8.26-5.33,15.95,1.56,4.69,3.2-4.82,6.24-8.72,3.04-3.9,4.62-2.67,7.65-6.56,3.04-3.89,1.46-5.12,4.5-9.02s4.62-2.67,7.66-6.56.82-6.08,4.66-9.19c1.05-.84,1.6,2.14,2.89,2.55,1.28.41,1.89-1.5,3.17-1.09s.67,2.31,1.95,2.72,1.89-1.5,3.17-1.09,2.02.11,1.38,1.3c-3.67,6.86-3.11,7.22-7.9,13.35s-6.36,4.91-11.15,11.04c-4.78,6.13-3.21,7.36-7.99,13.5-4.79,6.14-6.36,4.91-11.15,11.05s-3.15,7.43-8.01,13.52c-.06.08-.57-1.61-.67-1.64s-.7,1.88-.8,1.85.51-1.94.41-1.97-.7,1.87-.8,1.84-.84-1.33-.87-1.23c-2.6,11.66-.55,12.11-3.06,23.78-2.5,11.68-4.46,11.26-6.97,22.94-2.51,11.68-.55,12.1-3.05,23.78-2.51,11.68-4.46,11.26-6.97,22.94-2.51,11.68-.46,12.13-3.06,23.79-.02.09-1.26-1.18-1.36-1.16s.29,1.98.19,2-.48-1.94-.58-1.92.29,1.98.19,2-1.28-1.41-1.31-1.32c-3.13,7.65-1.2,8.43-4.25,16.11-3.05,7.68-4.91,6.94-7.96,14.62-3.05,7.68-1.19,8.42-4.24,16.1-3.05,7.68-4.91,6.94-7.96,14.63-3.05,7.68-.09,9.14-4.31,16.25-.8,1.35-2.48-1.42-4.05-1.34-1.57.09-1.46,2.08-3.03,2.17s-1.68-1.91-3.25-1.82-1.46,2.08-3.04,2.17-2.53.92-2.22-.63c1.68-8.35,1.23-8.48,4.38-16.4,3.15-7.92,5-7.18,8.15-15.1,3.15-7.92,1.29-8.66,4.43-16.58,3.15-7.92,5-7.18,8.15-15.1,3.15-7.92,1.19-8.71,4.44-16.59.05-.11,1.1,1.37,1.22,1.37s.01-2,.13-2.01.23,1.99.36,1.98.01-2,.14-2.01,1.24,1.35,1.27,1.23c.76-2.96-1.31-3.45-.66-6.44.64-2.99,2.6-2.57,3.24-5.56s-1.31-3.41-.67-6.4,2.6-2.57,3.24-5.57.65-2.99-.61-5.79c-1.5-3.35-1.45-3.38-4.41-5.55-2.96-2.17-4.14-.55-7.09-2.72-2.96-2.17-1.78-3.78-4.73-5.95-2.96-2.17-4.14-.56-7.1-2.73s-2.77-2.33-4.44-5.6c-.79-1.54-.36-1.47.88-2.67s2.63.22,3.87-.99-.16-2.64,1.07-3.85c1.24-1.21,2.64.22,3.87-.99,1.24-1.21.15-4.3,1.87-4.13,2.61.26,1.42,3.35,3.53,4.9s3.3-.06,5.41,1.49.93,3.16,3.05,4.71,3.3-.06,5.42,1.49,3.66,6.72,4.58,4.26c6.07-16.25,1.72-17.52,5.36-34.48,3.64-16.96,5.59-16.54,9.23-33.5,3.64-16.96,1.68-17.38,5.32-34.34,3.64-16.96,5.59-16.54,9.23-33.5s.35-17.81,5.34-34.42c.45-1.51,2.69.97,4.24.66s1.16-2.27,2.7-2.57,1.93,1.66,3.48,1.36,1.07-1.96,2.54-2.52c2.17-.83,4.48-1.23,4.45.35Z"/>
    </g>
  </g>
</svg>