<svg width="122" height="552" viewBox="0 0 122 552" fill="none" xmlns="http://www.w3.org/2000/svg">
<path d="M91.7672 1H1.21875V550.172H91.7672C107.588 550.172 120.412 537.294 120.412 521.406V29.7669C120.412 13.8789 107.588 1 91.7672 1Z" fill="white" stroke="#CC4058" stroke-width="2" stroke-miterlimit="10"/>
<path d="M1 444.16H120.636V519.256C120.636 536.324 106.84 550.179 89.8446 550.179H1V444.16Z" fill="#CC4058"/>
<g clip-path="url(#clip0_544_738)">
<path d="M77.6085 30.3683L69.4839 26.6492L68.3204 26.117C67.6287 25.8003 66.709 26.1599 66.7319 27.0436C66.7598 28.2499 66.4726 29.4422 65.8994 30.4988C65.7697 30.7374 65.6304 30.9729 65.4814 31.2055C65.4119 31.3119 65.3406 31.4174 65.2666 31.5212C65.2323 31.5704 65.1954 31.6196 65.1602 31.6688C65.0431 31.8351 65.2182 31.599 65.1417 31.6947C64.9134 31.9854 64.6702 32.2637 64.413 32.5283C64.301 32.6532 64.1794 32.769 64.0495 32.8745C64.1991 32.7636 63.9774 32.8843 63.8867 32.938C63.7221 33.0364 63.5567 33.1339 63.3904 33.2287C63.0243 33.4362 62.6532 33.6339 62.2771 33.8217C61.3909 34.26 60.4413 34.6428 59.3958 34.8494L59.1837 34.8879C58.9426 34.9317 59.1635 34.8879 59.1969 34.8879C59.079 34.8879 58.9602 34.9129 58.8449 34.9183C58.7296 34.9236 58.6257 34.9183 58.5166 34.9183C58.286 34.9183 58.0607 34.9093 57.8302 34.895C57.7078 34.8879 58.1048 34.9424 57.8487 34.895C57.7677 34.8807 57.6867 34.8673 57.6066 34.8521C57.4165 34.8145 57.2273 34.7689 57.039 34.7188C56.5377 34.5813 56.0454 34.4119 55.5649 34.2117C54.921 33.9323 54.2923 33.6179 53.6816 33.2698C53.5161 33.1804 53.3516 33.0811 53.1888 32.9845C53.1764 32.9773 52.732 32.7332 52.9564 32.8798C52.9124 32.8457 52.8709 32.8084 52.8323 32.768C52.5949 32.5459 52.3712 32.309 52.1626 32.0588C52.0869 31.9693 52.013 31.8799 51.94 31.7904C51.9048 31.7475 51.8713 31.701 51.837 31.6589C51.9294 31.7779 51.8766 31.7135 51.8176 31.6303C51.6487 31.3951 51.4876 31.1554 51.338 30.9067C50.6216 29.7153 50.2371 28.4694 50.2731 27.0418C50.2951 26.1581 49.3755 25.7986 48.6838 26.1152L43.4034 28.5302L40.1719 30.0105C39.7838 30.1894 39.4009 30.3209 39.092 30.6241C37.8714 31.8226 36.6992 33.0784 35.5049 34.3038L29.8092 40.1481L26.304 43.7437C25.8824 44.1767 25.9273 44.8224 26.304 45.2643L34.3239 54.6237L35.4416 55.9287C36.0576 56.6443 37.2448 56.0566 37.2448 55.1702V48.8734C37.2448 47.4924 35.1327 47.4897 35.1327 48.8734V84.8559C35.1327 86.5124 35.079 88.1796 35.1327 89.8352C35.1327 89.8585 35.1327 89.8817 35.1327 89.9041C35.1365 90.1875 35.249 90.4583 35.4463 90.6587C35.6435 90.8592 35.9099 90.9735 36.1887 90.9774H71.8389C74.8311 90.9774 77.8365 91.0302 80.8331 90.9774H80.9844C81.2633 90.9735 81.5297 90.8592 81.7269 90.6587C81.9241 90.4583 82.0366 90.1875 82.0405 89.9041V50.5549C82.0405 50.0183 82.0739 49.4753 82.0405 48.9449C82.0405 48.9217 82.0405 48.8984 82.0405 48.8752H79.9284V55.706C79.9284 56.5665 81.1314 57.214 81.7316 56.4654L89.6063 46.6265L90.7002 45.2598C91.0619 44.8126 91.1403 44.1865 90.7002 43.7393L86.3334 39.2599L79.4118 32.1598L77.8215 30.5293C76.864 29.5454 75.3706 31.0659 76.3254 32.0498L80.6931 36.5301L87.6148 43.6293L89.2041 45.2598V43.7393L81.3285 53.5781L80.2364 54.9457L82.0396 55.7042V48.8734C82.0396 47.4924 79.9275 47.4897 79.9275 48.8734V88.2234C79.9275 88.7601 79.8923 89.303 79.9275 89.8334C79.9275 89.8558 79.9275 89.88 79.9275 89.9023L80.9835 88.829H39.5285C38.4725 88.829 37.4015 88.7896 36.3427 88.829C36.2917 88.829 36.2407 88.829 36.1896 88.829L37.2457 89.9023V50.5549C37.2457 50.0183 37.2791 49.4753 37.2457 48.9449C37.2457 48.9217 37.2457 48.8984 37.2457 48.8752H35.1336V55.172L36.9377 54.4109L28.9116 45.0487L27.793 43.7437V45.2643L36.304 36.5345L40.3796 32.3539C40.4676 32.2645 40.6031 32.167 40.6656 32.0605C40.648 32.091 40.3452 32.2332 40.5151 32.1956C40.6135 32.162 40.7085 32.1186 40.7985 32.0659L43.605 30.7815L49.746 27.9703L48.1566 27.0409C48.0906 29.6491 49.2611 32.1446 51.037 33.9863C51.7516 34.7269 52.6871 35.1884 53.5954 35.6419C54.6681 36.1786 55.8016 36.6607 56.9783 36.903C57.7319 37.0668 58.5065 37.107 59.2726 37.022C60.3885 36.8834 61.4366 36.5247 62.4681 36.0775C63.1968 35.7591 63.9072 35.3993 64.596 34.9997C64.9736 34.7814 65.3546 34.5686 65.675 34.2698C67.6313 32.4514 68.9118 29.7511 68.8432 27.0409L67.2538 27.9676L75.3785 31.6867L76.5401 32.2189C77.0603 32.4568 77.6763 32.3718 77.9852 31.8342C78.251 31.3745 78.1304 30.6053 77.6085 30.3683Z" fill="#CC4058"/>
</g>
<g clip-path="url(#clip1_544_738)">
<path d="M40.3559 287.105L40.2611 297.652L40.1105 314.395L40.0757 318.232C40.0631 319.705 42.5909 319.707 42.6035 318.232L42.6983 307.686L42.8489 290.943L42.8837 287.105C42.8963 285.633 40.3685 285.631 40.3559 287.105Z" fill="#CC4058"/>
<path d="M30.6237 310.706L30.5953 316.724L30.5511 326.33L30.5405 328.553C30.5342 330.026 33.062 330.027 33.0683 328.553L33.0968 322.535L33.141 312.93L33.1515 310.706C33.1579 309.234 30.6301 309.232 30.6237 310.706Z" fill="#CC4058"/>
<path d="M83.7411 310.387L83.6874 316.323L83.6021 325.793L83.5821 327.975C83.5684 329.448 86.0962 329.45 86.1099 327.975L86.1636 322.039L86.2479 312.57L86.2679 310.387C86.2816 308.914 83.7538 308.912 83.7401 310.387H83.7411Z" fill="#CC4058"/>
<path d="M42.0578 292.555L54.0648 292.643L73.0337 292.783L77.3594 292.814C78.9867 292.827 78.9888 290.538 77.3594 290.526L65.3524 290.434L46.3834 290.295L42.0578 290.264C40.4305 290.251 40.4294 292.54 42.0578 292.552V292.555Z" fill="#CC4058"/>
<path d="M42.0188 311.406L53.8868 311.448L72.7651 311.514L77.0497 311.53C78.6759 311.535 78.6781 309.247 77.0497 309.241L65.1818 309.199L46.3034 309.132L42.0188 309.117C40.3926 309.111 40.3905 311.4 42.0188 311.406Z" fill="#CC4058"/>
<path d="M83.9591 311.324L89.7794 311.367C91.4066 311.379 91.4087 309.091 89.7794 309.078L83.9591 309.035C82.3319 309.023 82.3308 311.311 83.9591 311.324Z" fill="#CC4058"/>
<path d="M32.5798 320.272L37.8123 320.256L50.268 320.217L65.4347 320.169L78.5013 320.129C80.6152 320.122 82.7427 320.178 84.8555 320.109H84.9451C86.5723 320.104 86.5755 317.816 84.9451 317.82L79.7136 317.837L67.2569 317.876L52.0901 317.923L39.0225 317.964C36.9086 317.971 34.7821 317.916 32.6683 317.984H32.5788C30.9525 317.99 30.9494 320.279 32.5788 320.273L32.5798 320.272Z" fill="#CC4058"/>
<path d="M31.8541 329.802L37.1593 329.786L49.7878 329.746L65.1651 329.698L78.3686 329.657C80.5194 329.651 82.6869 329.707 84.8324 329.636H84.9209C86.5471 329.631 86.5502 327.343 84.9209 327.348L79.6157 327.365L66.9873 327.404L51.6099 327.453L38.4053 327.494C36.2557 327.5 34.0923 327.444 31.9426 327.514H31.8541C30.2279 327.519 30.2248 329.808 31.8541 329.802Z" fill="#CC4058"/>
<path d="M76.2294 287.105L76.1346 297.652L75.984 314.395L75.9503 318.232C75.9366 319.705 78.4643 319.707 78.478 318.232L78.5728 307.686L78.7224 290.943L78.7572 287.105C78.7708 285.633 76.2431 285.631 76.2294 287.105Z" fill="#CC4058"/>
<path d="M71.5531 327.679L67.5318 329.791L57.9199 334.838L46.2499 340.966L36.1956 346.245C34.5621 347.103 32.8853 347.916 31.2854 348.82C31.2633 348.833 31.2391 348.844 31.2159 348.856C29.8098 349.595 31.0811 351.574 32.4924 350.833L36.5137 348.72L46.1256 343.673L57.7977 337.549L67.852 332.27C69.4856 331.412 71.1623 330.599 72.7622 329.695L72.8317 329.659C74.2378 328.92 72.9666 326.941 71.5552 327.683L71.5531 327.679Z" fill="#CC4058"/>
<path d="M84.93 348.714L80.9203 346.616L71.2937 341.577L59.6932 335.504L49.6221 330.231C47.9927 329.379 46.3833 328.473 44.7234 327.667L44.655 327.631C43.2436 326.893 41.9692 328.871 43.3784 329.608L47.3881 331.706L57.0148 336.745L68.6142 342.816L78.6853 348.089C80.3147 348.947 81.9241 349.848 83.584 350.653L83.6535 350.689C85.0638 351.428 86.3382 349.449 84.929 348.713L84.93 348.714Z" fill="#CC4058"/>
<path d="M27.2209 311.869L33.0422 311.912C34.6695 311.923 34.6705 309.634 33.0422 309.623L27.2209 309.58C25.5947 309.568 25.5926 311.856 27.2209 311.869Z" fill="#CC4058"/>
</g>
<path d="M91.9905 492.052C91.8436 492.052 91.7393 492.11 91.6635 492.216C91.4692 491.795 91.2701 491.375 90.9099 491.061C89.4501 489.79 88.0187 488.486 86.5731 487.2C84.3596 485.238 82.1557 483.267 79.9517 481.296C78.108 479.653 76.269 478.01 74.43 476.362C72.1929 474.367 69.9557 472.366 67.7139 470.375C65.7706 468.655 63.8605 466.896 61.8888 465.21C61.8793 465.2 61.8651 465.195 61.8556 465.186C61.903 464.935 61.8983 464.688 61.6044 464.567C61.4101 464.49 61.2869 464.587 61.23 464.756C61.211 464.746 61.1921 464.732 61.1731 464.722C60.519 464.35 59.8033 464.331 59.0782 464.355C59.064 464.355 59.0497 464.355 59.0355 464.355C58.9929 464.021 58.7464 463.949 58.4288 464.031C58.135 464.103 58.1255 464.297 58.2155 464.505C57.2866 464.765 56.7036 465.539 55.9737 466.094C55.931 466.133 55.8978 466.172 55.8552 466.21C55.1348 466.215 55.0163 466.336 55.2058 466.863C55.1964 466.872 55.1821 466.887 55.1727 466.896C54.9546 467.157 54.6845 467.355 54.4143 467.553C54.3859 467.578 54.3622 467.607 54.3385 467.631C53.6181 467.636 53.4948 467.756 53.6891 468.283C53.6749 468.298 53.6607 468.312 53.6465 468.327C53.4285 468.583 53.1583 468.781 52.8929 468.974C52.8692 468.998 52.8455 469.022 52.8218 469.047C52.1345 469.047 52.0777 469.1 52.0777 469.796C52.054 469.82 52.0303 469.844 52.0066 469.868C51.8265 470.081 51.5847 470.226 51.3714 470.4C51.3477 470.424 51.324 470.448 51.3004 470.472C50.6131 470.472 50.5562 470.525 50.5562 471.221C50.5325 471.245 50.5088 471.269 50.4851 471.293C50.3003 471.511 50.0633 471.651 49.8453 471.825C49.8216 471.849 49.8026 471.868 49.7789 471.893C49.0869 471.893 49.0348 471.946 49.0348 472.656C49.0016 472.69 48.9684 472.724 48.9352 472.762C48.8642 472.859 48.8073 472.965 48.7836 473.081C48.7836 473.096 48.7836 473.105 48.7836 473.115L48.2907 473.444C47.8499 473.381 47.6318 473.55 47.6366 473.946C47.6081 473.97 47.5844 473.995 47.556 474.019C47.428 474.154 47.3143 474.299 47.2669 474.487C47.2669 474.502 47.2669 474.516 47.2669 474.531C47.101 474.642 46.9351 474.753 46.7692 474.859C46.3284 474.797 46.1104 474.966 46.1151 475.362C46.0867 475.386 46.063 475.41 46.0346 475.434C45.9066 475.57 45.7928 475.715 45.7454 475.903C45.7454 475.918 45.7454 475.932 45.7454 475.947C45.5796 476.058 45.4137 476.169 45.2478 476.275C44.807 476.212 44.589 476.381 44.5937 476.778C44.5653 476.802 44.5416 476.826 44.5131 476.85C44.3852 476.985 44.2714 477.13 44.224 477.319C44.224 477.333 44.224 477.348 44.224 477.362C44.0581 477.474 43.8922 477.585 43.7263 477.691C43.2855 477.628 43.0675 477.797 43.0723 478.193C43.0438 478.218 43.0201 478.242 42.9917 478.266C42.8637 478.401 42.75 478.551 42.7026 478.739C42.7026 478.754 42.7026 478.768 42.7026 478.783C42.5367 478.894 42.3708 479.005 42.2049 479.112C41.7594 479.049 41.5461 479.218 41.5508 479.619C41.5224 479.648 41.4892 479.677 41.4608 479.711C41.3802 479.812 41.3233 479.928 41.2949 480.054C41.2949 480.063 41.2949 480.078 41.2949 480.088C40.9394 480.349 40.5839 480.609 40.3185 480.977C40.2948 480.977 40.2758 480.977 40.2569 480.977C40.0057 481.03 39.8635 481.199 39.7877 481.431C39.7877 481.455 39.7829 481.479 39.7782 481.503C39.4227 481.764 39.0625 482.025 38.8018 482.397C38.7828 482.397 38.7639 482.397 38.7449 482.397C38.4937 482.446 38.3468 482.615 38.271 482.852C38.2662 482.871 38.2662 482.895 38.2615 482.914C37.8728 483.141 37.5742 483.47 37.2899 483.818C37.2709 483.818 37.2472 483.818 37.2282 483.818C36.977 483.866 36.8301 484.035 36.7543 484.272C36.7543 484.301 36.7495 484.32 36.7448 484.349C36.3893 484.61 36.0291 484.871 35.7684 485.243C35.7495 485.243 35.7305 485.243 35.7115 485.243C35.4603 485.292 35.3134 485.461 35.2376 485.698C35.2376 485.727 35.2328 485.746 35.2281 485.775C34.8726 486.036 34.5124 486.297 34.2517 486.669C34.2328 486.669 34.2138 486.669 34.1948 486.669C33.9436 486.717 33.7967 486.886 33.7209 487.123C33.7209 487.152 33.7161 487.171 33.7114 487.2C33.3559 487.461 32.9957 487.722 32.735 488.094C32.7161 488.094 32.6971 488.094 32.6781 488.094C32.4269 488.143 32.28 488.312 32.2042 488.548C32.2042 488.577 32.1994 488.597 32.1947 488.626C31.8392 488.887 31.479 489.148 31.2183 489.52C31.1994 489.52 31.1804 489.52 31.1614 489.52C30.9102 489.568 30.7633 489.737 30.6875 489.974C30.6827 489.998 30.678 490.027 30.6733 490.056C30.3178 490.317 29.967 490.573 29.7016 490.94C29.6827 490.94 29.6637 490.94 29.64 490.94C29.3888 490.989 29.2466 491.158 29.166 491.394C29.166 491.423 29.1613 491.448 29.1566 491.472C28.8011 491.733 28.4456 491.994 28.1802 492.361C28.166 492.361 28.1565 492.361 28.1423 492.361C27.7773 492.467 27.5071 492.66 27.4834 493.086C27.4882 493.095 27.4929 493.105 27.4977 493.115C27.2607 493.361 27.1801 493.699 27 493.984V496.826C27.1848 496.985 27.3697 496.884 27.5545 496.835C27.5877 496.855 27.6162 496.874 27.6541 496.888C27.6873 496.893 27.7252 496.888 27.7584 496.893C27.7584 496.98 27.7583 497.067 27.8816 497.096C28.147 497.42 28.4029 497.753 28.7726 497.966C28.7726 497.966 28.7726 497.966 28.7774 497.966C28.7774 497.985 28.7821 498 28.7869 498.019C28.8959 498.275 29.0523 498.468 29.3604 498.449C29.3841 498.435 29.3983 498.43 29.422 498.42C29.621 498.715 29.9765 498.7 30.2467 498.85C30.2562 498.879 30.2704 498.908 30.2799 498.937C30.3604 498.985 30.4505 499 30.5453 498.99C30.8818 498.913 31.2231 498.927 31.5596 498.976C32.28 498.865 32.9104 498.609 33.2659 497.898C33.2659 497.874 33.2611 497.855 33.2564 497.835C33.4886 497.633 33.7209 497.43 33.9531 497.227C34.0147 497.217 34.0763 497.207 34.1332 497.193C34.2849 497.125 34.3844 497.014 34.4081 496.84C34.4081 496.826 34.4081 496.806 34.4081 496.792C34.4318 496.768 34.4555 496.743 34.4745 496.719C34.7209 496.705 34.7399 496.13 35.1238 496.444C35.1191 496.574 35.1096 496.71 35.1049 496.84C35.0954 496.864 35.0906 496.884 35.0812 496.908C35.0243 497.27 35.048 497.637 35.048 498C35.048 506.862 35.048 515.723 35.048 524.59C35.048 524.89 35.0764 525.194 34.9864 525.484C34.9295 527.19 36.6263 528.784 38.3041 528.586C38.4274 528.547 38.5506 528.543 38.6786 528.543C42.1291 528.538 45.5843 528.543 49.0348 528.543C49.2244 528.543 49.414 528.557 49.5988 528.61C50.0301 528.678 50.4377 528.673 50.76 528.306C50.76 528.272 50.7695 528.243 50.7742 528.214C51.215 528.084 51.5705 527.828 51.8596 527.47C51.8976 527.46 51.9402 527.451 51.9781 527.436C52.1819 527.354 52.3052 527.204 52.3383 526.982C52.3241 526.929 52.3146 526.88 52.3099 526.827C52.509 526.552 52.5943 526.223 52.6986 525.909C52.7317 525.89 52.7697 525.866 52.8076 525.851C52.8834 525.687 52.9024 525.508 52.8976 525.325C52.8976 525.093 52.8976 524.856 52.8976 524.624C52.8976 518.439 52.8976 512.254 52.8976 506.069C52.8976 505.755 52.8076 505.417 53.0683 505.151C53.2484 505.006 53.4616 505.025 53.6702 505.025C57.879 505.025 62.0831 505.025 66.292 505.025C66.5432 505.025 66.8038 504.987 66.9982 505.219C67.1688 505.494 67.1072 505.803 67.1072 506.098C67.1072 512.273 67.1072 518.449 67.1072 524.624C67.1072 524.856 67.1119 525.088 67.1072 525.32C67.0598 525.948 67.2067 526.528 67.548 527.054C67.5764 527.098 67.6096 527.132 67.6428 527.166C67.4864 527.842 67.6238 527.958 68.439 527.963C68.8514 528.103 69.1832 528.436 69.6382 528.46C69.6761 528.504 69.714 528.547 69.7709 528.576C69.9083 528.625 70.0505 528.62 70.1975 528.591C70.297 528.562 70.4013 528.543 70.5103 528.543C74.43 528.543 78.3497 528.514 82.2694 528.557C82.3405 528.576 82.4116 528.591 82.4875 528.601C82.5017 528.601 82.5159 528.601 82.5254 528.601C82.6249 528.905 82.8477 529.045 83.1747 528.987C83.5586 528.92 83.6439 528.649 83.6392 528.325C83.6487 528.325 83.6629 528.316 83.6724 528.316C84.9331 527.654 85.4166 526.508 85.5777 525.16C85.5872 524.933 85.5872 524.706 85.5919 524.479C85.5872 515.4 85.6062 506.316 85.5777 497.227C85.5872 497.096 85.6441 497.082 85.7247 497.115C85.6109 497.396 85.5825 497.715 85.8621 497.821C86.2413 497.961 86.6015 498.401 87.0755 498.169C87.1323 498.193 87.194 498.217 87.2556 498.237C88.1846 498.357 88.9239 497.937 89.6065 497.362C89.6207 497.347 89.6349 497.333 89.6491 497.314C89.7723 497.488 89.9382 497.459 90.1231 497.318C90.2842 497.198 90.4454 497.077 90.6065 496.956C90.9667 496.739 90.8625 496.405 90.8483 496.096C90.9051 496.038 90.962 495.98 91.0189 495.922C91.7109 495.154 91.9763 494.25 91.872 493.221C91.872 493.221 91.872 493.216 91.872 493.211H92V492.047L91.9905 492.052Z" fill="white"/>
<g clip-path="url(#clip2_544_738)">
<path d="M76.793 250.506H43.4442C42.7033 250.506 41.9602 250.524 41.2226 250.506H41.2093C41.0138 250.494 41.1493 250.515 41.0427 250.475C40.8872 250.398 40.7634 250.254 40.6972 250.073C40.6735 249.999 40.6641 249.92 40.6695 249.842C40.6695 249.768 40.6695 249.696 40.6695 249.623C40.6695 248.866 40.6695 248.109 40.6695 247.352V232.639L39.3365 234.19H73.7939C75.3778 234.19 77.0151 234.327 78.5957 234.19C78.618 234.19 78.6413 234.19 78.6646 234.19L77.3317 232.639V248.637C77.3317 249.011 77.3317 249.383 77.3317 249.755C77.3317 250.264 77.1417 250.49 76.793 250.506C76.0732 250.541 75.46 251.194 75.46 252.056C75.46 252.87 76.0698 253.642 76.793 253.607C78.2547 253.538 79.5832 252.444 79.9109 250.729C79.98 250.314 80.0091 249.891 79.9975 249.468V232.639C79.9924 232.23 79.8503 231.839 79.6014 231.55C79.3526 231.26 79.0165 231.095 78.6646 231.089H44.2039C42.6078 231.089 40.9982 231.021 39.4032 231.089H39.3332C38.9813 231.095 38.6452 231.26 38.3964 231.55C38.1475 231.839 38.0054 232.23 38.0003 232.639V248.97C38.0003 249.781 37.9814 250.55 38.2624 251.325C38.7867 252.767 39.9808 253.59 41.307 253.607C41.6236 253.607 41.9413 253.607 42.259 253.607H68.09C70.9447 253.607 73.8116 253.697 76.6663 253.607H76.793C78.5113 253.607 78.5147 250.506 76.793 250.506Z" fill="#CC4058"/>
<path d="M87.9204 215.89C87.4641 210.522 85.7992 205.216 82.6289 200.778C79.5734 196.508 75.3232 193.202 70.3939 191.26C65.1122 189.164 59.1262 188.674 53.5322 189.638C48.1445 190.569 43.16 193.055 39.2121 196.778C35.3332 200.454 32.6257 205.285 31.4401 210.452C31.121 211.85 30.9022 213.268 30.7851 214.696C30.6857 215.906 30.713 217.117 30.6475 218.328C30.5274 220.564 30.26 222.788 30.07 225.018C29.9237 226.736 30.0427 228.509 30.0427 230.233V251.476C30.0427 252.12 30.0351 252.755 30.0427 253.394C30.0787 256.277 32.2556 258.825 35.2633 258.949C36.557 259.001 37.8627 258.949 39.1564 258.949H82.1452C84.0088 258.949 85.654 258.136 86.7305 256.629C87.5613 255.467 87.7338 254.118 87.7338 252.747V227.992C87.7338 226.084 87.7894 224.197 87.8637 222.289C87.9466 220.168 88.082 218.009 87.9183 215.89C87.8637 215.196 87.3549 214.601 86.6082 214.601C85.9422 214.601 85.2435 215.192 85.2981 215.89C85.5514 219.11 85.1245 222.331 85.1136 225.552C85.106 227.806 85.1136 230.061 85.1136 232.321V252.456C85.1136 252.73 85.1136 253.003 85.1136 253.277C85.1136 253.801 85.0317 254.321 84.8396 254.716C84.2654 255.897 83.3505 256.374 82.1103 256.374H36.747C36.3103 256.374 35.8823 256.38 35.45 256.374C34.7953 256.372 34.1643 256.133 33.676 255.705C33.3536 255.409 33.0974 255.051 32.9237 254.652C32.75 254.254 32.6627 253.824 32.6672 253.391C32.6432 251.401 32.6672 249.408 32.6672 247.418V226.855C32.6672 224.405 33.0122 221.985 33.1934 219.542C33.2775 218.414 33.2917 217.287 33.3266 216.159C33.3594 214.872 33.4919 213.589 33.7229 212.322C34.1634 209.863 34.9627 207.478 36.0963 205.243C38.378 200.81 41.841 197.241 46.2406 194.852C48.5088 193.622 50.9582 192.747 53.5006 192.259C56.1305 191.734 58.9341 191.627 61.73 191.866C62.0575 191.894 62.3785 191.927 62.7005 191.965C62.7453 191.97 63.0772 192.011 62.9429 191.992C63.138 192.018 63.3326 192.047 63.527 192.078C64.1987 192.183 64.8658 192.309 65.5281 192.458C66.7901 192.744 68.0304 193.116 69.24 193.571C69.8775 193.81 70.1788 193.937 70.8295 194.242C71.3841 194.501 71.93 194.778 72.4671 195.075C73.013 195.378 73.5534 195.703 74.0774 196.046C74.3197 196.205 74.5592 196.368 74.7957 196.535C74.9224 196.624 75.049 196.715 75.1746 196.806L75.3351 196.925C75.4322 196.998 75.2783 196.88 75.4442 197.005C79.2837 199.993 82.1647 204.008 83.7413 208.567C84.1535 209.747 84.4907 210.951 84.7512 212.172C85.0171 213.398 85.1995 214.64 85.297 215.89C85.356 216.583 85.8571 217.178 86.6071 217.178C87.2741 217.178 87.9794 216.586 87.9204 215.89Z" fill="#CC4058"/>
<path d="M87.9203 224.01C87.4585 218.982 85.7784 214.063 82.6626 210.01C79.5468 205.956 75.3775 202.98 70.5761 201.176C65.2922 199.192 59.3925 198.727 53.8192 199.566C48.5255 200.359 43.4795 202.586 39.4369 206.051C35.6142 209.338 32.8719 213.668 31.559 218.491C31.2182 219.778 30.9774 221.088 30.8385 222.411C30.7107 223.575 30.7293 224.737 30.6714 225.905C30.571 228.071 30.2871 230.225 30.0808 232.382C29.9203 234.073 30.047 235.818 30.047 237.514V257.517C30.047 258.289 30.0153 259.06 30.1627 259.823C30.6376 262.279 32.9804 263.952 35.4532 263.981C36.8266 263.997 38.2021 263.981 39.5766 263.981H79.6745C81.3645 263.981 83.168 264.161 84.7401 263.445C86.6637 262.562 87.7315 260.604 87.7358 258.567C87.7358 257.736 87.7358 256.904 87.7358 256.072V235.617C87.7358 233.797 87.7762 232.002 87.8548 230.185C87.9443 228.145 88.0928 226.053 87.9203 224.01C87.8625 223.316 87.3603 222.722 86.6103 222.722C85.9476 222.722 85.2412 223.312 85.3002 224.01C85.5546 227.016 85.1168 230.027 85.1157 233.028V258.377C85.1157 258.529 85.1157 258.68 85.1157 258.831C85.1062 259.317 84.9546 259.789 84.679 260.192C84.5474 260.39 84.3895 260.571 84.2096 260.728C84.0687 260.858 84.1921 260.763 84.0338 260.872C83.8787 260.979 83.7156 261.074 83.5458 261.157C83.1749 261.322 82.7726 261.407 82.3656 261.408H35.5591C35.3049 261.413 35.0508 261.391 34.8014 261.343C33.7719 261.1 33.0121 260.386 32.7512 259.419C32.6816 259.125 32.6526 258.824 32.6649 258.522V234.215C32.6649 231.823 33.0361 229.466 33.2108 227.08C33.2927 225.989 33.2828 224.9 33.3396 223.808C33.3724 223.181 33.4269 222.553 33.5099 221.93C33.5099 221.899 33.5307 221.778 33.5099 221.93C33.5197 221.863 33.5296 221.794 33.5405 221.725C33.5656 221.566 33.5907 221.403 33.6191 221.25C33.67 220.956 33.7268 220.664 33.7894 220.374C34.0395 219.201 34.38 218.048 34.808 216.926C34.8899 216.712 35.0471 216.32 35.0951 216.207C35.1508 216.077 35.3342 215.67 35.4444 215.444C35.697 214.921 35.9677 214.407 36.2567 213.902C38.6159 209.809 42.1444 206.619 46.4763 204.496C51.1434 202.206 56.5333 201.431 61.8401 201.868C64.4028 202.081 66.9266 202.619 69.349 203.468C70.4561 203.853 71.532 204.32 72.5674 204.864C73.6347 205.418 74.6612 206.044 75.6395 206.738C76.1177 207.079 76.3895 207.287 76.9081 207.721C77.3499 208.089 77.7778 208.473 78.192 208.872C78.6207 209.284 79.0333 209.711 79.43 210.152C79.6214 210.367 79.8081 210.582 79.99 210.797C80.0752 210.897 80.1582 211 80.2411 211.102C80.358 211.245 80.2542 211.113 80.4027 211.306C81.1136 212.234 81.7565 213.209 82.3263 214.227C82.8767 215.197 83.3512 216.207 83.7456 217.249C84.1568 218.337 84.4938 219.451 84.7543 220.583C85.0181 221.709 85.2005 222.853 85.3002 224.004C85.3646 224.697 85.857 225.293 86.6103 225.293C87.2697 225.298 87.9847 224.707 87.9203 224.01Z" fill="#CC4058"/>
<path d="M77.8559 234.82C78.7728 234.734 79.5686 234.195 79.8853 233.126C80.1654 232.18 79.8987 231.331 79.4508 230.541C78.6785 229.169 77.7087 227.968 76.5856 226.993C74.6196 225.284 72.1834 224.506 69.7639 224.495C67.7701 224.482 65.7763 224.495 63.7835 224.495H53.5177C51.6706 224.495 49.8168 224.44 47.9696 224.495C45.2001 224.587 42.5405 225.727 40.4511 227.896C39.9749 228.395 39.5389 228.946 39.1486 229.541C38.6562 230.281 38.0661 231.092 38.0061 232.067C37.9116 233.578 38.9352 234.713 40.1655 234.766C41.4914 234.824 42.8261 234.766 44.152 234.766L63.3557 234.799L77.6325 234.818H77.8548C79.5708 234.818 79.573 231.664 77.8548 231.664L66.7876 231.644L47.5362 231.618L41.3069 231.609H40.5467C40.4622 231.609 40.2499 231.561 40.1721 231.609C40.2577 231.557 40.5934 231.862 40.6423 232.09C40.6912 232.317 40.4333 232.771 40.6801 232.397C40.7456 232.299 40.8001 232.178 40.8601 232.073C41.0369 231.761 41.2318 231.464 41.4436 231.184C42.1898 230.162 43.1032 229.329 44.1287 228.735C46.187 227.518 48.4887 227.651 50.8292 227.651H68.3336C68.8159 227.651 69.2994 227.651 69.7784 227.651C72.0089 227.667 74.1783 228.509 75.8043 230.298C76.1876 230.718 76.5418 231.174 76.8635 231.661C77.0235 231.914 77.1469 232.226 77.3225 232.459C77.5836 232.803 77.3047 232.399 77.3558 232.15C77.3809 232.015 77.4434 231.894 77.5334 231.806C77.6235 231.718 77.7359 231.669 77.8526 231.665C77.1346 231.732 76.5189 232.342 76.5189 233.242C76.5223 234.044 77.1369 234.888 77.8559 234.82Z" fill="#CC4058"/>
<path d="M72.3697 232.403L69.828 233.06C69.5142 233.141 69.3158 233.506 69.385 233.874L70.5886 240.281C70.6578 240.649 70.9683 240.882 71.2821 240.801L73.8238 240.144C74.1376 240.063 74.336 239.698 74.2668 239.33L73.0632 232.923C72.994 232.554 72.6835 232.322 72.3697 232.403Z" fill="#CC4058"/>
<path d="M51.9133 192.249C52.3711 191.29 52.9291 190.38 53.5782 189.535C53.481 189.657 53.6644 189.428 53.6874 189.407C53.7627 189.319 53.8369 189.231 53.9134 189.145C54.0473 188.995 54.1859 188.848 54.3293 188.705C54.4727 188.562 54.6135 188.428 54.7518 188.302C54.8446 188.219 54.9407 188.137 55.0367 188.057C55.0749 188.024 55.3533 187.806 55.1568 187.956C55.4376 187.745 55.7323 187.552 56.0389 187.379C56.2016 187.287 56.3665 187.2 56.5357 187.118C56.6023 187.087 56.6689 187.058 56.7355 187.026C56.9702 186.919 56.5575 187.081 56.8741 186.972C57.1876 186.86 57.5073 186.765 57.8315 186.687C57.9986 186.649 58.1678 186.623 58.3359 186.591C58.4036 186.577 58.5892 186.57 58.289 186.591C58.3894 186.582 58.4899 186.571 58.5914 186.563C58.9227 186.539 59.2554 186.536 59.587 186.556C59.7355 186.564 59.8829 186.579 60.0303 186.593C60.2344 186.614 59.7028 186.53 60.0226 186.593C60.1187 186.613 60.2159 186.626 60.3119 186.644C60.6154 186.703 60.9154 186.778 61.2104 186.869C61.3491 186.912 61.4877 186.959 61.6242 187.009C61.7159 187.042 61.8054 187.078 61.896 187.116C61.6952 187.039 61.8043 187.075 61.9375 187.137C62.4986 187.401 63.0365 187.711 63.5456 188.063C63.6089 188.107 63.788 188.247 63.5456 188.063C63.5948 188.101 63.645 188.138 63.693 188.178C63.812 188.277 63.931 188.374 64.0467 188.476C64.2759 188.678 64.4945 188.89 64.7018 189.113C64.8229 189.244 64.9354 189.381 65.0511 189.517C64.8404 189.271 65.0904 189.572 65.1603 189.673C65.3398 189.927 65.5028 190.191 65.6483 190.465C65.6952 190.556 65.9027 191.046 65.7575 190.673C65.8099 190.809 65.8666 190.943 65.9103 191.083C65.954 191.223 65.9933 191.355 66.026 191.493C66.0544 191.61 66.1352 192.115 66.073 191.672C66.1625 192.363 66.6123 192.961 67.383 192.961C68.0228 192.961 68.7826 192.368 68.6931 191.672C68.3274 188.822 66.24 186.436 63.6985 185.124C60.7388 183.599 57.1667 183.566 54.3271 185.393C52.2408 186.735 50.7375 188.767 49.6578 190.949C49.3478 191.574 49.4853 192.344 50.1273 192.71C50.7037 193.042 51.6087 192.877 51.9199 192.249H51.9133Z" fill="#CC4058"/>
</g>
<g clip-path="url(#clip3_544_738)">
<path d="M83.1978 128.041C81.4024 121.794 74.4451 119.39 68.6694 118.455C65.9442 118.02 63.1895 117.795 60.4298 117.782C59.0458 117.772 57.6705 117.829 56.2887 117.796C53.9817 117.739 51.6734 117.827 49.3773 118.058C46.293 118.37 43.1836 118.905 40.2777 120.019C37.4101 121.113 34.6705 122.762 32.9757 125.398C32.3685 126.342 31.8707 127.437 31.7274 128.554C31.6377 129.253 31.5483 129.953 31.4593 130.653L29.6092 145.145L29.5644 145.49C29.5129 145.899 29.8445 146.454 30.2154 146.623L33.8576 148.293C35.2329 148.923 36.5928 149.632 38.0315 150.118C41.1574 151.176 44.4243 151.878 47.6891 152.344C49.3641 152.584 51.0272 152.658 52.7154 152.744L57.4353 152.981L56.1224 151.668V151.675C56.1278 152.357 56.7186 153.024 57.4353 152.988C57.4754 152.985 57.5155 152.985 57.5556 152.988C58.2701 153.024 58.862 152.356 58.8685 151.675V151.668L57.5556 152.981L61.5283 152.781C62.99 152.707 64.4757 152.702 65.9298 152.528C69.2722 152.138 72.5739 151.456 75.7974 150.49C77.4265 149.996 78.9112 149.311 80.4528 148.606L84.7766 146.623C85.1475 146.454 85.479 145.899 85.4276 145.49L83.5129 130.501L83.2438 128.392C83.1541 127.689 82.7055 127.079 81.9309 127.079C81.2919 127.079 80.5283 127.684 80.618 128.392L82.5326 143.381L82.8018 145.49L83.4517 144.356L79.8587 145.997L77.525 147.066C77.2908 147.176 77.0578 147.285 76.8237 147.388C76.7744 147.41 76.7263 147.435 76.6771 147.455C76.5961 147.488 76.8466 147.381 76.8193 147.387C76.6026 147.446 76.3899 147.519 76.1825 147.606C73.0797 148.646 69.8423 149.342 66.6048 149.805C65.176 150.009 63.6836 150.039 62.2285 150.112L57.56 150.348C56.8466 150.384 56.2547 150.92 56.2471 151.66V151.667L57.56 150.354C57.5199 150.352 57.4797 150.352 57.4396 150.354L58.7526 151.667V151.66C58.746 150.924 58.1563 150.384 57.4396 150.348C54.7493 150.212 52.025 150.195 49.3434 149.926C46.1836 149.608 42.9506 148.877 39.8959 147.95C39.5611 147.849 39.2274 147.743 38.8948 147.632C38.7077 147.57 38.5217 147.501 38.3335 147.441C38.1147 147.37 38.2164 147.412 38.3226 147.455C38.1771 147.397 38.0359 147.323 37.8937 147.259L35.8204 146.308L31.5436 144.349L32.1935 145.482L33.8237 132.72L34.2186 129.62L34.3368 128.694C34.3466 128.616 34.3532 128.534 34.3674 128.455C34.4134 128.205 34.2197 128.816 34.3893 128.529C34.4604 128.369 34.5168 128.203 34.5578 128.034C34.5808 127.969 34.6081 127.904 34.6333 127.841C34.5239 128.114 34.6103 127.892 34.642 127.823C34.791 127.501 34.9572 127.187 35.1399 126.883C35.2974 126.625 35.4681 126.377 35.6497 126.136C35.4484 126.403 35.7679 125.998 35.8237 125.934C35.9451 125.794 36.0698 125.658 36.1989 125.525C36.4178 125.294 36.6574 125.073 36.9003 124.863C37.0305 124.753 37.1628 124.644 37.2963 124.535C37.0578 124.726 37.4484 124.425 37.5283 124.368C38.1052 123.961 38.7107 123.595 39.3401 123.274C39.6632 123.108 39.9914 122.952 40.3248 122.806L40.5261 122.718C40.2744 122.828 40.5042 122.727 40.5687 122.702C40.758 122.627 40.9462 122.551 41.1366 122.483C41.839 122.22 42.5534 121.992 43.2755 121.791C44.6881 121.407 46.123 121.11 47.572 120.902C47.7536 120.875 47.9353 120.85 48.1191 120.825C47.7908 120.869 48.351 120.796 48.4199 120.788C48.7744 120.745 49.1289 120.706 49.4845 120.671C50.1606 120.604 50.8379 120.551 51.5162 120.511C52.6694 120.438 53.824 120.403 54.9801 120.408C56.2843 120.408 57.5775 120.446 58.8806 120.419C61.1645 120.369 63.4493 120.46 65.7219 120.692C66.0611 120.727 66.3995 120.766 66.7372 120.808L67.0075 120.843C66.7263 120.807 66.9265 120.831 66.9856 120.843C67.2044 120.874 67.4232 120.905 67.642 120.938C68.3827 121.048 69.1202 121.187 69.8532 121.343C71.2891 121.642 72.6994 122.052 74.0709 122.572C74.2423 122.638 74.4134 122.707 74.5841 122.777C74.3083 122.668 74.8149 122.88 74.8751 122.909C75.2033 123.059 75.5275 123.218 75.8477 123.387C76.4692 123.718 77.0672 124.091 77.6377 124.504C77.6935 124.544 77.7471 124.586 77.8029 124.628C77.5469 124.434 77.8215 124.644 77.8609 124.678C77.9703 124.765 78.0709 124.852 78.1738 124.943C78.4533 125.188 78.7199 125.448 78.9725 125.721C79.0742 125.83 79.1738 125.945 79.2712 126.061C79.3248 126.124 79.3806 126.19 79.4298 126.256C79.2525 126.037 79.3729 126.178 79.4079 126.228C79.6114 126.517 79.8105 126.805 79.9856 127.111C80.1474 127.391 80.2935 127.68 80.4232 127.977C80.293 127.675 80.4878 128.163 80.5151 128.241C80.5731 128.408 80.6245 128.57 80.6727 128.744C81.1289 130.361 83.6672 129.671 83.1978 128.041Z" fill="#CC4058"/>
<path d="M82.8709 144.433C72.5449 149.777 60.1565 151.168 48.7287 149.62C43.2188 148.874 37.7243 147.385 32.7166 144.944C31.6455 144.422 30.4836 143.622 29.4344 144.651C29.2309 144.851 29.0405 145.066 28.8435 145.273L26.0295 148.237L20.3676 154.201C19.8425 154.748 19.907 155.495 20.3676 156.061C20.6204 156.37 20.9847 156.619 21.2976 156.855C22.0928 157.435 22.9434 157.936 23.837 158.348C28.1772 160.427 32.9891 161.507 37.709 162.309C41.942 163.029 46.2188 163.496 50.5 163.814C53.1608 164.013 55.8797 164.288 58.546 164.159C61.1718 164.032 63.7888 163.846 66.4015 163.587C73.4311 162.892 80.5263 161.767 87.2319 159.484C89.6193 158.671 92.1827 157.762 94.2812 156.318L94.3556 156.266C95.0438 155.764 95.2495 154.866 94.6214 154.204L86.3621 145.502C86.128 145.255 85.8993 145.004 85.6608 144.763C85.6182 144.72 85.5799 144.672 85.5361 144.632C84.9825 144.119 84.2232 144.246 83.5306 144.256C81.8435 144.283 81.8381 146.91 83.5306 146.882L84.5996 146.865L83.6718 146.481L91.64 154.876L92.7648 156.061L93.0306 153.998C92.634 154.274 92.2192 154.522 91.7888 154.741C91.2549 155.028 90.709 155.294 90.1576 155.543C89.9814 155.624 89.8042 155.702 89.6269 155.778L89.4015 155.876C89.174 155.975 89.7144 155.748 89.4814 155.842L89.3009 155.917C88.8632 156.098 88.4256 156.27 87.9814 156.436C82.1565 158.624 75.8446 159.828 69.7746 160.585C67.3807 160.884 64.9799 161.119 62.5722 161.289C61.2659 161.384 59.9588 161.464 58.651 161.528C57.2899 161.595 55.9398 161.519 54.5799 161.447C52.0832 161.314 49.5886 161.138 47.0996 160.9C45.0361 160.704 42.907 160.462 41.0022 160.183C37.8667 159.75 34.7585 159.138 31.6926 158.351C30.581 158.058 29.477 157.734 28.3884 157.366C27.9398 157.214 27.4923 157.054 27.0492 156.886C26.8436 156.807 26.6379 156.727 26.4322 156.644L26.1696 156.534C25.8195 156.391 26.4158 156.644 26.1204 156.514C25.0635 156.049 24.0186 155.544 23.0569 154.897C22.9103 154.798 22.7702 154.693 22.628 154.591C22.4245 154.446 22.9562 154.86 22.7155 154.658C22.6674 154.616 22.616 154.577 22.5678 154.535C22.4584 154.441 22.3632 154.331 22.2538 154.239C22.2408 154.228 22.2294 154.215 22.2199 154.201V156.061L30.2155 147.636C30.6127 147.218 31.0011 146.789 31.4103 146.385L30.8381 146.721L30.9398 146.696H30.2418C30.3271 146.713 30.57 146.806 30.5372 146.787L30.9464 146.993C31.3177 147.179 31.6915 147.361 32.0678 147.54C32.8873 147.922 33.7177 148.279 34.5558 148.621C36.1302 149.261 37.7385 149.824 39.3698 150.302C42.9446 151.345 46.6066 152.06 50.3107 152.44C57.9595 153.259 65.8239 152.756 73.2801 150.835C77.0614 149.871 80.722 148.484 84.1926 146.7C84.8217 146.371 85.0088 145.496 84.6641 144.903C84.2932 144.264 83.5022 144.106 82.8709 144.433Z" fill="#CC4058"/>
</g>
<g clip-path="url(#clip4_544_738)">
<path d="M28.0084 431.998L29.6882 431.991L34.2615 431.97L41.0618 431.938L49.3262 431.899L58.3735 431.856L67.5079 431.814L76.0263 431.774L83.259 431.74L88.4342 431.716C89.252 431.716 90.0715 431.727 90.8892 431.704H90.9918C92.335 431.698 92.3376 429.552 90.9918 429.559L89.312 429.567L84.7387 429.587L77.9384 429.619L69.674 429.658L60.6267 429.701L51.4923 429.743L42.9739 429.783L35.7412 429.817L30.566 429.841C29.7482 429.841 28.9288 429.829 28.111 429.853H28.0084C26.6652 429.859 26.6626 432.005 28.0084 431.998Z" fill="#D62A47"/>
<path d="M65.6984 367.529L64.8145 369.186L62.3952 373.72L58.8285 380.399L54.4788 388.547L49.6941 397.511L44.8938 406.522L40.4102 414.925L36.6059 422.057L33.8822 427.162C33.4472 427.966 33.0061 428.771 32.5903 429.583C32.572 429.618 32.552 429.653 32.5337 429.688C31.8874 430.899 33.6899 431.984 34.3363 430.771L35.2201 429.114L37.6394 424.581L41.2062 417.901L45.5558 409.753L50.3405 400.789L55.1478 391.779L59.6314 383.376L63.4357 376.245L66.1595 371.14C66.5901 370.336 67.0355 369.531 67.4513 368.718C67.4696 368.683 67.4887 368.648 67.5079 368.613C68.1542 367.401 66.3517 366.318 65.7053 367.53L65.6984 367.529Z" fill="#D62A47"/>
<path d="M86.9611 430.113L86.106 428.512L83.7806 424.154L80.3409 417.707L76.1434 409.839L71.5241 401.182L66.8812 392.48L62.5524 384.366L58.8908 377.512L56.2593 372.579C55.8435 371.8 55.4476 371.005 55.0109 370.239C54.9918 370.205 54.9744 370.171 54.9561 370.137C54.3106 368.926 52.5064 370.008 53.1536 371.22L54.0079 372.821L56.3332 377.179L59.773 383.626L63.9704 391.493L68.5898 400.151L73.2326 408.853L77.5614 416.967L81.223 423.822L83.8581 428.754C84.273 429.533 84.6688 430.328 85.1064 431.095C85.1256 431.128 85.1421 431.162 85.1604 431.196C85.8067 432.407 87.6101 431.325 86.9637 430.113H86.9611Z" fill="#D62A47"/>
<path d="M58.6039 406.811C55.1937 412.579 52.269 418.627 49.139 424.555C48.2586 426.222 47.3617 427.879 46.4326 429.518C45.7558 430.714 47.5592 431.795 48.236 430.6C51.5365 424.774 54.4334 418.72 57.6217 412.827C58.5213 411.164 59.4492 409.518 60.4055 407.89C61.1015 406.707 59.2998 405.627 58.603 406.807L58.6039 406.811Z" fill="#D62A47"/>
<path d="M72.9024 430.179C69.6315 424.145 66.5623 418 63.2931 411.964C62.3733 410.266 61.4341 408.578 60.4754 406.902C59.7934 405.714 57.9882 406.792 58.6729 407.986C62.0656 413.9 65.1478 419.994 68.3179 426.036C69.2348 427.784 70.1627 429.526 71.1017 431.262C71.7559 432.468 73.5601 431.388 72.9051 430.179H72.9024Z" fill="#D62A47"/>
</g>
<defs>
<clipPath id="clip0_544_738">
<rect width="65" height="65" fill="white" transform="translate(26 26)"/>
</clipPath>
<clipPath id="clip1_544_738">
<rect width="65" height="65" fill="white" transform="translate(26 286)"/>
</clipPath>
<clipPath id="clip2_544_738">
<rect width="58" height="80" fill="white" transform="translate(30 184)"/>
</clipPath>
<clipPath id="clip3_544_738">
<rect width="75" height="46.4103" fill="white" transform="translate(20 117.779)"/>
</clipPath>
<clipPath id="clip4_544_738">
<rect width="65" height="65" fill="white" transform="translate(27 367)"/>
</clipPath>
</defs>
</svg>
