<?xml version="1.0" encoding="UTF-8"?>
<svg id="_圖層_2" data-name="圖層 2" xmlns="http://www.w3.org/2000/svg" xmlns:xlink="http://www.w3.org/1999/xlink" viewBox="0 0 183 227">
  <defs>
    <style>
      .cls-1 {
        fill: #fff;
      }

      .cls-2 {
        fill: #cd1214;
      }

      .cls-3 {
        stroke-width: .5px;
      }

      .cls-3, .cls-4 {
        fill: none;
      }

      .cls-3, .cls-5 {
        stroke: #fff;
        stroke-miterlimit: 10;
      }

      .cls-6 {
        clip-path: url(#clippath);
      }

      .cls-5 {
        fill: #b61c31;
        filter: url(#drop-shadow-1);
        stroke-width: 7px;
      }
    </style>
    <filter id="drop-shadow-1" filterUnits="userSpaceOnUse">
      <feOffset dx="2.83" dy="2.83"/>
      <feGaussianBlur result="blur" stdDeviation="5.67"/>
      <feFlood flood-color="#000" flood-opacity=".73"/>
      <feComposite in2="blur" operator="in"/>
      <feComposite in="SourceGraphic"/>
    </filter>
    <clipPath id="clippath">
      <path class="cls-4" d="m165.99,119.73c-12.54,36.23-66.94,53.21-102.76,40.81-35.82-12.39-44.08-50.66-31.54-86.88,12.54-36.23,48.13-56.79,83.94-44.4,35.82,12.39,62.89,54.25,50.35,90.47Z"/>
    </clipPath>
  </defs>
  <g id="_圖層_1-2" data-name="圖層 1">
    <g>
      <path class="cls-5" d="m155.82,129.62c-12.03,34.78-60.49,42.02-95.27,29.99S10.2,118.57,22.23,83.8C34.26,49.02,74.87,7.98,109.65,20.01c34.78,12.03,58.2,74.83,46.17,109.61Z"/>
      <g class="cls-6">
        <g>
          <g>
            <path d="m50.07,99.99c-5.46,4.02-10.16,8.9-11.95,15.68-.87,3.27-.74,6.84-.8,10.28-.12,7.26,3.4,13.31,6.59,19.38,1.98,3.77,4.72,7.01,8.03,9.73,1.76,1.45,3.37,3.11,5,4.71.56.54.43,1.02-.31,1.43-2.41,1.32-5.01.88-6.73-1.72-1.7-2.57-2.96-5.44-4.43-8.18-.12-.22-.37-.38-.56-.56-.13.19-.33.36-.39.57-.84,3.08-.71,6.17-.25,9.27.07.47.14.94-.05,1.58-1.14-1.77-2.29-3.53-3.58-5.54-.11,1.07-.32,1.99-.26,2.88.09,1.37.35,2.73.55,4.09.59,3.85,2.36,7.23,4.1,10.6.45.87.53,1.58.18,2.5-.67,1.78-1.43,3.57-1.73,5.43-.41,2.51-.65,5.09-.54,7.62.08,1.87.83,3.7,1.23,5.56.04.17-.23.53-.44.62-1.85.85-3.76,1.58-5.54,2.55-.5.27-.78,1.23-.87,1.91-.04.28.63.81,1.07.97,3.04,1.1,6.12,2.09,9.15,3.21,1.76.65,3.48,1.44,5.18,2.25,1.29.61,2.48-.36,2.76-1.39.32-1.15.6-2.55.24-3.6-.62-1.83.4-3.17.81-4.69.07-.26.16-.55.34-.73.27-.28.6-.57.95-.67.14-.04.47.33.63.58,1.16,1.75,2.54,3.44,2.14,5.77-.31,1.79-.85,3.55-1.07,5.35-.18,1.48.01,2.99-.07,4.48-.03.57-.28,1.22-.63,1.68-1.07,1.38-2.36,2.6-3.35,4.04-.87,1.28-.26,2.48,1.18,2.94,1.5.48,3.05.91,4.46,1.6,1.6.79,3,2.01,4.61,2.77,1.64.77,3.41,1.31,5.17,1.77.8.21,1.56-1.27,1.18-2.17-1.09-2.57-2.04-5.22-3.35-7.67-.99-1.84.09-5.02,1.57-6.76,1.79-2.09,4.16-1.88,6.42-2.47,3.02-.79,6.08-1.89,8.73-3.53,2.53-1.56,4.66-3.87,6.75-6.06,1.68-1.77,3.02-3.87,4.52-5.81,1.81-2.34,3.74-4.6,5.44-7.02,1.31-1.87,2.17-4.06,3.53-5.88,3.06-4.1,3.83-9,5.24-13.7.2-.68.66-1.43,1.22-1.84,5.81-4.19,11.64-8.35,17.5-12.46,4-2.81,6.3-6.88,8.22-11.21,3.29-7.4,4.23-15.04,2.15-22.91-.11-.43-.24-.87-.41-1.28-.51-1.19-1.06-2.45-2.56-2.48-1.5-.04-2.35,1.13-2.94,2.31-1.63,3.27-3.05,6.64-4.74,9.88-1.53,2.94-3.52,5.56-6.22,7.54-2.44,1.78-4.5,1.83-6.95.17-3.86-2.63-7.83-5.11-11.54-7.94-2.85-2.16-5.37-4.76-8.05-7.15-.33-.29-.72-.5-1.32-.89,1.39.06,2.55.23,3.68.14,4.16-.34,8.35-.52,12.45-1.22,6.69-1.14,13.37-.84,20.06-.76.21,0,.44.08.64.02.7-.21,1.38-.47,2.07-.7-.4-.67-.64-1.69-1.22-1.94-3.13-1.36-6.29-2.72-9.54-3.73-4.46-1.38-9.02-2.42-13.52-3.65-4.88-1.34-9.11-4.01-13.3-6.73-5.18-3.35-10.86-4.7-16.91-3.5-8.32,1.65-12.45,6.11-13.39,15.22-.71,6.85.47,13.45,1.96,20.04.04.19.1.38.26,1.01-1.15-.74-2.14-1.15-2.86-1.86-4.15-4.1-6.71-9.17-7.02-15.02-.24-4.53.47-9.12.76-13.68.05-.81.17-1.62.16-2.43-.03-1.76-.9-2.69-2.49-2.1-2.43.9-4.92,1.95-7,3.48Zm-2.77,81.44c2.95-9.2,8.16-16.54,17.06-20.8,2.49-1.19,5.08-2.35,6.75-4.78,2.82-4.12,3.79-8.87,3.59-13.63-.23-5.53-1.15-11.03-2.01-16.5-.66-4.24-2.04-8.37-1.64-12.76.32-3.49.89-6.99,3.65-9.43,5.9-5.21,12.51-6,19.58-2.98.72.31,1.36.77,2.44,1.4-.79.11-1.09.14-1.39.19-1.73.28-3.48.5-5.19.87-.92.2-1.4.85-1.14,1.92.21.87.33,1.77.45,2.66.31,2.26.12,2.72-1.99,3.51-2.19.82-4.46,1.41-6.66,2.21-.45.17-.91.8-1.05,1.3-.34,1.18.31,1.84,1.4,2.17,3.2.98,6.53,1.68,9.57,3.03,6.45,2.86,11.41,7.48,14.33,14.11,3.04,6.92,3.39,14.25,3.01,21.74-.4,7.9-2.07,15.45-6.02,22.33-4.54,7.92-10.24,14.95-16.83,21.22-3.94,3.75-8.38,6.08-13.99,5.25-.68-.1-1.73.5-2.22,1.1-.97,1.19-1.66,2.62-2.46,3.94-.59.97-1.34,1.49-2.43.79-1.16-.74-1.03-1.87-.85-3.04.31-2.05,1.13-4.24.73-6.14-.79-3.79-2.98-6.97-5.94-9.47-1.66-1.4-1.9-1.27-2.93.67-.4.76-.91,1.47-1.51,2.43-.36-3.1-2.08-3.89-4.38-2.35-.57.38-1.09.84-1.67,1.18-.14.09-.62-.07-.67-.21-1.27-4.01-.84-8.02.41-11.94Zm47.23-71.32c-1.21-.34-1.98-2.25-1.47-3.68.39-1.09,1.19-1.59,2.31-1.28,1.38.38,2.12,2.13,1.54,3.91-.37.95-1.21,1.38-2.38,1.05Z"/>
            <path class="cls-1" d="m64.36,160.64c-8.9,4.26-14.11,11.59-17.06,20.8-1.26,3.92-1.69,7.93-.41,11.94.04.14.52.29.67.21.58-.35,1.11-.8,1.67-1.18,2.29-1.54,4.01-.75,4.38,2.35.6-.96,1.11-1.67,1.51-2.43,1.03-1.94,1.27-2.07,2.93-.67,2.96,2.5,5.15,5.67,5.94,9.47.4,1.9-.43,4.09-.73,6.14-.18,1.17-.3,2.3.85,3.04,1.09.7,1.84.18,2.43-.79.81-1.33,1.5-2.75,2.46-3.94.49-.6,1.53-1.2,2.22-1.1,5.61.83,10.05-1.5,13.99-5.25,6.59-6.27,12.29-13.31,16.83-21.22,3.95-6.88,5.62-14.43,6.02-22.33.38-7.49.03-14.82-3.01-21.74-2.92-6.63-7.87-11.25-14.33-14.11-3.04-1.35-6.37-2.05-9.57-3.03-1.09-.33-1.74-.99-1.4-2.17.15-.5.6-1.13,1.05-1.3,2.2-.81,4.47-1.39,6.66-2.21,2.11-.8,2.3-1.26,1.99-3.51-.12-.89-.24-1.79-.45-2.66-.26-1.06.22-1.72,1.14-1.92,1.72-.37,3.46-.59,5.19-.87.3-.05.61-.08,1.39-.19-1.08-.62-1.73-1.09-2.44-1.4-7.06-3.02-13.68-2.24-19.58,2.98-2.76,2.44-3.33,5.94-3.65,9.43-.4,4.39.98,8.52,1.64,12.76.85,5.47,1.77,10.97,2.01,16.5.2,4.77-.77,9.52-3.59,13.63-1.67,2.43-4.26,3.59-6.75,4.78Z"/>
            <path class="cls-1" d="m93.07,106.44c-.51,1.43.26,3.34,1.47,3.68,1.17.33,2.01-.1,2.38-1.05.58-1.78-.15-3.52-1.54-3.91-1.12-.31-1.92.18-2.31,1.28Z"/>
          </g>
          <path class="cls-2" d="m64.99,215.1s5.69,8.29,4.54,8.98c-.53.32-1.03.56-5.79-2.32,0,0-2.05-.95-4.35-2.01,0,0-3.65-.79-2.45-1.98,0,0,6.55-5.46,8.04-2.66Z"/>
          <path class="cls-2" d="m52.32,195.02s1.55,5.23,1.56,7.59c0,2.36-1.65,1.65-4.24.44-2.6-1.21-8.54-2.64-9.21-3.51-.52-.68,4.95-2.82,7.4-3.74.65-.24,1.27-.57,1.84-.97.85-.6,2.24-1.29,2.65.19Z"/>
        </g>
      </g>
      <g>
        <path class="cls-1" d="m145.74,91.13c-.03-.08-.12-.25-.12-.21l.13.31v-.1Z"/>
        <path class="cls-1" d="m145.33,90.65c.05.16.14.42.29.69-.11-.3-.05-.18-.19-.54,0-.05.08.08.13.19-.03-.08.06.05-.01-.14-.14-.22-.18-.21-.12,0-.04-.06-.07-.14-.09-.2Z"/>
        <path class="cls-1" d="m143.03,91.19l.03.03s-.02-.03-.03-.03Z"/>
        <path class="cls-1" d="m141.66,91.66s0-.04-.02-.07c0,.02,0,.05.02.07Z"/>
        <path class="cls-1" d="m141.28,91.43s.02,0,.02.01c-.02-.02-.03-.04-.02-.01Z"/>
        <path class="cls-1" d="m143.03,91.19l-.08-.08c.04.1.05.06.08.08Z"/>
        <path class="cls-1" d="m145.39,91.51s0-.05-.02-.09c0,.02,0,.03,0,.04,0,.02.01.03.02.05Z"/>
        <path class="cls-1" d="m143.48,90.68h.01s-.03-.08-.05-.13l.04.13Z"/>
        <path class="cls-1" d="m143.89,90.42s.1.25.15.36c-.04-.11-.06-.16-.06-.18-.02-.05-.05-.1-.09-.18Z"/>
        <path class="cls-1" d="m144.8,90.53v-.04s0,.03,0,.04Z"/>
        <path class="cls-1" d="m143.14,90.77s-.04-.07-.05-.09c.02.03.03.06.05.09Z"/>
        <path class="cls-1" d="m131.89,98.59s-.01-.03-.02-.04c0,.03.02.04.02.04Z"/>
        <path class="cls-1" d="m130.77,97.58v-.02s-.04-.1-.07-.14l.07.16Z"/>
        <path class="cls-1" d="m140.72,91.31s0,0,0,0c0-.03,0-.03,0,0Z"/>
        <path class="cls-1" d="m137.12,93.29c.15.21.07.32.26.54-.05-.1-.13-.42-.26-.54Z"/>
        <path class="cls-1" d="m145.37,91.48s0,.01-.02.01c.01,0,.02,0,.02-.01Z"/>
        <path class="cls-1" d="m137.38,93.83s0,0,0,0l.02.02s-.01-.02-.02-.02Z"/>
        <path class="cls-1" d="m139.87,91.91s.04.08.06.11c-.01-.03-.03-.06-.06-.11Z"/>
        <path class="cls-1" d="m140.74,91.93l-.03-.03s.03.02.03.03Z"/>
        <path class="cls-1" d="m139.69,92.44s-.04-.05-.04,0c0,.01.01.02.02.03-.01-.04-.01-.06.02-.02Z"/>
        <path class="cls-1" d="m139.31,92.62s.02.03.03.05c0,0,0-.01,0-.02l-.04-.03Z"/>
        <path class="cls-1" d="m132.96,97.92c-.04-.07-.09-.14-.13-.22.09.18.07.27.13.22Z"/>
        <path class="cls-1" d="m145.33,91.36c.03.06.04.1.04.11,0,0,0-.01,0-.02-.02-.04-.03-.07-.05-.09Z"/>
        <path class="cls-1" d="m140.64,94.44h-.08s.06.01.08,0Z"/>
        <path class="cls-1" d="m135.62,96.58v.04s.01,0,0-.04Z"/>
        <path class="cls-1" d="m140.41,94.56c-.05-.08-.09-.13-.12-.16,0,.02.01.04.02.07l.09.09Z"/>
        <path class="cls-1" d="m132.83,97.7s0,0,0,0c0,0,0,0,0,0Z"/>
        <path class="cls-1" d="m132.73,98.49c.06-.02-.13-.34-.21-.54.02-.13.15.23.26.39,0-.11-.12-.43-.08-.43.03.05.04.07.07.14-.08-.29.13-.08.02-.43.02.03.03.05.05.08-.09-.16-.17-.33-.23-.45.02-.02-.06-.23.06-.02-.02,0,.02.09.05.16l-.02-.11c.18.3.02.13.13.36,0-.13-.06-.41.02-.35.16.3-.04.15.14.39l-.12-.09c.28.46-.05-.02.24.48.12.05.01-.2.14-.15-.06-.18-.13-.25-.19-.43-.03-.36.46.72.35.28-.08-.21-.26-.6-.1-.43l.15.35c.09,0-.2-.52,0-.33.05.14,0,.14.03.18.19.25-.06-.21-.02-.23l.16.3c.06-.09.04-.35.11-.45.04.09.07.2.14.28.04-.21.27-.08.47.04l-.09-.28s.08.11.09.17c.09.08-.08-.17-.11-.28.02-.03.11.14.13.22-.03-.26-.01-.59.2-.35l.02.09c.12.08-.19-.58-.01-.36v.05c.2.05.24-.27.54.08-.16-.39.22.1-.03-.43.21.22.23.33.43.45.04,0-.12-.35-.11-.43l.14.28-.09-.31.19.32v-.09s-.09-.11-.13-.19c0-.15.22.13.29.27v-.3c.06.11.06.16.08.24-.07-.32.15.29.09,0-.04-.06-.08-.17-.1-.22.11.15.18.12.2.02l.08.2c.12,0,.15-.19.26-.24-.08-.07-.23-.41-.22-.45l.15.29c-.07-.19-.09-.09-.15-.34.06.02.19.32.21.43v-.12c.04.09.06.14.11.25-.07-.19.23.25.1-.08l.05.09c.11-.05.11-.17.18-.23-.12-.25-.06-.21-.13-.43.1.05.27.21.33.16,0-.15-.09-.22-.14-.38.12.23.18.17.22.35.07-.08.09-.1.12-.35-.06-.09-.09-.12-.12-.21,0-.05.09.07.15.19v.03c-.03-.41.63.53.5,0v.03s0-.3,0-.3c.07.02.05.19.16.31-.07-.44.21-.03.18-.33.4.64.24-.17.55.21l-.08-.16c-.05-.17.08.08.11.1-.06-.12-.1-.13-.12-.22.12-.3.56.02.85.05.1,0-.36-.85-.07-.52l.12.31c0-.44.34-.15.36-.53.02.07.07.16.05.17.14.2.13-.05.05-.23.03,0,.08.16.14.24.1.11-.05-.32.07-.11.02.03.02.07.03.09-.03-.12.12-.02-.03-.26.12.09.06-.17.18-.04-.1-.29.17.08-.01-.31.19.41.27.28.21.07.05.13.1.11.16.29.04-.03.04-.12-.07-.33.32.45-.03-.47.32.13.02-.28.07-.49.14-.64.19.41-.11.1.1.53.03-.22-.08-.6.08-.55.06.04.07.18.09.26.03-.22.23-.07.22-.33.02.04.03.08.03.12.01-.02.07.04-.02-.15v.06c-.16-.25-.19-.6-.25-.74.22.54.16.09.43.78,0-.04-.03-.14-.09-.26.04.03.08.1.13.25.02-.13-.1-.32-.03-.34.04.09.05.13.09.24-.05-.19-.11-.38-.02-.33.02.06.06.12.05.13.08-.07-.07-.54.11-.42.16.4.1.11.26.44v-.13s-.1-.15-.1-.15c.05-.02-.03-.28.07-.19l.03.16.06-.11-.11-.1c-.04-.2-.21-.42-.1-.36,0,.04.05-.02.17.17,0,0,0,0,0,0-.03-.12-.06-.24.02-.18.06.1.17.38.21.44-.11-.29.07-.13-.04-.44.02.08.11.25.13.29l-.09-.24c.06.06.08.1.14.24.09,0-.23-.42-.06-.27,0,.02.02.05.03.1.12.06.08-.22.21-.14.19.33-.02.11.14.39.07-.11.02-.51.16-.48l-.04-.03c-.22-.48.19.2.13-.05,0,.04.11.27.09.22.11.04.08-.19.11-.39l.05.13c.09.09.14.01.21.05-.05-.13-.01-.12-.11-.29.47.63.07-.5.48.02-.01,0,.02.12.03.12l.05-.16c-.11-.2-.07-.12-.17-.27-.05-.13-.06-.24-.04-.25.02.16.16.33.24.44-.03-.06-.06-.14-.09-.2.23.34-.19-.42,0-.21l.05.11c0-.07-.05-.23,0-.21.13.23.03.13.12.33.03-.03-.14-.5.01-.27.02.08,0,.09,0,.16.18.26.15.19.2.22h0s.13.09.13.09l-.05-.07c-.25-.65.05-.17-.08-.61.12.42.1.23.23.51.05.07.12.14.15.22-.07-.24.14.15.03-.2.04.09.04,0,.14.22,0-.09-.08-.15-.13-.26-.08-.33.33.29.23-.17,0-.21-.13-.51-.13-.7.09.13.13.33.13.33.1.11.12.07.11-.05.03.08.07.14.13.23.02-.04-.13-.33-.03-.22.04.1.11.26.14.37,0-.1-.05-.28-.05-.38.08.15.09.24.12.35,0-.09.04-.19-.06-.44l-.07-.07s.11.2.12.25c.06.21-.09-.06-.14-.15v-.07c-.28-.5-.07.14-.14.13l-.16-.38.1.34c-.06-.09-.17-.3-.17-.37-.13-.17.03.15-.1-.04-.02-.03-.03-.05-.03-.07l.02.13c-.03-.08-.13-.26-.09-.22-.17-.18.03.33-.14.06v-.03c-.04.17.12.28.2.64l-.38-.65.12.28s-.04-.02-.09-.13c.05.21.06.12.13.3-.17-.23-.07.18-.3-.25.08.22.12.14.14.31-.24-.46-.02.11-.17-.09-.1-.25,0-.14-.15-.34.17.42-.13-.05-.13.05.16.33-.01.17-.02.31-.05-.11-.2-.12-.32-.21l-.03-.06c.15.34.06.3.05.39-.09-.2-.12-.28-.14-.38l-.04.02c.04.11.06.17.05.22l-.11-.25s.03.34-.11.21c.11.23.37.61.37.8-.06-.12-.17-.33-.18-.4,0,.02.03.11-.01.07l-.07-.22c-.08-.08.07.18.03.18-.09-.18-.08-.12-.15-.26,0-.02.06.06.03-.01-.04-.02-.13-.11-.21-.24.05.1.12.24.11.27-.05.04-.12-.2-.2-.28.05.13-.05.02.08.28-.02,0-.08-.12-.12-.19.03.13-.11.1.06.36l.02.02s0,0,0,.01h0,0c.04.31-.26-.06-.3.1l-.04-.09c0,.13-.09.12-.04.33-.02,0-.12-.14-.16-.25,0,.09.04.19-.09.07-.03-.18-.08-.13-.01-.13-.09-.05-.17-.19-.11.08-.09-.24-.18-.27-.17-.19l.12.15s-.05.04-.08.03l-.13-.31c-.29-.31.1.71-.27.15.07.22.13.12.22.38-.07-.02-.33-.42-.35-.41-.15-.13.15.47.02.39.06.1.21.38.2.51-.07-.02-.28-.42-.29-.52,0-.01.03.02.05.05,0-.05,0-.1-.08-.21l.05.11c-.08-.1-.14-.05-.21-.23.01.12.07.18.12.22-.14-.12-.1.04-.22-.03.04.05.11.17.1.18-.16-.08.06.22.01.3-.12-.14-.18-.4-.18-.23-.09-.09-.15-.28-.17-.37.04.24-.18-.08-.23-.1v-.1c0,.06-.02.07-.04.07l.12.2s-.05-.02-.1-.11c.05.15.19.35.24.56-.08-.1-.02.15-.17-.13.12.06-.15-.28-.1-.36,0,.04-.01.05-.05.02-.02-.03-.03-.06-.03-.08-.2-.22.12.34.04.37-.07-.16-.17-.29-.16-.25.03-.01.14.26.18.4-.11-.1,0,.12-.04.12l.06.04c.07.16.03.16.02.22-.06-.12-.01-.1-.05-.15.1.3-.23-.25-.19-.03-.08-.1-.15-.3-.21-.36.04.24-.17-.19-.15.01.12.21.1.15.16.38l.03-.2.08.34s0-.17.04-.14c.05.19.03.14.13.31-.2-.3,0,.23-.15.04l-.26-.53c-.19-.2,0,.34-.16.25l.08.08c.09.22-.05.06-.04.16-.08-.18-.13-.23-.2-.34.07.13-.08.02.09.38l-.16-.21c-.12-.06.16.55.05.53-.07-.2-.17-.31-.18-.48-.03.01-.06-.01,0,.11-.07-.1.05.27-.06.12.03.08.11.27.08.27-.02-.03-.04-.09-.04-.09.04.09.01.14.13.33-.35-.52-.2.15-.49-.3-.03.09-.06.18-.11.21-.02-.05-.04-.09-.02-.07-.15-.13.21.53.04.38-.18-.27-.03-.18-.11-.27-.29-.58-.06.13-.27-.19v-.04c-.14-.18,0,.27-.08.26,0,0-.02-.05-.04-.09.1.32.06.46.04.57-.09-.24-.03-.14-.16-.36-.01.05.19.37.16.46-.08-.12-.17-.21-.3-.45l.05-.04c-.18-.31-.06.04-.12,0l-.06-.14c-.06.09.11.44.01.46l.06.1c.12.37-.14-.18-.06.11l-.19-.35c.01.1.06.4.03.49-.1-.28-.09-.45-.13-.62-.03.01-.09.08-.03.26,0-.04-.03-.14,0-.09.1.3.11.46.05.48-.32-.69-.25-.09-.55-.61.01.31-.27,0-.38.1.31.51-.03.03.24.58-.01.05-.03.05-.05.01l-.25-.28c-.1-.15-.03-.13-.09-.26-.09-.01-.14-.22-.26-.34.1.19.11.29.04.24l.18.23c.05.34-.3-.42-.26-.09l-.05-.19c0,.13-.18.08,0,.55-.04-.06-.12-.2-.12-.25-.15-.01-.02.59-.24.36l-.06-.14s.09.27,0,.15c-.03-.06-.06-.14-.07-.14.01.05.06.26,0,.2l-.05-.16c-.2-.12,0,.45-.04.59-.19-.4-.34-.48-.42-.53l-.03-.06c-.15.01-.06.43-.1.65-.28-.39-.34-.06-.57-.24.05.06.15.31.15.36-.07-.07.06.31-.12-.05h.01c-.19-.34-.21-.22-.26-.21l.22.48c-.45-.63-.18.4-.55-.18.03.13,0,.15.02.28l-.12-.26c-.11-.03-.16-.04-.23.07l-.07-.19c-.06,0,.29.77.24.81l-.2-.37c-.09.05-.35-.23-.28.16-.03-.06-.08-.17-.07-.19-.05.01-.3-.17-.03.34-.17-.34-.11.01-.09.19l-.11-.25c.11.34.15.43.14.55-.03-.03-.11-.19-.06-.14-.11-.11.08.26-.05.15l-.06-.17c-.06,0-.01.09.05.29.02.12-.12-.02-.24-.24.06.14.12.34.06.29-.05-.08-.06-.14-.07-.17-.17-.13.02.35-.16.13-.04-.08-.07-.12-.08-.14.07-.03.13-.04.13-.02-.11-.23-.18-.25-.3-.59.04.19.15.61.05.52-.01-.02-.03-.04-.05-.08v-.03s-.03,0-.02.05c-.03-.03-.06-.05-.08-.05-.1-.19-.11-.07-.14-.07.13.25.07.23.2.42-.01-.02,0-.03,0-.05,0,0,0-.02,0-.03,0,0,0,.02,0,.02.01-.02.03-.03.06-.05.04.14.07.26-.03.13.07.17.13.34.16.43-.21-.34-.37-.49-.48-.7-.01.18-.14.19.04.69,0,.07-.09-.12-.14-.19,0-.05,0-.05-.02-.13.01.14-.11.11.04.45-.13-.12-.12-.32-.17-.23l-.04-.11c-.41-.45.16.97-.35.37.03.04.05.05.08.11-.34-.2-.27.48-.7.1-.1-.07,0,.15.04.32l-.14-.27.09.34c.03.27-.47-.6-.36-.11l.1.18c-.05-.02-.07.17-.16-.05.01.04.08.2.02.11l-.07-.14.03.29c-.12-.07-.26-.57-.38-.55-.01.07.09.47.15.56.02,0,.08.07.15.21v.09c.2.42.38.86.61,1.11l-.06-.29.12.19-.04.04c.12.18.06,0,.02-.13.06.11.1.18.13.21l-.14-.43c.09.16.13.34.22.41-.06-.2-.2-.35-.22-.5.12.18.19.34.14.16.06.11.08.18.09.23-.03-.14.05-.09-.04-.32.14.22.07-.11.26.29-.04-.1-.1-.34-.08-.37.18.5.12-.02.35.49-.17-.44.04-.25,0-.52.01.04.04.11.02.09.05.02.13.14.19.21-.17-.35-.15-.46-.22-.7.21.32.17.43.35.75-.14-.28-.06-.32-.19-.55.14.19.08.09.24.37-.21-.44,0-.09-.11-.38.16.19.21.41.2.25.09.12.12.3.12.3Zm.95-1.4s0,0,0,0c0,.01-.02.02-.02.03,0,0,0-.02.02-.03Zm.11-.06s-.04,0-.05.01c-.05-.09-.09-.18-.07-.18.02.06.07.1.13.16Zm-1.09-1.64s.03,0,.06.05c0,0-.01.02-.02.04,0,0,0,.02.01.03-.02-.05-.04-.1-.05-.13Z"/>
        <path class="cls-1" d="m132.83,95.73s0,.02,0,.02c.01.02.03.04.04.05-.01-.03-.02-.06-.03-.08,0,0,0,0,0,0Z"/>
        <path class="cls-1" d="m143.07,91.23h0s.01.01.02.03c0-.01-.01-.02-.02-.03Z"/>
        <polygon class="cls-1" points="135.56 96.77 135.52 96.7 135.54 96.76 135.56 96.77"/>
        <path class="cls-1" d="m144.1,91.8s.03.04.04.06c0-.02-.02-.04-.04-.06Z"/>
        <path class="cls-1" d="m144.39,91.73l.08.07s-.06-.06-.08-.07Z"/>
        <path class="cls-1" d="m144.65,91.75s-.03-.08-.05-.11c0,0,0,0,0,0l.05.11Z"/>
        <path class="cls-1" d="m141.57,93.62s0,0,0,.02c0,.06,0,.03,0-.02Z"/>
        <path class="cls-1" d="m142.24,92.56c.01.05.02.1.03.13.03.01.04,0-.03-.13Z"/>
        <polygon class="cls-1" points="140.65 94.44 140.65 94.44 140.64 94.44 140.65 94.44"/>
        <path class="cls-1" d="m142.23,92.71s.05.02.05-.02c-.02-.01-.05-.03-.05.02Z"/>
        <path class="cls-1" d="m145.59,91.44h.01s-.01-.02-.02-.04v.04Z"/>
        <path class="cls-1" d="m145.58,91.41v-.04s-.01,0,0,.04Z"/>
        <path class="cls-1" d="m145.57,91.3v.07s.03,0,0-.07Z"/>
        <path class="cls-1" d="m145.26,91.46l.04.09s-.02-.05-.04-.09Z"/>
        <path class="cls-1" d="m145.19,91.52s.14.17.14.1l-.03-.07c.05.14-.17-.19-.11-.03Z"/>
        <path class="cls-1" d="m144.3,90.55l.1.04c-.06-.09-.14-.22-.12-.25-.23-.25.12.21.02.21Z"/>
        <path class="cls-1" d="m144.02,90.51c.01-.06-.07-.14-.09-.2.02.1.03.13.09.2Z"/>
        <path class="cls-1" d="m142.49,91.26l-.11-.23s.04.09.11.23Z"/>
        <polygon class="cls-1" points="142.77 92.59 142.87 92.72 142.78 92.5 142.77 92.59"/>
        <polygon class="cls-1" points="141.8 91.03 141.8 91 141.79 91.1 141.8 91.03"/>
        <path class="cls-1" d="m139.27,92.37l.15.28c0-.06-.16-.38-.15-.28Z"/>
        <path class="cls-1" d="m138.3,93.19c-.08-.14-.16-.21-.11-.06.03,0,.11.11.11.06Z"/>
        <polygon class="cls-1" points="134.75 94.35 134.72 94.25 134.72 94.34 134.75 94.35"/>
      </g>
      <g>
        <path class="cls-1" d="m49.41,75.71c-.06.06-.18.22-.13.21l.22-.25-.09.04Z"/>
        <path class="cls-1" d="m49.18,76.3c.12-.11.33-.31.5-.56-.22.23-.15.12-.41.4-.05.01.03-.11.11-.21-.06.06.01-.08-.13.07-.13.22-.1.26.06.12-.04.06-.1.12-.14.17Z"/>
        <path class="cls-1" d="m50.93,78.34v-.04s0,.03,0,.04Z"/>
        <path class="cls-1" d="m52.1,79.49s-.04.02-.06.04c.02,0,.04-.02.06-.04Z"/>
        <path class="cls-1" d="m52.09,79.95s0-.02,0-.03c-.01.03-.02.04,0,.03Z"/>
        <path class="cls-1" d="m50.93,78.34l-.03.11c.07-.08.03-.08.03-.11Z"/>
        <path class="cls-1" d="m49.95,75.9s-.04.03-.07.05c.01,0,.03-.01.04-.01.01-.01.02-.03.03-.04Z"/>
        <path class="cls-1" d="m50.2,78.1h-.01s-.06.05-.09.09l.1-.09Z"/>
        <path class="cls-1" d="m49.73,77.8s.18-.2.26-.29c-.08.09-.12.12-.14.13-.03.04-.07.09-.12.16Z"/>
        <path class="cls-1" d="m49.35,76.87l-.04.02s.02-.01.04-.02Z"/>
        <path class="cls-1" d="m50.47,78.4s-.05.06-.06.08c.02-.03.04-.06.06-.08Z"/>
        <path class="cls-1" d="m63.91,86.28s-.02.03-.03.04c.02-.02.03-.04.03-.04Z"/>
        <path class="cls-1" d="m63.55,87.77h-.02s-.07.09-.1.13l.12-.13Z"/>
        <path class="cls-1" d="m52.27,80.54s0,0,0,0c-.03.02-.02.02,0,0Z"/>
        <path class="cls-1" d="m56.08,83.27c.11-.23.27-.2.38-.47-.06.09-.33.3-.38.47Z"/>
        <path class="cls-1" d="m49.94,75.94s.02,0,.02.01c0-.01,0-.02-.02-.01Z"/>
        <path class="cls-1" d="m56.45,82.81s0,0,0,0v-.03s0,.02,0,.03Z"/>
        <path class="cls-1" d="m53.3,81.14s.05-.07.07-.1c-.02.02-.04.05-.07.1Z"/>
        <path class="cls-1" d="m52.86,80.28v.04s0-.04,0-.04Z"/>
        <path class="cls-1" d="m53.9,81.11s-.02.06.01.04c0-.01.01-.02.02-.03-.03.03-.05.04-.03,0Z"/>
        <path class="cls-1" d="m54.27,81.4s.02-.03.03-.05c0,0-.01,0-.02,0v.05Z"/>
        <path class="cls-1" d="m62.7,85.49c-.04.07-.09.14-.14.21.12-.16.22-.17.14-.21Z"/>
        <path class="cls-1" d="m49.86,76.02c.05-.05.07-.08.09-.09,0,0-.01,0-.02,0-.03.03-.05.06-.06.08Z"/>
        <path class="cls-1" d="m55.28,79.38l.03.08s-.01-.06-.03-.08Z"/>
        <path class="cls-1" d="m60.01,83.43l.03-.02s-.01,0-.03.02Z"/>
        <path class="cls-1" d="m55.52,79.56c-.05.09-.08.14-.09.18.02-.02.03-.03.05-.05l.04-.13Z"/>
        <path class="cls-1" d="m62.56,85.71s0,0,0,0c0,0,0,0,0,0Z"/>
        <path class="cls-1" d="m63.36,85.49c-.05-.05-.25.26-.39.42-.13.03.14-.24.23-.4-.1.04-.34.29-.37.25.04-.05.04-.07.1-.13-.23.2-.14-.09-.42.16.02-.03.03-.05.05-.08-.11.15-.22.3-.31.4-.03-.01-.19.15-.05-.05.01.02.07-.06.13-.11l-.09.06c.19-.29.11-.07.27-.27-.12.05-.36.23-.34.12.2-.27.16-.02.3-.3l-.02.15c.28-.46.01.06.33-.43-.02-.14-.2.07-.22-.08-.13.13-.17.22-.3.36-.32.18.44-.74.07-.45-.16.16-.44.49-.35.27l.26-.29c-.05-.09-.39.4-.31.13.11-.11.14-.05.16-.1.13-.28-.17.14-.21.11l.2-.27c-.12-.02-.36.1-.49.07.07-.08.15-.15.19-.25-.22.04-.22-.23-.21-.47l-.22.2s.06-.12.11-.16c.03-.12-.12.14-.21.22-.04,0,.07-.16.14-.22-.23.14-.55.25-.44-.06l.07-.06c.01-.14-.44.42-.33.16l.04-.03c-.06-.21-.38-.11-.21-.55-.28.32-.02-.25-.39.2.1-.29.19-.36.2-.6-.01-.04-.27.26-.35.27l.19-.24-.25.22.2-.31-.08.04s-.06.13-.11.2c-.14.07,0-.27.1-.4l-.29.11c.08-.1.13-.11.19-.16-.26.19.19-.26-.05-.09-.03.06-.12.14-.16.19.08-.17.02-.23-.08-.21l.14-.16c-.06-.12-.26-.07-.36-.16-.02.11-.26.39-.31.39l.19-.27c-.14.14-.04.12-.24.28-.02-.06.2-.31.29-.38l-.12.05c.06-.08.1-.11.18-.21-.14.14.12-.32-.13-.07l.06-.08c-.1-.08-.22-.03-.32-.09-.18.22-.17.14-.34.3,0-.12.06-.35-.03-.39-.14.07-.16.18-.29.29.15-.2.06-.24.22-.36-.12-.04-.15-.05-.39.02-.05.09-.07.14-.13.2-.05.02.02-.12.1-.22l.02-.02c-.37.2.16-.82-.27-.48l.02-.02-.28.14c-.02-.07.15-.13.21-.28-.38.25-.14-.19-.41-.04.39-.65-.29-.16-.09-.62l-.1.14c-.13.12.03-.1.04-.15-.08.11-.07.15-.15.21-.35,0-.29-.56-.41-.86-.05-.1-.61.69-.45.27l.23-.24c-.41.18-.33-.27-.69-.14.06-.05.12-.13.13-.12.11-.22-.12-.11-.24.05-.01-.04.1-.14.15-.23.05-.14-.27.17-.14-.03.02-.03.06-.05.08-.06-.09.07-.08-.1-.23.13.02-.15-.19,0-.14-.16-.22.22-.01-.2-.29.14.28-.35.12-.37-.05-.23.1-.1.05-.14.19-.27-.05-.03-.14,0-.27.19.25-.49-.43.22-.05-.36-.28.09-.5.13-.68.12.28-.35.16.07.44-.31-.22.06-.53.31-.57.14,0-.07.14-.14.19-.19-.22.06-.19-.2-.44-.08.03-.03.07-.06.1-.08-.03,0,0-.09-.13.08l.05-.03c-.15.26-.46.43-.56.55.4-.44,0-.19.51-.73-.04.02-.11.08-.19.19,0-.05.05-.11.16-.22-.14.03-.25.22-.31.17.06-.08.1-.1.18-.18-.15.13-.3.25-.3.15.04-.04.08-.11.1-.1-.11-.05-.47.28-.46.06.3-.32.05-.14.28-.44l-.12.05-.09.16s-.25.14-.22.01l.13-.09h-.13s-.04.14-.04.14c-.17.11-.29.38-.29.24.04-.02-.04-.04.07-.23,0,0,0,0,0,0-.1.08-.2.15-.18.05.06-.1.26-.32.31-.39-.22.23-.16-.02-.4.22.06-.05.18-.21.2-.24l-.18.18c.03-.08.05-.11.15-.23-.04-.09-.27.39-.22.17.02-.01.04-.04.08-.06-.01-.14-.25,0-.24-.15.21-.31.12-.02.29-.29-.15-.03-.49.19-.54.04v.05c-.35.41.08-.26-.12-.11.04-.02.2-.22.16-.17-.02-.12-.22,0-.43.04l.1-.1c.03-.13-.06-.14-.07-.22-.1.1-.11.06-.22.23.35-.72-.51.13-.23-.48.02,0,.11-.07.1-.08l-.18.02c-.13.19-.07.12-.16.28-.1.1-.19.16-.22.14.14-.08.23-.29.29-.41-.04.06-.1.11-.14.17.2-.36-.3.36-.2.08l.08-.09c-.07.03-.19.13-.2.08.15-.22.11-.08.24-.25-.05-.02-.39.33-.27.1.06-.04.09-.03.15-.07.15-.28.1-.22.1-.28h0s.02-.16.02-.16l-.03.08c-.48.51-.18.02-.53.32.33-.29.17-.19.36-.42.03-.08.07-.18.13-.24-.18.17.06-.19-.2.05.06-.08-.03-.04.13-.22-.09.03-.09.14-.17.23-.27.21.1-.44-.28-.15-.2.08-.42.33-.59.4.07-.14.24-.26.24-.26.05-.15,0-.15-.11-.09.06-.06.1-.12.15-.22-.05,0-.24.26-.19.12.07-.08.19-.21.27-.28-.09.04-.24.16-.33.2.09-.14.18-.18.26-.26-.09.03-.21.03-.38.24l-.03.1s.13-.19.18-.22c.17-.14,0,.11-.06.19l-.07.03c-.33.47.16.01.2.08l-.28.31.27-.23c-.05.09-.19.28-.26.31-.09.19.13-.09.02.12-.02.03-.03.05-.05.06l.11-.07c-.06.06-.18.24-.16.17-.08.24.3-.16.13.11l-.02.02c.18-.04.2-.23.49-.46l-.42.63.2-.23s0,.05-.07.14c.17-.14.08-.11.22-.25-.12.26.21,0-.08.39.16-.17.07-.18.22-.26-.31.42.11-.02,0,.2-.18.2-.13.06-.24.28.31-.34.02.14.11.1.23-.28.17-.06.31-.1-.08.09,0,.25-.03.39l-.04.05c.24-.28.25-.18.34-.21-.14.17-.2.23-.28.29l.04.03c.08-.08.13-.12.18-.14l-.18.21c.06.03.31-.17.26.03.16-.2.39-.6.56-.68-.08.11-.23.3-.28.33.02,0,.09-.07.07-.02l-.17.16c-.03.1.14-.14.15-.1-.12.15-.07.13-.17.25-.02.01.03-.08-.03-.03,0,.05-.03.17-.11.29.07-.09.16-.21.2-.21.06.03-.13.2-.16.31.1-.1.04.04.23-.19.01.01-.07.12-.11.19.11-.08.15.07.31-.2v-.02s.01,0,.02,0h0s0,0,0,0c.27-.16.08.28.25.25l-.06.08c.12-.05.16.04.33-.1.02.01-.07.17-.15.26.09-.03.16-.11.12.06-.15.1-.08.13-.12.07,0,.11-.09.24.14.08-.18.18-.16.28-.09.24l.07-.17c.05,0,.06.03.07.07l-.22.25c-.14.4.62-.39.29.21.17-.16.04-.18.24-.37.02.07-.22.49-.21.5-.05.2.36-.33.36-.18.06-.1.25-.36.37-.4.02.07-.25.44-.34.49-.02,0,0-.04.02-.07-.04.02-.1.04-.16.16l.08-.09c-.05.11.03.16-.11.3.11-.06.14-.14.15-.21-.04.19.1.08.09.23.03-.06.11-.18.12-.17,0,.19.18-.14.28-.13-.07.17-.28.33-.12.26-.04.13-.19.25-.26.32.2-.13.02.21.03.27l-.09.05c.05-.03.07-.02.08,0l.13-.2s0,.06-.05.14c.12-.11.23-.32.4-.46-.05.11.16-.04-.03.21-.01-.15-.19.26-.28.24.04-.02.05,0,.04.04-.02.03-.04.05-.06.06-.1.28.25-.25.33-.19-.12.13-.19.28-.15.26-.03-.03.17-.24.28-.33-.04.15.12-.04.13,0v-.07c.13-.13.14-.09.21-.11-.08.11-.09.05-.12.11.23-.21-.11.32.07.2-.05.11-.2.26-.23.35.2-.13-.09.24.1.14.13-.2.09-.16.28-.31l-.21.05.28-.22s-.16.07-.15.02c.15-.13.11-.08.22-.25-.18.31.21-.1.11.13l-.37.46c-.09.27.32-.13.32.06l.03-.11c.16-.17.08.02.17-.03-.12.15-.15.22-.21.33.09-.12.06.07.31-.24l-.12.24c.01.15.44-.37.47-.26-.16.15-.21.29-.35.37.02.02.02.07.11-.04-.06.11.23-.15.14.01.06-.06.2-.22.21-.19-.02.03-.06.08-.06.08.06-.08.13-.07.24-.26-.3.54.24.13-.02.6.1,0,.2,0,.26.02-.04.04-.06.08-.06.05-.05.2.39-.41.34-.19-.16.28-.15.1-.2.22-.39.52.15,0-.03.34l-.04.02c-.1.21.25-.12.29-.03,0,0-.04.04-.06.08.25-.23.4-.25.52-.27-.18.18-.11.08-.26.3.05,0,.25-.33.35-.35-.07.12-.1.25-.27.47l-.06-.03c-.19.3.08.04.07.12l-.1.12c.11.02.36-.28.43-.19l.06-.1c.29-.27-.1.2.13.01l-.23.32c.09-.05.35-.21.45-.23-.21.21-.37.27-.52.38.03.03.12.06.26-.08-.04.02-.11.08-.09.03.23-.21.37-.29.43-.24-.48.59.04.28-.28.78.29-.14.14.27.3.33.32-.5.05.02.42-.47.05,0,.06,0,.04.04l-.14.36c-.09.16-.11.08-.19.19.04.09-.13.23-.19.39.13-.18.22-.23.2-.13l.12-.26c.29-.18-.24.47.05.29l-.15.13c.12-.05.17.14.52-.21-.04.06-.13.2-.18.22.07.15.57-.21.48.09l-.1.11s.21-.19.14-.05c-.04.05-.1.11-.1.12.04-.03.22-.16.19-.07l-.13.11c-.01.24.42-.19.58-.2-.27.35-.27.53-.27.62l-.04.05c.09.14.44-.12.67-.16-.22.43.13.35.08.66.03-.08.21-.27.26-.29-.03.09.27-.18.01.13h0c-.22.31-.1.28-.06.32l.33-.41c-.36.7.48.02.12.61.11-.08.14-.05.25-.13l-.18.22c.03.12.05.18.19.2l-.14.14c.04.06.57-.59.63-.56l-.25.34c.1.07-.03.44.3.21-.04.05-.12.14-.14.14.04.04,0,.36.34-.11-.23.3.08.11.23.02l-.18.21c.26-.25.32-.32.45-.35,0,.04-.13.19-.1.11-.04.15.2-.18.17-.02l-.13.12c.04.06.09-.02.25-.16.1-.06.05.13-.1.33.1-.12.26-.26.24-.18-.05.08-.1.12-.13.13-.04.21.32-.16.21.1-.06.07-.08.11-.09.14-.06-.06-.1-.11-.09-.12-.16.2-.13.28-.4.52.16-.12.49-.39.47-.26-.01.02-.03.04-.05.08l-.02.02s.02.02.06,0c0,.05-.02.08,0,.09-.13.17-.01.14,0,.17.17-.22.18-.16.29-.37,0,.02-.03.02-.05.02,0,0-.02,0-.03.01,0,0,.01-.01.02-.02-.02,0-.05-.02-.08-.04.11-.1.2-.17.14-.03.13-.13.25-.27.32-.33-.21.34-.27.56-.41.75.18-.06.25.07.63-.31.06-.04-.07.14-.11.21-.05.03-.06.01-.11.07.13-.07.17.06.41-.22-.05.18-.24.24-.13.26l-.08.08c-.21.59.83-.54.54.19.02-.05.02-.07.06-.12,0,.42.6.07.47.64-.01.13.14-.05.29-.17l-.17.25.27-.23c.24-.14-.32.69.08.4l.11-.17c.01.06.19,0,.04.18.03-.03.14-.16.09-.06l-.1.12.26-.14c0,.15-.4.48-.31.59.08-.02.39-.28.44-.37-.01-.02.02-.11.12-.23l.09-.04c.29-.36.62-.71.73-1.04l-.24.18.12-.19.06.03c.1-.19-.03-.06-.13.03.07-.1.11-.17.13-.22l-.33.3c.11-.15.25-.26.27-.37-.16.14-.23.34-.36.41.1-.19.22-.32.07-.2.07-.1.12-.15.17-.18-.12.09-.12-.01-.29.17.13-.23-.14-.03.13-.37-.07.08-.27.23-.31.22.38-.38-.08-.11.28-.54-.33.34-.26.06-.49.22.03-.03.08-.08.07-.06-.01-.06.06-.18.1-.27-.25.3-.36.33-.54.49.19-.33.31-.34.52-.64-.19.25-.28.19-.42.41.11-.21.04-.11.22-.38-.31.38-.08.04-.3.25.1-.23.27-.37.12-.3.07-.14.22-.24.22-.24Zm-1.84-.37s0,0,0,0c.02,0,.03,0,.04,0,0,0-.02,0-.04,0Zm-.11-.08s.02.03.04.05c-.06.08-.12.15-.13.14.05-.05.05-.11.09-.19Zm-.97,1.72s-.01-.03.02-.08c.01,0,.03,0,.05,0,0,0,.02-.02.02-.03-.03.04-.07.08-.09.11Z"/>
        <path class="cls-1" d="m60.7,86.49s.02-.01.02-.01c.01-.02.02-.04.03-.06-.02.02-.04.04-.06.06,0,0,0,0,.01,0Z"/>
        <path class="cls-1" d="m50.94,78.29h0s.01-.01.02-.03c0,.01-.01.02-.02.03Z"/>
        <polygon class="cls-1" points="60.21 83.42 60.17 83.47 60.22 83.43 60.21 83.42"/>
        <path class="cls-1" d="m50.93,77.05s.03-.04.04-.06c-.01.01-.02.04-.04.06Z"/>
        <path class="cls-1" d="m50.7,76.8l.02-.11c-.02.06-.02.09-.02.11Z"/>
        <path class="cls-1" d="m50.59,76.53s-.06.07-.08.09c0,0,0,0,0,0l.08-.09Z"/>
        <path class="cls-1" d="m54,78.79s0,0,.02,0c.05-.03.03-.02-.02,0Z"/>
        <path class="cls-1" d="m52.64,78.56s.08-.06.11-.08c0-.03-.01-.04-.11.08Z"/>
        <polygon class="cls-1" points="55.28 79.37 55.28 79.37 55.28 79.38 55.28 79.37"/>
        <path class="cls-1" d="m52.8,78.52c.02-.06,0-.06-.04-.04,0,.03,0,.06.04.04Z"/>
        <path class="cls-1" d="m49.79,75.74v-.02s-.02.03-.03.03l.03-.02Z"/>
        <path class="cls-1" d="m49.76,75.76l-.03.02s.01,0,.03-.02Z"/>
        <path class="cls-1" d="m49.66,75.81l.07-.04s-.01-.02-.07.04Z"/>
        <path class="cls-1" d="m49.98,76.05l.07-.08s-.04.04-.07.08Z"/>
        <path class="cls-1" d="m50.08,76.09s.09-.21.02-.18l-.05.06c.11-.11-.09.24.03.12Z"/>
        <path class="cls-1" d="m49.64,77.35l-.02-.12c-.06.09-.13.22-.18.22-.11.32.13-.21.19-.1Z"/>
        <path class="cls-1" d="m49.75,77.64c-.07.01-.1.12-.14.17.08-.06.11-.07.14-.17Z"/>
        <path class="cls-1" d="m51.28,78.84l-.16.2c.05,0,.06-.08.16-.2Z"/>
        <polygon class="cls-1" points="52.39 78.03 52.46 77.88 52.3 78.06 52.39 78.03"/>
        <polygon class="cls-1" points="51.43 79.6 51.4 79.62 51.5 79.58 51.43 79.6"/>
        <path class="cls-1" d="m54.05,81.54l.19-.25c-.05.03-.28.3-.19.25Z"/>
        <path class="cls-1" d="m55.36,82.16c-.09.13-.12.24,0,.13-.01-.04.04-.15,0-.13Z"/>
        <polygon class="cls-1" points="58.36 85.17 58.27 85.24 58.37 85.2 58.36 85.17"/>
      </g>
      <line class="cls-3" x1="121.46" y1="21.18" x2="121.23" y2="21.09"/>
      <g>
        <path class="cls-1" d="m77.16,82.44l-.61.29-.69.18-.53-.53-.77-.09-.17-.72-.54-.52-.14-.72.14-.82-.59-.58-.37-.65.05-.79-.2-.7-.47-.61.21-.83-.5-.6-.02-.76-.18-.71-.54-.59-.15-.72-.03-.76-.26-.69-.36-.65-.47-.62-.19-.71-.14-.73-.17-.72v-.78s-.56-.59-.56-.59l-.34-.67.07-.8-.22-.84-.82.2-.53.64-.8-.17-.65.28-.67.23-.72.09-.66.26-.61.24-.69.15-.6-.38-.48-.5-.28-.64-.28-.66.51-.63.15-.58.33-.65.73-.04.7-.27.62-.5.75-.11.77-.04.74-.14.64-.44.65-.44.71-.23.74-.17.75-.14.68-.33.71-.24h.79s.71-.22.71-.22l.62-.52.81.08.74-.15.59-.62.71-.26h.79s.64-.27.64-.27l.63.37.71.03.26.65.61.48-.13.74-.11.64.02.79-.76.19-.54.44-.78-.08-.54.64-.82-.21-.61.43h-.75s-.54.69-.54.69l-.53.11-.17.63.63.57.14.72.16.72-.04.78.56.58.08.74.35.65.23.69.24.69.12.73.39.64.13.72v.77s.39.65.39.65l.22.7.14.73.34.66.08.75.15.72.18.71.63.57.08.75.41.64.25.7-.27.76.16.64v.72s-.58.41-.58.41l-.42.59-.75-.03Z"/>
        <path class="cls-1" d="m96.7,80.96l-.66-.36-.71-.03h-.73s-.65-.31-.65-.31l-.53-.55-.59-.36-.74-.1-.67-.27-.27-.77-.63-.33-.42-.55-.72-.32-.17-.74-.6-.49-.07-.8-.2-.7-.56-.56-.32-.68.02-.76-.17-.71.08-.75v-.73s0-.72,0-.72l-.16-.73v-.73s.08-.73.08-.73l.18-.72.18-.7-.12-.76-.06-.76.34-.68.34-.66.22-.69.03-.78.55-.55.17-.74.37-.64.45-.59.6-.46.55-.48.41-.63.54-.45.76-.12.51-.48.68-.18.6-.33.65-.2.68-.11.62-.4h.7s.69.04.69.04l.7-.36.68.37.69.03.67.21.75-.2.64.34.64.27.71.09.47.62.58.35.77.08.57.41.29.72.46.5.41.54.42.53.68.43.29.68.45.6-.07.81.34.65.43.65.02.75.13.72.03.74-.31.74v.72s.22.73.22.73l-.18.72-.16.71.08.75-.36.68.04.75-.26.69-.1.73-.38.64-.14.73-.4.62-.21.72-.57.5-.34.65-.57.47-.42.6-.5.53-.58.39-.58.38-.38.72-.76.07-.67.19-.62.33-.61.43-.74-.13-.67.24-.71-.27-.68.05-.7.13-.72.14Zm.59-4.63l.72.3.74-.16.67-.34.7-.18.8-.1.65-.42.34-.73.34-.66.78-.38.21-.75.37-.65-.08-.82.49-.62-.07-.78.45-.67.22-.73-.24-.77-.05-.74.21-.73-.06-.73.1-.75-.07-.75-.16-.74-.4-.65-.35-.65-.37-.65-.4-.65-.52-.58-.77-.22-.75-.12-.64-.37-.71-.26-.75-.03-.71.31-.76-.11-.61.45-.61.36-.59.41-.64.38-.53.51-.25.71-.34.64-.61.53-.12.75-.35.67-.11.74-.16.72-.17.72.19.78-.14.74-.08.75.39.73-.25.77.17.73.08.75.57.58.15.74.33.67.59.48.29.78.62.47.83.02.7.2.72.13Z"/>
        <path class="cls-1" d="m111.1,84.88l-.6-.35-.23-.63-.15-.61-.1-.68.27-.64.67-.32.31-.7.43-.59.43-.58.6-.44.4-.61.67-.37.45-.57.37-.64.4-.61.46-.56.51-.51.57-.46.63-.4.2-.8.69-.35.66-.38.24-.76.71-.34.41-.61.3-.7.64-.39.48-.55.3-.71.6-.44.44-.59.42-.61.81-.26.24-.77.86-.27.73-.32.87-.03.87.34.44.45.36.55.48.41.55.41.4.58.69.26.21.8.61.36.6.36.47.55.4.61.74.29.4.61.53.5.16.76.52.52.5.56.2.71.26.69-.09.76.18.71-.37.69-.06.69.18.79-.39.63-.24.69-.51.53-.58.45-.17.79-.72.31-.54.45-.59.38-.56.42-.49.6-.66.33-.72.12-.72.11-.72.04-.71-.22-.76.18-.67-.35-.67-.27-.75-.07-.73-.18-.55-.52-.46-.62-.6-.39-.8-.16-.51-.53-.45-.49-.37-.59-.42-.53-.53-.42-.62-.18-.54.35-.45.53-.39.6-.65.37-.28.7-.53.48-.35.64-.71.32-.33.66-.69.23-.4.59-.68-.1-.68.19-.45-.57-.54-.34Zm10.15-7.7l.75.47.47.6.56.5.69.36.55.42.37.69.73.16.66.22.67.11.66.21.66-.19.74.02.6-.39.45-.55.4-.56.39-.55.37-.55.33-.59.28-.67-.45-.63.04-.7-.13-.72-.66-.37-.21-.71-.55-.42-.66-.29-.38-.63-.53-.46-.7-.29-.41-.58-.39.55-.39.57-.78.22-.21.74-.7.29-.37.59-.33.62-.32.63-.49.48-.58.39-.45.52-.68.48Z"/>
      </g>
    </g>
  </g>
</svg>