<svg width="99" height="82" viewBox="0 0 99 82" fill="none" xmlns="http://www.w3.org/2000/svg">
<path d="M24.7514 78.0836H74.5775M70.9537 66.9054H28.3751C26.4727 66.9054 24.3438 65.6839 23.7096 64.2034L4.9569 21.3411C2.28442 15.1968 5.40987 13.309 11.842 17.0845L29.5075 27.4114C32.4518 29.077 35.8037 28.2257 37.072 25.5237L45.0442 8.16408C47.5808 2.61197 51.7934 2.61197 54.33 8.16408L62.3021 25.5237C63.5704 28.2257 66.9224 29.077 69.8213 27.4114L86.3998 17.7507C93.466 13.6051 96.8633 15.715 93.9643 22.4145L75.6646 64.2774C74.9851 65.6839 72.8562 66.9054 70.9537 66.9054Z" stroke="#B61C31" stroke-width="7" stroke-linecap="round" stroke-linejoin="round"/>
<path d="M36.4338 51.292H34.0178V41.884H30.9138V39.868H39.5378V41.884H36.4338V51.292ZM51.1789 45.564C51.1789 46.4493 51.0669 47.2547 50.8429 47.98C50.6295 48.6947 50.2989 49.3133 49.8509 49.836C49.4135 50.3587 48.8482 50.7587 48.1549 51.036C47.4722 51.3133 46.6669 51.452 45.7389 51.452C44.8109 51.452 44.0002 51.3133 43.3069 51.036C42.6242 50.748 42.0589 50.348 41.6109 49.836C41.1735 49.3133 40.8429 48.6893 40.6189 47.964C40.4055 47.2387 40.2989 46.4333 40.2989 45.548C40.2989 44.364 40.4909 43.3347 40.8749 42.46C41.2695 41.5853 41.8669 40.908 42.6669 40.428C43.4775 39.9373 44.5069 39.692 45.7549 39.692C46.9922 39.692 48.0109 39.9373 48.8109 40.428C49.6109 40.908 50.2029 41.5907 50.5869 42.476C50.9815 43.3507 51.1789 44.38 51.1789 45.564ZM42.8429 45.564C42.8429 46.364 42.9442 47.052 43.1469 47.628C43.3495 48.204 43.6642 48.6467 44.0909 48.956C44.5175 49.2653 45.0669 49.42 45.7389 49.42C46.4322 49.42 46.9869 49.2653 47.4029 48.956C47.8295 48.6467 48.1389 48.204 48.3309 47.628C48.5335 47.052 48.6349 46.364 48.6349 45.564C48.6349 44.3587 48.4109 43.4147 47.9629 42.732C47.5149 42.0493 46.7789 41.708 45.7549 41.708C45.0722 41.708 44.5175 41.8627 44.0909 42.172C43.6642 42.4813 43.3495 42.924 43.1469 43.5C42.9442 44.076 42.8429 44.764 42.8429 45.564ZM57.0173 39.868C58.4893 39.868 59.5613 40.188 60.2333 40.828C60.9159 41.4573 61.2573 42.3267 61.2573 43.436C61.2573 43.9373 61.1826 44.4173 61.0333 44.876C60.8839 45.324 60.6333 45.7293 60.2813 46.092C59.9399 46.444 59.4866 46.7213 58.9213 46.924C58.3559 47.1267 57.6573 47.228 56.8253 47.228H55.7853V51.292H53.3693V39.868H57.0173ZM56.8893 41.852H55.7853V45.244H56.5853C57.0439 45.244 57.4386 45.1853 57.7693 45.068C58.0999 44.9507 58.3559 44.764 58.5373 44.508C58.7186 44.252 58.8093 43.9213 58.8093 43.516C58.8093 42.9507 58.6546 42.5347 58.3453 42.268C58.0359 41.9907 57.5506 41.852 56.8893 41.852ZM62.3601 46.444C62.3601 45.7827 62.4081 45.132 62.5041 44.492C62.6001 43.852 62.7655 43.2493 63.0001 42.684C63.2455 42.108 63.5815 41.6013 64.0081 41.164C64.4455 40.716 64.9948 40.3693 65.6561 40.124C66.3281 39.868 67.1388 39.74 68.0881 39.74C68.3121 39.74 68.5735 39.7507 68.8721 39.772C69.1708 39.7827 69.4215 39.8093 69.6241 39.852V41.788C69.4215 41.7347 69.1975 41.6973 68.9521 41.676C68.7175 41.644 68.4828 41.628 68.2481 41.628C67.5335 41.628 66.9415 41.7133 66.4721 41.884C66.0135 42.0547 65.6508 42.3 65.3841 42.62C65.1175 42.94 64.9201 43.3187 64.7921 43.756C64.6748 44.1827 64.6055 44.6627 64.5841 45.196H64.6801C64.8295 44.94 65.0108 44.716 65.2241 44.524C65.4481 44.3213 65.7201 44.1613 66.0401 44.044C66.3601 43.9267 66.7335 43.868 67.1601 43.868C67.8321 43.868 68.4081 44.012 68.8881 44.3C69.3788 44.5773 69.7575 44.988 70.0241 45.532C70.2908 46.0653 70.4241 46.716 70.4241 47.484C70.4241 48.3053 70.2641 49.0147 69.9441 49.612C69.6348 50.2093 69.1868 50.668 68.6001 50.988C68.0241 51.2973 67.3361 51.452 66.5361 51.452C65.9495 51.452 65.4001 51.3507 64.8881 51.148C64.3868 50.9453 63.9441 50.6413 63.5601 50.236C63.1868 49.82 62.8935 49.2973 62.6801 48.668C62.4668 48.0387 62.3601 47.2973 62.3601 46.444ZM66.4881 49.516C66.9575 49.516 67.3415 49.356 67.6401 49.036C67.9388 48.7053 68.0881 48.1987 68.0881 47.516C68.0881 46.9613 67.9601 46.524 67.7041 46.204C67.4481 45.884 67.0588 45.724 66.5361 45.724C66.1841 45.724 65.8748 45.804 65.6081 45.964C65.3415 46.1133 65.1335 46.3107 64.9841 46.556C64.8348 46.8013 64.7601 47.052 64.7601 47.308C64.7601 47.5747 64.7975 47.8413 64.8721 48.108C64.9468 48.364 65.0535 48.5987 65.1921 48.812C65.3415 49.0253 65.5228 49.196 65.7361 49.324C65.9495 49.452 66.2001 49.516 66.4881 49.516Z" fill="#B61C31"/>
</svg>
