<?xml version="1.0" encoding="UTF-8"?>
<svg id="_圖層_2" data-name="圖層 2" xmlns="http://www.w3.org/2000/svg" viewBox="0 0 364.7 454.28">
  <defs>
    <style>
      .cls-1 {
        fill: #fff;
      }

      .cls-2 {
        fill: #cd1214;
      }
    </style>
  </defs>
  <g id="_圖層_1-2" data-name="圖層 1">
    <g>
      <g>
        <path d="m22.39,59.8C8.74,79.27-1.39,100.68.47,125.08c.9,11.77,5.46,23.39,9.27,34.78,8.04,24.06,26.88,39.96,44.64,56.33,11.01,10.15,24.01,17.7,38.29,22.89,7.61,2.76,14.91,6.39,22.27,9.81,2.5,1.16,2.63,2.89.62,5.07-6.57,7.11-15.79,8.61-24.59,2.01-8.7-6.52-16.27-14.56-24.38-21.88-.66-.6-1.68-.81-2.53-1.21-.22.78-.69,1.57-.64,2.33.75,11.09,4.79,21.14,9.93,30.82.78,1.48,1.58,2.95,1.68,5.24-5.89-4.51-11.78-9.02-18.47-14.15.88,3.64,1.24,6.9,2.48,9.8,1.88,4.42,4.33,8.6,6.61,12.84,6.44,12.02,16.34,21.12,26.11,30.25,2.53,2.36,3.62,4.58,3.52,8.04-.19,6.62-.64,13.4.49,19.85,1.54,8.73,3.74,17.5,7.03,25.71,2.43,6.07,7.08,11.24,10.58,16.91.32.52-.16,2-.74,2.54-5.21,4.92-10.79,9.48-15.64,14.72-1.37,1.48-1.19,4.95-.71,7.3.2.97,3.05,1.95,4.71,1.98,11.48.17,22.97-.09,34.45.16,6.68.14,13.37.78,20.02,1.51,5.05.55,7.92-4,7.66-7.73-.28-4.16-.95-9.07-3.36-12.14-4.2-5.33-2.34-10.88-2.72-16.39-.06-.93-.1-2,.28-2.8.58-1.23,1.34-2.54,2.4-3.3.43-.31,1.96.57,2.78,1.19,5.93,4.43,12.52,8.42,13.89,16.58,1.05,6.26,1.29,12.67,2.64,18.84,1.11,5.07,3.52,9.84,4.96,14.86.55,1.93.5,4.35-.16,6.25-2,5.78-4.91,11.27-6.54,17.14-1.45,5.21,2.01,8.47,7.37,8.34,5.61-.13,11.3-.5,16.83.2,6.3.79,12.4,3.19,18.7,3.86,6.4.68,12.96.43,19.4-.05,2.92-.22,3.75-5.96,1.44-8.47-6.65-7.22-12.9-14.88-20.17-21.43-5.48-4.94-5.55-16.64-2.56-24.05,3.59-8.92,11.77-10.93,18.69-15.47,9.21-6.04,18.23-13.16,25.22-21.57,6.67-8.02,11.17-18.05,15.61-27.66,3.58-7.74,5.64-16.19,8.44-24.3,3.37-9.78,7.21-19.42,10.1-29.33,2.22-7.64,2.57-15.84,5.01-23.38,5.5-16.99,2.41-34.03,1.69-51.11-.1-2.47.56-5.48,1.97-7.44,14.63-20.42,29.38-40.76,44.3-60.97,10.19-13.81,13.17-29.86,14.59-46.29,2.44-28.12-3.27-54.36-19.39-77.93-.89-1.3-1.82-2.59-2.88-3.74-3.09-3.36-6.4-6.85-11.49-5.25-5.09,1.6-6.57,6.38-7.18,10.96-1.67,12.62-2.53,25.35-4.43,37.93-1.72,11.41-5.35,22.32-12.14,31.91-6.11,8.63-12.99,11.16-23.13,8.46-16.02-4.25-32.23-7.92-48-12.98-12.07-3.88-23.57-9.55-35.34-14.37-1.43-.58-3.01-.81-5.46-1.44,4.75-1.39,8.82-2.14,12.53-3.74,13.57-5.86,27.43-11.23,40.41-18.22,21.13-11.38,43.91-18.01,66.48-25.37.72-.23,1.58-.24,2.16-.65,2.1-1.49,4.11-3.11,6.15-4.68-2.11-1.74-4.11-4.84-6.35-5.01-12.1-.93-24.27-1.81-36.38-1.42-16.57.54-33.09,2.32-49.65,3.4-17.95,1.17-35.25-2.84-52.5-7-21.29-5.14-41.95-3.1-60.84,7.74-26.01,14.92-34.72,34.31-27.28,65.4,5.59,23.36,17.23,43.78,29.86,63.78.36.58.76,1.14,2.04,3.04-4.73-1.11-8.54-1.36-11.77-2.87-18.72-8.77-33.2-22.56-41.04-41.46-6.07-14.64-9.02-30.58-13.34-45.94-.77-2.73-1.3-5.54-2.3-8.18-2.16-5.77-6.13-7.84-10.81-4.08-7.12,5.73-14.26,12.03-19.46,19.44Zm85.35,271.41c-.77-33.68,8.19-63.79,33.13-87.95,6.98-6.76,14.33-13.53,17.11-23.44,4.69-16.77,2.44-33.54-3.78-49-7.21-17.94-16.69-35.01-25.92-52.07-7.15-13.22-16.6-25.25-20.35-40.17-2.98-11.86-5.14-24.05,1.29-35.23,13.75-23.89,35.06-34.02,62.29-32.12,2.76.19,5.47.99,9.82,1.82-2.51,1.24-3.5,1.7-4.46,2.21-5.5,2.9-11.1,5.62-16.43,8.79-2.87,1.71-3.7,4.4-1.6,7.62,1.72,2.63,3.16,5.46,4.61,8.26,3.66,7.09,3.57,8.81-2.61,13.85-6.39,5.21-13.35,9.72-19.79,14.88-1.33,1.07-2.12,3.66-2.02,5.48.23,4.29,3.19,5.7,7.23,5.55,11.9-.43,23.89-1.91,35.67-.93,25,2.06,47.01,11.63,64.51,30.14,18.26,19.33,27.96,43.08,35.38,68.18,7.84,26.47,11,53.25,5.74,80.41-6.04,31.25-17,60.92-31.85,89.09-8.88,16.84-21.09,29.58-40.9,33.24-2.42.44-5.24,3.6-6.17,6.13-1.86,5.03-2.52,10.51-3.7,15.8-.86,3.88-2.78,6.43-7.25,5.37-4.75-1.12-5.64-4.99-6.41-9.04-1.35-7.12-1.12-15.26-4.67-21.08-7.07-11.59-18.12-19.56-30.97-24.41-7.19-2.72-7.84-2.02-9.04,5.55-.47,2.97-1.34,5.87-2.25,9.74-4.83-9.8-11.52-10.44-17.43-2.75-1.46,1.9-2.68,3.99-4.24,5.8-.39.45-2.17.48-2.48.07-8.93-11.74-12.15-25.46-12.48-39.79ZM183.49,42.46c-4.46.26-9.26-5.16-9.21-10.44.04-4.05,2.16-6.59,6.28-6.84,5.09-.31,9.58,4.59,9.7,11.12-.13,3.55-2.45,5.92-6.77,6.16Z"/>
        <path class="cls-1" d="m140.87,243.27c-24.93,24.16-33.9,54.27-33.13,87.95.33,14.33,3.55,28.05,12.48,39.79.31.41,2.1.37,2.48-.07,1.56-1.8,2.79-3.9,4.24-5.8,5.91-7.7,12.6-7.05,17.43,2.75.91-3.87,1.79-6.77,2.25-9.74,1.2-7.57,1.85-8.27,9.04-5.55,12.85,4.85,23.9,12.82,30.97,24.41,3.55,5.81,3.32,13.96,4.67,21.08.77,4.05,1.66,7.92,6.41,9.04,4.47,1.06,6.38-1.49,7.25-5.37,1.17-5.29,1.84-10.76,3.7-15.8.93-2.53,3.75-5.69,6.17-6.13,19.81-3.66,32.02-16.4,40.9-33.24,14.85-28.17,25.81-57.84,31.85-89.09,5.25-27.16,2.09-53.94-5.74-80.41-7.42-25.09-17.12-48.85-35.38-68.18-17.5-18.51-39.51-28.09-64.51-30.14-11.79-.97-23.78.5-35.67.93-4.04.15-7.01-1.26-7.23-5.55-.1-1.83.69-4.42,2.02-5.48,6.44-5.16,13.4-9.67,19.79-14.88,6.17-5.03,6.26-6.76,2.61-13.85-1.45-2.8-2.89-5.62-4.61-8.26-2.1-3.21-1.27-5.91,1.6-7.62,5.33-3.17,10.93-5.89,16.43-8.79.96-.5,1.94-.96,4.46-2.21-4.35-.82-7.06-1.62-9.82-1.82-27.23-1.9-48.55,8.22-62.29,32.12-6.43,11.18-4.27,23.37-1.29,35.23,3.75,14.93,13.2,26.95,20.35,40.17,9.23,17.05,18.71,34.13,25.92,52.07,6.22,15.47,8.47,32.23,3.78,49-2.77,9.91-10.13,16.68-17.11,23.44Z"/>
        <path class="cls-1" d="m174.28,32.02c-.05,5.28,4.75,10.7,9.21,10.44,4.32-.25,6.64-2.61,6.77-6.16-.12-6.53-4.61-11.44-9.7-11.12-4.12.25-6.24,2.79-6.28,6.84Z"/>
      </g>
      <path class="cls-2" d="m206.25,421.96s28.73,20.82,25.69,24.42c-1.42,1.68-2.79,3.02-22.13-1.05,0,0-7.99-.8-16.94-1.68,0,0-13.18,1.57-10.54-3.74,0,0,15.67-25.44,23.92-17.95Z"/>
      <path class="cls-2" d="m140.38,370.26s11.3,15.46,14.05,23.23c2.75,7.77-3.61,7.33-13.74,6.3s-31.74,1.05-35-1.06c-2.53-1.64,13.33-14.94,20.51-20.76,1.91-1.55,3.61-3.33,5.06-5.3,2.17-2.95,6.03-6.82,9.12-2.4Z"/>
    </g>
  </g>
</svg>