<svg xmlns="http://www.w3.org/2000/svg" xmlns:xlink="http://www.w3.org/1999/xlink" viewBox="0 0 404.79 482.87"><defs><style>.cls-1{fill:url(#未命名漸層_172);}.cls-2{font-size:72px;fill:#fff;font-family:GenSenRoundedTW-M, GenSenRounded TW;}.cls-3{fill:#6a6b68;}</style><linearGradient id="未命名漸層_172" x1="19.81" y1="109.96" x2="404.79" y2="109.96" gradientUnits="userSpaceOnUse"><stop offset="0" stop-color="#903"/><stop offset="0.05" stop-color="#9e0033"/><stop offset="0.41" stop-color="#b70033"/><stop offset="0.74" stop-color="#c70033"/><stop offset="0.99" stop-color="#c03"/></linearGradient></defs><g id="圖層_2" data-name="圖層 2"><g id="圖層_1-2" data-name="圖層 1"><path class="cls-1" d="M404.79,194c-52.13,35.85-108.27,10.22-168.44-21.83C176.18,140.79,112,103,43.79,131.2q-12.66-43.75-24-83.5c68.61-59.57,132-39.32,190.29-16.37,58.24,23.92,111.31,50.55,159.2,25.93C380.51,104.55,392.34,150.24,404.79,194Z"/><text class="cls-2" transform="matrix(1.01, 0.01, -0.01, 1, 51.94, 97.98)">N</text><text class="cls-2" transform="matrix(1.01, 0.11, -0.11, 0.99, 108.06, 98.97)">E</text><text class="cls-2" transform="translate(153.51 102.38) rotate(16.02) scale(1.01 1)">W</text><text class="cls-2" transform="translate(214.93 122.2) rotate(35.46) scale(1.01 1)">S</text><path class="cls-3" d="M10,17.59,20.77,63.51,46.58,173.79,77.79,307.2l27,115.32c4.35,18.57,7.79,37.67,13.1,56,.08.25.12.52.19.78,1.46,6.26,11.11,3.61,9.64-2.66L117,430.72,91.16,320.44,59.94,187,33,71.71c-4.35-18.58-7.8-37.67-13.11-56-.07-.26-.12-.52-.18-.78C18.2,8.67,8.56,11.32,10,17.59Z"/><circle class="cls-3" cx="11.81" cy="11.81" r="11.81"/></g></g></svg>