<?xml version="1.0" encoding="UTF-8"?>
<svg id="_圖層_2" data-name="圖層 2" xmlns="http://www.w3.org/2000/svg" viewBox="0 0 643.74 313.4">
  <defs>
    <style>
      .cls-1 {
        fill: #6a6b68;
      }

      .cls-2 {
        fill: #81a54c;
      }
    </style>
  </defs>
  <g id="_圖層_1-2" data-name="圖層 1">
    <g>
      <g>
        <path class="cls-2" d="m93.94,197.76c7.32-1.29,7.37-5.46,8.94-7.13-.79-1.9-2.78-2.57-4.09-3.97-2.92-3.15-3.01-3.51.8-5.48,4.48-2.31,7.61-5.56,8.76-10.63.43-1.92,1.46-3.7,2.22-5.54-.47-.67.58-1.8-.36-2.11-1.05-.34-1.4.79-1.88,1.53-.18.28-.54.44-.82.66-6,8.03-13.52,13.27-23.93,13.19,1.18-.8,2.59-1.16,3.79-1.88.68-.4,2.3,0,1.92-1.4-.23-.86-1.5-.77-2.39-.94-1.98-.36-3.93-.82-5.63-2.02-2.01-1.42-2.17-2.48-.26-4.09,1.6-1.34,3.29-2.61,5.42-3.04,9.12-5.68,14.56-14.89,21.93-22.29-2.01-.31-3.61.26-4.91,1.22-5.3,3.96-10.99,3.32-16.81,1.68-.49.03-1.02-.09-1.12-.57-.15-.77.53-.54.89-.5,1.53.14,2.85-.41,4.1-1.19.89-.62,1.72-1.38,2.69-1.84,3.06-1.45,5.85-3.21,7.91-6,3.29-4.46,6.64-8.88,9.97-13.31,1.14-2.14.42-3.04-1.9-3.64-4.46-1.16-7.83-3.79-9.49-8.3-1.44-3.92.22-6.54,4.28-6.43,2.84.07,5.44-.5,7.79-2.13,4.63-2.66,5.42-8.17,8.73-11.89,2.17-2.44,1.38-3.61-1.75-4.77-.77-.28-1.64-.38-2.31-.8-3.2-2-6.27-4.66-4.19-7.71,1.48-2.16,3.09-4.1,5.98-4.54,2.49-.37,4.17-1.78,4.64-4.46.25-1.44.54-3.01,1.31-4.2,2.46-3.81,3.32-7.99,3.47-12.4.09-2.78.15-5.56.28-8.34.16-3.24.37-6.48.63-9.71.08-.93.41-1.88,1.58-1.99.99-.09,1.25.75,1.41,1.44.83,3.63,2.86,6.76,4.12,10.2,1.04,1.63.43,3.43.46,5.14.08,4.43-.4,8.91,1.27,13.18h0c.92.79.49,1.9.58,2.84.17,1.86.39,3.68,1.59,5.15,2.2,2.69,3.21,5.7,2.87,9.16,1.22,3.02,4.14,3.99,6.63,5.49,2.53,1.52,2.76,2.58,1.18,5.36-.29.96-.95,1.64-1.59,2.4-.96,1.13-2.21,2.52-.65,4.18.51.03.93.24,1.01.76.59,3.87,2.75,6.27,6.54,7.37,1.67.48,3.22,1.36,4.84,2,3.49,1.37,6.62,3.25,9.01,6.21,1.48,1.83,1.18,3.18-.9,4.28-.41.2-.8.46-1.24.58-2.52.64-4.01,1.67-1.81,4.31.26.31.47.87,0,1.23-.51.38-1.01.08-1.54-.11-3.58-1.28-7.01-2.99-11.06-2.67-2.23.17-2.83.74-1.95,2.76.15-.07.26-.04.34.11,1.46,1.99,3.08,3.83,4.71,5.67,2.91,3.29,7.01,5.18,9.77,8.63,1.85,2.31,4.3,3.4,7.31,3.33,1.46-.04,2.82.41,4.24,1.02,2.82,1.22,4.92,3.25,7.06,5.28,2.71,2.58,5.42,5.08,9.55,5,1.57-.03,2.64,1.24,3.96,1.86.38.17.89.63.53,1.08-.41.53-.98.27-1.41-.16-1.76.04-3.52.06-5.28.11-1.35.04-2.28.63-2.49,2.06.86,1.13,1.73,2.27,2.93,3.84-1.49-.34-2.44-.43-2.98-1.44-1.53.1-2.8-.72-4.16-1.19-3.49-1.22-6.73-3.23-10.6-3.26-3.24-.02-3.24-.04-2.42,2.99,1.08.72.76,2.17,1.58,3.02,1.52,1.61,2.86,3.33,3.36,5.56,2.33,3.66,5.65,6.29,9.1,8.78,1.39,1,2.6,2.12,2.97,4.1-2.11-.59-3.9-1.27-5.75-1.58-8.41-1.44-15.21-5.69-21-11.77-4.55-3.89-8.3-8.54-12.28-12.98-.6-.66-1.14-1.84-2.15-1.34-.78.39-.23,1.48-.11,2.25.27,1.7,1.1,3.3.88,5.09,1.01,1.4.83,3.21,1.57,4.7,1.54,2.76,3.08,5.51,4.63,8.27,2.18,2.12,4.68,4.14,5.72,6.99,1.66,4.52,5.11,7.29,8.57,10.19,2.25,1.89,4.34,3.98,6.56,5.91,1.01.88.48,1.94.35,2.81-.09.63-.9.16-1.35-.14-4.92-.36-9.83-.74-14.75-1.04-.6-.04-1.57-.53-1.85.56-.2.78.51,1.14.99,1.52.78.62,1.64,1.15,2.47,1.72,3.46,2.41,7.26,4.34,10.41,7.2-33.62,0-47.8-.92-81.43-.84-1.98,0,3.44-8.18,3.44-8.18Z"/>
        <path class="cls-2" d="m53.22,195.84c5.76-1.02,5.8-4.3,7.04-5.62-.63-1.49-2.19-2.02-3.22-3.13-2.3-2.48-2.37-2.77.63-4.32,3.53-1.82,6-4.38,6.9-8.38.34-1.51,1.15-2.91,1.75-4.37-.37-.53.46-1.42-.28-1.66-.82-.27-1.11.62-1.48,1.2-.14.22-.43.35-.65.52-4.73,6.32-10.65,10.46-18.85,10.39.93-.63,2.04-.92,2.99-1.48.53-.32,1.81,0,1.51-1.11-.18-.68-1.18-.61-1.88-.74-1.56-.28-3.09-.65-4.44-1.59-1.58-1.12-1.71-1.96-.2-3.22,1.26-1.06,2.59-2.05,4.27-2.39,7.18-4.48,11.47-11.73,17.27-17.56-1.58-.24-2.84.2-3.86.96-4.17,3.12-8.65,2.61-13.24,1.32-.39.02-.81-.07-.88-.45-.12-.6.42-.42.7-.4,1.21.11,2.24-.32,3.23-.94.7-.49,1.36-1.08,2.12-1.45,2.41-1.14,4.61-2.53,6.23-4.72,2.59-3.51,5.23-6.99,7.85-10.49.9-1.69.33-2.4-1.49-2.87-3.51-.91-6.17-2.99-7.48-6.54-1.14-3.09.18-5.15,3.37-5.07,2.24.06,4.29-.39,6.13-1.68,3.65-2.1,4.27-6.43,6.88-9.36,1.71-1.92,1.08-2.85-1.38-3.76-.6-.22-1.29-.3-1.82-.63-2.52-1.57-4.94-3.67-3.3-6.07,1.17-1.7,2.44-3.23,4.71-3.57,1.96-.29,3.28-1.4,3.65-3.51.2-1.13.42-2.37,1.03-3.31,1.94-3,2.62-6.29,2.73-9.77.07-2.19.11-4.38.22-6.57.13-2.55.29-5.1.49-7.65.06-.73.32-1.48,1.24-1.57.78-.07.99.59,1.11,1.13.65,2.86,2.25,5.33,3.25,8.04.82,1.28.34,2.7.37,4.05.07,3.49-.32,7.01,1,10.38h0c.73.62.39,1.5.46,2.23.13,1.46.31,2.9,1.25,4.05,1.73,2.12,2.53,4.49,2.26,7.21.96,2.38,3.26,3.14,5.22,4.32,1.99,1.2,2.17,2.03.93,4.23-.23.76-.75,1.29-1.25,1.89-.75.89-1.74,1.99-.51,3.29.4.02.74.19.8.6.47,3.05,2.17,4.94,5.15,5.8,1.31.38,2.53,1.07,3.81,1.58,2.75,1.08,5.21,2.56,7.09,4.89,1.16,1.44.93,2.5-.71,3.37-.32.15-.63.37-.97.45-1.98.51-3.16,1.31-1.43,3.39.2.24.37.69,0,.97-.4.3-.8.07-1.22-.08-2.82-1.01-5.52-2.35-8.71-2.1-1.76.14-2.23.58-1.53,2.17.12-.06.21-.03.27.09,1.15,1.56,2.42,3.01,3.71,4.47,2.29,2.59,5.52,4.08,7.7,6.79,1.46,1.82,3.38,2.68,5.76,2.62,1.15-.03,2.22.32,3.34.8,2.22.96,3.87,2.56,5.56,4.16,2.13,2.03,4.27,4,7.52,3.94,1.24-.03,2.08.98,3.12,1.46.3.14.7.49.42.85-.32.42-.77.21-1.11-.13-1.39.03-2.77.05-4.16.09-1.07.03-1.8.49-1.96,1.63.68.89,1.36,1.78,2.31,3.03-1.17-.27-1.92-.34-2.35-1.14-1.2.08-2.21-.57-3.28-.94-2.75-.96-5.3-2.55-8.35-2.57-2.56-.02-2.56-.03-1.91,2.36.85.56.6,1.71,1.24,2.38,1.2,1.27,2.25,2.62,2.65,4.38,1.84,2.88,4.45,4.95,7.17,6.92,1.09.79,2.05,1.67,2.34,3.23-1.66-.47-3.07-1-4.53-1.25-6.62-1.14-11.98-4.49-16.54-9.27-3.59-3.06-6.54-6.73-9.67-10.22-.47-.52-.89-1.45-1.69-1.06-.62.3-.18,1.17-.09,1.77.21,1.34.86,2.6.69,4.01.8,1.11.65,2.53,1.24,3.7,1.21,2.17,2.43,4.34,3.64,6.51,1.71,1.67,3.68,3.26,4.51,5.5,1.31,3.56,4.03,5.74,6.75,8.03,1.77,1.49,3.42,3.14,5.17,4.65.8.69.38,1.53.28,2.21-.07.5-.71.12-1.07-.11-3.87-.28-7.74-.58-11.62-.82-.48-.03-1.23-.42-1.45.44-.16.62.4.9.78,1.19.62.49,1.3.9,1.94,1.35,2.73,1.9,5.72,3.42,8.2,5.67-26.48,0-37.65-.73-64.14-.66-1.56,0,2.71-6.44,2.71-6.44Z"/>
        <path class="cls-2" d="m11.23,262.51c5.76-1.02,5.8-4.3,7.04-5.62-.63-1.49-2.19-2.02-3.22-3.13-2.3-2.48-2.37-2.77.63-4.32,3.53-1.82,6-4.38,6.9-8.38.34-1.51,1.15-2.91,1.75-4.37-.37-.53.46-1.42-.28-1.66-.82-.27-1.11.62-1.48,1.2-.14.22-.43.35-.65.52-4.73,6.32-10.65,10.46-18.85,10.39.93-.63,2.04-.92,2.99-1.48.53-.32,1.81,0,1.51-1.11-.18-.68-1.18-.61-1.88-.74-1.56-.28-3.09-.65-4.44-1.59-1.58-1.12-1.71-1.96-.2-3.22,1.26-1.06,2.59-2.05,4.27-2.39,7.18-4.48,11.47-11.73,17.27-17.56-1.58-.24-2.84.2-3.86.96-4.17,3.12-8.65,2.61-13.24,1.32-.39.02-.81-.07-.88-.45-.12-.6.42-.42.7-.4,1.21.11,2.24-.32,3.23-.94.7-.49,1.36-1.08,2.12-1.45,2.41-1.14,4.61-2.53,6.23-4.72,2.59-3.51,5.23-6.99,7.85-10.49.9-1.69.33-2.4-1.49-2.87-3.51-.91-6.17-2.99-7.48-6.54-1.14-3.09.18-5.15,3.37-5.07,2.24.06,4.29-.39,6.13-1.68,3.65-2.1,4.27-6.43,6.88-9.36,1.71-1.92,1.08-2.85-1.38-3.76-.6-.22-1.29-.3-1.82-.63-2.52-1.57-4.94-3.67-3.3-6.07,1.17-1.7,2.44-3.23,4.71-3.57,1.96-.29,3.28-1.4,3.65-3.51.2-1.13.42-2.37,1.03-3.31,1.94-3,2.62-6.29,2.73-9.77.07-2.19.11-4.38.22-6.57.13-2.55.29-5.1.49-7.65.06-.73.32-1.48,1.24-1.57.78-.07.99.59,1.11,1.13.65,2.86,2.25,5.33,3.25,8.04.82,1.28.34,2.7.37,4.05.07,3.49-.32,7.01,1,10.38h0c.73.62.39,1.5.46,2.23.13,1.46.31,2.9,1.25,4.05,1.73,2.12,2.53,4.49,2.26,7.21.96,2.38,3.26,3.14,5.22,4.32,1.99,1.2,2.17,2.03.93,4.23-.23.76-.75,1.29-1.25,1.89-.75.89-1.74,1.99-.51,3.29.4.02.74.19.8.6.47,3.05,2.17,4.94,5.15,5.8,1.31.38,2.53,1.07,3.81,1.58,2.75,1.08,5.21,2.56,7.09,4.89,1.16,1.44.93,2.5-.71,3.37-.32.15-.63.37-.97.45-1.98.51-3.16,1.31-1.43,3.39.2.24.37.69,0,.97-.4.3-.8.07-1.22-.08-2.82-1.01-5.52-2.35-8.71-2.1-1.76.14-2.23.58-1.53,2.17.12-.06.21-.03.27.09,1.15,1.56,2.42,3.01,3.71,4.47,2.29,2.59,5.52,4.08,7.7,6.79,1.46,1.82,3.38,2.68,5.76,2.62,1.15-.03,2.22.32,3.34.8,2.22.96,3.87,2.56,5.56,4.16,2.13,2.03,4.27,4,7.52,3.94,1.24-.03,2.08.98,3.12,1.46.3.14.7.49.42.85-.32.42-.77.21-1.11-.13-1.39.03-2.77.05-4.16.09-1.07.03-1.8.49-1.96,1.63.68.89,1.36,1.78,2.31,3.03-1.17-.27-1.92-.34-2.35-1.14-1.2.08-2.21-.57-3.28-.94-2.75-.96-5.3-2.55-8.35-2.57-2.56-.02-2.56-.03-1.91,2.36.85.56.6,1.71,1.24,2.38,1.2,1.27,2.25,2.62,2.65,4.38,1.84,2.88,4.45,4.95,7.17,6.92,1.09.79,2.05,1.67,2.34,3.23-1.66-.47-3.07-1-4.53-1.25-6.62-1.14-11.98-4.49-16.54-9.27-3.59-3.06-6.54-6.73-9.67-10.22-.47-.52-.89-1.45-1.69-1.06-.62.3-.18,1.17-.09,1.77.21,1.34.86,2.6.69,4.01.8,1.11.65,2.53,1.24,3.7,1.21,2.17,2.43,4.34,3.64,6.51,1.71,1.67,3.68,3.26,4.51,5.5,1.31,3.56,4.03,5.74,6.75,8.03,1.77,1.49,3.42,3.14,5.17,4.65.8.69.38,1.53.28,2.21-.07.5-.71.12-1.07-.11-3.87-.28-7.74-.58-11.62-.82-.48-.03-1.23-.42-1.45.44-.16.62.4.9.78,1.19.62.49,1.3.9,1.94,1.35,2.73,1.9,5.72,3.42,8.2,5.67-26.48,0-37.65-.73-64.14-.66-1.56,0,2.71-6.44,2.71-6.44Z"/>
        <path class="cls-2" d="m146.67,172.8c7.32-1.29,7.37-5.46,8.94-7.13-.79-1.9-2.78-2.57-4.09-3.97-2.92-3.15-3.01-3.51.8-5.48,4.48-2.31,7.61-5.56,8.76-10.63.43-1.92,1.46-3.7,2.22-5.54-.47-.67.58-1.8-.36-2.11-1.05-.34-1.4.79-1.88,1.53-.18.28-.54.44-.82.66-6,8.03-13.52,13.27-23.93,13.19,1.18-.8,2.59-1.16,3.79-1.88.68-.4,2.3,0,1.92-1.4-.23-.86-1.5-.77-2.39-.94-1.98-.36-3.93-.82-5.63-2.02-2.01-1.42-2.17-2.48-.26-4.09,1.6-1.34,3.29-2.61,5.42-3.04,9.12-5.68,14.56-14.89,21.93-22.29-2.01-.31-3.61.26-4.91,1.22-5.3,3.96-10.99,3.32-16.81,1.68-.49.03-1.02-.09-1.12-.57-.15-.77.53-.54.89-.5,1.53.14,2.85-.41,4.1-1.19.89-.62,1.72-1.38,2.69-1.84,3.06-1.45,5.85-3.21,7.91-6,3.29-4.46,6.64-8.88,9.97-13.31,1.14-2.14.42-3.04-1.9-3.64-4.46-1.16-7.83-3.79-9.49-8.3-1.44-3.92.22-6.54,4.28-6.43,2.84.07,5.44-.5,7.79-2.13,4.63-2.66,5.42-8.17,8.73-11.89,2.17-2.44,1.38-3.61-1.75-4.77-.77-.28-1.64-.38-2.31-.8-3.2-2-6.27-4.66-4.19-7.71,1.48-2.16,3.09-4.1,5.98-4.54,2.49-.37,4.17-1.78,4.64-4.46.25-1.44.54-3.01,1.31-4.2,2.46-3.81,3.32-7.99,3.47-12.4.09-2.78.15-5.56.28-8.34.16-3.24.37-6.48.63-9.71.08-.93.41-1.88,1.58-1.99.99-.09,1.25.75,1.41,1.44.83,3.63,2.86,6.76,4.12,10.2,1.04,1.63.43,3.43.46,5.14.08,4.43-.4,8.91,1.27,13.18h0c.92.79.49,1.9.58,2.84.17,1.86.39,3.68,1.59,5.15,2.2,2.69,3.21,5.7,2.87,9.16,1.22,3.02,4.14,3.99,6.63,5.49,2.53,1.52,2.76,2.58,1.18,5.36-.29.96-.95,1.64-1.59,2.4-.96,1.13-2.21,2.52-.65,4.18.51.03.93.24,1.01.76.59,3.87,2.75,6.27,6.54,7.37,1.67.48,3.22,1.36,4.84,2,3.49,1.37,6.62,3.25,9.01,6.21,1.48,1.83,1.18,3.18-.9,4.28-.41.2-.8.46-1.24.58-2.52.64-4.01,1.67-1.81,4.31.26.31.47.87,0,1.23-.51.38-1.01.08-1.54-.11-3.58-1.28-7.01-2.99-11.06-2.67-2.23.17-2.83.74-1.95,2.76.15-.07.26-.04.34.11,1.46,1.99,3.08,3.83,4.71,5.67,2.91,3.29,7.01,5.18,9.77,8.63,1.85,2.31,4.3,3.4,7.31,3.33,1.46-.04,2.82.41,4.24,1.02,2.82,1.22,4.92,3.25,7.06,5.28,2.71,2.58,5.42,5.08,9.55,5,1.57-.03,2.64,1.24,3.96,1.86.38.17.89.63.53,1.08-.41.53-.98.27-1.41-.16-1.76.04-3.52.06-5.28.11-1.35.04-2.28.63-2.49,2.06.86,1.13,1.73,2.27,2.93,3.84-1.49-.34-2.44-.43-2.98-1.44-1.53.1-2.8-.72-4.16-1.19-3.49-1.22-6.73-3.23-10.6-3.26-3.24-.02-3.24-.04-2.42,2.99,1.08.72.76,2.17,1.58,3.02,1.52,1.61,2.86,3.33,3.36,5.56,2.33,3.66,5.65,6.29,9.1,8.78,1.39,1,2.6,2.12,2.97,4.1-2.11-.59-3.9-1.27-5.75-1.58-8.41-1.44-15.21-5.69-21-11.77-4.55-3.89-8.3-8.54-12.28-12.98-.6-.66-1.14-1.84-2.15-1.34-.78.39-.23,1.48-.11,2.25.27,1.7,1.1,3.3.88,5.09,1.01,1.4.83,3.21,1.57,4.7,1.54,2.76,3.08,5.51,4.63,8.27,2.18,2.12,4.68,4.14,5.72,6.99,1.66,4.52,5.11,7.29,8.57,10.19,2.25,1.89,4.34,3.98,6.56,5.91,1.01.88.48,1.94.35,2.81-.09.63-.9.16-1.35-.14-4.92-.36-9.83-.74-14.75-1.04-.6-.04-1.57-.53-1.85.56-.2.78.51,1.14.99,1.52.78.62,1.64,1.15,2.47,1.72,3.46,2.41,7.26,4.34,10.41,7.2-33.62,0-47.8-.92-81.43-.84-1.98,0,3.44-8.18,3.44-8.18Z"/>
        <path class="cls-2" d="m211.42,159.07c7.43-.11,8.15-4.22,9.96-5.62-.48-2-2.34-2.98-3.4-4.57-2.38-3.57-2.41-3.95,1.67-5.28,4.79-1.57,8.4-4.27,10.34-9.1.73-1.82,2.03-3.42,3.07-5.12-.35-.73.86-1.68-.02-2.14-.98-.51-1.51.56-2.1,1.21-.22.25-.61.35-.91.52-7.21,6.97-15.46,10.95-25.73,9.21,1.29-.6,2.74-.74,4.05-1.25.73-.29,2.27.36,2.12-1.08-.09-.89-1.35-1-2.21-1.31-1.9-.67-3.75-1.43-5.24-2.89-1.76-1.72-1.75-2.8.4-4.08,1.79-1.07,3.66-2.05,5.84-2.13,9.91-4.16,16.75-12.38,25.2-18.51-1.93-.62-3.6-.32-5.04.43-5.86,3.07-11.38,1.53-16.86-1.02-.49-.05-1-.25-1.01-.74-.03-.78.61-.44.96-.35,1.49.38,2.88.05,4.24-.52.98-.47,1.92-1.08,2.95-1.38,3.26-.95,6.29-2.23,8.76-4.66,3.96-3.88,7.97-7.71,11.97-11.56,1.46-1.93.9-2.93-1.29-3.9-4.22-1.86-7.13-4.99-8.05-9.71-.8-4.1,1.26-6.42,5.25-5.67,2.79.52,5.45.37,8.03-.86,5-1.89,6.66-7.2,10.51-10.34,2.53-2.06,1.93-3.35-.96-4.99-.71-.4-1.56-.63-2.15-1.16-2.84-2.48-5.45-5.6-2.91-8.28,1.81-1.9,3.71-3.56,6.63-3.52,2.52.03,4.4-1.1,5.29-3.66.48-1.38,1.01-2.89,1.96-3.94,3.04-3.37,4.55-7.35,5.4-11.69.53-2.73,1.03-5.47,1.61-8.19.68-3.17,1.39-6.34,2.17-9.49.22-.91.7-1.79,1.87-1.72.99.07,1.12.94,1.16,1.64.24,3.71,1.74,7.13,2.44,10.73.76,1.77-.12,3.45-.36,5.15-.62,4.39-1.82,8.73-.85,13.22h0c.79.92.19,1.96.12,2.89-.13,1.86-.2,3.7.75,5.33,1.74,3.01,2.26,6.14,1.37,9.5.73,3.17,3.45,4.6,5.67,6.47,2.25,1.9,2.31,2.98.31,5.48-.44.91-1.2,1.47-1.96,2.12-1.12.96-2.59,2.14-1.31,4.02.5.11.88.39.88.92-.03,3.92,1.72,6.63,5.28,8.31,1.57.74,2.96,1.86,4.46,2.75,3.22,1.91,6.01,4.27,7.9,7.57,1.17,2.04.66,3.33-1.57,4.08-.44.13-.87.33-1.31.37-2.59.24-4.23,1.01-2.47,3.97.21.35.33.94-.2,1.22-.56.29-1.01-.08-1.51-.35-3.33-1.83-6.44-4.06-10.49-4.4-2.23-.18-2.92.28-2.36,2.41.16-.05.26,0,.32.17,1.12,2.19,2.43,4.27,3.75,6.35,2.35,3.71,6.09,6.23,8.27,10.07,1.46,2.57,3.7,4.04,6.68,4.45,1.45.2,2.72.86,4.02,1.68,2.59,1.65,4.34,3.99,6.12,6.34,2.26,2.98,4.54,5.88,8.63,6.45,1.55.22,2.4,1.65,3.62,2.47.34.23.78.76.35,1.16-.49.46-1.01.11-1.37-.38-1.74-.24-3.48-.5-5.23-.73-1.34-.18-2.35.26-2.79,1.64.67,1.26,1.35,2.51,2.28,4.26-1.41-.57-2.34-.82-2.71-1.9-1.52-.15-2.65-1.16-3.92-1.84-3.25-1.76-6.13-4.27-9.94-4.91-3.2-.54-3.2-.55-2.87,2.57.96.88.41,2.26,1.07,3.24,1.25,1.83,2.29,3.74,2.43,6.02,1.72,3.98,4.57,7.11,7.58,10.12,1.21,1.21,2.23,2.51,2.28,4.52-1.99-.92-3.65-1.87-5.43-2.48-8.07-2.77-14.11-8.05-18.85-14.97-3.87-4.57-6.84-9.75-10.05-14.77-.48-.75-.83-2-1.9-1.67-.83.26-.46,1.43-.47,2.21,0,1.72.56,3.43.06,5.16.78,1.55.3,3.3.8,4.89,1.08,2.97,2.17,5.94,3.25,8.9,1.81,2.44,3.96,4.83,4.54,7.81.92,4.73,3.89,8.01,6.83,11.43,1.92,2.23,3.65,4.62,5.54,6.88.86,1.03.17,1.99-.1,2.83-.19.61-.91.01-1.32-.35-4.8-1.14-9.59-2.3-14.4-3.38-.59-.13-1.46-.77-1.91.26-.32.74.32,1.2.73,1.65.67.74,1.44,1.39,2.16,2.09,3.03,2.93,6.47,5.44,9.13,8.77-33.19-5.36-47.04-8.53-80.25-13.81-1.95-.31,4.7-7.53,4.7-7.53Z"/>
      </g>
      <g>
        <path class="cls-2" d="m614.41,178.23c-4.67-.82-4.7-3.49-5.71-4.55.51-1.21,1.78-1.64,2.61-2.53,1.86-2.01,1.92-2.24-.51-3.5-2.86-1.48-4.86-3.55-5.59-6.79-.28-1.22-.93-2.36-1.41-3.54.3-.43-.37-1.15.23-1.34.67-.22.9.51,1.2.98.12.18.35.28.52.42,3.83,5.12,8.63,8.47,15.27,8.42-.75-.51-1.65-.74-2.42-1.2-.43-.26-1.47,0-1.23-.9.15-.55.95-.49,1.53-.6,1.26-.23,2.51-.52,3.59-1.29,1.28-.9,1.38-1.58.16-2.61-1.02-.86-2.1-1.66-3.46-1.94-5.82-3.63-9.29-9.5-13.99-14.22,1.28-.2,2.3.16,3.13.78,3.38,2.53,7.01,2.12,10.72,1.07.31.02.65-.06.71-.36.1-.49-.34-.34-.57-.32-.98.09-1.82-.26-2.62-.76-.57-.4-1.1-.88-1.72-1.17-1.96-.93-3.73-2.05-5.05-3.83-2.1-2.85-4.24-5.67-6.36-8.5-.73-1.37-.27-1.94,1.21-2.33,2.85-.74,5-2.42,6.06-5.3.92-2.5-.14-4.17-2.73-4.1-1.81.05-3.47-.32-4.97-1.36-2.96-1.7-3.46-5.21-5.57-7.59-1.38-1.56-.88-2.31,1.11-3.05.49-.18,1.04-.24,1.47-.51,2.04-1.27,4-2.98,2.67-4.92-.94-1.38-1.97-2.62-3.82-2.89-1.59-.24-2.66-1.14-2.96-2.85-.16-.92-.34-1.92-.83-2.68-1.57-2.43-2.12-5.1-2.21-7.91-.06-1.77-.09-3.55-.18-5.32-.1-2.07-.23-4.13-.4-6.2-.05-.59-.26-1.2-1.01-1.27-.63-.06-.8.48-.9.92-.53,2.31-1.82,4.31-2.63,6.51-.66,1.04-.28,2.19-.3,3.28-.05,2.83.26,5.68-.81,8.41h0c-.59.5-.32,1.21-.37,1.81-.11,1.19-.25,2.35-1.01,3.28-1.4,1.72-2.05,3.64-1.83,5.84-.78,1.93-2.64,2.55-4.23,3.5-1.61.97-1.76,1.64-.75,3.42.19.62.6,1.05,1.02,1.53.61.72,1.41,1.61.42,2.67-.32.02-.6.15-.65.49-.38,2.47-1.76,4-4.17,4.7-1.06.31-2.05.87-3.09,1.28-2.23.88-4.22,2.08-5.75,3.96-.94,1.17-.76,2.03.57,2.73.26.12.51.3.79.37,1.61.41,2.56,1.06,1.15,2.75-.17.2-.3.56,0,.79.32.24.65.05.99-.07,2.29-.82,4.47-1.91,7.06-1.7,1.42.11,1.81.47,1.24,1.76-.1-.05-.17-.02-.22.07-.93,1.27-1.96,2.44-3.01,3.62-1.86,2.1-4.47,3.31-6.23,5.5-1.18,1.47-2.74,2.17-4.66,2.12-.93-.02-1.8.26-2.7.65-1.8.78-3.14,2.07-4.5,3.37-1.73,1.65-3.46,3.24-6.09,3.19-1-.02-1.68.79-2.53,1.19-.24.11-.57.4-.34.69.26.34.62.17.9-.1,1.12.02,2.25.04,3.37.07.86.03,1.46.4,1.59,1.32-.55.72-1.1,1.45-1.87,2.45.95-.22,1.56-.28,1.9-.92.98.06,1.79-.46,2.66-.76,2.23-.78,4.3-2.06,6.76-2.08,2.07-.02,2.07-.02,1.54,1.91-.69.46-.49,1.38-1.01,1.93-.97,1.03-1.82,2.12-2.14,3.55-1.49,2.33-3.6,4.01-5.81,5.6-.89.64-1.66,1.35-1.9,2.61,1.34-.38,2.49-.81,3.67-1.01,5.37-.92,9.7-3.63,13.4-7.51,2.91-2.48,5.3-5.45,7.84-8.28.38-.42.72-1.17,1.37-.86.5.25.15.95.07,1.44-.17,1.08-.7,2.11-.56,3.25-.65.9-.53,2.05-1,3-.98,1.76-1.97,3.52-2.95,5.28-1.39,1.35-2.98,2.64-3.65,4.46-1.06,2.89-3.26,4.65-5.47,6.5-1.44,1.21-2.77,2.54-4.19,3.77-.65.56-.31,1.24-.23,1.79.06.4.57.1.86-.09,3.14-.23,6.27-.47,9.41-.66.38-.02,1-.34,1.18.36.13.5-.33.73-.63.97-.5.4-1.05.73-1.57,1.1-2.21,1.54-4.63,2.77-6.64,4.59,21.46,0,30.5-.59,51.96-.54,1.26,0-2.2-5.22-2.2-5.22Z"/>
        <path class="cls-2" d="m580.92,159.11c-4.67-.82-4.7-3.49-5.71-4.55.51-1.21,1.78-1.64,2.61-2.53,1.86-2.01,1.92-2.24-.51-3.5-2.86-1.48-4.86-3.55-5.59-6.79-.28-1.22-.93-2.36-1.41-3.54.3-.43-.37-1.15.23-1.34.67-.22.9.51,1.2.98.12.18.35.28.52.42,3.83,5.12,8.63,8.47,15.27,8.42-.75-.51-1.65-.74-2.42-1.2-.43-.26-1.47,0-1.23-.9.15-.55.95-.49,1.53-.6,1.26-.23,2.51-.52,3.59-1.29,1.28-.9,1.38-1.58.16-2.61-1.02-.86-2.1-1.66-3.46-1.94-5.82-3.63-9.29-9.5-13.99-14.22,1.28-.2,2.3.16,3.13.78,3.38,2.53,7.01,2.12,10.72,1.07.31.02.65-.06.71-.36.1-.49-.34-.34-.57-.32-.98.09-1.82-.26-2.62-.76-.57-.4-1.1-.88-1.72-1.17-1.96-.93-3.73-2.05-5.05-3.83-2.1-2.85-4.24-5.67-6.36-8.5-.73-1.37-.27-1.94,1.21-2.33,2.85-.74,5-2.42,6.06-5.3.92-2.5-.14-4.17-2.73-4.1-1.81.05-3.47-.32-4.97-1.36-2.96-1.7-3.46-5.21-5.57-7.59-1.38-1.56-.88-2.31,1.11-3.05.49-.18,1.04-.24,1.47-.51,2.04-1.27,4-2.98,2.67-4.92-.94-1.38-1.97-2.62-3.82-2.89-1.59-.24-2.66-1.14-2.96-2.85-.16-.92-.34-1.92-.83-2.68-1.57-2.43-2.12-5.1-2.21-7.91-.06-1.77-.09-3.55-.18-5.32-.1-2.07-.23-4.13-.4-6.2-.05-.59-.26-1.2-1.01-1.27-.63-.06-.8.48-.9.92-.53,2.31-1.82,4.31-2.63,6.51-.66,1.04-.28,2.19-.3,3.28-.05,2.83.26,5.68-.81,8.41h0c-.59.5-.32,1.21-.37,1.81-.11,1.19-.25,2.35-1.01,3.28-1.4,1.72-2.05,3.64-1.83,5.84-.78,1.93-2.64,2.55-4.23,3.5-1.61.97-1.76,1.64-.75,3.42.19.62.6,1.05,1.02,1.53.61.72,1.41,1.61.42,2.67-.32.02-.6.15-.65.49-.38,2.47-1.76,4-4.17,4.7-1.06.31-2.05.87-3.09,1.28-2.23.88-4.22,2.08-5.75,3.96-.94,1.17-.76,2.03.57,2.73.26.12.51.3.79.37,1.61.41,2.56,1.06,1.15,2.75-.17.2-.3.56,0,.79.32.24.65.05.99-.07,2.29-.82,4.47-1.91,7.06-1.7,1.42.11,1.81.47,1.24,1.76-.1-.05-.17-.02-.22.07-.93,1.27-1.96,2.44-3.01,3.62-1.86,2.1-4.47,3.31-6.23,5.5-1.18,1.47-2.74,2.17-4.66,2.12-.93-.02-1.8.26-2.7.65-1.8.78-3.14,2.07-4.5,3.37-1.73,1.65-3.46,3.24-6.09,3.19-1-.02-1.68.79-2.53,1.19-.24.11-.57.4-.34.69.26.34.62.17.9-.1,1.12.02,2.25.04,3.37.07.86.03,1.46.4,1.59,1.32-.55.72-1.1,1.45-1.87,2.45.95-.22,1.56-.28,1.9-.92.98.06,1.79-.46,2.66-.76,2.23-.78,4.3-2.06,6.76-2.08,2.07-.02,2.07-.02,1.54,1.91-.69.46-.49,1.38-1.01,1.93-.97,1.03-1.82,2.12-2.14,3.55-1.49,2.33-3.6,4.01-5.81,5.6-.89.64-1.66,1.35-1.9,2.61,1.34-.38,2.49-.81,3.67-1.01,5.37-.92,9.7-3.63,13.4-7.51,2.91-2.48,5.3-5.45,7.84-8.28.38-.42.72-1.17,1.37-.86.5.25.15.95.07,1.44-.17,1.08-.7,2.11-.56,3.25-.65.9-.53,2.05-1,3-.98,1.76-1.97,3.52-2.95,5.28-1.39,1.35-2.98,2.64-3.65,4.46-1.06,2.89-3.26,4.65-5.47,6.5-1.44,1.21-2.77,2.54-4.19,3.77-.65.56-.31,1.24-.23,1.79.06.4.57.1.86-.09,3.14-.23,6.27-.47,9.41-.66.38-.02,1-.34,1.18.36.13.5-.33.73-.63.97-.5.4-1.05.73-1.57,1.1-2.21,1.54-4.63,2.77-6.64,4.59,21.46,0,30.5-.59,51.96-.54,1.26,0-2.2-5.22-2.2-5.22Z"/>
        <path class="cls-2" d="m552.92,154.18c-5.93-1.05-5.97-4.43-7.24-5.78.64-1.54,2.26-2.08,3.31-3.22,2.36-2.55,2.44-2.85-.65-4.44-3.63-1.88-6.17-4.5-7.1-8.61-.35-1.55-1.18-3-1.8-4.49.38-.54-.47-1.46.29-1.71.85-.28,1.14.64,1.52,1.24.15.23.44.36.66.53,4.86,6.5,10.95,10.75,19.39,10.69-.96-.65-2.1-.94-3.07-1.52-.55-.33-1.86,0-1.56-1.14.19-.7,1.21-.63,1.94-.76,1.6-.29,3.18-.66,4.56-1.64,1.63-1.15,1.76-2.01.21-3.31-1.29-1.09-2.66-2.11-4.39-2.46-7.39-4.6-11.79-12.07-17.76-18.06,1.63-.25,2.92.21,3.97.99,4.29,3.21,8.9,2.69,13.62,1.36.4.03.83-.07.91-.46.12-.62-.43-.43-.72-.41-1.24.11-2.31-.33-3.32-.97-.72-.5-1.4-1.12-2.18-1.49-2.48-1.18-4.74-2.6-6.41-4.86-2.67-3.62-5.38-7.19-8.08-10.79-.92-1.73-.34-2.46,1.54-2.95,3.61-.94,6.35-3.07,7.69-6.73,1.17-3.18-.18-5.29-3.47-5.21-2.3.06-4.41-.4-6.31-1.72-3.75-2.16-4.39-6.61-7.07-9.63-1.76-1.98-1.11-2.93,1.42-3.87.62-.23,1.33-.31,1.87-.65,2.59-1.62,5.08-3.78,3.39-6.24-1.2-1.75-2.51-3.32-4.85-3.67-2.02-.3-3.38-1.44-3.76-3.61-.21-1.17-.44-2.44-1.06-3.4-1.99-3.08-2.69-6.47-2.81-10.05-.07-2.25-.12-4.51-.23-6.76-.13-2.62-.3-5.25-.51-7.87-.06-.75-.33-1.53-1.28-1.61-.8-.07-1.02.61-1.14,1.16-.67,2.94-2.31,5.48-3.34,8.27-.84,1.32-.35,2.78-.38,4.16-.07,3.59.33,7.21-1.03,10.68h0c-.75.64-.4,1.54-.47,2.3-.13,1.5-.32,2.99-1.29,4.17-1.78,2.18-2.6,4.62-2.32,7.42-.99,2.44-3.35,3.23-5.37,4.44-2.05,1.23-2.23,2.09-.95,4.35.24.78.77,1.33,1.29,1.95.77.91,1.79,2.04.53,3.38-.41.02-.76.19-.82.62-.48,3.14-2.23,5.08-5.29,5.97-1.35.39-2.61,1.1-3.92,1.62-2.83,1.11-5.36,2.64-7.3,5.03-1.2,1.48-.96,2.58.73,3.46.33.16.65.38,1,.47,2.04.52,3.25,1.35,1.47,3.49-.21.25-.38.71,0,1,.41.31.82.07,1.25-.09,2.9-1.04,5.68-2.42,8.96-2.16,1.81.14,2.3.6,1.58,2.23-.12-.06-.21-.03-.27.09-1.18,1.61-2.49,3.1-3.82,4.6-2.36,2.67-5.68,4.2-7.92,6.99-1.5,1.87-3.48,2.76-5.92,2.69-1.19-.03-2.29.33-3.43.83-2.29.99-3.98,2.63-5.72,4.28-2.2,2.09-4.39,4.12-7.73,4.05-1.27-.03-2.14,1.01-3.21,1.51-.31.14-.72.51-.43.88.33.43.79.22,1.14-.13,1.43.03,2.85.05,4.28.09,1.1.03,1.85.51,2.02,1.67-.7.92-1.4,1.83-2.38,3.11,1.2-.28,1.97-.35,2.41-1.17,1.24.08,2.27-.58,3.37-.97,2.83-.99,5.45-2.62,8.58-2.64,2.63-.02,2.63-.03,1.96,2.43-.88.58-.62,1.76-1.28,2.45-1.23,1.3-2.32,2.7-2.72,4.5-1.89,2.96-4.58,5.09-7.37,7.11-1.13.81-2.11,1.72-2.41,3.32,1.71-.48,3.16-1.03,4.66-1.28,6.81-1.17,12.32-4.61,17.01-9.54,3.69-3.15,6.73-6.92,9.95-10.51.48-.54.92-1.49,1.74-1.09.63.31.19,1.2.09,1.82-.22,1.38-.89,2.67-.71,4.12-.82,1.14-.67,2.6-1.27,3.81-1.25,2.23-2.5,4.47-3.75,6.7-1.76,1.72-3.79,3.35-4.64,5.66-1.35,3.66-4.14,5.91-6.94,8.26-1.82,1.53-3.51,3.23-5.32,4.79-.82.71-.39,1.57-.29,2.28.08.51.73.13,1.1-.11,3.98-.29,7.97-.6,11.95-.84.49-.03,1.27-.43,1.49.46.16.63-.41.92-.8,1.23-.63.5-1.33.93-2,1.39-2.81,1.95-5.88,3.52-8.44,5.83,27.24,0,38.73-.75,65.97-.68,1.6,0-2.79-6.63-2.79-6.63Z"/>
        <path class="cls-2" d="m636.86,199.64c-3.53-.62-3.56-2.64-4.32-3.45.38-.92,1.35-1.24,1.97-1.92,1.41-1.52,1.45-1.7-.39-2.65-2.16-1.12-3.68-2.69-4.23-5.14-.21-.93-.71-1.79-1.07-2.68.23-.32-.28-.87.17-1.02.51-.17.68.38.91.74.09.13.26.21.4.32,2.9,3.88,6.53,6.41,11.56,6.37-.57-.38-1.25-.56-1.83-.91-.33-.19-1.11,0-.93-.68.11-.42.72-.37,1.15-.45.96-.17,1.9-.4,2.72-.98.97-.68,1.05-1.2.12-1.98-.77-.65-1.59-1.26-2.62-1.47-4.4-2.74-7.03-7.19-10.59-10.77.97-.15,1.74.12,2.37.59,2.56,1.91,5.31,1.6,8.12.81.24.01.49-.04.54-.27.07-.37-.26-.26-.43-.24-.74.07-1.38-.2-1.98-.58-.43-.3-.83-.66-1.3-.89-1.48-.7-2.83-1.55-3.82-2.9-1.59-2.16-3.21-4.29-4.82-6.43-.55-1.03-.2-1.47.92-1.76,2.15-.56,3.78-1.83,4.58-4.01.7-1.89-.11-3.16-2.07-3.11-1.37.04-2.63-.24-3.76-1.03-2.24-1.29-2.62-3.94-4.22-5.74-1.05-1.18-.66-1.75.84-2.31.37-.14.79-.18,1.12-.39,1.55-.96,3.03-2.25,2.02-3.72-.72-1.05-1.49-1.98-2.89-2.19-1.2-.18-2.01-.86-2.24-2.15-.12-.7-.26-1.45-.63-2.03-1.19-1.84-1.6-3.86-1.67-5.99-.04-1.34-.07-2.69-.14-4.03-.08-1.56-.18-3.13-.3-4.69-.04-.45-.2-.91-.76-.96-.48-.04-.61.36-.68.69-.4,1.75-1.38,3.27-1.99,4.93-.5.79-.21,1.66-.22,2.48-.04,2.14.19,4.3-.61,6.37h0c-.45.38-.24.92-.28,1.37-.08.9-.19,1.78-.77,2.49-1.06,1.3-1.55,2.75-1.39,4.42-.59,1.46-2,1.93-3.2,2.65-1.22.73-1.33,1.25-.57,2.59.14.47.46.79.77,1.16.46.55,1.07,1.22.31,2.02-.25.01-.45.12-.49.37-.29,1.87-1.33,3.03-3.16,3.56-.81.23-1.55.66-2.34.97-1.68.66-3.2,1.57-4.35,3-.71.88-.57,1.54.43,2.07.2.09.39.22.6.28,1.22.31,1.94.81.87,2.08-.12.15-.23.42,0,.59.24.18.49.04.75-.05,1.73-.62,3.38-1.44,5.34-1.29,1.08.08,1.37.36.94,1.33-.07-.04-.13-.02-.16.05-.7.96-1.49,1.85-2.28,2.74-1.41,1.59-3.39,2.5-4.72,4.17-.89,1.11-2.08,1.64-3.53,1.61-.71-.02-1.36.2-2.05.49-1.36.59-2.38,1.57-3.41,2.55-1.31,1.25-2.62,2.46-4.61,2.41-.76-.02-1.27.6-1.91.9-.18.08-.43.3-.26.52.2.26.47.13.68-.08.85.02,1.7.03,2.55.06.65.02,1.1.3,1.2,1-.42.55-.84,1.09-1.42,1.86.72-.17,1.18-.21,1.44-.7.74.05,1.35-.35,2.01-.58,1.69-.59,3.25-1.56,5.12-1.58,1.57-.01,1.57-.02,1.17,1.45-.52.35-.37,1.05-.76,1.46-.74.78-1.38,1.61-1.62,2.68-1.13,1.77-2.73,3.04-4.4,4.24-.67.49-1.26,1.02-1.44,1.98,1.02-.29,1.88-.61,2.78-.77,4.06-.7,7.35-2.75,10.14-5.69,2.2-1.88,4.01-4.13,5.93-6.27.29-.32.55-.89,1.04-.65.38.19.11.72.05,1.09-.13.82-.53,1.59-.43,2.46-.49.68-.4,1.55-.76,2.27-.75,1.33-1.49,2.66-2.24,4-1.05,1.02-2.26,2-2.76,3.38-.8,2.18-2.47,3.52-4.14,4.92-1.09.91-2.1,1.92-3.17,2.85-.49.42-.23.94-.17,1.36.05.3.43.08.65-.07,2.38-.17,4.75-.36,7.13-.5.29-.02.76-.26.89.27.1.38-.25.55-.48.73-.38.3-.79.55-1.19.83-1.67,1.17-3.51,2.1-5.03,3.48,16.24,0,23.09-.45,39.33-.41.95,0-1.66-3.95-1.66-3.95Z"/>
        <path class="cls-1" d="m543.76,185.67c-4.67-.82-4.7-3.49-5.71-4.55.51-1.21,1.78-1.64,2.61-2.53,1.86-2.01,1.92-2.24-.51-3.5-2.86-1.48-4.86-3.55-5.59-6.79-.28-1.22-.93-2.36-1.41-3.54.3-.43-.37-1.15.23-1.34.67-.22.9.51,1.2.98.12.18.35.28.52.42,3.83,5.12,8.63,8.47,15.27,8.42-.75-.51-1.65-.74-2.42-1.2-.43-.26-1.47,0-1.23-.9.15-.55.95-.49,1.53-.6,1.26-.23,2.51-.52,3.59-1.29,1.28-.9,1.38-1.58.16-2.61-1.02-.86-2.1-1.66-3.46-1.94-5.82-3.63-9.29-9.5-13.99-14.22,1.28-.2,2.3.16,3.13.78,3.38,2.53,7.01,2.12,10.72,1.07.31.02.65-.06.71-.36.1-.49-.34-.34-.57-.32-.98.09-1.82-.26-2.62-.76-.57-.4-1.1-.88-1.72-1.17-1.96-.93-3.73-2.05-5.05-3.83-2.1-2.85-4.24-5.67-6.36-8.5-.73-1.37-.27-1.94,1.21-2.33,2.85-.74,5-2.42,6.06-5.3.92-2.5-.14-4.17-2.73-4.1-1.81.05-3.47-.32-4.97-1.36-2.96-1.7-3.46-5.21-5.57-7.59-1.38-1.56-.88-2.31,1.11-3.05.49-.18,1.04-.24,1.47-.51,2.04-1.27,4-2.98,2.67-4.92-.94-1.38-1.97-2.62-3.82-2.89-1.59-.24-2.66-1.14-2.96-2.85-.16-.92-.34-1.92-.83-2.68-1.57-2.43-2.12-5.1-2.21-7.91-.06-1.77-.09-3.55-.18-5.32-.1-2.07-.23-4.13-.4-6.2-.05-.59-.26-1.2-1.01-1.27-.63-.06-.8.48-.9.92-.53,2.31-1.82,4.31-2.63,6.51-.66,1.04-.28,2.19-.3,3.28-.05,2.83.26,5.68-.81,8.41h0c-.59.5-.32,1.21-.37,1.81-.11,1.19-.25,2.35-1.01,3.28-1.4,1.72-2.05,3.64-1.83,5.84-.78,1.93-2.64,2.55-4.23,3.5-1.61.97-1.76,1.64-.75,3.42.19.62.6,1.05,1.02,1.53.61.72,1.41,1.61.42,2.67-.32.02-.6.15-.65.49-.38,2.47-1.76,4-4.17,4.7-1.06.31-2.05.87-3.09,1.28-2.23.88-4.22,2.08-5.75,3.96-.94,1.17-.76,2.03.57,2.73.26.12.51.3.79.37,1.61.41,2.56,1.06,1.15,2.75-.17.2-.3.56,0,.79.32.24.65.05.99-.07,2.29-.82,4.47-1.91,7.06-1.7,1.42.11,1.81.47,1.24,1.76-.1-.05-.17-.02-.22.07-.93,1.27-1.96,2.44-3.01,3.62-1.86,2.1-4.47,3.31-6.23,5.5-1.18,1.47-2.74,2.17-4.66,2.12-.93-.02-1.8.26-2.7.65-1.8.78-3.14,2.07-4.5,3.37-1.73,1.65-3.46,3.24-6.09,3.19-1-.02-1.68.79-2.53,1.19-.24.11-.57.4-.34.69.26.34.62.17.9-.1,1.12.02,2.25.04,3.37.07.86.03,1.46.4,1.59,1.32-.55.72-1.1,1.45-1.87,2.45.95-.22,1.56-.28,1.9-.92.98.06,1.79-.46,2.66-.76,2.23-.78,4.3-2.06,6.76-2.08,2.07-.02,2.07-.02,1.54,1.91-.69.46-.49,1.38-1.01,1.93-.97,1.03-1.82,2.12-2.14,3.55-1.49,2.33-3.6,4.01-5.81,5.6-.89.64-1.66,1.35-1.9,2.61,1.34-.38,2.49-.81,3.67-1.01,5.37-.92,9.7-3.63,13.4-7.51,2.91-2.48,5.3-5.45,7.84-8.28.38-.42.72-1.17,1.37-.86.5.25.15.95.07,1.44-.17,1.08-.7,2.11-.56,3.25-.65.9-.53,2.05-1,3-.98,1.76-1.97,3.52-2.95,5.28-1.39,1.35-2.98,2.64-3.65,4.46-1.06,2.89-3.26,4.65-5.47,6.5-1.44,1.21-2.77,2.54-4.19,3.77-.65.56-.31,1.24-.23,1.79.06.4.57.1.86-.09,3.14-.23,6.27-.47,9.41-.66.38-.02,1-.34,1.18.36.13.5-.33.73-.63.97-.5.4-1.05.73-1.57,1.1-2.21,1.54-4.63,2.77-6.64,4.59,21.46,0,30.5-.59,51.96-.54,1.26,0-2.2-5.22-2.2-5.22Z"/>
        <path class="cls-1" d="m497.71,159.95c-5.93-1.05-5.97-4.43-7.24-5.78.64-1.54,2.26-2.08,3.31-3.22,2.36-2.55,2.44-2.85-.65-4.44-3.63-1.88-6.17-4.5-7.1-8.61-.35-1.55-1.18-3-1.8-4.49.38-.54-.47-1.46.29-1.71.85-.28,1.14.64,1.52,1.24.15.23.44.36.66.53,4.86,6.5,10.95,10.75,19.39,10.69-.96-.65-2.1-.94-3.07-1.52-.55-.33-1.86,0-1.56-1.14.19-.7,1.21-.63,1.94-.76,1.6-.29,3.18-.66,4.56-1.64,1.63-1.15,1.76-2.01.21-3.31-1.29-1.09-2.66-2.11-4.39-2.46-7.39-4.6-11.79-12.07-17.76-18.06,1.63-.25,2.92.21,3.97.99,4.29,3.21,8.9,2.69,13.62,1.36.4.03.83-.07.91-.46.12-.62-.43-.43-.72-.41-1.24.11-2.31-.33-3.32-.97-.72-.5-1.4-1.12-2.18-1.49-2.48-1.18-4.74-2.6-6.41-4.86-2.67-3.62-5.38-7.19-8.08-10.79-.92-1.73-.34-2.46,1.54-2.95,3.61-.94,6.35-3.07,7.69-6.73,1.17-3.18-.18-5.29-3.47-5.21-2.3.06-4.41-.4-6.31-1.72-3.75-2.16-4.39-6.61-7.07-9.63-1.76-1.98-1.11-2.93,1.42-3.87.62-.23,1.33-.31,1.87-.65,2.59-1.62,5.08-3.78,3.39-6.24-1.2-1.75-2.51-3.32-4.85-3.67-2.02-.3-3.38-1.44-3.76-3.61-.21-1.17-.44-2.44-1.06-3.4-1.99-3.08-2.69-6.47-2.81-10.05-.07-2.25-.12-4.51-.23-6.76-.13-2.62-.3-5.25-.51-7.87-.06-.75-.33-1.53-1.28-1.61-.8-.07-1.02.61-1.14,1.16-.67,2.94-2.31,5.48-3.34,8.27-.84,1.32-.35,2.78-.38,4.16-.07,3.59.33,7.21-1.03,10.68h0c-.75.64-.4,1.54-.47,2.3-.13,1.5-.32,2.99-1.29,4.17-1.78,2.18-2.6,4.62-2.32,7.42-.99,2.44-3.35,3.23-5.37,4.44-2.05,1.23-2.23,2.09-.95,4.35.24.78.77,1.33,1.29,1.95.77.91,1.79,2.04.53,3.38-.41.02-.76.19-.82.62-.48,3.14-2.23,5.08-5.29,5.97-1.35.39-2.61,1.1-3.92,1.62-2.83,1.11-5.36,2.64-7.3,5.03-1.2,1.48-.96,2.58.73,3.46.33.16.65.38,1,.47,2.04.52,3.25,1.35,1.47,3.49-.21.25-.38.71,0,1,.41.31.82.07,1.25-.09,2.9-1.04,5.68-2.42,8.96-2.16,1.81.14,2.3.6,1.58,2.23-.12-.06-.21-.03-.27.09-1.18,1.61-2.49,3.1-3.82,4.6-2.36,2.67-5.68,4.2-7.92,6.99-1.5,1.87-3.48,2.76-5.92,2.69-1.19-.03-2.29.33-3.43.83-2.29.99-3.98,2.63-5.72,4.28-2.2,2.09-4.39,4.12-7.73,4.05-1.27-.03-2.14,1.01-3.21,1.51-.31.14-.72.51-.43.88.33.43.79.22,1.14-.13,1.43.03,2.85.05,4.28.09,1.1.03,1.85.51,2.02,1.67-.7.92-1.4,1.83-2.38,3.11,1.2-.28,1.97-.35,2.41-1.17,1.24.08,2.27-.58,3.37-.97,2.83-.99,5.45-2.62,8.58-2.64,2.63-.02,2.63-.03,1.96,2.43-.88.58-.62,1.76-1.28,2.45-1.23,1.3-2.32,2.7-2.72,4.5-1.89,2.96-4.58,5.09-7.37,7.11-1.13.81-2.11,1.72-2.41,3.32,1.71-.48,3.16-1.03,4.66-1.28,6.81-1.17,12.32-4.61,17.01-9.54,3.69-3.15,6.73-6.92,9.95-10.51.48-.54.92-1.49,1.74-1.09.63.31.19,1.2.09,1.82-.22,1.38-.89,2.67-.71,4.12-.82,1.14-.67,2.6-1.27,3.81-1.25,2.23-2.5,4.47-3.75,6.7-1.76,1.72-3.79,3.35-4.64,5.66-1.35,3.66-4.14,5.91-6.94,8.26-1.82,1.53-3.51,3.23-5.32,4.79-.82.71-.39,1.57-.29,2.28.08.51.73.13,1.1-.11,3.98-.29,7.97-.6,11.95-.84.49-.03,1.27-.43,1.49.46.16.63-.41.92-.8,1.23-.63.5-1.33.93-2,1.39-2.81,1.95-5.88,3.52-8.44,5.83,27.24,0,38.73-.75,65.97-.68,1.6,0-2.79-6.63-2.79-6.63Z"/>
        <path class="cls-1" d="m600.71,209.65c-3.53-.62-3.56-2.64-4.32-3.45.38-.92,1.35-1.24,1.97-1.92,1.41-1.52,1.45-1.7-.39-2.65-2.16-1.12-3.68-2.69-4.23-5.14-.21-.93-.71-1.79-1.07-2.68.23-.32-.28-.87.17-1.02.51-.17.68.38.91.74.09.13.26.21.4.32,2.9,3.88,6.53,6.41,11.56,6.37-.57-.38-1.25-.56-1.83-.91-.33-.19-1.11,0-.93-.68.11-.42.72-.37,1.15-.45.96-.17,1.9-.4,2.72-.98.97-.68,1.05-1.2.12-1.98-.77-.65-1.59-1.26-2.62-1.47-4.4-2.74-7.03-7.19-10.59-10.77.97-.15,1.74.12,2.37.59,2.56,1.91,5.31,1.6,8.12.81.24.01.49-.04.54-.27.07-.37-.26-.26-.43-.24-.74.07-1.38-.2-1.98-.58-.43-.3-.83-.66-1.3-.89-1.48-.7-2.83-1.55-3.82-2.9-1.59-2.16-3.21-4.29-4.82-6.43-.55-1.03-.2-1.47.92-1.76,2.15-.56,3.78-1.83,4.58-4.01.7-1.89-.11-3.16-2.07-3.11-1.37.04-2.63-.24-3.76-1.03-2.24-1.29-2.62-3.94-4.22-5.74-1.05-1.18-.66-1.75.84-2.31.37-.14.79-.18,1.12-.39,1.55-.96,3.03-2.25,2.02-3.72-.72-1.05-1.49-1.98-2.89-2.19-1.2-.18-2.01-.86-2.24-2.15-.12-.7-.26-1.45-.63-2.03-1.19-1.84-1.6-3.86-1.67-5.99-.04-1.34-.07-2.69-.14-4.03-.08-1.56-.18-3.13-.3-4.69-.04-.45-.2-.91-.76-.96-.48-.04-.61.36-.68.69-.4,1.75-1.38,3.27-1.99,4.93-.5.79-.21,1.66-.22,2.48-.04,2.14.19,4.3-.61,6.37h0c-.45.38-.24.92-.28,1.37-.08.9-.19,1.78-.77,2.49-1.06,1.3-1.55,2.75-1.39,4.42-.59,1.46-2,1.93-3.2,2.65-1.22.73-1.33,1.25-.57,2.59.14.47.46.79.77,1.16.46.55,1.07,1.22.31,2.02-.25.01-.45.12-.49.37-.29,1.87-1.33,3.03-3.16,3.56-.81.23-1.55.66-2.34.97-1.68.66-3.2,1.57-4.35,3-.71.88-.57,1.54.43,2.07.2.09.39.22.6.28,1.22.31,1.94.81.87,2.08-.12.15-.23.42,0,.59.24.18.49.04.75-.05,1.73-.62,3.38-1.44,5.34-1.29,1.08.08,1.37.36.94,1.33-.07-.04-.13-.02-.16.05-.7.96-1.49,1.85-2.28,2.74-1.41,1.59-3.39,2.5-4.72,4.17-.89,1.11-2.08,1.64-3.53,1.61-.71-.02-1.36.2-2.05.49-1.36.59-2.38,1.57-3.41,2.55-1.31,1.25-2.62,2.46-4.61,2.41-.76-.02-1.27.6-1.91.9-.18.08-.43.3-.26.52.2.26.47.13.68-.08.85.02,1.7.03,2.55.06.65.02,1.1.3,1.2,1-.42.55-.84,1.09-1.42,1.86.72-.17,1.18-.21,1.44-.7.74.05,1.35-.35,2.01-.58,1.69-.59,3.25-1.56,5.12-1.58,1.57-.01,1.57-.02,1.17,1.45-.52.35-.37,1.05-.76,1.46-.74.78-1.38,1.61-1.62,2.68-1.13,1.77-2.73,3.04-4.4,4.24-.67.49-1.26,1.02-1.44,1.98,1.02-.29,1.88-.61,2.78-.77,4.06-.7,7.35-2.75,10.14-5.69,2.2-1.88,4.01-4.13,5.93-6.27.29-.32.55-.89,1.04-.65.38.19.11.72.05,1.09-.13.82-.53,1.59-.43,2.46-.49.68-.4,1.55-.76,2.27-.75,1.33-1.49,2.66-2.24,4-1.05,1.02-2.26,2-2.76,3.38-.8,2.18-2.47,3.52-4.14,4.92-1.09.91-2.1,1.92-3.17,2.85-.49.42-.23.94-.17,1.36.05.3.43.08.65-.07,2.38-.17,4.75-.36,7.13-.5.29-.02.76-.26.89.27.1.38-.25.55-.48.73-.38.3-.79.55-1.19.83-1.67,1.17-3.51,2.1-5.03,3.48,16.24,0,23.09-.45,39.33-.41.95,0-1.66-3.95-1.66-3.95Z"/>
        <path class="cls-1" d="m576.7,193.72c-3.99-.7-4.01-2.98-4.87-3.88.43-1.03,1.52-1.4,2.23-2.16,1.59-1.71,1.64-1.91-.44-2.99-2.44-1.26-4.15-3.03-4.77-5.79-.24-1.04-.8-2.02-1.21-3.02.25-.36-.32-.98.19-1.15.57-.19.76.43,1.02.83.1.15.29.24.45.36,3.27,4.37,7.36,7.23,13.03,7.18-.64-.43-1.41-.63-2.07-1.02-.37-.22-1.25,0-1.05-.77.13-.47.81-.42,1.3-.51,1.08-.2,2.14-.45,3.07-1.1,1.09-.77,1.18-1.35.14-2.23-.87-.73-1.79-1.42-2.95-1.65-4.97-3.1-7.93-8.11-11.94-12.14,1.09-.17,1.97.14,2.67.67,2.89,2.16,5.98,1.81,9.15.91.27.02.56-.05.61-.31.08-.42-.29-.29-.49-.27-.83.08-1.55-.22-2.23-.65-.49-.34-.94-.75-1.47-1-1.67-.79-3.19-1.75-4.31-3.27-1.79-2.43-3.62-4.84-5.43-7.25-.62-1.17-.23-1.66,1.03-1.99,2.43-.63,4.27-2.07,5.17-4.52.79-2.14-.12-3.56-2.33-3.5-1.55.04-2.96-.27-4.24-1.16-2.52-1.45-2.95-4.45-4.76-6.47-1.18-1.33-.75-1.97.95-2.6.42-.15.89-.21,1.26-.43,1.74-1.09,3.42-2.54,2.28-4.2-.81-1.18-1.68-2.24-3.26-2.47-1.36-.2-2.27-.97-2.53-2.43-.14-.78-.29-1.64-.71-2.29-1.34-2.07-1.81-4.35-1.89-6.75-.05-1.51-.08-3.03-.15-4.54-.09-1.76-.2-3.53-.34-5.29-.04-.51-.22-1.03-.86-1.09-.54-.05-.68.41-.77.78-.45,1.98-1.56,3.68-2.25,5.56-.56.89-.24,1.87-.25,2.8-.05,2.41.22,4.85-.69,7.18h0c-.5.43-.27,1.04-.32,1.54-.09,1.01-.21,2.01-.87,2.8-1.2,1.47-1.75,3.1-1.56,4.99-.67,1.64-2.26,2.17-3.61,2.99-1.38.83-1.5,1.4-.64,2.92.16.53.52.89.87,1.31.52.61,1.21,1.37.35,2.28-.28.02-.51.13-.55.42-.32,2.11-1.5,3.42-3.56,4.01-.91.26-1.75.74-2.64,1.09-1.9.75-3.6,1.77-4.91,3.38-.8.99-.64,1.73.49,2.33.22.11.44.25.67.31,1.37.35,2.19.91.99,2.35-.14.17-.26.48,0,.67.28.21.55.05.84-.06,1.95-.7,3.82-1.63,6.02-1.45,1.21.1,1.54.4,1.06,1.5-.08-.04-.14-.02-.18.06-.79,1.08-1.68,2.08-2.57,3.09-1.59,1.79-3.82,2.82-5.32,4.7-1.01,1.26-2.34,1.85-3.98,1.81-.8-.02-1.54.22-2.31.56-1.54.66-2.68,1.77-3.84,2.88-1.48,1.4-2.95,2.77-5.2,2.72-.85-.02-1.44.68-2.16,1.01-.21.1-.48.34-.29.59.22.29.53.14.77-.09.96.02,1.92.03,2.88.06.74.02,1.24.34,1.36,1.12-.47.62-.94,1.23-1.6,2.09.81-.19,1.33-.24,1.62-.79.83.05,1.53-.39,2.27-.65,1.9-.67,3.67-1.76,5.77-1.78,1.77-.01,1.77-.02,1.32,1.63-.59.39-.41,1.18-.86,1.65-.83.88-1.56,1.81-1.83,3.03-1.27,1.99-3.08,3.42-4.96,4.78-.76.55-1.42,1.15-1.62,2.23,1.15-.32,2.12-.69,3.13-.86,4.58-.79,8.28-3.1,11.44-6.41,2.48-2.12,4.52-4.65,6.69-7.07.32-.36.62-1,1.17-.73.43.21.13.81.06,1.23-.15.93-.6,1.8-.48,2.77-.55.76-.45,1.75-.86,2.56-.84,1.5-1.68,3-2.52,4.5-1.19,1.15-2.55,2.25-3.12,3.81-.91,2.46-2.78,3.97-4.67,5.55-1.23,1.03-2.36,2.17-3.57,3.22-.55.48-.26,1.06-.19,1.53.05.34.49.08.74-.07,2.68-.19,5.36-.4,8.04-.57.33-.02.85-.29,1,.31.11.43-.28.62-.54.83-.43.34-.9.62-1.34.94-1.89,1.31-3.95,2.37-5.67,3.92,18.31,0,26.04-.5,44.35-.46,1.08,0-1.88-4.45-1.88-4.45Z"/>
      </g>
      <g>
        <path class="cls-1" d="m150.76,224.79c5.76-1.02,5.8-4.3,7.04-5.62-.63-1.49-2.19-2.02-3.22-3.13-2.3-2.48-2.37-2.77.63-4.32,3.53-1.82,6-4.38,6.9-8.38.34-1.51,1.15-2.91,1.75-4.37-.37-.53.46-1.42-.28-1.66-.82-.27-1.11.62-1.48,1.2-.14.22-.43.35-.65.52-4.73,6.32-10.65,10.46-18.85,10.39.93-.63,2.04-.92,2.99-1.48.53-.32,1.81,0,1.51-1.11-.18-.68-1.18-.61-1.88-.74-1.56-.28-3.09-.65-4.44-1.59-1.58-1.12-1.71-1.96-.2-3.22,1.26-1.06,2.59-2.05,4.27-2.39,7.18-4.48,11.47-11.73,17.27-17.56-1.58-.24-2.84.2-3.86.96-4.17,3.12-8.65,2.61-13.24,1.32-.39.02-.81-.07-.88-.45-.12-.6.42-.42.7-.4,1.21.11,2.24-.32,3.23-.94.7-.49,1.36-1.08,2.12-1.45,2.41-1.14,4.61-2.53,6.23-4.72,2.59-3.51,5.23-6.99,7.85-10.49.9-1.69.33-2.4-1.49-2.87-3.51-.91-6.17-2.99-7.48-6.54-1.14-3.09.18-5.15,3.37-5.07,2.24.06,4.29-.39,6.13-1.68,3.65-2.1,4.27-6.43,6.88-9.36,1.71-1.92,1.08-2.85-1.38-3.76-.6-.22-1.29-.3-1.82-.63-2.52-1.57-4.94-3.67-3.3-6.07,1.17-1.7,2.44-3.23,4.71-3.57,1.96-.29,3.28-1.4,3.65-3.51.2-1.13.42-2.37,1.03-3.31,1.94-3,2.62-6.29,2.73-9.77.07-2.19.11-4.38.22-6.57.13-2.55.29-5.1.49-7.65.06-.73.32-1.48,1.24-1.57.78-.07.99.59,1.11,1.13.65,2.86,2.25,5.33,3.25,8.04.82,1.28.34,2.7.37,4.05.07,3.49-.32,7.01,1,10.38h0c.73.62.39,1.5.46,2.23.13,1.46.31,2.9,1.25,4.05,1.73,2.12,2.53,4.49,2.26,7.21.96,2.38,3.26,3.14,5.22,4.32,1.99,1.2,2.17,2.03.93,4.23-.23.76-.75,1.29-1.25,1.89-.75.89-1.74,1.99-.51,3.29.4.02.74.19.8.6.47,3.05,2.17,4.94,5.15,5.8,1.31.38,2.53,1.07,3.81,1.58,2.75,1.08,5.21,2.56,7.09,4.89,1.16,1.44.93,2.5-.71,3.37-.32.15-.63.37-.97.45-1.98.51-3.16,1.31-1.43,3.39.2.24.37.69,0,.97-.4.3-.8.07-1.22-.08-2.82-1.01-5.52-2.35-8.71-2.1-1.76.14-2.23.58-1.53,2.17.12-.06.21-.03.27.09,1.15,1.56,2.42,3.01,3.71,4.47,2.29,2.59,5.52,4.08,7.7,6.79,1.46,1.82,3.38,2.68,5.76,2.62,1.15-.03,2.22.32,3.34.8,2.22.96,3.87,2.56,5.56,4.16,2.13,2.03,4.27,4,7.52,3.94,1.24-.03,2.08.98,3.12,1.46.3.14.7.49.42.85-.32.42-.77.21-1.11-.13-1.39.03-2.77.05-4.16.09-1.07.03-1.8.49-1.96,1.63.68.89,1.36,1.78,2.31,3.03-1.17-.27-1.92-.34-2.35-1.14-1.2.08-2.21-.57-3.28-.94-2.75-.96-5.3-2.55-8.35-2.57-2.56-.02-2.56-.03-1.91,2.36.85.56.6,1.71,1.24,2.38,1.2,1.27,2.25,2.62,2.65,4.38,1.84,2.88,4.45,4.95,7.17,6.92,1.09.79,2.05,1.67,2.34,3.23-1.66-.47-3.07-1-4.53-1.25-6.62-1.14-11.98-4.49-16.54-9.27-3.59-3.06-6.54-6.73-9.67-10.22-.47-.52-.89-1.45-1.69-1.06-.62.3-.18,1.17-.09,1.77.21,1.34.86,2.6.69,4.01.8,1.11.65,2.53,1.24,3.7,1.21,2.17,2.43,4.34,3.64,6.51,1.71,1.67,3.68,3.26,4.51,5.5,1.31,3.56,4.03,5.74,6.75,8.03,1.77,1.49,3.42,3.14,5.17,4.65.8.69.38,1.53.28,2.21-.07.5-.71.12-1.07-.11-3.87-.28-7.74-.58-11.62-.82-.48-.03-1.23-.42-1.45.44-.16.62.4.9.78,1.19.62.49,1.3.9,1.94,1.35,2.73,1.9,5.72,3.42,8.2,5.67-26.48,0-37.65-.73-64.14-.66-1.56,0,2.71-6.44,2.71-6.44Z"/>
        <path class="cls-1" d="m24.62,308.02c4.36-.77,4.39-3.26,5.33-4.25-.47-1.13-1.66-1.53-2.44-2.37-1.74-1.88-1.79-2.09.48-3.27,2.67-1.38,4.54-3.31,5.22-6.34.26-1.14.87-2.21,1.32-3.31-.28-.4.35-1.07-.21-1.26-.62-.2-.84.47-1.12.91-.11.17-.32.26-.49.39-3.58,4.79-8.06,7.91-14.27,7.86.7-.48,1.54-.69,2.26-1.12.4-.24,1.37,0,1.15-.84-.14-.51-.89-.46-1.43-.56-1.18-.21-2.34-.49-3.36-1.21-1.2-.84-1.29-1.48-.15-2.44.95-.8,1.96-1.56,3.23-1.81,5.44-3.39,8.68-8.88,13.08-13.29-1.2-.18-2.15.15-2.92.73-3.16,2.36-6.55,1.98-10.02,1-.29.02-.61-.05-.67-.34-.09-.46.32-.32.53-.3.91.08,1.7-.24,2.45-.71.53-.37,1.03-.82,1.61-1.09,1.83-.87,3.49-1.91,4.72-3.58,1.96-2.66,3.96-5.29,5.95-7.94.68-1.28.25-1.81-1.13-2.17-2.66-.69-4.67-2.26-5.66-4.95-.86-2.34.13-3.9,2.55-3.84,1.69.04,3.24-.3,4.64-1.27,2.76-1.59,3.23-4.87,5.21-7.09,1.29-1.45.82-2.15-1.04-2.85-.46-.17-.98-.22-1.38-.48-1.91-1.19-3.74-2.78-2.5-4.6.88-1.29,1.84-2.45,3.57-2.7,1.49-.22,2.48-1.06,2.77-2.66.15-.86.32-1.79.78-2.5,1.47-2.27,1.98-4.76,2.07-7.39.05-1.66.09-3.32.17-4.97.1-1.93.22-3.86.37-5.79.04-.55.24-1.12.94-1.19.59-.05.75.45.84.86.49,2.16,1.7,4.03,2.46,6.08.62.97.26,2.04.28,3.06.05,2.64-.24,5.31.76,7.86h0c.55.47.3,1.13.35,1.69.1,1.11.24,2.2.95,3.07,1.31,1.6,1.91,3.4,1.71,5.46.73,1.8,2.47,2.38,3.95,3.27,1.51.91,1.64,1.54.7,3.2-.18.58-.56.98-.95,1.43-.57.67-1.32,1.5-.39,2.49.3.02.56.14.6.46.35,2.31,1.64,3.74,3.9,4.39.99.29,1.92.81,2.89,1.19,2.08.82,3.95,1.94,5.37,3.7.88,1.09.71,1.9-.54,2.55-.25.12-.48.28-.74.34-1.5.38-2.39,1-1.08,2.57.15.19.28.52,0,.73-.3.22-.6.05-.92-.06-2.14-.76-4.18-1.78-6.59-1.59-1.33.1-1.69.44-1.16,1.64.09-.04.16-.02.2.07.87,1.18,1.84,2.28,2.81,3.38,1.74,1.96,4.18,3.09,5.83,5.14,1.1,1.38,2.56,2.03,4.36,1.98.87-.02,1.68.25,2.53.61,1.68.73,2.93,1.94,4.21,3.15,1.62,1.54,3.23,3.03,5.69,2.98.94-.02,1.57.74,2.36,1.11.22.1.53.37.32.65-.25.32-.58.16-.84-.09-1.05.02-2.1.04-3.15.07-.81.02-1.36.37-1.48,1.23.52.68,1.03,1.35,1.75,2.29-.89-.2-1.45-.26-1.78-.86-.91.06-1.67-.43-2.48-.71-2.08-.73-4.02-1.93-6.32-1.95-1.93-.01-1.93-.02-1.44,1.79.65.43.45,1.29.94,1.8.91.96,1.7,1.99,2,3.31,1.39,2.18,3.37,3.75,5.43,5.24.83.6,1.55,1.26,1.77,2.44-1.26-.35-2.33-.76-3.43-.94-5.01-.86-9.07-3.4-12.52-7.02-2.71-2.32-4.95-5.09-7.32-7.74-.36-.4-.68-1.1-1.28-.8-.47.23-.14.88-.06,1.34.16,1.01.65,1.97.53,3.03.6.84.49,1.91.94,2.8.92,1.64,1.84,3.29,2.76,4.93,1.3,1.26,2.79,2.47,3.41,4.17.99,2.7,3.05,4.35,5.11,6.08,1.34,1.13,2.59,2.37,3.91,3.52.6.52.29,1.16.21,1.68-.06.38-.54.09-.81-.08-2.93-.21-5.86-.44-8.8-.62-.36-.02-.93-.32-1.1.34-.12.47.3.68.59.9.47.37.98.68,1.47,1.03,2.06,1.44,4.33,2.59,6.21,4.29-20.05,0-28.5-.55-48.55-.5-1.18,0,2.05-4.88,2.05-4.88Z"/>
        <path class="cls-1" d="m65.88,285.09c4.73-.88,4.76-3.71,5.78-4.85-.51-1.29-1.8-1.75-2.64-2.7-1.88-2.14-1.94-2.39.52-3.73,2.9-1.57,4.92-3.78,5.66-7.23.28-1.3.94-2.52,1.43-3.77-.3-.45.38-1.22-.23-1.43-.68-.23-.91.54-1.21,1.04-.12.19-.35.3-.53.45-3.88,5.46-8.74,9.03-15.46,8.97.76-.54,1.67-.79,2.45-1.28.44-.27,1.49,0,1.24-.96-.15-.59-.97-.53-1.54-.64-1.28-.24-2.54-.56-3.64-1.38-1.3-.96-1.4-1.69-.17-2.78,1.03-.91,2.13-1.77,3.5-2.07,5.89-3.86,9.41-10.13,14.17-15.16-1.3-.21-2.33.17-3.17.83-3.42,2.69-7.1,2.26-10.86,1.14-.32.02-.66-.06-.72-.39-.1-.52.34-.36.58-.34.99.1,1.84-.28,2.65-.81.58-.42,1.11-.94,1.74-1.25,1.98-.99,3.78-2.18,5.11-4.08,2.13-3.03,4.29-6.04,6.44-9.05.73-1.46.27-2.07-1.22-2.48-2.88-.79-5.06-2.58-6.13-5.65-.93-2.67.14-4.44,2.77-4.37,1.84.05,3.52-.34,5.03-1.45,2.99-1.81,3.5-5.55,5.64-8.08,1.4-1.66.89-2.46-1.13-3.25-.49-.19-1.06-.26-1.49-.54-2.07-1.36-4.05-3.17-2.71-5.24.96-1.47,2-2.79,3.87-3.08,1.61-.25,2.69-1.21,3-3.03.16-.98.35-2.05.84-2.86,1.59-2.59,2.15-5.43,2.24-8.43.06-1.89.09-3.78.18-5.67.11-2.2.24-4.4.4-6.6.05-.63.26-1.28,1.02-1.35.64-.06.81.51.91.98.54,2.47,1.85,4.6,2.66,6.94.67,1.11.28,2.33.3,3.49.05,3.01-.26,6.06.82,8.96h0c.6.53.32,1.29.37,1.93.11,1.26.25,2.51,1.03,3.5,1.42,1.83,2.07,3.87,1.85,6.23.79,2.05,2.68,2.71,4.28,3.73,1.63,1.03,1.78,1.75.76,3.65-.19.66-.61,1.11-1.03,1.63-.62.77-1.43,1.72-.42,2.84.33.02.6.16.66.52.38,2.63,1.78,4.27,4.22,5.01,1.08.33,2.08.93,3.13,1.36,2.25.93,4.28,2.21,5.82,4.22.95,1.24.76,2.16-.58,2.91-.27.13-.52.32-.8.39-1.63.44-2.59,1.13-1.17,2.93.17.21.31.59,0,.84-.33.26-.65.06-1-.07-2.32-.87-4.53-2.03-7.14-1.82-1.44.12-1.83.5-1.26,1.87.1-.05.17-.02.22.08.94,1.35,1.99,2.6,3.04,3.86,1.88,2.24,4.53,3.52,6.31,5.87,1.2,1.57,2.78,2.31,4.72,2.26.95-.02,1.83.28,2.74.69,1.82.83,3.18,2.21,4.56,3.59,1.75,1.75,3.5,3.46,6.17,3.4,1.01-.02,1.7.85,2.56,1.26.24.12.57.43.34.74-.27.36-.63.18-.91-.11-1.14.03-2.27.04-3.41.08-.87.03-1.47.43-1.61,1.4.56.77,1.12,1.54,1.9,2.61-.96-.23-1.57-.3-1.92-.98-.99.07-1.81-.49-2.69-.81-2.26-.83-4.35-2.2-6.85-2.22-2.1-.02-2.1-.02-1.56,2.04.7.49.49,1.47,1.02,2.06.98,1.09,1.85,2.26,2.17,3.78,1.51,2.49,3.65,4.27,5.88,5.97.9.68,1.68,1.44,1.92,2.79-1.36-.4-2.52-.86-3.72-1.08-5.43-.98-9.83-3.87-13.57-8.01-2.94-2.65-5.37-5.81-7.93-8.82-.38-.45-.73-1.25-1.39-.91-.51.26-.15,1.01-.07,1.53.18,1.16.71,2.24.57,3.46.65.95.53,2.18,1.02,3.2,1,1.87,1.99,3.75,2.99,5.62,1.41,1.44,3.02,2.81,3.7,4.75,1.07,3.08,3.3,4.96,5.54,6.93,1.46,1.29,2.8,2.71,4.24,4.02.65.6.31,1.32.23,1.91-.06.43-.58.11-.87-.09-3.18-.24-6.35-.5-9.53-.71-.39-.02-1.01-.36-1.19.38-.13.53.33.77.64,1.03.51.42,1.06.78,1.59,1.17,2.24,1.64,4.69,2.95,6.73,4.9-21.73,0-30.89-.63-52.61-.57-1.28,0,2.23-5.56,2.23-5.56Z"/>
        <path class="cls-1" d="m276.74,241.49c4.36-.77,4.39-3.26,5.33-4.25-.47-1.13-1.66-1.53-2.44-2.37-1.74-1.88-1.79-2.09.48-3.27,2.67-1.38,4.54-3.31,5.22-6.34.26-1.14.87-2.21,1.32-3.31-.28-.4.35-1.07-.21-1.26-.62-.2-.84.47-1.12.91-.11.17-.32.26-.49.39-3.58,4.79-8.06,7.91-14.27,7.86.7-.48,1.54-.69,2.26-1.12.4-.24,1.37,0,1.15-.84-.14-.51-.89-.46-1.43-.56-1.18-.21-2.34-.49-3.36-1.21-1.2-.84-1.29-1.48-.15-2.44.95-.8,1.96-1.56,3.23-1.81,5.44-3.39,8.68-8.88,13.08-13.29-1.2-.18-2.15.15-2.92.73-3.16,2.36-6.55,1.98-10.02,1-.29.02-.61-.05-.67-.34-.09-.46.32-.32.53-.3.91.08,1.7-.24,2.45-.71.53-.37,1.03-.82,1.61-1.09,1.83-.87,3.49-1.91,4.72-3.58,1.96-2.66,3.96-5.29,5.95-7.94.68-1.28.25-1.81-1.13-2.17-2.66-.69-4.67-2.26-5.66-4.95-.86-2.34.13-3.9,2.55-3.84,1.69.04,3.24-.3,4.64-1.27,2.76-1.59,3.23-4.87,5.21-7.09,1.29-1.45.82-2.15-1.04-2.85-.46-.17-.98-.22-1.38-.48-1.91-1.19-3.74-2.78-2.5-4.6.88-1.29,1.84-2.45,3.57-2.7,1.49-.22,2.48-1.06,2.77-2.66.15-.86.32-1.79.78-2.5,1.47-2.27,1.98-4.76,2.07-7.39.05-1.66.09-3.32.17-4.97.1-1.93.22-3.86.37-5.79.04-.55.24-1.12.94-1.19.59-.05.75.45.84.86.49,2.16,1.7,4.03,2.46,6.08.62.97.26,2.04.28,3.06.05,2.64-.24,5.31.76,7.86h0c.55.47.3,1.13.35,1.69.1,1.11.24,2.2.95,3.07,1.31,1.6,1.91,3.4,1.71,5.46.73,1.8,2.47,2.38,3.95,3.27,1.51.91,1.64,1.54.7,3.2-.18.58-.56.98-.95,1.43-.57.67-1.32,1.5-.39,2.49.3.02.56.14.6.46.35,2.31,1.64,3.74,3.9,4.39.99.29,1.92.81,2.89,1.19,2.08.82,3.95,1.94,5.37,3.7.88,1.09.71,1.9-.54,2.55-.25.12-.48.28-.74.34-1.5.38-2.39,1-1.08,2.57.15.19.28.52,0,.73-.3.22-.6.05-.92-.06-2.14-.76-4.18-1.78-6.59-1.59-1.33.1-1.69.44-1.16,1.64.09-.04.16-.02.2.07.87,1.18,1.84,2.28,2.81,3.38,1.74,1.96,4.18,3.09,5.83,5.14,1.1,1.38,2.56,2.03,4.36,1.98.87-.02,1.68.25,2.53.61,1.68.73,2.93,1.94,4.21,3.15,1.62,1.54,3.23,3.03,5.69,2.98.94-.02,1.57.74,2.36,1.11.22.1.53.37.32.65-.25.32-.58.16-.84-.09-1.05.02-2.1.04-3.15.07-.81.02-1.36.37-1.48,1.23.52.68,1.03,1.35,1.75,2.29-.89-.2-1.45-.26-1.78-.86-.91.06-1.67-.43-2.48-.71-2.08-.73-4.02-1.93-6.32-1.95-1.93-.01-1.93-.02-1.44,1.79.65.43.45,1.29.94,1.8.91.96,1.7,1.99,2,3.31,1.39,2.18,3.37,3.75,5.43,5.24.83.6,1.55,1.26,1.77,2.44-1.26-.35-2.33-.76-3.43-.94-5.01-.86-9.07-3.4-12.52-7.02-2.71-2.32-4.95-5.09-7.32-7.74-.36-.4-.68-1.1-1.28-.8-.47.23-.14.88-.06,1.34.16,1.01.65,1.97.53,3.03.6.84.49,1.91.94,2.8.92,1.64,1.84,3.29,2.76,4.93,1.3,1.26,2.79,2.47,3.41,4.17.99,2.7,3.05,4.35,5.11,6.08,1.34,1.13,2.59,2.37,3.91,3.52.6.52.29,1.16.21,1.68-.06.38-.54.09-.81-.08-2.93-.21-5.86-.44-8.8-.62-.36-.02-.93-.32-1.1.34-.12.47.3.68.59.9.47.37.98.68,1.47,1.03,2.06,1.44,4.33,2.59,6.21,4.29-20.05,0-28.5-.55-48.55-.5-1.18,0,2.05-4.88,2.05-4.88Z"/>
        <path class="cls-1" d="m200.59,235.32c7.32-1.29,7.37-5.46,8.94-7.13-.79-1.9-2.78-2.57-4.09-3.97-2.92-3.15-3.01-3.51.8-5.48,4.48-2.31,7.61-5.56,8.76-10.63.43-1.92,1.46-3.7,2.22-5.54-.47-.67.58-1.8-.36-2.11-1.05-.34-1.4.79-1.88,1.53-.18.28-.54.44-.82.66-6,8.03-13.52,13.27-23.93,13.19,1.18-.8,2.59-1.16,3.79-1.88.68-.4,2.3,0,1.92-1.4-.23-.86-1.5-.77-2.39-.94-1.98-.36-3.93-.82-5.63-2.02-2.01-1.42-2.17-2.48-.26-4.09,1.6-1.34,3.29-2.61,5.42-3.04,9.12-5.68,14.56-14.89,21.93-22.29-2.01-.31-3.61.26-4.91,1.22-5.3,3.96-10.99,3.32-16.81,1.68-.49.03-1.02-.09-1.12-.57-.15-.77.53-.54.89-.5,1.53.14,2.85-.41,4.1-1.19.89-.62,1.72-1.38,2.69-1.84,3.06-1.45,5.85-3.21,7.91-6,3.29-4.46,6.64-8.88,9.97-13.31,1.14-2.14.42-3.04-1.9-3.64-4.46-1.16-7.83-3.79-9.49-8.3-1.44-3.92.22-6.54,4.28-6.43,2.84.07,5.44-.5,7.79-2.13,4.63-2.66,5.42-8.17,8.73-11.89,2.17-2.44,1.38-3.61-1.75-4.77-.77-.28-1.64-.38-2.31-.8-3.2-2-6.27-4.66-4.19-7.71,1.48-2.16,3.09-4.1,5.98-4.54,2.49-.37,4.17-1.78,4.64-4.46.25-1.44.54-3.01,1.31-4.2,2.46-3.81,3.32-7.99,3.47-12.4.09-2.78.15-5.56.28-8.34.16-3.24.37-6.48.63-9.71.08-.93.41-1.88,1.58-1.99.99-.09,1.25.75,1.41,1.44.83,3.63,2.86,6.76,4.12,10.2,1.04,1.63.43,3.43.46,5.14.08,4.43-.4,8.91,1.27,13.18h0c.92.79.49,1.9.58,2.84.17,1.86.39,3.68,1.59,5.15,2.2,2.69,3.21,5.7,2.87,9.16,1.22,3.02,4.14,3.99,6.63,5.49,2.53,1.52,2.76,2.58,1.18,5.36-.29.96-.95,1.64-1.59,2.4-.96,1.13-2.21,2.52-.65,4.18.51.03.93.24,1.01.76.59,3.87,2.75,6.27,6.54,7.37,1.67.48,3.22,1.36,4.84,2,3.49,1.37,6.62,3.25,9.01,6.21,1.48,1.83,1.18,3.18-.9,4.28-.41.2-.8.46-1.24.58-2.52.64-4.01,1.67-1.81,4.31.26.31.47.87,0,1.23-.51.38-1.01.08-1.54-.11-3.58-1.28-7.01-2.99-11.06-2.67-2.23.17-2.83.74-1.95,2.76.15-.07.26-.04.34.11,1.46,1.99,3.08,3.83,4.71,5.67,2.91,3.29,7.01,5.18,9.77,8.63,1.85,2.31,4.3,3.4,7.31,3.33,1.46-.04,2.82.41,4.24,1.02,2.82,1.22,4.92,3.25,7.06,5.28,2.71,2.58,5.42,5.08,9.55,5,1.57-.03,2.64,1.24,3.96,1.86.38.17.89.63.53,1.08-.41.53-.98.27-1.41-.16-1.76.04-3.52.06-5.28.11-1.35.04-2.28.63-2.49,2.06.86,1.13,1.73,2.27,2.93,3.84-1.49-.34-2.44-.43-2.98-1.44-1.53.1-2.8-.72-4.16-1.19-3.49-1.22-6.73-3.23-10.6-3.26-3.24-.02-3.24-.04-2.42,2.99,1.08.72.76,2.17,1.58,3.02,1.52,1.61,2.86,3.33,3.36,5.56,2.33,3.66,5.65,6.29,9.1,8.78,1.39,1,2.6,2.12,2.97,4.1-2.11-.59-3.9-1.27-5.75-1.58-8.41-1.44-15.21-5.69-21-11.77-4.55-3.89-8.3-8.54-12.28-12.98-.6-.66-1.14-1.84-2.15-1.34-.78.39-.23,1.48-.11,2.25.27,1.7,1.1,3.3.88,5.09,1.01,1.4.83,3.21,1.57,4.7,1.54,2.76,3.08,5.51,4.63,8.27,2.18,2.12,4.68,4.14,5.72,6.99,1.66,4.52,5.11,7.29,8.57,10.19,2.25,1.89,4.34,3.98,6.56,5.91,1.01.88.48,1.94.35,2.81-.09.63-.9.16-1.35-.14-4.92-.36-9.83-.74-14.75-1.04-.6-.04-1.57-.53-1.85.56-.2.78.51,1.14.99,1.52.78.62,1.64,1.15,2.47,1.72,3.46,2.41,7.26,4.34,10.41,7.2-33.62,0-47.8-.92-81.43-.84-1.98,0,3.44-8.18,3.44-8.18Z"/>
        <path class="cls-1" d="m103.87,241.9c4.63-.87,4.66-3.7,5.65-4.83-.5-1.28-1.76-1.74-2.58-2.69-1.84-2.13-1.9-2.38.51-3.71,2.83-1.57,4.81-3.76,5.54-7.2.27-1.3.92-2.5,1.4-3.75-.3-.45.37-1.22-.23-1.43-.66-.23-.89.54-1.19,1.03-.11.19-.34.3-.52.45-3.79,5.43-8.55,8.98-15.13,8.93.75-.54,1.64-.79,2.4-1.27.43-.27,1.45,0,1.21-.95-.15-.58-.95-.52-1.51-.63-1.25-.24-2.48-.55-3.56-1.37-1.27-.96-1.37-1.68-.16-2.77,1.01-.91,2.08-1.77,3.43-2.06,5.76-3.85,9.2-10.08,13.86-15.08-1.27-.21-2.28.17-3.1.83-3.35,2.68-6.94,2.25-10.62,1.14-.31.02-.65-.06-.71-.38-.1-.52.34-.36.56-.34.97.09,1.8-.27,2.59-.81.57-.42,1.09-.93,1.7-1.24,1.94-.98,3.7-2.17,5-4.06,2.08-3.02,4.2-6.01,6.3-9.01.72-1.45.27-2.06-1.2-2.47-2.82-.79-4.95-2.57-6-5.62-.91-2.65.14-4.42,2.71-4.35,1.8.05,3.44-.34,4.92-1.44,2.93-1.8,3.43-5.53,5.52-8.05,1.37-1.65.87-2.45-1.1-3.23-.48-.19-1.03-.26-1.46-.54-2.02-1.35-3.96-3.16-2.65-5.22.94-1.46,1.96-2.78,3.78-3.07,1.58-.25,2.63-1.21,2.93-3.02.16-.97.34-2.04.83-2.84,1.56-2.58,2.1-5.4,2.19-8.39.06-1.88.09-3.76.18-5.64.1-2.19.23-4.38.4-6.57.05-.63.26-1.27,1-1.35.62-.06.79.51.89.97.52,2.45,1.81,4.58,2.61,6.91.65,1.1.27,2.32.29,3.48.05,3-.25,6.03.8,8.92h0c.58.53.31,1.29.37,1.92.11,1.26.25,2.49,1,3.48,1.39,1.82,2.03,3.86,1.81,6.2.77,2.04,2.62,2.7,4.19,3.71,1.6,1.03,1.74,1.74.74,3.63-.19.65-.6,1.11-1.01,1.63-.6.76-1.4,1.71-.41,2.83.32.02.59.16.64.52.38,2.62,1.74,4.25,4.13,4.99,1.05.33,2.03.92,3.06,1.35,2.2.93,4.18,2.2,5.69,4.2.93,1.24.75,2.15-.57,2.89-.26.13-.51.31-.78.39-1.59.44-2.54,1.13-1.14,2.92.16.21.3.59,0,.83-.32.26-.64.06-.98-.07-2.27-.87-4.43-2.02-6.99-1.81-1.41.12-1.79.5-1.23,1.87.09-.05.17-.02.21.08.92,1.34,1.95,2.59,2.98,3.84,1.84,2.23,4.43,3.51,6.18,5.84,1.17,1.56,2.72,2.3,4.62,2.25.92-.02,1.79.28,2.68.69,1.78.82,3.11,2.2,4.46,3.58,1.71,1.75,3.43,3.44,6.03,3.38.99-.02,1.67.84,2.5,1.26.24.12.56.43.34.73-.26.36-.62.18-.89-.11-1.11.02-2.22.04-3.34.08-.86.03-1.44.42-1.57,1.4.55.77,1.09,1.53,1.85,2.6-.94-.23-1.54-.29-1.88-.98-.97.07-1.77-.49-2.63-.81-2.21-.83-4.26-2.19-6.7-2.21-2.05-.02-2.05-.02-1.53,2.03.69.49.48,1.47,1,2.05.96,1.09,1.81,2.25,2.12,3.76,1.47,2.47,3.57,4.25,5.75,5.94.88.68,1.65,1.43,1.88,2.77-1.33-.4-2.46-.86-3.64-1.07-5.31-.98-9.61-3.85-13.27-7.97-2.88-2.63-5.25-5.78-7.76-8.78-.38-.45-.72-1.25-1.36-.91-.5.26-.15,1-.07,1.52.17,1.15.69,2.23.56,3.44.64.95.52,2.17.99,3.18.97,1.87,1.95,3.73,2.92,5.6,1.38,1.43,2.96,2.8,3.62,4.73,1.05,3.06,3.23,4.93,5.42,6.9,1.42,1.28,2.74,2.69,4.15,4,.64.59.31,1.31.22,1.9-.06.43-.57.11-.86-.09-3.11-.24-6.21-.5-9.32-.7-.38-.02-.99-.36-1.17.38-.13.53.32.77.62,1.03.5.42,1.04.78,1.56,1.16,2.19,1.63,4.59,2.94,6.58,4.87-21.25,0-30.21-.63-51.47-.57-1.25,0,2.18-5.53,2.18-5.53Z"/>
      </g>
    </g>
  </g>
</svg>