<svg xmlns="http://www.w3.org/2000/svg" viewBox="0 0 230.76 195.1"><defs><style>.cls-1{fill:#81a54c;}.cls-2{fill:#6a6b68;}</style></defs><g id="圖層_2" data-name="圖層 2"><g id="圖層_1-2" data-name="圖層 1"><path class="cls-1" d="M201.43,159.32c-4.67-.82-4.7-3.49-5.71-4.55.51-1.21,1.78-1.64,2.61-2.54,1.86-2,1.92-2.24-.51-3.49a9.85,9.85,0,0,1-5.59-6.79,24.22,24.22,0,0,0-1.42-3.54c.3-.42-.37-1.14.23-1.34s.9.5,1.2,1a2.13,2.13,0,0,0,.52.42c3.83,5.13,8.63,8.47,15.27,8.42-.75-.51-1.65-.74-2.42-1.2-.43-.26-1.47,0-1.22-.9.15-.55,1-.49,1.52-.59a8.72,8.72,0,0,0,3.59-1.29c1.29-.91,1.39-1.59.17-2.61a7.83,7.83,0,0,0-3.46-1.94c-5.82-3.63-9.29-9.51-14-14.22a4,4,0,0,1,3.13.78c3.38,2.52,7,2.11,10.72,1.07.31,0,.65-.06.71-.36.1-.49-.33-.35-.57-.33a4.07,4.07,0,0,1-2.61-.76,14.09,14.09,0,0,0-1.72-1.17,12.6,12.6,0,0,1-5-3.82c-2.1-2.85-4.24-5.67-6.36-8.5-.73-1.37-.27-1.94,1.21-2.33a8.28,8.28,0,0,0,6-5.29c.92-2.51-.14-4.17-2.73-4.11A8,8,0,0,1,190,98c-3-1.69-3.46-5.21-5.57-7.58-1.38-1.56-.88-2.31,1.11-3.05a7.82,7.82,0,0,0,1.48-.51c2-1.27,4-3,2.67-4.91-.94-1.39-2-2.62-3.82-2.9a3.25,3.25,0,0,1-3-2.84,7.24,7.24,0,0,0-.83-2.68,15,15,0,0,1-2.21-7.92c-.06-1.77-.1-3.55-.19-5.32-.1-2.07-.23-4.13-.4-6.2,0-.59-.25-1.2-1-1.27s-.8.48-.9.92c-.53,2.32-1.83,4.32-2.63,6.51-.66,1-.28,2.19-.3,3.28,0,2.83.26,5.68-.81,8.41h0c-.59.5-.32,1.22-.37,1.81a5.76,5.76,0,0,1-1,3.28,7.72,7.72,0,0,0-1.84,5.85c-.78,1.92-2.64,2.54-4.22,3.5s-1.76,1.64-.75,3.42a4.34,4.34,0,0,0,1,1.54c.61.72,1.42,1.61.42,2.66-.33,0-.6.15-.65.49a5.38,5.38,0,0,1-4.17,4.7c-1.06.31-2.05.87-3.09,1.28a13.43,13.43,0,0,0-5.75,4c-.94,1.16-.75,2,.58,2.73a4.68,4.68,0,0,0,.79.36c1.6.42,2.56,1.07,1.15,2.75a.53.53,0,0,0,0,.79c.32.24.64,0,1-.07,2.29-.81,4.47-1.9,7.06-1.7,1.42.11,1.8.47,1.24,1.76a.14.14,0,0,0-.22.07c-.93,1.27-2,2.44-3,3.62-1.86,2.1-4.47,3.31-6.24,5.5a5.47,5.47,0,0,1-4.66,2.13,6.27,6.27,0,0,0-2.7.65,15.67,15.67,0,0,0-4.51,3.37c-1.73,1.65-3.46,3.24-6.09,3.19-1,0-1.68.79-2.53,1.18-.24.12-.56.41-.34.7s.62.17.9-.1l3.37.07a1.45,1.45,0,0,1,1.59,1.32c-.55.72-1.11,1.44-1.87,2.45.94-.22,1.55-.28,1.9-.92a6.7,6.7,0,0,0,2.65-.77c2.23-.78,4.3-2.06,6.76-2.08,2.07,0,2.07,0,1.55,1.91-.69.46-.49,1.39-1,1.93a7.7,7.7,0,0,0-2.14,3.55,21.36,21.36,0,0,1-5.81,5.6,4.05,4.05,0,0,0-1.89,2.61c1.34-.37,2.48-.8,3.67-1a23.81,23.81,0,0,0,13.4-7.51,85.09,85.09,0,0,0,7.83-8.28c.38-.43.73-1.18,1.37-.86s.15,1,.07,1.44a11.54,11.54,0,0,0-.56,3.24c-.65.9-.53,2.05-1,3l-3,5.28c-1.39,1.35-3,2.64-3.65,4.46-1.06,2.89-3.26,4.65-5.47,6.5-1.43,1.21-2.76,2.54-4.18,3.77-.65.56-.31,1.24-.23,1.8.06.4.58.1.87-.09,3.13-.23,6.27-.47,9.41-.66.38,0,1-.34,1.18.36.12.49-.33.72-.63,1-.5.4-1,.74-1.58,1.1-2.21,1.54-4.63,2.77-6.64,4.6,21.45,0,30.5-.59,52-.54C204.89,164.54,201.43,159.32,201.43,159.32Z"/><path class="cls-1" d="M167.94,140.2c-4.67-.83-4.7-3.49-5.7-4.56.5-1.21,1.77-1.63,2.6-2.53,1.86-2,1.92-2.24-.51-3.5a9.81,9.81,0,0,1-5.59-6.78,22.75,22.75,0,0,0-1.42-3.54c.3-.43-.37-1.15.23-1.35s.9.51,1.2,1a2.39,2.39,0,0,0,.52.42c3.83,5.12,8.63,8.47,15.27,8.42-.75-.51-1.65-.75-2.42-1.2-.43-.26-1.47,0-1.22-.9.15-.55.95-.49,1.52-.6a8.67,8.67,0,0,0,3.6-1.29c1.28-.9,1.38-1.58.16-2.61a8,8,0,0,0-3.46-1.94c-5.82-3.62-9.29-9.5-14-14.22a4,4,0,0,1,3.13.78c3.38,2.53,7,2.12,10.72,1.07.31,0,.65,0,.71-.36.1-.49-.33-.34-.56-.32a4.14,4.14,0,0,1-2.62-.76,12.14,12.14,0,0,0-1.72-1.17,12.71,12.71,0,0,1-5-3.83c-2.1-2.85-4.24-5.66-6.36-8.49-.73-1.37-.27-1.94,1.21-2.33a8.25,8.25,0,0,0,6.05-5.3c.92-2.5-.14-4.17-2.73-4.1a8.09,8.09,0,0,1-5-1.36c-3-1.7-3.46-5.21-5.57-7.59-1.38-1.55-.88-2.3,1.12-3a8,8,0,0,0,1.47-.51c2-1.27,4-3,2.67-4.92-.94-1.38-2-2.62-3.82-2.89a3.25,3.25,0,0,1-3-2.85,7.3,7.3,0,0,0-.83-2.68,15,15,0,0,1-2.21-7.91c-.06-1.77-.1-3.55-.19-5.32q-.15-3.1-.4-6.2c0-.59-.25-1.2-1-1.27s-.8.48-.9.92c-.53,2.31-1.82,4.31-2.63,6.51-.66,1-.28,2.19-.3,3.28-.05,2.83.26,5.68-.81,8.41h0c-.59.5-.32,1.21-.37,1.81a5.71,5.71,0,0,1-1,3.28A7.67,7.67,0,0,0,137,63.7c-.79,1.93-2.65,2.55-4.23,3.51S131,68.85,132,70.63a4.53,4.53,0,0,0,1,1.53c.61.72,1.42,1.61.42,2.67-.32,0-.6.15-.65.48A5.39,5.39,0,0,1,128.6,80c-1.06.3-2,.86-3.09,1.27a13.51,13.51,0,0,0-5.74,4c-1,1.17-.76,2,.57,2.73a4,4,0,0,0,.79.37c1.61.41,2.56,1.07,1.15,2.75a.53.53,0,0,0,0,.79c.32.24.64,0,1-.07,2.29-.82,4.47-1.91,7.06-1.7,1.42.11,1.81.47,1.24,1.75a.14.14,0,0,0-.21.08c-.93,1.26-2,2.44-3,3.62-1.86,2.1-4.47,3.3-6.24,5.5a5.49,5.49,0,0,1-4.66,2.12,6.57,6.57,0,0,0-2.7.65,15.7,15.7,0,0,0-4.51,3.38c-1.73,1.64-3.46,3.24-6.09,3.18-1,0-1.68.8-2.53,1.19-.24.11-.56.4-.34.69s.63.17.9-.1c1.13,0,2.25,0,3.37.08a1.44,1.44,0,0,1,1.59,1.31L105.27,116c1-.21,1.55-.27,1.9-.92a6.64,6.64,0,0,0,2.65-.76c2.23-.78,4.3-2.06,6.76-2.08,2.07,0,2.07,0,1.55,1.91-.69.46-.49,1.38-1,1.93a7.62,7.62,0,0,0-2.14,3.54,21.11,21.11,0,0,1-5.81,5.61,4.05,4.05,0,0,0-1.89,2.61,36.81,36.81,0,0,1,3.67-1,23.81,23.81,0,0,0,13.4-7.51,86.25,86.25,0,0,0,7.83-8.28c.38-.43.73-1.18,1.37-.86s.15,1,.07,1.44c-.17,1.08-.7,2.1-.56,3.24-.65.9-.53,2.05-1,3l-3,5.28c-1.39,1.35-3,2.64-3.65,4.46-1.06,2.88-3.26,4.65-5.46,6.5-1.44,1.21-2.77,2.54-4.19,3.77-.65.56-.31,1.24-.23,1.79s.58.1.87-.08c3.13-.23,6.27-.48,9.41-.67.39,0,1-.33,1.18.36.13.5-.33.73-.63,1-.5.4-1.05.73-1.58,1.1-2.2,1.54-4.63,2.77-6.64,4.59,21.46,0,30.5-.59,52-.54C171.4,145.42,167.94,140.2,167.94,140.2Z"/><path class="cls-1" d="M139.94,135.27c-5.93-1-6-4.42-7.24-5.77.64-1.54,2.25-2.08,3.31-3.22,2.36-2.55,2.43-2.85-.65-4.44-3.63-1.88-6.17-4.5-7.1-8.62a29,29,0,0,0-1.8-4.49c.38-.54-.47-1.46.29-1.71s1.14.65,1.52,1.24a2.78,2.78,0,0,0,.67.54c4.86,6.5,10.95,10.75,19.39,10.68-1-.64-2.1-.94-3.08-1.52-.55-.33-1.86,0-1.55-1.14.19-.7,1.21-.63,1.93-.76a10.9,10.9,0,0,0,4.56-1.64c1.63-1.14,1.76-2,.21-3.31a10,10,0,0,0-4.39-2.46c-7.39-4.61-11.8-12.07-17.77-18.06a5.12,5.12,0,0,1,4,1c4.29,3.21,8.9,2.69,13.61,1.36.4,0,.83-.07.91-.46.12-.62-.43-.43-.72-.4a5.28,5.28,0,0,1-3.33-1,16.8,16.8,0,0,0-2.18-1.49,16.11,16.11,0,0,1-6.41-4.85c-2.66-3.62-5.38-7.2-8.08-10.79-.92-1.74-.34-2.46,1.54-3a10.53,10.53,0,0,0,7.69-6.73c1.17-3.18-.18-5.29-3.47-5.21a10.18,10.18,0,0,1-6.31-1.72c-3.75-2.16-4.39-6.62-7.07-9.64-1.76-2-1.12-2.92,1.41-3.86a10.06,10.06,0,0,0,1.87-.65c2.6-1.62,5.08-3.78,3.4-6.24-1.2-1.76-2.51-3.33-4.85-3.68a4.11,4.11,0,0,1-3.76-3.61,9.4,9.4,0,0,0-1.06-3.4,19.14,19.14,0,0,1-2.81-10c-.07-2.25-.12-4.5-.23-6.75-.13-2.63-.29-5.25-.51-7.87C111.8.87,111.54.09,110.59,0c-.8-.08-1,.6-1.15,1.16-.67,2.94-2.31,5.48-3.34,8.27-.83,1.32-.35,2.78-.37,4.16-.07,3.59.32,7.21-1,10.68h0c-.75.63-.4,1.54-.47,2.3a7.29,7.29,0,0,1-1.29,4.16,9.77,9.77,0,0,0-2.32,7.42c-1,2.45-3.36,3.23-5.37,4.45S93,44.69,94.3,47a5.58,5.58,0,0,0,1.29,1.95c.77.91,1.79,2,.53,3.38-.42,0-.76.2-.83.62a6.83,6.83,0,0,1-5.29,6c-1.35.39-2.61,1.1-3.92,1.62a17,17,0,0,0-7.3,5c-1.2,1.48-1,2.58.73,3.47a6.44,6.44,0,0,0,1,.46c2,.52,3.25,1.35,1.47,3.49a.67.67,0,0,0,0,1c.41.31.82.07,1.25-.08,2.91-1,5.68-2.42,9-2.17,1.81.14,2.29.6,1.58,2.24a.19.19,0,0,0-.28.09c-1.18,1.61-2.49,3.1-3.81,4.59-2.36,2.67-5.68,4.2-7.92,7a7,7,0,0,1-5.92,2.7,8.14,8.14,0,0,0-3.43.82,20,20,0,0,0-5.72,4.28c-2.19,2.09-4.39,4.12-7.73,4-1.27,0-2.14,1-3.21,1.51-.31.14-.72.51-.43.88s.79.21,1.14-.13c1.42,0,2.85.05,4.27.09a1.84,1.84,0,0,1,2,1.67l-2.38,3.12c1.21-.28,2-.36,2.42-1.17,1.23.08,2.27-.59,3.37-1,2.83-1,5.45-2.62,8.58-2.65,2.63,0,2.63,0,2,2.43-.88.58-.61,1.76-1.27,2.45a9.71,9.71,0,0,0-2.73,4.5,26.86,26.86,0,0,1-7.37,7.12,5.12,5.12,0,0,0-2.4,3.31,48.07,48.07,0,0,1,4.66-1.28c6.81-1.17,12.32-4.61,17-9.54,3.69-3.15,6.73-6.92,10-10.51.48-.54.92-1.49,1.74-1.09.63.31.18,1.2.08,1.82-.22,1.38-.89,2.68-.71,4.12-.82,1.14-.67,2.6-1.28,3.81l-3.74,6.7c-1.77,1.72-3.79,3.35-4.64,5.66-1.35,3.67-4.14,5.91-6.94,8.26-1.83,1.53-3.52,3.23-5.32,4.79-.82.71-.39,1.57-.28,2.27.07.51.73.13,1.09-.11,4-.29,8-.6,12-.84.48,0,1.26-.43,1.49.46.16.63-.41.92-.8,1.23-.63.5-1.33.92-2,1.39-2.8,1.95-5.88,3.52-8.43,5.83,27.24,0,38.72-.75,66-.68C144.33,141.9,139.94,135.27,139.94,135.27Z"/><path class="cls-1" d="M223.87,180.73c-3.53-.62-3.56-2.64-4.31-3.44.38-.92,1.34-1.24,2-1.92,1.41-1.52,1.45-1.7-.39-2.65a7.45,7.45,0,0,1-4.23-5.13,18,18,0,0,0-1.07-2.68c.22-.33-.28-.87.17-1s.68.38.91.74c.08.13.26.21.39.32,2.9,3.87,6.53,6.41,11.56,6.37-.57-.39-1.25-.57-1.83-.91-.33-.2-1.11,0-.93-.68.12-.42.72-.37,1.16-.45a6.76,6.76,0,0,0,2.72-1c1-.68,1-1.2.12-2a6,6,0,0,0-2.62-1.46c-4.4-2.75-7-7.2-10.59-10.77a3,3,0,0,1,2.37.59c2.56,1.91,5.31,1.61,8.12.81.23,0,.49,0,.54-.27s-.26-.26-.43-.24a3.21,3.21,0,0,1-2-.58,10.31,10.31,0,0,0-1.3-.89,9.71,9.71,0,0,1-3.82-2.89c-1.59-2.16-3.21-4.29-4.81-6.44-.55-1-.21-1.46.91-1.76a6.27,6.27,0,0,0,4.59-4c.69-1.89-.11-3.15-2.07-3.1a6.12,6.12,0,0,1-3.77-1c-2.23-1.29-2.62-3.95-4.21-5.74-1.05-1.18-.67-1.75.84-2.31a5.93,5.93,0,0,0,1.12-.39c1.54-1,3-2.25,2-3.72a4.27,4.27,0,0,0-2.89-2.19,2.46,2.46,0,0,1-2.24-2.15,5.48,5.48,0,0,0-.63-2,11.37,11.37,0,0,1-1.68-6c0-1.35-.07-2.69-.14-4-.07-1.57-.17-3.13-.3-4.69,0-.45-.19-.91-.76-1s-.61.36-.68.69a41.29,41.29,0,0,1-2,4.93c-.5.79-.21,1.66-.23,2.48,0,2.14.2,4.3-.61,6.37h0c-.45.38-.24.92-.28,1.37a4.29,4.29,0,0,1-.77,2.48,5.83,5.83,0,0,0-1.38,4.43c-.6,1.46-2,1.93-3.21,2.65s-1.33,1.24-.56,2.59a3.19,3.19,0,0,0,.77,1.16c.46.55,1.07,1.22.31,2a.45.45,0,0,0-.49.37,4.08,4.08,0,0,1-3.16,3.56c-.8.23-1.55.65-2.33,1a10.25,10.25,0,0,0-4.36,3c-.71.88-.57,1.54.44,2.07a4.66,4.66,0,0,0,.6.28c1.21.31,1.93.8.87,2.08a.4.4,0,0,0,0,.59c.25.18.49,0,.75,0,1.73-.62,3.38-1.44,5.34-1.29,1.08.09,1.37.36.94,1.33a.11.11,0,0,0-.16.06c-.71,1-1.49,1.85-2.28,2.74-1.4,1.59-3.38,2.5-4.72,4.16a4.13,4.13,0,0,1-3.53,1.61,4.85,4.85,0,0,0-2,.49,11.66,11.66,0,0,0-3.41,2.56c-1.31,1.24-2.62,2.45-4.61,2.41-.76,0-1.28.6-1.92.9-.18.08-.43.3-.26.52s.47.13.68-.07l2.55.05a1.1,1.1,0,0,1,1.21,1c-.42.55-.84,1.09-1.42,1.86.72-.17,1.18-.21,1.44-.7a5.23,5.23,0,0,0,2-.58c1.68-.59,3.25-1.56,5.12-1.58,1.56,0,1.56,0,1.17,1.45-.53.35-.37,1.05-.77,1.46a5.83,5.83,0,0,0-1.62,2.69,16.25,16.25,0,0,1-4.39,4.24,3.07,3.07,0,0,0-1.44,2,26.94,26.94,0,0,1,2.78-.77,18,18,0,0,0,10.14-5.69,64,64,0,0,0,5.94-6.27c.28-.32.54-.89,1-.64s.11.71.06,1.08a8.26,8.26,0,0,0-.43,2.46c-.49.68-.4,1.55-.76,2.27l-2.24,4a9.91,9.91,0,0,0-2.76,3.37c-.8,2.19-2.47,3.52-4.14,4.92-1.09.92-2.09,1.93-3.17,2.86-.49.42-.23.93-.17,1.36s.43.07.65-.07c2.38-.17,4.75-.36,7.13-.5.29,0,.76-.26.89.27.1.38-.24.55-.47.73-.38.3-.8.56-1.2.83a49.46,49.46,0,0,0-5,3.48c16.25,0,23.1-.45,39.34-.41C226.49,184.69,223.87,180.73,223.87,180.73Z"/><path class="cls-2" d="M130.77,166.76c-4.67-.82-4.7-3.48-5.7-4.55.5-1.21,1.77-1.64,2.6-2.53,1.86-2,1.92-2.24-.51-3.5a9.85,9.85,0,0,1-5.59-6.79,23.61,23.61,0,0,0-1.41-3.53c.29-.43-.38-1.15.22-1.35s.9.51,1.2,1a2.23,2.23,0,0,0,.53.42c3.83,5.12,8.62,8.47,15.27,8.41-.76-.5-1.66-.74-2.42-1.2-.44-.25-1.47,0-1.23-.89.15-.55,1-.5,1.52-.6a8.67,8.67,0,0,0,3.6-1.29c1.28-.91,1.38-1.59.16-2.61a7.83,7.83,0,0,0-3.46-1.94c-5.82-3.63-9.29-9.5-14-14.22a4,4,0,0,1,3.13.78c3.38,2.53,7,2.12,10.72,1.07.32,0,.66-.06.72-.36.09-.49-.34-.34-.57-.32a4.14,4.14,0,0,1-2.62-.76,12.14,12.14,0,0,0-1.72-1.17,12.86,12.86,0,0,1-5-3.83c-2.1-2.85-4.24-5.67-6.36-8.5-.72-1.36-.27-1.94,1.21-2.32a8.27,8.27,0,0,0,6.06-5.3c.92-2.5-.15-4.17-2.74-4.11a8,8,0,0,1-5-1.35c-3-1.7-3.46-5.21-5.57-7.59-1.38-1.56-.88-2.3,1.12-3a8.47,8.47,0,0,0,1.47-.5c2-1.28,4-3,2.67-4.92-.94-1.38-2-2.62-3.81-2.9a3.24,3.24,0,0,1-3-2.84,7.3,7.3,0,0,0-.83-2.68A15,15,0,0,1,109.24,73c-.06-1.78-.09-3.55-.18-5.33-.11-2.06-.24-4.13-.4-6.19,0-.6-.26-1.2-1-1.27s-.8.48-.9.91c-.53,2.32-1.82,4.32-2.63,6.52-.66,1-.28,2.18-.3,3.27,0,2.83.26,5.69-.81,8.41h0c-.59.5-.31,1.21-.37,1.8a5.71,5.71,0,0,1-1,3.29,7.68,7.68,0,0,0-1.83,5.84c-.78,1.93-2.64,2.55-4.23,3.5s-1.76,1.65-.75,3.43a4.42,4.42,0,0,0,1,1.53c.61.72,1.41,1.61.41,2.66a.6.6,0,0,0-.64.49,5.39,5.39,0,0,1-4.18,4.7c-1.06.31-2.05.87-3.08,1.28a13.31,13.31,0,0,0-5.75,4c-.94,1.17-.76,2,.57,2.73a5.13,5.13,0,0,0,.79.37c1.61.41,2.56,1.06,1.16,2.75a.51.51,0,0,0,0,.78c.32.24.65.06,1-.06,2.29-.82,4.48-1.91,7.06-1.71,1.42.11,1.81.47,1.24,1.76a.14.14,0,0,0-.21.07c-.93,1.27-2,2.44-3,3.62-1.86,2.1-4.47,3.31-6.23,5.51a5.49,5.49,0,0,1-4.67,2.12,6.41,6.41,0,0,0-2.7.65,15.62,15.62,0,0,0-4.5,3.37C71.35,135.43,69.62,137,67,137c-1,0-1.69.79-2.53,1.19-.24.11-.57.4-.34.69s.62.17.9-.1l3.36.07A1.45,1.45,0,0,1,70,140.14l-1.87,2.45c1-.22,1.55-.28,1.9-.92a6.85,6.85,0,0,0,2.66-.76c2.22-.78,4.29-2.07,6.76-2.09,2.07,0,2.07,0,1.54,1.92-.69.45-.48,1.38-1,1.93a7.55,7.55,0,0,0-2.15,3.54,21.18,21.18,0,0,1-5.8,5.6,4.06,4.06,0,0,0-1.9,2.62,36.81,36.81,0,0,1,3.67-1,23.76,23.76,0,0,0,13.4-7.52A85.19,85.19,0,0,0,95,137.62c.38-.42.72-1.17,1.37-.85.5.24.14.94.07,1.43a11.27,11.27,0,0,0-.57,3.25c-.64.89-.52,2-1,3l-3,5.27c-1.39,1.36-3,2.64-3.66,4.46-1.06,2.89-3.26,4.65-5.46,6.51-1.44,1.2-2.77,2.54-4.19,3.77-.65.56-.31,1.23-.22,1.79.06.4.57.1.86-.09,3.14-.22,6.27-.47,9.41-.66.39,0,1-.34,1.18.36.13.5-.32.73-.63,1-.5.39-1,.73-1.57,1.09-2.21,1.54-4.64,2.77-6.65,4.6,21.46,0,30.51-.59,52-.54C134.23,172,130.77,166.76,130.77,166.76Z"/><path class="cls-2" d="M84.72,141c-5.92-1-6-4.43-7.24-5.78.64-1.53,2.26-2.08,3.31-3.22,2.36-2.54,2.44-2.84-.65-4.44C76.51,125.73,74,123.1,73,119a28.63,28.63,0,0,0-1.8-4.49c.38-.54-.47-1.46.29-1.71s1.14.64,1.53,1.24c.14.23.44.36.66.53,4.86,6.51,11,10.76,19.39,10.69-1-.65-2.1-1-3.08-1.53-.54-.32-1.86,0-1.55-1.13.19-.7,1.21-.63,1.93-.76A11,11,0,0,0,95,120.19c1.63-1.15,1.76-2,.21-3.32a10.07,10.07,0,0,0-4.39-2.46C83.4,109.81,79,102.35,73,96.36a5.07,5.07,0,0,1,4,1c4.29,3.21,8.9,2.69,13.61,1.36.4,0,.83-.07.91-.46.12-.62-.43-.43-.72-.41a5.27,5.27,0,0,1-3.33-1,15,15,0,0,0-2.18-1.49,16.23,16.23,0,0,1-6.41-4.86c-2.66-3.61-5.38-7.19-8.07-10.79-.93-1.73-.35-2.46,1.53-2.95A10.5,10.5,0,0,0,80,70.07c1.17-3.18-.18-5.3-3.47-5.21a10.27,10.27,0,0,1-6.31-1.73C66.5,61,65.86,56.52,63.18,53.5c-1.76-2-1.12-2.93,1.41-3.87A10.4,10.4,0,0,0,66.47,49c2.59-1.62,5.08-3.78,3.39-6.25C68.66,41,67.35,39.42,65,39.07a4.11,4.11,0,0,1-3.76-3.61,9.51,9.51,0,0,0-1.06-3.41,19.08,19.08,0,0,1-2.81-10c-.07-2.25-.11-4.51-.23-6.76-.13-2.62-.29-5.25-.5-7.87-.07-.75-.33-1.52-1.28-1.61-.8-.07-1,.61-1.14,1.17-.68,2.93-2.32,5.47-3.34,8.26-.84,1.32-.35,2.78-.38,4.16-.07,3.6.33,7.22-1,10.68h0c-.75.64-.4,1.54-.47,2.3a7.22,7.22,0,0,1-1.29,4.17,9.77,9.77,0,0,0-2.32,7.42c-1,2.44-3.36,3.23-5.37,4.44s-2.23,2.09-1,4.35a5.59,5.59,0,0,0,1.29,1.94c.77.92,1.79,2.05.53,3.39-.42,0-.76.19-.83.62a6.84,6.84,0,0,1-5.29,6c-1.35.39-2.61,1.1-3.92,1.62a17,17,0,0,0-7.3,5c-1.19,1.48-1,2.57.73,3.46a5.68,5.68,0,0,0,1,.47c2,.52,3.25,1.35,1.47,3.49a.67.67,0,0,0,0,1c.41.3.82.06,1.25-.09,2.91-1,5.68-2.42,9-2.16,1.81.14,2.3.6,1.58,2.23a.18.18,0,0,0-.27.09c-1.19,1.61-2.5,3.1-3.82,4.6-2.36,2.66-5.68,4.2-7.92,7a7,7,0,0,1-5.92,2.69,8,8,0,0,0-3.43.83,20,20,0,0,0-5.72,4.28c-2.19,2.09-4.39,4.12-7.73,4-1.27,0-2.14,1-3.21,1.5-.31.15-.72.51-.43.88s.79.22,1.14-.13c1.42,0,2.85,0,4.28.1a1.83,1.83,0,0,1,2,1.67l-2.38,3.11c1.21-.28,2-.35,2.42-1.17,1.24.08,2.27-.58,3.37-1,2.83-1,5.45-2.62,8.58-2.64,2.63,0,2.63,0,2,2.43-.87.58-.61,1.75-1.27,2.45a9.56,9.56,0,0,0-2.72,4.5,27.11,27.11,0,0,1-7.37,7.11,5.15,5.15,0,0,0-2.41,3.32,46.07,46.07,0,0,1,4.66-1.28c6.81-1.17,12.32-4.62,17-9.54,3.69-3.16,6.73-6.92,10-10.52.48-.54.92-1.49,1.74-1.08.63.31.18,1.2.08,1.82-.22,1.38-.89,2.67-.71,4.12-.82,1.14-.67,2.6-1.27,3.81l-3.75,6.7c-1.77,1.71-3.79,3.35-4.64,5.66-1.35,3.66-4.14,5.9-6.94,8.26-1.82,1.53-3.51,3.22-5.32,4.78-.82.71-.39,1.57-.28,2.28.07.51.73.13,1.1-.11,4-.29,8-.6,12-.84.49,0,1.26-.43,1.49.45.16.64-.41.92-.8,1.23-.63.5-1.33.93-2,1.39-2.8,2-5.88,3.52-8.43,5.84,27.24,0,38.72-.75,66-.69C89.11,147.67,84.72,141,84.72,141Z"/><path class="cls-2" d="M187.73,190.74c-3.53-.63-3.56-2.64-4.32-3.45.38-.91,1.35-1.24,2-1.92,1.41-1.52,1.46-1.69-.38-2.64a7.48,7.48,0,0,1-4.24-5.14,17,17,0,0,0-1.07-2.68c.23-.32-.28-.87.18-1s.67.39.9.74a1.57,1.57,0,0,0,.4.32c2.9,3.88,6.53,6.41,11.56,6.37-.57-.38-1.25-.56-1.83-.91-.33-.19-1.12,0-.93-.68.11-.41.72-.37,1.15-.45a6.38,6.38,0,0,0,2.72-1c1-.68,1-1.19.13-2a6,6,0,0,0-2.62-1.47c-4.41-2.74-7-7.19-10.6-10.77a3.06,3.06,0,0,1,2.37.6c2.56,1.91,5.31,1.6,8.12.81.24,0,.5-.05.54-.28s-.25-.26-.43-.24a3.12,3.12,0,0,1-2-.58,9.28,9.28,0,0,0-1.3-.88,9.57,9.57,0,0,1-3.82-2.9c-1.59-2.16-3.21-4.29-4.82-6.43-.55-1-.2-1.47.92-1.76a6.25,6.25,0,0,0,4.58-4c.7-1.9-.11-3.16-2.07-3.11a6,6,0,0,1-3.76-1c-2.24-1.28-2.62-3.94-4.22-5.74-1-1.18-.66-1.75.85-2.31a5.58,5.58,0,0,0,1.11-.38c1.55-1,3-2.25,2-3.72a4.29,4.29,0,0,0-2.89-2.2,2.45,2.45,0,0,1-2.25-2.15,5.54,5.54,0,0,0-.63-2,11.36,11.36,0,0,1-1.67-6c-.05-1.34-.07-2.69-.14-4-.08-1.56-.18-3.13-.3-4.69,0-.45-.2-.91-.76-1s-.61.36-.69.69a39.07,39.07,0,0,1-2,4.93c-.5.79-.21,1.66-.22,2.49,0,2.14.19,4.3-.61,6.36h0c-.45.38-.24.92-.28,1.37a4.34,4.34,0,0,1-.77,2.49,5.81,5.81,0,0,0-1.39,4.42c-.59,1.46-2,1.93-3.2,2.65s-1.33,1.25-.57,2.59a3.36,3.36,0,0,0,.77,1.16c.46.55,1.07,1.22.32,2-.25,0-.45.12-.49.37a4.08,4.08,0,0,1-3.16,3.56c-.81.23-1.55.66-2.34,1a10.13,10.13,0,0,0-4.35,3c-.71.88-.57,1.53.44,2.06a2.66,2.66,0,0,0,.59.28c1.22.31,1.94.81.88,2.08a.4.4,0,0,0,0,.6c.24.18.49,0,.75-.06,1.73-.61,3.38-1.44,5.34-1.28,1.07.08,1.36.35.94,1.33a.11.11,0,0,0-.17.05c-.7,1-1.48,1.85-2.27,2.74-1.41,1.59-3.39,2.51-4.72,4.17a4.2,4.2,0,0,1-3.53,1.61,4.71,4.71,0,0,0-2,.49,12.09,12.09,0,0,0-3.41,2.55c-1.31,1.25-2.62,2.46-4.61,2.41-.76,0-1.27.61-1.91.9-.19.09-.43.31-.26.53s.47.13.68-.08l2.55.06a1.09,1.09,0,0,1,1.2,1c-.42.55-.83,1.1-1.42,1.86.72-.17,1.18-.21,1.44-.7a5,5,0,0,0,2-.58c1.69-.59,3.26-1.56,5.12-1.57,1.57,0,1.57,0,1.17,1.44-.52.35-.37,1.05-.76,1.47a5.67,5.67,0,0,0-1.62,2.68,16,16,0,0,1-4.4,4.24,3.08,3.08,0,0,0-1.43,2c1-.29,1.88-.61,2.78-.77A18,18,0,0,0,154.73,175a65,65,0,0,0,5.93-6.27c.29-.32.55-.89,1-.65s.11.72.05,1.09a8.51,8.51,0,0,0-.42,2.45c-.49.68-.4,1.55-.77,2.27l-2.23,4a9.89,9.89,0,0,0-2.76,3.37c-.81,2.19-2.47,3.53-4.14,4.93-1.09.91-2.1,1.92-3.17,2.85-.49.43-.24.94-.17,1.36s.43.07.65-.07c2.38-.17,4.75-.35,7.13-.5.29,0,.75-.25.89.27s-.25.55-.48.74c-.38.3-.79.55-1.19.83a45.48,45.48,0,0,0-5,3.48c16.24,0,23.09-.45,39.33-.41C190.35,194.69,187.73,190.74,187.73,190.74Z"/><path class="cls-2" d="M163.72,174.81c-4-.71-4-3-4.87-3.89.43-1,1.52-1.4,2.23-2.16,1.58-1.71,1.63-1.91-.44-3a8.38,8.38,0,0,1-4.77-5.79,20.91,20.91,0,0,0-1.21-3c.25-.36-.32-1,.19-1.15s.77.44,1,.84a2,2,0,0,0,.44.36c3.27,4.37,7.37,7.23,13,7.18-.64-.43-1.41-.63-2.07-1-.37-.22-1.25,0-1-.77.13-.47.82-.42,1.31-.51a7.47,7.47,0,0,0,3.06-1.1c1.1-.77,1.18-1.35.14-2.23a6.7,6.7,0,0,0-2.95-1.65c-5-3.1-7.93-8.12-11.94-12.14a3.45,3.45,0,0,1,2.67.66c2.88,2.16,6,1.81,9.15.92.27,0,.56,0,.61-.31.08-.42-.29-.29-.48-.28a3.55,3.55,0,0,1-2.24-.64,12,12,0,0,0-1.47-1,10.89,10.89,0,0,1-4.31-3.26c-1.79-2.43-3.61-4.84-5.43-7.25-.62-1.17-.23-1.66,1-2a7.08,7.08,0,0,0,5.17-4.52c.78-2.14-.13-3.56-2.34-3.5a6.9,6.9,0,0,1-4.24-1.16c-2.52-1.45-3-4.45-4.75-6.48-1.19-1.33-.75-2,.95-2.6a6.68,6.68,0,0,0,1.26-.43c1.74-1.09,3.41-2.54,2.28-4.2a4.81,4.81,0,0,0-3.26-2.47,2.77,2.77,0,0,1-2.53-2.43,6.32,6.32,0,0,0-.71-2.29,12.82,12.82,0,0,1-1.89-6.75c-.05-1.52-.08-3-.16-4.54-.08-1.77-.19-3.53-.34-5.29,0-.51-.22-1-.86-1.09s-.68.41-.76.79c-.46,2-1.56,3.68-2.25,5.55-.56.89-.23,1.87-.25,2.8-.05,2.42.22,4.85-.69,7.18h0c-.51.43-.27,1-.32,1.55a4.84,4.84,0,0,1-.87,2.8,6.61,6.61,0,0,0-1.56,5c-.67,1.64-2.25,2.17-3.61,3s-1.5,1.41-.64,2.93a3.9,3.9,0,0,0,.87,1.31c.52.61,1.21,1.37.35,2.27a.52.52,0,0,0-.55.42,4.6,4.6,0,0,1-3.56,4c-.91.26-1.75.74-2.63,1.09a11.49,11.49,0,0,0-4.91,3.38c-.8,1-.64,1.73.49,2.33a3.67,3.67,0,0,0,.67.31c1.38.35,2.19.91,1,2.35a.45.45,0,0,0,0,.67c.28.21.55.05.84-.06,2-.69,3.82-1.62,6-1.45,1.21.09,1.54.4,1.06,1.5a.13.13,0,0,0-.19.06c-.79,1.08-1.67,2.09-2.56,3.09-1.59,1.79-3.82,2.83-5.33,4.7a4.67,4.67,0,0,1-4,1.81,5.48,5.48,0,0,0-2.3.56,13.35,13.35,0,0,0-3.85,2.88c-1.47,1.4-3,2.76-5.2,2.72-.85,0-1.43.68-2.16,1-.2.1-.48.34-.29.59s.54.15.77-.08l2.88.06a1.23,1.23,0,0,1,1.35,1.12c-.47.62-.94,1.24-1.6,2.09.81-.18,1.33-.23,1.63-.78a5.77,5.77,0,0,0,2.26-.65c1.91-.67,3.67-1.76,5.77-1.78,1.77,0,1.77,0,1.32,1.63-.59.39-.41,1.18-.86,1.65a6.43,6.43,0,0,0-1.82,3,18.2,18.2,0,0,1-5,4.78,3.43,3.43,0,0,0-1.62,2.23c1.15-.32,2.12-.69,3.13-.86A20.34,20.34,0,0,0,126.51,157a72.08,72.08,0,0,0,6.69-7.07c.32-.36.62-1,1.17-.73s.13.81.06,1.23a9.65,9.65,0,0,0-.48,2.77c-.55.76-.45,1.75-.86,2.56l-2.52,4.5c-1.18,1.16-2.55,2.26-3.12,3.81-.9,2.46-2.78,4-4.66,5.55-1.23,1-2.37,2.17-3.58,3.22-.55.48-.26,1-.19,1.53s.49.08.74-.07c2.68-.2,5.35-.41,8-.57.33,0,.86-.29,1,.31.11.42-.28.62-.54.82-.42.34-.89.63-1.34.94a51.48,51.48,0,0,0-5.67,3.92c18.31,0,26-.5,44.35-.46C166.67,179.26,163.72,174.81,163.72,174.81Z"/></g></g></svg>