<svg width="48" height="48" viewBox="0 0 48 48" fill="none" xmlns="http://www.w3.org/2000/svg">
<path d="M29.1562 18.45V26.0719C29.1562 26.2687 29.0062 26.4187 28.8094 26.4187H27.5906C27.4687 26.4187 27.3656 26.3531 27.3094 26.2781L23.8125 21.5625V26.0812C23.8125 26.2781 23.6625 26.4281 23.4656 26.4281H22.2469C22.05 26.4281 21.9 26.2781 21.9 26.0812V18.4594C21.9 18.2625 22.05 18.1125 22.2469 18.1125H23.4562C23.5594 18.1125 23.6812 18.1688 23.7375 18.2625L27.2344 22.9781V18.4594C27.2344 18.2625 27.3844 18.1125 27.5812 18.1125H28.8C28.9969 18.1031 29.1562 18.2625 29.1562 18.4406V18.45ZM20.3719 18.1031H19.1531C18.9563 18.1031 18.8063 18.2531 18.8063 18.45V26.0719C18.8063 26.2687 18.9563 26.4187 19.1531 26.4187H20.3719C20.5688 26.4187 20.7188 26.2687 20.7188 26.0719V18.45C20.7188 18.2719 20.5688 18.1031 20.3719 18.1031ZM17.4281 24.4875H14.0906V18.45C14.0906 18.2531 13.9406 18.1031 13.7438 18.1031H12.525C12.3281 18.1031 12.1781 18.2531 12.1781 18.45V26.0719C12.1781 26.1656 12.2063 26.2406 12.2719 26.3062C12.3375 26.3625 12.4125 26.4 12.5063 26.4H17.4C17.5969 26.4 17.7469 26.25 17.7469 26.0531V24.8344C17.7469 24.6562 17.5969 24.4875 17.4188 24.4875H17.4281ZM35.5875 18.1031H30.6844C30.5062 18.1031 30.3375 18.2531 30.3375 18.45V26.0719C30.3375 26.25 30.4875 26.4187 30.6844 26.4187H35.5781C35.775 26.4187 35.925 26.2687 35.925 26.0719V24.8438C35.925 24.6469 35.775 24.4969 35.5781 24.4969H32.25V23.2219H35.5781C35.775 23.2219 35.925 23.0719 35.925 22.875V21.6469C35.925 21.45 35.775 21.3 35.5781 21.3H32.25V20.0156H35.5781C35.775 20.0156 35.925 19.8656 35.925 19.6688V18.45C35.9156 18.2719 35.7656 18.1031 35.5781 18.1031H35.5875ZM48 8.75626V39.3187C47.9906 44.1187 44.0531 48.0094 39.2437 48H8.68126C3.88126 47.9906 -0.00935809 44.0437 1.69072e-05 39.2437V8.68126C0.0093919 3.88126 3.95626 -0.00935809 8.75626 1.69072e-05H39.3187C44.1187 0.0093919 48.0094 3.94689 48 8.75626ZM41.4 21.8906C41.4 14.0719 33.5531 7.70626 23.925 7.70626C14.2969 7.70626 6.45001 14.0719 6.45001 21.8906C6.45001 28.8937 12.6656 34.7719 21.0656 35.8875C23.1094 36.3281 22.875 37.0781 22.4156 39.8344C22.3406 40.275 22.0594 41.5594 23.925 40.7812C25.7906 40.0031 33.9844 34.8562 37.6594 30.6375C40.1906 27.8531 41.4 25.0312 41.4 21.9094V21.8906Z" fill="#B61C31"/>
</svg>
