<?xml version="1.0" encoding="UTF-8"?>
<svg id="_圖層_2" data-name="圖層 2" xmlns="http://www.w3.org/2000/svg" viewBox="0 0 43.31 9.75">
  <g id="_圖層_1-2" data-name="圖層 1">
    <g>
      <g>
        <path d="m43.3,2.19s-.06-.06-.06-.04l.06.07v-.03Z" style="fill: #da7c90;"/>
        <path d="m43.11,2.14s.06.11.13.16c-.05-.07-.02-.05-.09-.14,0-.02.04,0,.06.03-.01-.02.03,0,0-.05-.06-.04-.08-.02-.06.04-.02-.01-.03-.03-.04-.04Z" style="fill: #da7c90;"/>
        <path d="m42.04,3.06h.01s-.01,0-.01,0Z" style="fill: #da7c90;"/>
        <path d="m41.4,3.65s0-.01,0-.02c0,0,0,.02,0,.02Z" style="fill: #da7c90;"/>
        <path d="m41.22,3.69s0,0,.01,0c0,0-.01,0-.01,0Z" style="fill: #da7c90;"/>
        <path d="m42.04,3.06h-.04s.02,0,.04,0Z" style="fill: #da7c90;"/>
        <path d="m43.14,2.44s0-.02,0-.03c0,0,0,.01,0,.02,0,0,0,0,0,.01Z" style="fill: #da7c90;"/>
        <path d="m42.25,2.73h0s-.01-.02-.02-.04l.02.04Z" style="fill: #da7c90;"/>
        <path d="m42.44,2.51s.05.06.07.08c-.02-.03-.03-.04-.03-.05-.01-.01-.02-.02-.04-.04Z" style="fill: #da7c90;"/>
        <path d="m42.86,2.26h0s0,0,0,0Z" style="fill: #da7c90;"/>
        <path d="m42.09,2.87s-.02-.01-.02-.02c0,0,.01.01.02.02Z" style="fill: #da7c90;"/>
        <path d="m36.83,9.21s0,0-.01,0c0,0,0,.01.01,0Z" style="fill: #da7c90;"/>
        <path d="m36.31,9.19h0s-.02-.03-.03-.04l.03.04Z" style="fill: #da7c90;"/>
        <path d="m40.96,3.81s0,0,0,0c0-.01,0,0,0,0Z" style="fill: #da7c90;"/>
        <path d="m39.28,5.65c.07.03.03.1.12.12-.02-.02-.06-.11-.12-.12Z" style="fill: #da7c90;"/>
        <path d="m43.13,2.44s0,0,0,0c0,0,0,0,0,0Z" style="fill: #da7c90;"/>
        <polygon points="39.4 5.77 39.4 5.77 39.41 5.77 39.4 5.77" style="fill: #da7c90;"/>
        <path d="m40.56,4.3s.02.01.03.02c0,0-.01-.01-.03-.02Z" style="fill: #da7c90;"/>
        <path d="m40.97,4.04h-.02s.01,0,.02,0Z" style="fill: #da7c90;"/>
        <path d="m40.48,4.55s-.02,0-.02,0c0,0,0,0,0,0,0,0,0-.02,0-.01Z" style="fill: #da7c90;"/>
        <path d="m40.3,4.73s0,0,.01,0c0,0,0,0,0,0h-.02Z" style="fill: #da7c90;"/>
        <path d="m37.33,8.64s-.04-.03-.06-.04c.04.04.03.08.06.04Z" style="fill: #da7c90;"/>
        <path d="m43.11,2.41s.02.02.02.03c0,0,0,0,0,0,0,0-.02-.02-.02-.02Z" style="fill: #da7c90;"/>
        <path d="m40.92,4.98l-.04.02s.03-.01.04-.02Z" style="fill: #da7c90;"/>
        <path d="m38.58,7.32h0s0,0,0,0Z" style="fill: #da7c90;"/>
        <path d="m40.81,5.1s-.04-.02-.05-.02c0,0,0,.01.01.02h.04Z" style="fill: #da7c90;"/>
        <path d="m37.27,8.59s0,0,0,0c0,0,0,0,0,0Z" style="fill: #da7c90;"/>
        <path d="m37.23,8.91s-.06-.08-.1-.13c.01-.05.07.04.12.06,0-.04-.05-.12-.04-.13.01.01.02.01.03.03-.04-.08.06-.07,0-.16,0,0,.02,0,.02.01-.04-.03-.08-.07-.11-.09.01-.01-.03-.07.03-.03,0,0,.01.03.02.04v-.03c.07.06,0,.04.05.09,0-.05-.03-.13,0-.13.07.06-.02.07.07.1h-.05c.13.09-.02.02.11.11.06-.02,0-.08.06-.1-.03-.05-.06-.05-.09-.1-.02-.12.21.12.16,0-.04-.05-.12-.14-.04-.13l.07.08s-.09-.13,0-.12c.02.04,0,.05.01.06.09.03-.03-.06,0-.08l.07.06c.03-.05.02-.14.05-.2.02.02.03.05.06.06.02-.09.12-.11.22-.13l-.04-.08s.04.02.04.03c.04,0-.04-.04-.05-.07,0-.02.05.02.06.04-.01-.09,0-.21.1-.19v.02c.06,0-.08-.15,0-.13v.02c.1-.04.11-.17.25-.13-.08-.09.1-.03-.01-.15.1.02.11.05.2.03.02,0-.05-.09-.05-.12l.06.06-.04-.09.09.06v-.03s-.04-.01-.06-.03c0-.05.1-.02.14,0v-.11s.03.04.04.07c-.03-.09.07.06.04-.03-.02,0-.04-.04-.05-.05.05.02.09-.01.09-.05l.04.05c.05-.04.07-.12.12-.17-.04,0-.11-.08-.1-.1l.07.06s-.04,0-.07-.08c.03-.01.09.06.1.09v-.05s.03.03.05.06c-.03-.05.1.02.05-.06l.02.02c.05-.05.05-.1.09-.14-.06-.06-.03-.06-.06-.12.05-.01.12,0,.16-.05,0-.05-.04-.05-.06-.1.05.05.08,0,.1.06.03-.05.04-.07.06-.16-.03-.01-.04-.02-.06-.04,0-.02.04,0,.07.02h0c-.02-.13.29,0,.23-.15h0s0-.1,0-.1c.03-.02.03.05.07.06-.03-.14.1-.08.08-.18.19.11.11-.14.25-.09l-.04-.03s.03,0,.05,0c-.03-.03-.05-.02-.06-.04.06-.15.26-.17.4-.25.05-.03-.16-.2-.03-.17l.05.08c0-.16.16-.16.17-.3.01.02.03.04.02.05.06.03.06-.06.02-.1.02,0,.04.03.07.04.04.01-.02-.1.03-.06,0,0,.01.02.01.03-.01-.03.05-.04-.01-.09.05,0,.03-.08.08-.07-.05-.08.08-.02,0-.11.09.09.12.02.1-.04.02.03.04.01.08.06.02-.02.02-.06-.03-.1.15.07-.01-.16.15-.05.01-.11.03-.2.07-.28.09.09-.05.07.05.16.01-.09-.03-.2.04-.23.03,0,.03.05.04.07.01-.09.11-.1.1-.19,0,0,.01.02.01.03,0-.01.03,0,0-.05v.02c-.07-.04-.09-.16-.12-.19.1.13.08-.02.2.15,0-.01-.01-.04-.04-.07.02,0,.04.01.06.05,0-.06-.05-.09-.02-.12.02.02.02.03.04.06-.02-.05-.05-.11,0-.12.01.01.03.03.02.03.04-.05-.03-.18.05-.19.07.1.04.01.12.08v-.05s-.04-.02-.04-.02c.02-.02-.01-.09.03-.09v.05s.04-.06.04-.06h-.05c-.02-.06-.1-.09-.05-.1,0,.01.02-.02.08,0,0,0,0,0,0,0-.01-.03-.03-.07,0-.07.03.02.08.08.1.1-.05-.07.03-.07-.02-.15.01.02.05.06.06.06l-.04-.06s.04.01.07.04c.04-.02-.11-.08-.03-.08,0,0,.01.01.01.03.06-.02.04-.1.1-.12.09.06-.01.05.06.1.03-.06,0-.19.07-.22h-.02c-.1-.11.09.02.06-.06,0,.01.05.06.04.05.05-.02.04-.09.05-.18l.02.03s.06-.04.1-.05c-.02-.03,0-.04-.05-.07.22.08.04-.21.22-.14,0,0,0,.04.01.03l.02-.07c-.05-.04-.03-.02-.08-.05-.02-.03-.03-.07-.02-.08,0,.05.08.07.11.09-.02-.01-.03-.03-.04-.04.11.05-.09-.09,0-.08l.02.03s-.02-.07,0-.08c.06.05.01.04.06.08.02-.02-.06-.14,0-.1,0,.02,0,.04,0,.06.08.04.07.02.09.02h0s.06,0,.06,0h-.03c-.12-.17.02-.08-.04-.21.06.12.05.05.1.12.03,0,.06.01.07.03-.03-.06.06.01.01-.08.02.02.02-.02.06.04,0-.04-.04-.03-.06-.05-.04-.1.15,0,.11-.13,0-.08-.06-.15-.06-.22.04.02.06.08.06.08.05,0,.06-.01.05-.05.01.02.03.03.06.05,0-.02-.06-.08-.01-.07.02.02.05.06.06.09,0-.04-.02-.09-.02-.12.04.03.04.06.06.09,0-.04.02-.08-.03-.14h-.03s.05.04.06.05c.03.06-.04,0-.06-.01v-.03c-.13-.1-.03.07-.06.09l-.07-.09.04.09s-.08-.06-.08-.08c-.06-.02.01.05-.05.02,0,0-.01,0-.01-.01v.04s-.06-.05-.03-.05c-.08-.01.01.11-.06.07h0c-.02.07.06.06.1.16l-.17-.12.06.06s-.02,0-.04-.02c.03.06.03.02.06.07-.08-.03-.03.09-.14,0,.04.05.06.01.07.07-.11-.09,0,.05-.08.02-.05-.06,0-.05-.07-.08.08.1-.06.02-.06.06.07.07,0,.07-.01.12-.02-.03-.09.02-.15.02h-.01c.07.06.03.08.02.11-.04-.04-.06-.06-.07-.09l-.02.02s.03.05.02.07l-.05-.06s.02.11-.05.11c.05.05.17.11.17.18-.03-.03-.08-.07-.08-.09,0,0,.01.03,0,.03l-.03-.06s.03.05.02.05c-.04-.04-.04-.02-.07-.05,0,0,.03,0,.02-.01-.02,0-.06,0-.1-.02.02.02.05.05.05.07-.02.03-.06-.04-.09-.04.02.03-.02.02.04.08,0,0-.04-.02-.06-.03.01.04-.05.07.03.12h0s0,0,0,0h0s0,0,0,0c.02.1-.12.06-.14.13l-.02-.02s-.04.07-.02.13c0,0-.05-.02-.07-.04,0,.03.02.06-.04.06-.02-.05-.04-.02,0-.05-.04,0-.08-.02-.05.06-.04-.06-.08-.04-.08-.02l.05.02s-.02.03-.04.04l-.06-.07c-.13-.03.05.23-.13.14.03.06.06,0,.1.07-.03.02-.15-.05-.16-.04-.07,0,.07.13,0,.14.03.02.1.08.09.12-.03.02-.13-.07-.13-.1,0,0,.01,0,.02,0,0-.02,0-.04-.04-.05l.02.03s-.07.02-.1-.02c0,.04.03.05.06.04-.06,0-.05.05-.1.06.02,0,.05.03.05.03-.08.02.03.06,0,.11-.05-.02-.08-.09-.08-.03-.04,0-.07-.06-.08-.08.02.07-.08.03-.11.03v-.03s0,.03-.02.04l.06.04s-.02,0-.04-.01c.02.04.09.07.11.13-.04-.01,0,.06-.08,0,.06-.02-.07-.06-.05-.1,0,.01,0,.02-.02.02,0,0-.01-.01-.01-.02-.09-.02.06.09.02.12-.03-.04-.08-.06-.07-.04.02-.01.07.05.08.09-.05,0,0,.05-.02.06h.03s.01.04,0,.07c-.03-.03,0-.03-.02-.04.05.08-.11-.02-.09.05-.04-.01-.07-.06-.1-.07.02.07-.08-.02-.07.05.06.04.05.02.07.09v-.08s.05.1.05.1c.02-.01,0-.06.02-.06.02.05.01.04.06.07-.09-.05,0,.08-.07.06l-.12-.12c-.09-.01,0,.12-.08.14h.04c.04.06-.02.04-.02.07-.04-.04-.06-.04-.09-.06.03.03-.04.03.04.11l-.07-.03c-.06.02.07.15.02.18-.03-.05-.08-.06-.08-.12-.01.01-.03.02,0,.04-.03-.02.02.09-.03.06.01.02.05.06.04.07,0,0-.02-.02-.02-.02.02.02,0,.05.06.08-.16-.08-.09.11-.23.04-.01.04-.03.08-.05.11-.01-.01-.02-.02-.01-.02-.07,0,.09.13.02.13-.08-.04-.02-.05-.05-.06-.14-.12-.03.06-.13.02h0c-.06-.04,0,.08-.04.1,0,0-.01-.01-.02-.02.05.09.03.15.02.2-.04-.06-.01-.04-.07-.08,0,.02.09.08.08.12-.04-.02-.08-.02-.14-.07l.02-.03c-.08-.06-.03.04-.06.04l-.03-.03s.05.13,0,.16l.03.02c.06.1-.06-.02-.03.06l-.09-.07s.03.13.01.17c-.04-.07-.04-.13-.06-.19-.02.01-.04.06-.01.1,0-.01-.01-.04,0-.03.04.08.05.13.02.16-.15-.15-.12.04-.26-.05,0,.11-.13.08-.18.16.14.09-.01.02.11.14,0,.02-.01.03-.02.02l-.12-.03s-.01-.04-.04-.07c-.04.02-.07-.04-.12-.05.05.04.05.07.02.07l.08.03c.02.11-.14-.06-.12.05l-.03-.05s-.08.08,0,.2c-.02,0-.06-.04-.06-.06-.07.04-.01.22-.11.21l-.03-.03s.04.07,0,.06c-.01-.01-.03-.03-.03-.03,0,.02.03.08,0,.07l-.02-.04c-.09.02,0,.16-.02.23-.09-.09-.16-.07-.19-.06h-.01c-.07.04-.03.16-.05.26-.13-.06-.16.08-.27.09.02,0,.07.07.07.09-.03,0,.03.1-.05.02h0c-.09-.07-.1-.02-.12,0l.1.11c-.21-.09-.09.2-.26.1.01.04,0,.06.01.1l-.06-.06c-.05.02-.08.04-.11.1l-.03-.05s.13.19.11.22l-.09-.07s-.16.02-.13.14c-.01-.01-.04-.04-.03-.05-.02.02-.14.03-.01.13-.08-.07-.05.04-.04.1l-.05-.06c.05.09.07.11.06.16-.01,0-.05-.04-.03-.03-.05,0,.04.07-.02.07l-.03-.05s0,.04.02.09c0,.04-.06.03-.11-.01.03.03.06.09.03.09-.02-.02-.03-.03-.03-.04-.08,0,0,.12-.07.1-.02-.02-.03-.02-.04-.03.03-.03.06-.05.06-.05-.05-.05-.09-.03-.14-.12.02.06.07.18.02.18,0,0-.01,0-.02-.01h0s-.01,0,0,.02c-.02,0-.03,0-.04,0-.05-.04-.05,0-.07.02.06.05.03.06.09.09,0,0,0,0,0-.02,0,0,0,0,0-.01,0,0,0,0,0,0,0-.01.02-.02.03-.04.02.04.03.07-.01.06.03.04.06.08.07.11-.1-.06-.17-.07-.22-.11,0,.07-.07.11.02.24,0,.02-.04-.02-.06-.03,0-.02,0-.02,0-.04,0,.05-.05.08.02.15-.06,0-.05-.08-.08-.03l-.02-.03c-.19-.04.07.31-.16.24.02,0,.02,0,.04.02-.16.03-.13.26-.32.25-.05,0,0,.05.02.11l-.07-.05.04.1c.01.09-.22-.07-.17.07l.05.03s-.03.08-.08.03c0,0,.04.05,0,.03l-.03-.03v.1s-.11-.13-.16-.08c0,.03.04.14.07.16,0,0,.04,0,.07.03v.03c.09.09.18.2.28.22l-.03-.08.05.03-.02.03c.06.03.03-.02.01-.05.03.02.05.03.06.04l-.06-.11s.06.08.1.08c-.03-.05-.09-.07-.1-.11.06.03.09.06.07.01.03.02.04.04.04.06-.02-.04.02-.05-.02-.11.07.04.03-.06.12.02-.02-.03-.05-.09-.04-.11.08.13.05-.04.16.07-.08-.11.02-.11,0-.19,0,0,.02.03.01.03.03-.01.06.01.09.02-.08-.08-.07-.12-.1-.19.1.05.08.1.16.17-.07-.06-.03-.1-.09-.14.06.03.04,0,.11.06-.1-.1,0-.03-.05-.1.07.02.1.08.09.03.04.02.05.07.05.07Zm.44-.81s0,0,0,0c0,0,0,.01,0,.02,0,0,0,0,0-.02Zm.05-.05s-.02.01-.02.02c-.02-.02-.04-.04-.03-.04.01.02.03.01.06.02Zm-.5-.26s.01,0,.03,0c0,0,0,.01,0,.02,0,0,0,0,0,0-.01-.01-.02-.02-.03-.03Z" style="fill: #da7c90;"/>
        <path d="m37.28,7.88s0,0,0,0c0,0,.01,0,.02,0,0,0,0-.01-.01-.02,0,0,0,0,0,0Z" style="fill: #da7c90;"/>
        <path d="m42.05,3.06h0s0,0,.01,0c0,0,0,0,0,0Z" style="fill: #da7c90;"/>
        <polygon points="38.55 7.41 38.53 7.4 38.54 7.41 38.55 7.41" style="fill: #da7c90;"/>
        <path d="m42.53,2.95s.01,0,.02.01c0,0-.01,0-.02-.01Z" style="fill: #da7c90;"/>
        <path d="m42.67,2.83h.04s-.03,0-.04,0Z" style="fill: #da7c90;"/>
        <path d="m42.79,2.76s-.02-.02-.02-.03c0,0,0,0,0,0l.02.03Z" style="fill: #da7c90;"/>
        <path d="m41.35,4.39s0,0,0,0c0,.02,0,0,0,0Z" style="fill: #da7c90;"/>
        <path d="m41.67,3.8s.01.03.01.04c.01,0,.02,0-.01-.04Z" style="fill: #da7c90;"/>
        <polygon points="40.92 4.98 40.92 4.98 40.92 4.98 40.92 4.98" style="fill: #da7c90;"/>
        <path d="m41.66,3.86s.02,0,.02-.02c-.01,0-.02,0-.02.02Z" style="fill: #da7c90;"/>
        <polygon points="43.23 2.35 43.24 2.35 43.23 2.34 43.23 2.35" style="fill: #da7c90;"/>
        <path d="m43.23,2.34h0s0,0,0,0Z" style="fill: #da7c90;"/>
        <path d="m43.22,2.31v.02s.01,0,0-.02Z" style="fill: #da7c90;"/>
        <path d="m43.08,2.46l.02.02s0-.01-.02-.02Z" style="fill: #da7c90;"/>
        <path d="m43.05,2.51s.07.02.07,0l-.02-.02s-.08-.02-.05.02Z" style="fill: #da7c90;"/>
        <path d="m42.63,2.43l.05-.02s-.06-.04-.06-.06c-.11-.02.06.04,0,.07Z" style="fill: #da7c90;"/>
        <path d="m42.5,2.5s-.03-.03-.04-.04c0,.03.01.04.04.04Z" style="fill: #da7c90;"/>
        <path d="m41.79,3.25l-.05-.05s.02.02.05.05Z" style="fill: #da7c90;"/>
        <polygon points="41.92 3.65 41.96 3.66 41.92 3.61 41.92 3.65" style="fill: #da7c90;"/>
        <polygon points="41.47 3.38 41.47 3.36 41.46 3.41 41.47 3.38" style="fill: #da7c90;"/>
        <path d="m40.28,4.65l.07.06s-.07-.09-.07-.06Z" style="fill: #da7c90;"/>
        <path d="m39.83,5.25s-.07-.03-.05.01c.02,0,.05,0,.05-.01Z" style="fill: #da7c90;"/>
        <polygon points="38.17 6.78 38.16 6.75 38.16 6.78 38.17 6.78" style="fill: #da7c90;"/>
      </g>
      <g>
        <path d="m.07,2.37s-.06.05-.04.06l.07-.06h-.03Z" style="fill: #da7c90;"/>
        <path d="m.01,2.56s.11-.06.17-.13c-.08.05-.05.02-.14.08-.02,0,0-.04.03-.06-.02.01,0-.03-.05,0-.04.06-.02.08.04.06-.01.02-.03.03-.05.04Z" style="fill: #da7c90;"/>
        <path d="m.88,3.66h0s0,0,0,0Z" style="fill: #da7c90;"/>
        <path d="m1.45,4.32s-.01,0-.02,0c0,0,.02,0,.02,0Z" style="fill: #da7c90;"/>
        <path d="m1.48,4.5s0,0,0-.01c0,0,0,.01,0,.01Z" style="fill: #da7c90;"/>
        <path d="m.88,3.66v.04s0-.02,0-.04Z" style="fill: #da7c90;"/>
        <path d="m.31,2.54s-.02,0-.03,0c0,0,.01,0,.02,0,0,0,0,0,.01,0Z" style="fill: #da7c90;"/>
        <path d="m.56,3.44h0s-.02,0-.03.02l.04-.02Z" style="fill: #da7c90;"/>
        <path d="m.35,3.24s.06-.05.09-.07c-.03.02-.04.03-.05.03-.01.01-.02.02-.04.04Z" style="fill: #da7c90;"/>
        <path d="m.12,2.81h-.01s0,0,.01,0Z" style="fill: #da7c90;"/>
        <path d="m.7,3.6s-.01.02-.02.02c0,0,.01-.01.02-.02Z" style="fill: #da7c90;"/>
        <path d="m6.84,9.1s0,0-.01,0c0,0,.01,0,.01,0Z" style="fill: #da7c90;"/>
        <path d="m6.8,9.62h0s-.02.02-.03.03l.04-.03Z" style="fill: #da7c90;"/>
        <path d="m1.6,4.77s0,0,0,0c-.01,0,0,0,0,0Z" style="fill: #da7c90;"/>
        <path d="m3.37,6.52c.03-.07.1-.03.12-.11-.02.02-.12.06-.12.11Z" style="fill: #da7c90;"/>
        <path d="m.3,2.55s0,0,0,0c0,0,0,0,0,0Z" style="fill: #da7c90;"/>
        <polygon points="3.49 6.4 3.5 6.4 3.5 6.39 3.49 6.4" style="fill: #da7c90;"/>
        <path d="m2.07,5.18s.01-.02.02-.03c0,0-.01.01-.02.03Z" style="fill: #da7c90;"/>
        <path d="m1.82,4.77v.02s0-.01,0-.02Z" style="fill: #da7c90;"/>
        <path d="m2.31,5.28s0,.02,0,.02c0,0,0,0,0,0,0,0-.02,0-.01,0Z" style="fill: #da7c90;"/>
        <path d="m2.49,5.46s0,0,0-.01c0,0,0,0,0,0v.02Z" style="fill: #da7c90;"/>
        <path d="m6.28,8.58s-.03.04-.04.06c.04-.04.08-.03.04-.06Z" style="fill: #da7c90;"/>
        <path d="m.28,2.57s.02-.02.03-.02c0,0,0,0,0,0,0,0-.02.02-.02.02Z" style="fill: #da7c90;"/>
        <path d="m2.77,4.86l.02.04s0-.03-.02-.04Z" style="fill: #da7c90;"/>
        <path d="m5.01,7.29h.01s0,0-.01,0Z" style="fill: #da7c90;"/>
        <path d="m2.88,4.97s-.02.04-.02.05c0,0,.01,0,.02-.01v-.04Z" style="fill: #da7c90;"/>
        <path d="m6.24,8.64s0,0,0,0c0,0,0,0,0,0Z" style="fill: #da7c90;"/>
        <path d="m6.55,8.7s-.09.06-.13.09c-.05-.01.04-.07.07-.12-.04,0-.12.05-.13.03.01-.01.01-.02.03-.03-.08.04-.06-.06-.16-.01,0,0,.01-.02.02-.02-.03.04-.07.08-.1.1-.01-.01-.07.02-.02-.03,0,0,.03,0,.04-.02h-.03c.06-.07.04,0,.09-.05-.05,0-.13.02-.13-.01.06-.07.07.02.1-.06v.06c.09-.13.01.03.11-.11-.02-.06-.08-.01-.1-.07-.05.03-.05.06-.1.09-.12.01.13-.21,0-.16-.06.03-.15.11-.13.04l.09-.06s-.13.09-.12,0c.04-.02.05,0,.06,0,.04-.08-.06.02-.08,0l.06-.07s-.14-.03-.2-.06c.02-.02.05-.03.06-.06-.09-.02-.11-.13-.12-.22l-.08.04s.02-.03.03-.04c0-.04-.04.04-.07.05-.02,0,.02-.05.04-.06-.09.01-.21,0-.19-.1h.02c0-.06-.15.07-.13,0h.02c-.04-.1-.16-.12-.12-.25-.09.07-.03-.1-.15,0,.02-.09.05-.1.04-.2,0-.02-.09.05-.12.04l.06-.06-.09.04.06-.08h-.03s-.01.04-.03.06c-.05,0-.02-.1.01-.14h-.11s.04-.03.07-.04c-.09.03.06-.07-.03-.04-.01.02-.04.03-.05.05.02-.05,0-.09-.05-.1l.05-.04c-.03-.06-.11-.08-.16-.13,0,.04-.08.11-.1.1l.06-.07s0,.04-.08.07c-.01-.03.06-.08.09-.09h-.05s.03-.03.06-.05c-.05.03.03-.1-.06-.05l.02-.02c-.05-.05-.09-.05-.14-.09-.06.05-.06.03-.12.06-.01-.05,0-.12-.04-.16-.05,0-.06.04-.1.06.05-.05,0-.08.06-.1-.05-.04-.06-.05-.16-.06-.02.03-.02.04-.04.06-.02,0,0-.04.03-.07h0c-.14,0,.01-.29-.15-.24h0s-.11,0-.11,0c-.01-.03.05-.02.07-.07-.14.03-.07-.1-.17-.09.12-.18-.13-.12-.08-.26l-.03.04s0-.03,0-.05c-.03.03-.02.04-.05.06-.14-.06-.16-.27-.23-.41-.03-.05-.21.16-.17.02l.08-.05c-.16,0-.15-.17-.3-.18.02-.01.04-.03.05-.02.03-.06-.06-.06-.1-.03,0-.02.03-.04.05-.06.01-.04-.1.02-.06-.04,0,0,.02-.01.03-.01-.03.01-.04-.06-.09,0,0-.05-.08-.03-.07-.09-.08.05-.02-.08-.11,0,.09-.09.02-.12-.04-.1.03-.02.01-.04.06-.07-.02-.02-.06-.02-.1.03.07-.14-.16,0-.04-.15-.11-.02-.2-.04-.27-.08.09-.09.07.05.16-.04-.09-.02-.2.03-.23-.05,0-.03.05-.03.07-.04-.09-.02-.09-.11-.19-.11,0,0,.02-.01.03-.01-.01,0,0-.03-.05,0h.02c-.05.07-.16.08-.19.11.13-.1-.02-.08.16-.2-.01,0-.04.01-.07.04,0-.02.01-.04.05-.06-.05-.01-.09.04-.12.01.02-.02.03-.02.06-.04-.05.02-.11.04-.12,0,.01-.01.03-.03.03-.02-.05-.04-.18.03-.19-.06.1-.07.01-.04.09-.12h-.05s-.03.04-.03.04c-.02-.02-.1,0-.09-.03h.05s-.06-.04-.06-.04v.05c-.07.01-.1.09-.11.04.01,0-.02-.02.01-.08,0,0,0,0,0,0-.03.01-.07.02-.07-.01.02-.03.09-.08.1-.1-.07.05-.07-.04-.15.01.02-.01.06-.05.07-.06l-.06.04s.01-.04.05-.06c-.02-.04-.09.1-.08.02,0,0,.01,0,.03-.01-.02-.06-.1-.04-.11-.1.07-.08.05.01.1-.06-.06-.04-.19-.02-.22-.08v.02c-.11.1.02-.09-.06-.06.01,0,.07-.05.05-.04-.02-.05-.09-.04-.17-.06l.03-.02s-.04-.07-.04-.1c-.03.02-.04,0-.07.05.09-.22-.2-.04-.13-.23,0,0,.04,0,.03-.01l-.07-.03s-.02.03-.05.08c-.03.02-.07.03-.08.01.05,0,.07-.07.09-.11-.01.02-.03.03-.05.04.06-.11-.1.09-.08,0l.03-.02s-.07.02-.08,0c.05-.06.04-.01.08-.05-.02-.02-.14.06-.1-.01.02,0,.04,0,.06,0,.04-.08.03-.07.02-.09h0s0-.06,0-.06v.03c-.17.11-.08-.03-.21.03.12-.05.06-.04.12-.1,0-.02.01-.06.04-.07-.06.03.01-.06-.08-.02.02-.02-.01-.02.04-.06-.04,0-.03.04-.06.06-.1.03,0-.15-.13-.11-.08,0-.15.05-.22.05.02-.04.08-.06.08-.06,0-.05-.01-.06-.05-.05.02-.01.03-.03.05-.06-.02-.01-.08.06-.07.01.03-.02.06-.05.09-.06-.04,0-.09.02-.12.02.03-.04.06-.04.09-.05-.04,0-.08-.02-.14.02v.03s.04-.05.05-.05c.06-.02,0,.04-.01.06h-.03c-.1.12.07.03.09.07l-.09.07.1-.04s-.06.08-.08.08c-.02.06.05-.01.02.05,0,0-.01.01-.02.01h.04s-.06.05-.06.03c-.02.08.11,0,.06.07h0c.07.02.07-.05.17-.09l-.13.17.07-.05s0,.02-.02.04c.06-.02.02-.03.07-.06-.03.08.09.04,0,.14.05-.04.01-.06.07-.06-.1.11.05.01.02.08-.06.05-.05,0-.08.07.1-.08.02.06.05.06.07-.07.07,0,.12.01-.03.02.01.09.01.15h-.01c.08-.06.09-.01.13,0-.05.04-.07.06-.1.06l.02.02s.05-.02.07-.02l-.06.05s.12-.01.11.06c.05-.05.12-.17.19-.16-.03.03-.07.08-.09.08,0,0,.03-.01.03,0l-.06.03s.05-.03.05-.01c-.04.04-.02.04-.05.07,0,0,0-.03-.01-.02,0,.02,0,.06-.03.09.02-.02.05-.05.07-.05.03.02-.04.06-.05.09.03-.02.02.02.08-.03,0,0-.02.04-.03.05.04-.01.07.06.12-.02h0s0,0,0,0h0s0,0,0,0c.1-.01.05.12.12.14l-.02.02s.07.04.13.02c0,0-.02.05-.05.07.03,0,.06-.01.05.05-.05.01-.02.04-.05,0,0,.04-.02.08.06.05-.06.04-.05.08-.02.08l.02-.05s.03.02.04.04l-.07.06c-.03.13.23-.04.13.13.06-.03,0-.06.07-.1.01.03-.06.15-.05.16,0,.07.13-.06.14,0,.02-.03.08-.09.13-.09.01.03-.07.13-.11.13,0,0,0-.01,0-.02-.02,0-.04,0-.05.03l.03-.02s.02.07-.02.1c.04,0,.05-.03.05-.06,0,.06.05.05.05.1,0-.02.03-.05.04-.04.02.08.07-.02.11,0-.02.05-.09.08-.03.08,0,.04-.06.07-.09.08.07-.02.02.08.03.11h-.03s.03,0,.03.02l.04-.06s0,.02-.01.04c.04-.02.07-.08.13-.11-.01.04.06.01,0,.08-.02-.06-.06.07-.1.04.01,0,.02,0,.02.02,0,0-.01.01-.02.01-.02.09.09-.05.12-.01-.04.03-.06.07-.05.07-.01-.02.05-.06.09-.08,0,.05.05,0,.06.02v-.03s.05-.01.07,0c-.03.03-.03,0-.04.02.08-.04-.02.11.04.09-.01.04-.07.07-.07.09.07-.02-.02.08.05.07.04-.06.03-.05.09-.07l-.08-.02.1-.04s-.06,0-.06-.02c.05-.02.04-.01.07-.06-.05.09.08,0,.06.07l-.12.11c-.02.09.12,0,.14.08v-.04c.06-.04.04.02.07.02-.04.04-.05.06-.06.09.03-.03.03.04.11-.04l-.03.07c.02.06.16-.07.18-.02-.05.03-.07.07-.12.08.01.01.01.03.04,0-.02.03.09-.02.06.03.02-.01.07-.05.08-.03,0,0-.02.02-.02.02.02-.02.05,0,.08-.06-.09.16.11.1.04.23.04.01.08.03.11.05-.01,0-.02.02-.02.01,0,.07.13-.09.13-.01-.05.08-.05.01-.07.05-.13.13.06.03.01.13h-.01c-.03.06.1,0,.12.04,0,0-.01,0-.02.02.09-.04.15-.02.2-.01-.06.04-.04.01-.09.07.02,0,.08-.08.12-.07-.02.04-.02.08-.08.14l-.03-.02c-.06.08.03.03.04.06l-.03.03s.13-.05.16,0l.02-.03c.1-.05-.03.06.06.03l-.07.08s.13-.02.17,0c-.07.04-.14.04-.19.05.01.02.06.05.1.02-.01,0-.04.01-.03,0,.08-.04.13-.05.16-.02-.16.14.04.12-.06.25.11,0,.08.13.15.18.1-.14.02.01.14-.11.02,0,.03.01.02.02l-.03.12s-.04.01-.07.04c.02.04-.04.06-.05.12.04-.05.07-.05.07-.02l.03-.08c.11-.02-.07.14.04.12l-.05.02s.08.09.2.01c-.01.02-.04.06-.06.05.04.07.22.02.2.12l-.03.02s.07-.04.06,0c-.01.01-.03.02-.03.03.02,0,.08-.02.07,0l-.05.02c.01.09.16,0,.23.03-.09.09-.08.16-.07.19h-.01c.05.08.18.05.27.07-.06.13.08.16.08.27,0-.02.07-.07.09-.06,0,.03.1-.02.01.05h0c-.07.08-.02.09,0,.11l.11-.1c-.1.21.2.09.09.26.04-.01.06,0,.1,0l-.06.05c.02.05.03.08.09.11l-.05.03s.2-.13.22-.1l-.08.09s.02.16.14.14c-.01.01-.04.03-.05.03.02.02.02.14.13.02-.08.07.04.05.1.05l-.06.05c.09-.05.11-.07.16-.06,0,.01-.04.05-.03.03,0,.05.07-.03.07.02l-.05.02s.04,0,.09-.02c.04,0,.03.06-.02.11.03-.03.09-.05.09-.03-.02.02-.03.03-.04.03,0,.08.12,0,.09.08-.02.02-.03.03-.03.04-.03-.03-.05-.06-.04-.06-.05.05-.04.08-.13.13.06-.02.18-.06.18-.02,0,0,0,.01-.01.02h0s.01.01.02.01c0,.02,0,.03,0,.04-.04.04,0,.05.02.07.06-.06.06-.03.09-.09,0,0,0,0-.02,0,0,0,0,0-.01,0,0,0,0,0,0,0,0,0-.02-.02-.03-.03.04-.02.07-.03.06.01.04-.03.09-.06.11-.07-.06.09-.07.17-.12.22.07,0,.11.07.24,0,.02,0-.02.04-.03.06-.02,0-.02,0-.04,0,.05,0,.07.06.15-.01,0,.06-.08.05-.03.08l-.03.02c-.05.19.31-.06.24.17,0-.01,0-.02.02-.04.03.16.25.14.24.33,0,.05.05,0,.11-.01l-.06.06.1-.04c.09,0-.08.21.06.17l.03-.05s.08.03.03.08c0,0,.05-.04.03,0l-.03.03h.1s-.13.11-.09.16c.03,0,.14-.04.16-.06,0,0,0-.04.03-.07h.03c.1-.09.21-.17.23-.27l-.09.03.04-.05.03.02c.03-.06-.02-.03-.05-.01.02-.03.03-.05.04-.06l-.12.06s.09-.06.09-.1c-.05.03-.07.09-.12.1.03-.06.07-.08.02-.07.02-.03.04-.04.06-.04-.04.01-.05-.03-.11.01.04-.07-.06-.04.03-.12-.03.02-.09.04-.11.03.13-.08-.04-.06.08-.16-.11.07-.11-.02-.19,0,0,0,.03-.02.03,0,0-.03.01-.06.02-.09-.08.07-.13.06-.19.1.05-.1.11-.08.17-.15-.06.06-.1.02-.15.08.03-.06,0-.04.07-.11-.1.09-.03,0-.11.04.02-.07.09-.1.03-.09.02-.04.08-.05.08-.05Zm-.79-.47s0,0,0,0c0,0,.01,0,.02.01,0,0,0,0-.02,0Zm-.05-.05s.01.02.02.03c-.02.02-.04.04-.04.03.02,0,.01-.03.02-.06Zm-.28.49s0-.01,0-.03c0,0,.01,0,.02,0,0,0,0,0,0,0-.01,0-.02.02-.03.02Z" style="fill: #da7c90;"/>
        <path d="m5.52,8.6s0,0,0,0c0,0,0-.01,0-.02,0,0-.01,0-.02.01,0,0,0,0,0,0Z" style="fill: #da7c90;"/>
        <path d="m.88,3.65h0s0,0,0,0c0,0,0,0,0,0Z" style="fill: #da7c90;"/>
        <polygon points="5.1 7.32 5.09 7.33 5.1 7.33 5.1 7.32" style="fill: #da7c90;"/>
        <path d="m.79,3.16s0-.01.01-.02c0,0,0,.01-.01.02Z" style="fill: #da7c90;"/>
        <path d="m.68,3.02v-.04s0,.03,0,.04Z" style="fill: #da7c90;"/>
        <path d="m.61,2.9s-.02.02-.03.02c0,0,0,0,0,0l.03-.02Z" style="fill: #da7c90;"/>
        <path d="m2.19,4.4s0,0,0,0c.02,0,0,0,0,0Z" style="fill: #da7c90;"/>
        <path d="m1.61,4.06s.03,0,.04-.01c0-.01,0-.02-.04.01Z" style="fill: #da7c90;"/>
        <polygon points="2.77 4.85 2.76 4.85 2.77 4.86 2.77 4.85" style="fill: #da7c90;"/>
        <path d="m1.67,4.07s0-.02-.02-.02c0,.01,0,.02.02.02Z" style="fill: #da7c90;"/>
        <polygon points=".23 2.45 .23 2.44 .22 2.45 .23 2.45" style="fill: #da7c90;"/>
        <path d="m.22,2.45h-.01s0,0,.01,0Z" style="fill: #da7c90;"/>
        <path d="m.18,2.45h.02s0-.01-.02,0Z" style="fill: #da7c90;"/>
        <path d="m.33,2.6l.02-.02s-.01,0-.02.02Z" style="fill: #da7c90;"/>
        <path d="m.37,2.64s.02-.07,0-.07h-.02s-.02.09.02.07Z" style="fill: #da7c90;"/>
        <path d="m.28,3.05l-.02-.05s-.04.06-.06.05c-.02.1.04-.06.07,0Z" style="fill: #da7c90;"/>
        <path d="m.35,3.18s-.03.03-.04.04c.03,0,.04-.01.04-.04Z" style="fill: #da7c90;"/>
        <path d="m1.06,3.92l-.05.05s.02-.02.05-.05Z" style="fill: #da7c90;"/>
        <polygon points="1.47 3.81 1.49 3.76 1.43 3.8 1.47 3.81" style="fill: #da7c90;"/>
        <polygon points="1.18 4.25 1.17 4.25 1.21 4.25 1.18 4.25" style="fill: #da7c90;"/>
        <path d="m2.41,5.48l.06-.07s-.09.07-.06.07Z" style="fill: #da7c90;"/>
        <path d="m2.99,5.95s-.03.07,0,.05c0-.02,0-.05,0-.05Z" style="fill: #da7c90;"/>
        <polygon points="4.45 7.67 4.42 7.68 4.46 7.68 4.45 7.67" style="fill: #da7c90;"/>
      </g>
      <g>
        <path d="m5.58,3.78c-.11.06-.19.03-.25-.08-.05-.11-.03-.19.08-.24l.62-.31.62-.31c.11-.06.19-.03.25.08.05.11.03.19-.08.24l-1.24.63Zm-.09-.68c-.11.05-.19.03-.24-.08-.05-.1-.03-.18.08-.24l.45-.23.45-.23c.11-.05.19-.03.24.08.05.11.03.19-.08.24l-.9.46Zm.57,1.18c-.11.05-.19.03-.24-.08-.05-.1-.03-.18.08-.24l.47-.24.47-.24c.11-.05.19-.03.24.08s.03.18-.08.24l-.93.47Zm.3.59c-.11.05-.19.03-.24-.08-.05-.1-.03-.18.08-.24l.93-.47c.11-.05.19-.03.24.08.05.11.03.19-.08.24l-.47.24-.47.24Zm.91,1.49c-.09.04-.17.05-.25.03-.08-.03-.14-.08-.18-.16l-.36-.72c-.04-.08-.05-.17-.02-.25.03-.08.08-.14.17-.18l.34-.17.34-.17c.09-.04.17-.05.25-.03.08.03.14.08.18.16l.36.72c.04.08.05.17.02.25-.03.08-.08.14-.17.18l-.68.35Zm0-.41l.36-.18c.07-.04.09-.09.05-.16l-.11-.21-.11-.21c-.04-.07-.09-.09-.16-.05l-.36.18c-.07.04-.09.09-.05.16l.21.42c.04.07.09.09.16.05Zm.45-2.08c-.15-.07-.16-.2-.02-.39.14-.24.21-.49.21-.75,0-.21-.04-.45-.13-.73l-.67.34c-.12.06-.2.03-.26-.09-.06-.11-.03-.2.09-.26l.89-.45.77-.39c.09-.05.18-.05.26,0,.09.06.18.19.27.39.17.39.29.67.34.84.06.18.07.3.06.38-.02.12-.09.21-.2.28-.11.06-.21.12-.31.16-.13.06-.24.05-.31-.03-.11-.12-.07-.22.14-.31.04-.02.08-.04.12-.06.07-.03.11-.07.12-.12.02-.1-.09-.42-.33-.95-.04-.08-.07-.13-.1-.15-.03-.02-.06-.02-.1,0l-.39.2c.12.36.17.68.17.96,0,.35-.1.67-.29.97-.1.14-.21.19-.33.14Zm-.47-.52c-.14-.02-.18-.1-.13-.23.06-.16.09-.35.1-.55,0-.1.05-.16.15-.19.12-.03.19.02.19.13,0,.12,0,.24-.02.35-.02.14-.05.27-.09.36-.04.09-.11.13-.2.11Zm1.13,2.34c-.14-.01-.2-.08-.19-.21,0-.21-.03-.45-.11-.71-.02-.07-.02-.12,0-.17.02-.04.07-.07.13-.09.11-.02.19.02.22.12.06.19.1.34.12.47.03.17.04.31.03.43-.02.11-.09.16-.21.15Zm1.17-.23c-.18.09-.31.12-.41.08-.09-.04-.18-.15-.27-.33l-.26-.5-.16-.32c-.06-.12-.03-.21.09-.28.12-.06.22-.03.28.09l.42.82c.03.06.05.09.08.09s.06,0,.11-.03l.33-.17s.07-.06.06-.12c-.04-.11-.07-.21-.06-.29,0-.1.06-.15.15-.16.05,0,.11.03.17.1.04.06.08.12.1.19.05.17.06.3.03.39-.03.09-.11.16-.22.22l-.43.22Zm-.42-1.52c-.11-.03-.21-.05-.3-.07,0,0-.02,0-.03,0-.14-.02-.25-.04-.33-.04-.14-.01-.19-.09-.14-.23.03-.1.1-.14.2-.14.29.02.55.05.76.11.06.02.09.05.11.08.01.04,0,.08,0,.15-.04.14-.12.19-.25.15Zm1.25.58c-.06-.07-.16-.16-.28-.26-.12-.1-.24-.19-.38-.28-.12-.08-.14-.17-.03-.29.08-.09.17-.1.26-.04.29.17.55.37.76.6.04.05.06.09.05.13,0,.04-.03.09-.07.14-.11.12-.21.13-.31.01Z" style="fill: #cf465b;"/>
        <path d="m11.67,1.81c-.12.02-.19-.03-.21-.15-.02-.12.04-.19.16-.2l.57-.08.57-.08c.12-.02.19.03.21.15.02.12-.04.19-.16.2l-1.14.16Zm.12-.67c-.12.02-.19-.04-.2-.16-.02-.12.03-.18.15-.2l.4-.06.41-.06c.12-.02.19.03.2.15.02.12-.03.19-.15.2l-.81.11Zm.16,1.3c-.12.02-.19-.03-.2-.15s.03-.18.15-.2l.42-.06.42-.06c.12-.02.19.03.2.15.02.12-.03.18-.15.2l-.84.12Zm.09.65c-.12.02-.19-.04-.2-.16-.02-.12.03-.18.15-.2l.84-.12c.12-.02.19.03.2.15.02.12-.03.19-.15.2l-.42.06-.42.06Zm.37,1.7c-.1.01-.18,0-.24-.06-.07-.05-.11-.12-.12-.22l-.11-.79c-.01-.09,0-.17.06-.24.05-.07.12-.11.22-.12l.29-.04.32-.04c.09-.01.16,0,.22.05.06.04.1.11.11.2l.11.82c.01.09,0,.17-.06.24-.05.07-.12.11-.22.12l-.58.08Zm.11-.38l.26-.04c.08-.01.11-.06.1-.13l-.03-.23-.03-.23c-.01-.08-.06-.11-.13-.1l-.26.04c-.08.01-.11.06-.1.13l.06.47c.01.08.06.11.13.1Zm.67-3.12c-.11.02-.18-.03-.2-.15-.02-.11.03-.18.15-.19l.41-.06-.04-.3c-.02-.14.04-.21.18-.23.14-.02.22.04.23.18l.04.3.39-.05c.11-.02.18.03.2.15.02.12-.03.18-.15.2l-.61.08-.61.08Zm2.85,3.29c-.26.02-.49-.17-.67-.55-.15.22-.32.42-.51.6-.08.07-.17.08-.25.02-.11-.08-.11-.17,0-.26.09-.08.15-.15.2-.21l-.94.13c-.1.01-.18,0-.24-.06-.07-.05-.11-.12-.12-.22l-.14-1.01c-.01-.09,0-.17.06-.24.05-.07.12-.11.22-.12l.71-.1c.1-.01.18,0,.24.06.07.05.11.12.12.22l.17,1.24c.12-.14.22-.3.32-.47-.11-.34-.21-.8-.32-1.38l-.92.13-.72.1c-.12.02-.2-.04-.21-.16-.02-.12.04-.19.16-.21l1.13-.16h-.16c-.09-.02-.13-.06-.13-.14.01-.12.02-.26.03-.42,0-.12.07-.18.2-.18.13,0,.18.08.17.22-.03.24-.06.41-.07.51l.47-.06c-.07-.38-.14-.85-.22-1.41-.02-.14.04-.21.16-.23.06,0,.11,0,.15.04.04.03.06.08.07.15.06.46.13.93.21,1.41l.62-.09c.12-.02.2.04.21.16.02.13-.04.2-.16.22l-.61.08c.05.28.12.58.19.9.06-.17.11-.34.15-.53.03-.15.11-.2.25-.15.11.04.15.12.12.24-.08.35-.2.68-.36.98.12.32.25.47.38.47.04,0,.07-.07.08-.19,0-.11.01-.2.04-.26.04-.07.09-.08.17-.03.03.02.06.07.08.15.01.06.02.12.01.18-.04.41-.15.63-.33.65Zm-2.65-2.71s-.02-.08-.04-.14-.04-.12-.07-.18c-.05-.1-.02-.17.09-.22.09-.03.16,0,.2.08.06.13.11.26.15.39.02.08-.02.14-.11.18-.12.05-.2.01-.22-.11Zm.37,1.44l.31-.04.31-.04-.03-.21c-.01-.08-.06-.11-.13-.1l-.38.05c-.08.01-.11.06-.1.13l.03.21Zm.21.64l.5-.07-.05-.34-.31.04-.31.04.03.23c.01.08.06.11.13.1Zm1.57-2.75s-.02-.03-.03-.06c-.05-.08-.09-.13-.11-.17-.05-.07-.11-.15-.19-.25-.1-.11-.08-.19.05-.26.09-.04.17-.03.24.03.17.17.31.35.42.54.05.1.02.18-.09.24-.12.07-.21.05-.28-.07Z" style="fill: #cf465b;"/>
        <path d="m19.42,4.03c-.47.02-.87-.12-1.18-.43-.33-.32-.5-.77-.53-1.35-.03-.57.11-1.04.41-1.4.29-.35.67-.53,1.15-.56.33-.02.63.08.91.28.1.09.11.19.01.31-.1.13-.22.15-.36.05-.16-.1-.34-.15-.53-.14-.32.02-.57.15-.75.4-.19.26-.27.6-.25,1.01.02.43.13.76.33,1,.2.24.46.35.79.33.23-.01.43-.09.6-.23.13-.12.25-.12.37,0,.1.1.1.21,0,.32-.26.25-.58.39-.96.41Z" style="fill: #cf465b;"/>
        <path d="m22.37,3.9c-.19,0-.28-.1-.28-.28l.03-1.67.03-1.68c0-.19.1-.28.29-.27.19,0,.28.1.28.28v.75s-.04.53-.04.53c.14-.13.28-.23.4-.29.16-.08.33-.12.49-.12.56,0,.83.37.82,1.08l-.02,1.42c0,.19-.1.28-.29.27-.19,0-.29-.1-.28-.28l.02-1.35c0-.23-.03-.4-.1-.5s-.19-.16-.35-.16c-.12,0-.23.03-.34.09-.09.05-.2.14-.34.27l-.03,1.63c0,.19-.1.28-.29.27Z" style="fill: #cf465b;"/>
        <path d="m26.91,4.15c-.56-.04-.81-.42-.75-1.12l.11-1.41c.01-.19.12-.27.31-.26.19.01.28.11.26.3l-.1,1.34c-.02.23,0,.4.07.5.06.1.18.16.34.18.13,0,.24-.01.34-.07.1-.05.21-.15.34-.28l.12-1.59c.01-.19.12-.27.31-.26.19.01.28.11.26.3l-.08,1.06-.09,1.11c-.01.15-.1.22-.26.21-.15-.01-.23-.09-.23-.23v-.19s-.02,0-.02,0c-.3.29-.61.42-.93.4Z" style="fill: #cf465b;"/>
        <path d="m30.4,4.41c-.19-.03-.27-.13-.24-.32l.15-1.06.16-1.11c.02-.15.11-.22.27-.19.15.02.22.1.22.24v.17s.01,0,.01,0c.32-.25.62-.36.9-.32.37.05.6.25.68.6.36-.28.67-.4.95-.36.55.08.78.47.68,1.18l-.2,1.4c-.03.18-.13.26-.32.24-.19-.03-.27-.13-.24-.32l.19-1.33c.03-.23.02-.4-.04-.51-.06-.11-.16-.18-.32-.2-.18-.03-.4.07-.66.27l-.23,1.61c-.03.18-.13.26-.32.24-.19-.03-.27-.13-.24-.32l.19-1.33c.03-.23.02-.4-.04-.51-.06-.11-.16-.18-.32-.2-.18-.03-.4.07-.66.27l-.23,1.61c-.03.18-.13.26-.32.24Z" style="fill: #cf465b;"/>
        <path d="m36.38,5.48c-.29-.06-.55-.2-.79-.42-.09-.1-.09-.2.02-.3.11-.1.23-.09.34.03.16.15.33.24.53.28.16.03.28.02.38-.03.09-.05.15-.12.17-.23.02-.1-.02-.21-.12-.31-.06-.06-.18-.15-.35-.26-.01,0-.02-.01-.03-.02-.22-.14-.37-.26-.46-.38-.14-.17-.19-.35-.15-.55.05-.22.17-.39.37-.5.21-.11.45-.14.74-.08.25.05.47.17.67.35.09.1.08.19-.03.28-.11.1-.22.09-.33-.01-.12-.1-.25-.17-.39-.2-.14-.03-.25-.02-.34.03-.08.04-.13.11-.15.21-.02.1.02.19.11.28.06.05.17.13.33.23.02.01.04.02.04.03.23.15.39.27.48.37.14.17.19.37.14.59-.05.23-.17.4-.37.51-.22.12-.49.14-.81.08Z" style="fill: #cf465b;"/>
      </g>
    </g>
  </g>
</svg>