<svg width="99" height="82" viewBox="0 0 99 82" fill="none" xmlns="http://www.w3.org/2000/svg">
<path d="M24.7514 78.0836H74.5775M70.9537 66.9054H28.3751C26.4727 66.9054 24.3438 65.6839 23.7096 64.2034L4.9569 21.3411C2.28442 15.1968 5.40987 13.309 11.842 17.0845L29.5075 27.4114C32.4518 29.077 35.8037 28.2257 37.072 25.5237L45.0442 8.16408C47.5808 2.61197 51.7934 2.61197 54.33 8.16408L62.3021 25.5237C63.5704 28.2257 66.9224 29.077 69.8213 27.4114L86.3998 17.7507C93.466 13.6051 96.8633 15.715 93.9643 22.4145L75.6646 64.2774C74.9851 65.6839 72.8562 66.9054 70.9537 66.9054Z" stroke="#B61C31" stroke-width="7" stroke-linecap="round" stroke-linejoin="round"/>
<path d="M31.84 50H29.424V40.592H26.32V38.576H34.944V40.592H31.84V50ZM46.5851 44.272C46.5851 45.1573 46.4731 45.9627 46.2491 46.688C46.0358 47.4027 45.7051 48.0213 45.2571 48.544C44.8198 49.0667 44.2545 49.4667 43.5611 49.744C42.8785 50.0213 42.0731 50.16 41.1451 50.16C40.2171 50.16 39.4065 50.0213 38.7131 49.744C38.0305 49.456 37.4651 49.056 37.0171 48.544C36.5798 48.0213 36.2491 47.3973 36.0251 46.672C35.8118 45.9467 35.7051 45.1413 35.7051 44.256C35.7051 43.072 35.8971 42.0427 36.2811 41.168C36.6758 40.2933 37.2731 39.616 38.0731 39.136C38.8838 38.6453 39.9131 38.4 41.1611 38.4C42.3985 38.4 43.4171 38.6453 44.2171 39.136C45.0171 39.616 45.6091 40.2987 45.9931 41.184C46.3878 42.0587 46.5851 43.088 46.5851 44.272ZM38.2491 44.272C38.2491 45.072 38.3505 45.76 38.5531 46.336C38.7558 46.912 39.0705 47.3547 39.4971 47.664C39.9238 47.9733 40.4731 48.128 41.1451 48.128C41.8385 48.128 42.3931 47.9733 42.8091 47.664C43.2358 47.3547 43.5451 46.912 43.7371 46.336C43.9398 45.76 44.0411 45.072 44.0411 44.272C44.0411 43.0667 43.8171 42.1227 43.3691 41.44C42.9211 40.7573 42.1851 40.416 41.1611 40.416C40.4785 40.416 39.9238 40.5707 39.4971 40.88C39.0705 41.1893 38.7558 41.632 38.5531 42.208C38.3505 42.784 38.2491 43.472 38.2491 44.272ZM52.4235 38.576C53.8955 38.576 54.9675 38.896 55.6395 39.536C56.3222 40.1653 56.6635 41.0347 56.6635 42.144C56.6635 42.6453 56.5888 43.1253 56.4395 43.584C56.2902 44.032 56.0395 44.4373 55.6875 44.8C55.3462 45.152 54.8928 45.4293 54.3275 45.632C53.7622 45.8347 53.0635 45.936 52.2315 45.936H51.1915V50H48.7755V38.576H52.4235ZM52.2955 40.56H51.1915V43.952H51.9915C52.4502 43.952 52.8448 43.8933 53.1755 43.776C53.5062 43.6587 53.7622 43.472 53.9435 43.216C54.1248 42.96 54.2155 42.6293 54.2155 42.224C54.2155 41.6587 54.0608 41.2427 53.7515 40.976C53.4422 40.6987 52.9568 40.56 52.2955 40.56ZM63.8144 50H61.3984V43.392C61.3984 43.2107 61.3984 42.9867 61.3984 42.72C61.409 42.4533 61.4197 42.176 61.4304 41.888C61.441 41.6 61.4517 41.344 61.4624 41.12C61.409 41.184 61.2917 41.3013 61.1104 41.472C60.9397 41.632 60.7797 41.776 60.6304 41.904L59.3184 42.96L58.1504 41.504L61.8304 38.576H63.8144V50ZM74.7466 44.288C74.7466 45.2053 74.672 46.0267 74.5226 46.752C74.384 47.4773 74.1546 48.096 73.8346 48.608C73.5253 49.1093 73.1146 49.4933 72.6026 49.76C72.1013 50.0267 71.4826 50.16 70.7466 50.16C69.8293 50.16 69.0773 49.9253 68.4906 49.456C67.904 48.9867 67.4666 48.3147 67.1786 47.44C66.9013 46.5653 66.7626 45.5147 66.7626 44.288C66.7626 43.0507 66.8906 41.9947 67.1466 41.12C67.4026 40.2453 67.824 39.5733 68.4106 39.104C68.9973 38.6347 69.776 38.4 70.7466 38.4C71.664 38.4 72.416 38.6347 73.0026 39.104C73.5893 39.5627 74.0266 40.2347 74.3146 41.12C74.6026 41.9947 74.7466 43.0507 74.7466 44.288ZM69.1626 44.288C69.1626 45.152 69.2106 45.8773 69.3066 46.464C69.4026 47.04 69.5626 47.4773 69.7866 47.776C70.0213 48.064 70.3413 48.208 70.7466 48.208C71.152 48.208 71.4666 48.064 71.6906 47.776C71.9253 47.488 72.0906 47.056 72.1866 46.48C72.2933 45.8933 72.3466 45.1627 72.3466 44.288C72.3466 43.4133 72.2933 42.688 72.1866 42.112C72.0906 41.5253 71.9253 41.088 71.6906 40.8C71.4666 40.5013 71.152 40.352 70.7466 40.352C70.3413 40.352 70.0213 40.5013 69.7866 40.8C69.5626 41.088 69.4026 41.5253 69.3066 42.112C69.2106 42.688 69.1626 43.4133 69.1626 44.288Z" fill="#B61C31"/>
</svg>
