<svg width="99" height="82" viewBox="0 0 99 82" fill="none" xmlns="http://www.w3.org/2000/svg">
<path d="M24.7514 78.0836H74.5775M70.9537 66.9054H28.3751C26.4727 66.9054 24.3438 65.6839 23.7096 64.2034L4.9569 21.3411C2.28442 15.1968 5.40987 13.309 11.842 17.0845L29.5075 27.4114C32.4518 29.077 35.8037 28.2257 37.072 25.5237L45.0442 8.16408C47.5808 2.61197 51.7934 2.61197 54.33 8.16408L62.3021 25.5237C63.5704 28.2257 66.9224 29.077 69.8213 27.4114L86.3998 17.7507C93.466 13.6051 96.8633 15.715 93.9643 22.4145L75.6646 64.2774C74.9851 65.6839 72.8562 66.9054 70.9537 66.9054Z" stroke="#B61C31" stroke-width="7" stroke-linecap="round" stroke-linejoin="round"/>
<path d="M36.4338 51.292H34.0178V41.884H30.9138V39.868H39.5378V41.884H36.4338V51.292ZM51.1789 45.564C51.1789 46.4493 51.0669 47.2547 50.8429 47.98C50.6295 48.6947 50.2989 49.3133 49.8509 49.836C49.4135 50.3587 48.8482 50.7587 48.1549 51.036C47.4722 51.3133 46.6669 51.452 45.7389 51.452C44.8109 51.452 44.0002 51.3133 43.3069 51.036C42.6242 50.748 42.0589 50.348 41.6109 49.836C41.1735 49.3133 40.8429 48.6893 40.6189 47.964C40.4055 47.2387 40.2989 46.4333 40.2989 45.548C40.2989 44.364 40.4909 43.3347 40.8749 42.46C41.2695 41.5853 41.8669 40.908 42.6669 40.428C43.4775 39.9373 44.5069 39.692 45.7549 39.692C46.9922 39.692 48.0109 39.9373 48.8109 40.428C49.6109 40.908 50.2029 41.5907 50.5869 42.476C50.9815 43.3507 51.1789 44.38 51.1789 45.564ZM42.8429 45.564C42.8429 46.364 42.9442 47.052 43.1469 47.628C43.3495 48.204 43.6642 48.6467 44.0909 48.956C44.5175 49.2653 45.0669 49.42 45.7389 49.42C46.4322 49.42 46.9869 49.2653 47.4029 48.956C47.8295 48.6467 48.1389 48.204 48.3309 47.628C48.5335 47.052 48.6349 46.364 48.6349 45.564C48.6349 44.3587 48.4109 43.4147 47.9629 42.732C47.5149 42.0493 46.7789 41.708 45.7549 41.708C45.0722 41.708 44.5175 41.8627 44.0909 42.172C43.6642 42.4813 43.3495 42.924 43.1469 43.5C42.9442 44.076 42.8429 44.764 42.8429 45.564ZM57.0173 39.868C58.4893 39.868 59.5613 40.188 60.2333 40.828C60.9159 41.4573 61.2573 42.3267 61.2573 43.436C61.2573 43.9373 61.1826 44.4173 61.0333 44.876C60.8839 45.324 60.6333 45.7293 60.2813 46.092C59.9399 46.444 59.4866 46.7213 58.9213 46.924C58.3559 47.1267 57.6573 47.228 56.8253 47.228H55.7853V51.292H53.3693V39.868H57.0173ZM56.8893 41.852H55.7853V45.244H56.5853C57.0439 45.244 57.4386 45.1853 57.7693 45.068C58.0999 44.9507 58.3559 44.764 58.5373 44.508C58.7186 44.252 58.8093 43.9213 58.8093 43.516C58.8093 42.9507 58.6546 42.5347 58.3453 42.268C58.0359 41.9907 57.5506 41.852 56.8893 41.852ZM66.6001 43.996C67.2935 43.996 67.9121 44.1293 68.4561 44.396C69.0001 44.6627 69.4268 45.052 69.7361 45.564C70.0561 46.076 70.2161 46.7107 70.2161 47.468C70.2161 48.2893 70.0455 48.9987 69.7041 49.596C69.3628 50.1933 68.8508 50.652 68.1681 50.972C67.4961 51.292 66.6588 51.452 65.6561 51.452C65.0588 51.452 64.4935 51.3987 63.9601 51.292C63.4375 51.1853 62.9788 51.0307 62.5841 50.828V48.748C62.9788 48.9507 63.4535 49.1267 64.0081 49.276C64.5628 49.4147 65.0855 49.484 65.5761 49.484C66.0561 49.484 66.4561 49.42 66.7761 49.292C67.1068 49.164 67.3575 48.9667 67.5281 48.7C67.6988 48.4333 67.7841 48.092 67.7841 47.676C67.7841 47.1107 67.5975 46.684 67.2241 46.396C66.8508 46.0973 66.2748 45.948 65.4961 45.948C65.1975 45.948 64.8881 45.98 64.5681 46.044C64.2481 46.0973 63.9815 46.1507 63.7681 46.204L62.8081 45.692L63.2401 39.868H69.4321V41.916H65.3521L65.1441 44.156C65.3255 44.124 65.5175 44.092 65.7201 44.06C65.9335 44.0173 66.2268 43.996 66.6001 43.996Z" fill="#B61C31"/>
</svg>
