<svg width="99" height="82" viewBox="0 0 99 82" fill="none" xmlns="http://www.w3.org/2000/svg">
<path d="M24.7514 78.0836H74.5775M70.9537 66.9054H28.3751C26.4727 66.9054 24.3438 65.6839 23.7096 64.2034L4.9569 21.3411C2.28442 15.1968 5.40987 13.309 11.842 17.0845L29.5075 27.4114C32.4518 29.077 35.8037 28.2257 37.072 25.5237L45.0442 8.16408C47.5808 2.61197 51.7934 2.61197 54.33 8.16408L62.3021 25.5237C63.5704 28.2257 66.9224 29.077 69.8213 27.4114L86.3998 17.7507C93.466 13.6051 96.8633 15.715 93.9643 22.4145L75.6646 64.2774C74.9851 65.6839 72.8562 66.9054 70.9537 66.9054Z" stroke="#B61C31" stroke-width="7" stroke-linecap="round" stroke-linejoin="round"/>
<path d="M36.4338 51.292H34.0178V41.884H30.9138V39.868H39.5378V41.884H36.4338V51.292ZM51.1789 45.564C51.1789 46.4493 51.0669 47.2547 50.8429 47.98C50.6295 48.6947 50.2989 49.3133 49.8509 49.836C49.4135 50.3587 48.8482 50.7587 48.1549 51.036C47.4722 51.3133 46.6669 51.452 45.7389 51.452C44.8109 51.452 44.0002 51.3133 43.3069 51.036C42.6242 50.748 42.0589 50.348 41.6109 49.836C41.1735 49.3133 40.8429 48.6893 40.6189 47.964C40.4055 47.2387 40.2989 46.4333 40.2989 45.548C40.2989 44.364 40.4909 43.3347 40.8749 42.46C41.2695 41.5853 41.8669 40.908 42.6669 40.428C43.4775 39.9373 44.5069 39.692 45.7549 39.692C46.9922 39.692 48.0109 39.9373 48.8109 40.428C49.6109 40.908 50.2029 41.5907 50.5869 42.476C50.9815 43.3507 51.1789 44.38 51.1789 45.564ZM42.8429 45.564C42.8429 46.364 42.9442 47.052 43.1469 47.628C43.3495 48.204 43.6642 48.6467 44.0909 48.956C44.5175 49.2653 45.0669 49.42 45.7389 49.42C46.4322 49.42 46.9869 49.2653 47.4029 48.956C47.8295 48.6467 48.1389 48.204 48.3309 47.628C48.5335 47.052 48.6349 46.364 48.6349 45.564C48.6349 44.3587 48.4109 43.4147 47.9629 42.732C47.5149 42.0493 46.7789 41.708 45.7549 41.708C45.0722 41.708 44.5175 41.8627 44.0909 42.172C43.6642 42.4813 43.3495 42.924 43.1469 43.5C42.9442 44.076 42.8429 44.764 42.8429 45.564ZM57.0173 39.868C58.4893 39.868 59.5613 40.188 60.2333 40.828C60.9159 41.4573 61.2573 42.3267 61.2573 43.436C61.2573 43.9373 61.1826 44.4173 61.0333 44.876C60.8839 45.324 60.6333 45.7293 60.2813 46.092C59.9399 46.444 59.4866 46.7213 58.9213 46.924C58.3559 47.1267 57.6573 47.228 56.8253 47.228H55.7853V51.292H53.3693V39.868H57.0173ZM56.8893 41.852H55.7853V45.244H56.5853C57.0439 45.244 57.4386 45.1853 57.7693 45.068C58.0999 44.9507 58.3559 44.764 58.5373 44.508C58.7186 44.252 58.8093 43.9213 58.8093 43.516C58.8093 42.9507 58.6546 42.5347 58.3453 42.268C58.0359 41.9907 57.5506 41.852 56.8893 41.852ZM70.3761 44.748C70.3761 45.3987 70.3281 46.0493 70.2321 46.7C70.1361 47.34 69.9655 47.948 69.7201 48.524C69.4855 49.0893 69.1495 49.596 68.7121 50.044C68.2855 50.4813 67.7361 50.828 67.0641 51.084C66.4028 51.3293 65.5975 51.452 64.6481 51.452C64.4241 51.452 64.1628 51.4413 63.8641 51.42C63.5655 51.4093 63.3148 51.3827 63.1121 51.34V49.404C63.3255 49.4467 63.5495 49.484 63.7841 49.516C64.0188 49.548 64.2535 49.564 64.4881 49.564C65.2028 49.564 65.7895 49.4787 66.2481 49.308C66.7175 49.1373 67.0855 48.892 67.3521 48.572C67.6188 48.252 67.8108 47.8733 67.9281 47.436C68.0561 46.9987 68.1308 46.5187 68.1521 45.996H68.0561C67.9068 46.2413 67.7255 46.4653 67.5121 46.668C67.3095 46.8707 67.0481 47.0307 66.7281 47.148C66.4188 47.2653 66.0188 47.324 65.5281 47.324C64.8775 47.324 64.3121 47.1853 63.8321 46.908C63.3521 46.62 62.9788 46.2093 62.7121 45.676C62.4455 45.132 62.3121 44.476 62.3121 43.708C62.3121 42.876 62.4668 42.1667 62.7761 41.58C63.0961 40.9827 63.5495 40.5293 64.1361 40.22C64.7228 39.9 65.4108 39.74 66.2001 39.74C66.7868 39.74 67.3308 39.8413 67.8321 40.044C68.3441 40.2467 68.7868 40.556 69.1601 40.972C69.5441 41.3773 69.8428 41.8947 70.0561 42.524C70.2695 43.1533 70.3761 43.8947 70.3761 44.748ZM66.2481 41.676C65.7788 41.676 65.3948 41.836 65.0961 42.156C64.7975 42.476 64.6481 42.9827 64.6481 43.676C64.6481 44.2307 64.7761 44.668 65.0321 44.988C65.2881 45.308 65.6775 45.468 66.2001 45.468C66.5628 45.468 66.8721 45.388 67.1281 45.228C67.3948 45.068 67.6028 44.8707 67.7521 44.636C67.9015 44.3907 67.9761 44.14 67.9761 43.884C67.9761 43.6173 67.9388 43.356 67.8641 43.1C67.7895 42.8333 67.6775 42.5933 67.5281 42.38C67.3895 42.1667 67.2135 41.996 67.0001 41.868C66.7868 41.74 66.5361 41.676 66.2481 41.676Z" fill="#B61C31"/>
</svg>
