<?xml version="1.0" encoding="UTF-8"?>
<svg id="_圖層_2" data-name="圖層 2" xmlns="http://www.w3.org/2000/svg" viewBox="0 0 70.76 230.83">
  <g id="_圖層_1-2" data-name="圖層 1">
    <g>
      <rect x="27.79" y="2.65" width="12.55" height="228.19" style="fill: #e6ac77;"/>
      <ellipse cx="34.07" cy="2.77" rx="6.28" ry="2.77" style="fill: #f1c2a5;"/>
      <polygon points="70.76 22.1 64.54 29.76 18.75 29.76 18.75 14.44 64.54 14.44 70.76 22.1" style="fill: #a06643;"/>
      <circle cx="33.13" cy="22.1" r="1.37" style="fill: #fff;"/>
      <g>
        <path d="m41.54,24.51c-.38,0-.57-.18-.57-.55v-3.87l-.66.34c-.24.13-.44.08-.59-.16-.16-.25-.11-.44.15-.59l1.22-.69c.11-.07.23-.1.36-.1h.25c.12,0,.21.04.29.11.07.07.11.16.11.28v4.69c0,.36-.19.55-.56.55Z" style="fill: #fff;"/>
        <path d="m46.26,24.61c-.49,0-.91-.13-1.28-.39-.1-.09-.16-.18-.16-.27,0-.08.05-.18.14-.29.21-.24.45-.26.71-.08.18.08.35.12.52.12.35,0,.63-.14.84-.42.24-.32.37-.81.39-1.47-.14.19-.33.34-.55.45-.22.11-.43.17-.63.17-.5,0-.89-.15-1.18-.44-.31-.31-.47-.75-.47-1.33s.18-1.02.54-1.37c.34-.33.77-.5,1.27-.5.59,0,1.07.22,1.44.66.41.5.62,1.2.62,2.12,0,1-.22,1.77-.67,2.31-.39.49-.9.73-1.53.73Zm.19-2.98c.37,0,.69-.2.95-.6-.05-.49-.16-.85-.35-1.08-.16-.21-.37-.32-.64-.32-.22,0-.41.09-.55.26-.15.19-.22.44-.22.77s.07.57.22.74c.14.16.34.24.59.24Z" style="fill: #fff;"/>
        <path d="m51.61,24.61c-.49,0-.91-.13-1.28-.39-.1-.09-.16-.18-.16-.27,0-.08.05-.18.14-.29.21-.24.45-.26.71-.08.18.08.35.12.52.12.35,0,.63-.14.84-.42.24-.32.37-.81.39-1.47-.14.19-.33.34-.55.45-.22.11-.43.17-.63.17-.5,0-.89-.15-1.18-.44-.31-.31-.47-.75-.47-1.33s.18-1.02.54-1.37c.34-.33.77-.5,1.27-.5.59,0,1.07.22,1.44.66.41.5.62,1.2.62,2.12,0,1-.22,1.77-.67,2.31-.39.49-.9.73-1.53.73Zm.19-2.98c.37,0,.69-.2.95-.6-.05-.49-.16-.85-.35-1.08-.16-.21-.37-.32-.64-.32-.22,0-.41.09-.55.26-.15.19-.22.44-.22.77s.07.57.22.74c.14.16.34.24.59.24Z" style="fill: #fff;"/>
        <path d="m57.25,24.61c-.55,0-1-.14-1.37-.42-.36-.28-.55-.64-.55-1.08,0-.63.33-1.12.99-1.46v-.04c-.51-.35-.76-.8-.76-1.33,0-.44.16-.8.49-1.08.32-.27.73-.4,1.24-.4s.91.14,1.21.41c.3.27.45.63.45,1.08,0,.26-.08.51-.22.75-.13.21-.3.38-.51.53v.04c.64.34.96.84.96,1.5,0,.42-.18.78-.53,1.07-.37.29-.84.43-1.4.43Zm.03-.79c.25,0,.45-.07.6-.2.16-.13.24-.32.24-.55,0-.27-.12-.49-.36-.67-.17-.14-.48-.29-.92-.45-.16.13-.29.28-.38.45-.1.19-.15.38-.15.58,0,.25.09.45.28.61.18.15.41.23.68.23Zm.33-2.52c.27-.28.41-.6.41-.94,0-.23-.07-.42-.2-.56-.13-.14-.32-.22-.56-.22-.2,0-.37.06-.5.18-.13.13-.2.3-.2.52,0,.25.1.45.29.62.14.13.4.26.75.4Z" style="fill: #fff;"/>
      </g>
      <g>
        <polygon points="1.08 53.19 7.3 60.84 53.1 60.84 53.1 45.53 7.3 45.53 1.08 53.19" style="fill: #a06643;"/>
        <circle cx="33.96" cy="53.02" r="1.37" style="fill: #fff;"/>
        <g>
          <path d="m8.42,55.99c-.1,0-.19-.03-.25-.09-.06-.06-.1-.15-.1-.25v-.02c0-.19.1-.38.31-.56.72-.65,1.26-1.2,1.6-1.66.38-.51.57-.96.57-1.34,0-.28-.08-.51-.23-.67-.15-.16-.36-.24-.63-.24-.23,0-.47.09-.71.26-.23.21-.46.21-.67,0-.2-.2-.19-.4.03-.61.43-.36.93-.54,1.49-.54s.98.16,1.31.47c.33.32.5.73.5,1.25,0,.85-.64,1.89-1.91,3.11.38-.04.69-.06.93-.06h.77c.32,0,.48.16.48.47s-.16.47-.48.47h-3.02Z" style="fill: #fff;"/>
          <path d="m15.37,56.1c-.6,0-1.07-.25-1.41-.74-.36-.52-.54-1.25-.54-2.19s.18-1.67.54-2.18c.34-.47.81-.71,1.41-.71s1.07.24,1.4.72c.36.5.54,1.22.54,2.17s-.18,1.68-.54,2.19c-.34.5-.8.74-1.4.74Zm0-.87c.57,0,.86-.69.86-2.06s-.29-2.02-.86-2.02-.87.67-.87,2.02c0,.74.08,1.28.25,1.62.14.29.35.44.62.44Z" style="fill: #fff;"/>
          <path d="m20.71,56.1c-.6,0-1.07-.25-1.41-.74-.36-.52-.54-1.25-.54-2.19s.18-1.67.54-2.18c.34-.47.81-.71,1.41-.71s1.07.24,1.4.72c.36.5.54,1.22.54,2.17s-.18,1.68-.54,2.19c-.34.5-.8.74-1.4.74Zm0-.87c.57,0,.86-.69.86-2.06s-.29-2.02-.86-2.02-.87.67-.87,2.02c0,.74.08,1.28.25,1.62.14.29.35.44.62.44Z" style="fill: #fff;"/>
          <path d="m25.91,56.1c-.64,0-1.2-.18-1.67-.53-.18-.16-.19-.34-.03-.56.2-.26.42-.29.66-.08.28.18.58.27.89.27s.55-.09.73-.27c.19-.19.29-.44.29-.77s-.09-.57-.26-.75c-.18-.18-.41-.27-.71-.27-.2,0-.39.04-.56.12-.2.12-.38.12-.56,0l-.02-.02c-.16-.1-.24-.24-.22-.43l.12-1.96c.01-.15.06-.26.16-.35.09-.09.21-.13.36-.13h2.11c.32,0,.47.15.47.46s-.16.47-.47.47h-1.61l-.11,1.19c.23-.11.46-.16.69-.16.51,0,.93.14,1.25.43.35.32.52.77.52,1.35s-.2,1.09-.6,1.46c-.38.34-.85.52-1.4.52Z" style="fill: #fff;"/>
        </g>
      </g>
      <g>
        <polygon points="70.25 84.19 64.03 91.84 18.23 91.84 18.23 76.53 64.03 76.53 70.25 84.19" style="fill: #a06643;"/>
        <circle cx="33.55" cy="83.73" r="1.37" style="fill: #fff;"/>
        <g>
          <path d="m41.52,86.68c-.1,0-.19-.03-.25-.09-.06-.06-.1-.15-.1-.25v-.02c0-.19.1-.38.31-.56.72-.65,1.26-1.2,1.6-1.66.38-.51.57-.96.57-1.34,0-.28-.08-.51-.23-.67-.15-.16-.36-.24-.63-.24-.23,0-.47.09-.71.26-.23.21-.46.21-.67,0-.2-.2-.19-.4.03-.61.43-.36.93-.54,1.49-.54s.98.16,1.31.47c.33.32.5.73.5,1.25,0,.85-.64,1.89-1.91,3.11.38-.04.69-.06.93-.06h.77c.32,0,.48.16.48.47s-.16.47-.48.47h-3.02Z" style="fill: #fff;"/>
          <path d="m48.47,86.79c-.6,0-1.07-.25-1.41-.74-.36-.52-.54-1.25-.54-2.19s.18-1.67.54-2.18c.34-.47.81-.71,1.41-.71s1.07.24,1.4.72c.36.5.54,1.22.54,2.17s-.18,1.68-.54,2.19c-.34.5-.8.74-1.4.74Zm0-.87c.57,0,.86-.69.86-2.06s-.29-2.02-.86-2.02-.87.67-.87,2.02c0,.74.08,1.28.25,1.62.14.29.35.44.62.44Z" style="fill: #fff;"/>
          <path d="m53.81,86.79c-.6,0-1.07-.25-1.41-.74-.36-.52-.54-1.25-.54-2.19s.18-1.67.54-2.18c.34-.47.81-.71,1.41-.71s1.07.24,1.4.72c.36.5.54,1.22.54,2.17s-.18,1.68-.54,2.19c-.34.5-.8.74-1.4.74Zm0-.87c.57,0,.86-.69.86-2.06s-.29-2.02-.86-2.02-.87.67-.87,2.02c0,.74.08,1.28.25,1.62.14.29.35.44.62.44Z" style="fill: #fff;"/>
          <path d="m59.32,86.79c-.59,0-1.07-.22-1.44-.67-.41-.51-.62-1.23-.62-2.16,0-.99.22-1.75.67-2.28.4-.47.91-.71,1.54-.71.47,0,.88.13,1.26.38.11.1.16.19.17.28,0,.09-.05.19-.14.29-.22.24-.46.26-.73.06-.17-.08-.33-.11-.48-.11-.36,0-.64.14-.85.42-.24.32-.37.81-.4,1.47.15-.18.34-.33.57-.44.22-.11.42-.16.61-.16.5,0,.9.14,1.19.43.31.31.46.75.46,1.33s-.18,1.02-.54,1.36c-.34.34-.76.51-1.26.51Zm-.02-.84c.22,0,.41-.09.55-.26.15-.19.22-.44.22-.77s-.07-.57-.22-.75c-.14-.16-.34-.23-.6-.23-.36,0-.67.2-.94.59.05.49.17.85.35,1.09.17.22.37.33.63.33Z" style="fill: #fff;"/>
        </g>
      </g>
      <g>
        <polygon points="0 115.24 6.22 122.89 52.02 122.89 52.02 107.58 6.22 107.58 0 115.24" style="fill: #a06643;"/>
        <circle cx="34.2" cy="115.24" r="1.37" style="fill: #fff;"/>
        <g>
          <path d="m8.06,117.88c-.1,0-.19-.03-.25-.09-.06-.06-.1-.15-.1-.25v-.02c0-.19.1-.38.31-.56.72-.65,1.26-1.2,1.6-1.66.38-.51.57-.96.57-1.34,0-.28-.08-.51-.23-.67-.15-.16-.36-.24-.63-.24-.23,0-.47.09-.71.26-.23.21-.46.21-.67,0-.2-.2-.19-.4.03-.61.43-.36.93-.54,1.49-.54s.98.16,1.31.47c.33.32.5.73.5,1.25,0,.85-.64,1.89-1.91,3.11.38-.04.69-.06.93-.06h.77c.32,0,.48.16.48.47s-.16.47-.48.47h-3.02Z" style="fill: #fff;"/>
          <path d="m15.01,117.99c-.6,0-1.07-.25-1.41-.74-.36-.52-.54-1.25-.54-2.19s.18-1.67.54-2.18c.34-.47.81-.71,1.41-.71s1.07.24,1.4.72c.36.5.54,1.22.54,2.17s-.18,1.68-.54,2.19c-.34.5-.8.74-1.4.74Zm0-.87c.57,0,.86-.69.86-2.06s-.29-2.02-.86-2.02-.87.67-.87,2.02c0,.74.08,1.28.25,1.62.14.29.35.44.62.44Z" style="fill: #fff;"/>
          <path d="m20.66,117.88c-.38,0-.57-.18-.57-.55v-3.87l-.66.34c-.24.13-.44.08-.59-.16-.16-.25-.11-.44.15-.59l1.22-.69c.11-.07.23-.1.36-.1h.25c.12,0,.21.04.29.11.07.07.11.16.11.28v4.69c0,.36-.19.55-.56.55Z" style="fill: #fff;"/>
          <path d="m24.09,117.88c-.1,0-.19-.03-.25-.09-.06-.06-.1-.15-.1-.25v-.02c0-.19.1-.38.31-.56.72-.65,1.26-1.2,1.6-1.66.38-.51.57-.96.57-1.34,0-.28-.08-.51-.23-.67-.15-.16-.36-.24-.63-.24-.23,0-.47.09-.71.26-.23.21-.46.21-.67,0-.2-.2-.19-.4.03-.61.43-.36.93-.54,1.49-.54s.98.16,1.31.47c.33.32.5.73.5,1.25,0,.85-.64,1.89-1.91,3.11.38-.04.69-.06.93-.06h.77c.32,0,.48.16.48.47s-.16.47-.48.47h-3.02Z" style="fill: #fff;"/>
        </g>
      </g>
      <g>
        <polygon points="70.57 146.28 64.34 153.94 18.55 153.94 18.55 138.63 64.34 138.63 70.57 146.28" style="fill: #a06643;"/>
        <circle cx="33.49" cy="146.29" r="1.37" style="fill: #fff;"/>
        <g>
          <path d="m40.77,148.8c-.1,0-.19-.03-.25-.09-.06-.06-.1-.15-.1-.25v-.02c0-.19.1-.38.31-.56.72-.65,1.26-1.2,1.6-1.66.38-.51.57-.96.57-1.34,0-.28-.08-.51-.23-.67-.15-.16-.36-.24-.63-.24-.23,0-.47.09-.71.26-.23.21-.46.21-.67,0-.2-.2-.19-.4.03-.61.43-.36.93-.54,1.49-.54s.98.16,1.31.47c.33.32.5.73.5,1.25,0,.85-.64,1.89-1.91,3.11.38-.04.69-.06.93-.06h.77c.32,0,.48.16.48.47s-.16.47-.48.47h-3.02Z" style="fill: #fff;"/>
          <path d="m47.72,148.91c-.6,0-1.07-.25-1.41-.74-.36-.52-.54-1.25-.54-2.19s.18-1.67.54-2.18c.34-.47.81-.71,1.41-.71s1.07.24,1.4.72c.36.5.54,1.22.54,2.17s-.18,1.68-.54,2.19c-.34.5-.8.74-1.4.74Zm0-.87c.57,0,.86-.69.86-2.06s-.29-2.02-.86-2.02-.87.67-.87,2.02c0,.74.08,1.28.25,1.62.14.29.35.44.62.44Z" style="fill: #fff;"/>
          <path d="m53.37,148.8c-.38,0-.57-.18-.57-.55v-3.87l-.66.34c-.24.13-.44.08-.59-.16-.16-.25-.11-.44.15-.59l1.22-.69c.11-.07.23-.1.36-.1h.25c.12,0,.21.04.29.11.07.07.11.16.11.28v4.69c0,.36-.19.55-.56.55Z" style="fill: #fff;"/>
          <path d="m58.24,148.91c-.68,0-1.24-.18-1.68-.55-.17-.15-.17-.33,0-.55.2-.26.42-.29.68-.09.28.18.58.27.89.27.29,0,.53-.07.71-.2.18-.14.27-.33.27-.58,0-.23-.06-.41-.19-.54-.14-.15-.37-.25-.69-.3-.16-.02-.31-.06-.46-.14-.17-.09-.25-.2-.25-.32s.07-.23.22-.33c.13-.08.28-.12.43-.14.49-.12.74-.38.74-.8,0-.22-.07-.39-.2-.52-.13-.12-.32-.18-.57-.19-.25,0-.48.07-.69.2-.12.09-.25.13-.37.13-.12,0-.23-.07-.32-.18-.19-.22-.17-.42.08-.61.42-.28.88-.42,1.36-.42.56,0,1.01.13,1.35.39.34.26.51.63.51,1.11,0,.61-.32,1.03-.96,1.28v.04c.34.09.62.25.82.48.22.25.33.55.33.9,0,.5-.2.9-.6,1.2-.37.29-.85.43-1.42.43Z" style="fill: #fff;"/>
        </g>
      </g>
      <g>
        <polygon points="0 178.32 6.22 185.98 52.02 185.98 52.02 170.66 6.22 170.66 0 178.32" style="fill: #a06643;"/>
        <circle cx="34.2" cy="178.49" r="1.37" style="fill: #fff;"/>
        <g>
          <path d="m8.89,181.07c-.1,0-.19-.03-.25-.09s-.1-.15-.1-.25v-.02c0-.19.1-.38.31-.56.72-.65,1.26-1.2,1.6-1.66.38-.51.57-.96.57-1.34,0-.28-.08-.51-.23-.67-.15-.16-.36-.24-.63-.24-.23,0-.47.09-.71.26-.23.21-.46.21-.67,0-.2-.2-.19-.4.03-.61.43-.36.93-.54,1.49-.54s.98.16,1.31.47c.33.32.5.73.5,1.25,0,.85-.64,1.89-1.91,3.11.38-.04.69-.06.93-.06h.77c.32,0,.48.16.48.47s-.16.47-.48.47h-3.02Z" style="fill: #fff;"/>
          <path d="m15.84,181.18c-.6,0-1.07-.25-1.41-.74-.36-.52-.54-1.25-.54-2.19s.18-1.67.54-2.18c.34-.47.81-.71,1.41-.71s1.07.24,1.4.72c.36.5.54,1.22.54,2.17s-.18,1.68-.54,2.19c-.34.5-.8.74-1.4.74Zm0-.87c.57,0,.86-.69.86-2.06s-.29-2.02-.86-2.02-.87.67-.87,2.02c0,.74.08,1.28.25,1.62.14.29.35.44.62.44Z" style="fill: #fff;"/>
          <path d="m21.49,181.07c-.38,0-.57-.18-.57-.55v-3.87l-.66.34c-.24.13-.44.08-.59-.16-.16-.25-.11-.44.15-.59l1.22-.69c.11-.07.23-.1.36-.1h.25c.12,0,.21.04.29.11.07.07.11.16.11.28v4.69c0,.36-.19.55-.56.55Z" style="fill: #fff;"/>
          <path d="m26.36,181.18c-.68,0-1.24-.18-1.67-.55-.17-.15-.17-.33,0-.55.2-.26.42-.29.68-.09.28.18.58.27.89.27.29,0,.53-.07.71-.21.18-.14.27-.33.27-.58,0-.23-.06-.41-.19-.54-.14-.15-.37-.25-.69-.3-.16-.02-.31-.06-.46-.14-.17-.09-.25-.2-.25-.32s.08-.23.23-.33c.13-.08.28-.12.43-.14.49-.12.74-.38.74-.8,0-.22-.07-.39-.2-.52-.13-.12-.32-.18-.57-.19-.25,0-.48.07-.69.21-.12.09-.25.13-.37.12-.12,0-.23-.07-.32-.18-.19-.22-.17-.42.08-.61.42-.28.88-.42,1.36-.42.56,0,1.01.13,1.35.39.34.26.51.63.51,1.11,0,.61-.32,1.03-.96,1.28v.04c.34.09.62.25.82.48.22.25.33.55.33.9,0,.5-.2.9-.6,1.2-.37.29-.85.43-1.42.43Z" style="fill: #fff;"/>
        </g>
      </g>
    </g>
  </g>
</svg>