<svg width="553" height="368" viewBox="0 0 553 368" fill="none" xmlns="http://www.w3.org/2000/svg">
<path d="M453.463 16.0734C486.348 35.0235 516.211 58.9037 532.867 94.4703C540.903 111.627 544.082 130.862 548.059 149.293C556.449 188.232 544.492 222.404 534.29 256.562C527.961 277.744 517.036 296.49 502.605 312.715C494.916 321.354 488.296 331.023 481.435 340.427C479.103 343.621 480.279 346.14 484.589 347.956C498.655 353.885 511.763 350.254 517.996 335.472C524.165 320.844 527.689 304.795 532.464 289.416C532.86 288.154 534.002 287.219 534.798 286.136C535.699 287.091 536.924 287.924 537.449 289.025C545.151 305.14 547.763 321.822 548.686 338.688C548.828 341.259 548.943 343.824 550.608 347.128C554.71 337.093 558.811 327.058 563.465 315.657C565.171 321.342 567.249 326.168 567.917 331.019C568.932 338.42 569.032 345.841 569.399 353.241C570.452 374.219 564.747 393.209 559.237 412.184C557.814 417.092 558.13 420.9 560.972 425.72C566.397 434.934 572.272 444.214 575.844 454.021C580.679 467.287 584.673 481.037 586.835 494.656C588.438 504.731 586.465 514.92 586.348 525.1C586.34 526.033 588.126 527.823 589.294 528.228C599.883 531.915 610.677 534.873 621.055 539.239C623.977 540.471 626.462 545.473 627.676 549.088C628.174 550.579 625.253 553.745 623.127 554.817C608.39 562.214 593.312 569.013 578.637 576.513C570.098 580.873 561.943 585.942 553.902 591.113C547.785 595.041 540.53 590.413 537.931 584.987C535.04 578.944 532.071 571.603 532.806 565.77C534.081 555.633 527.326 548.967 523.517 540.96C522.876 539.602 522.084 538.076 520.969 537.181C519.257 535.801 517.24 534.43 515.275 534.017C514.473 533.85 513.192 536.041 512.607 537.423C508.395 547.364 502.977 557.105 507.586 569.453C511.118 578.928 515.823 588.121 518.9 597.673C521.426 605.51 522.021 613.744 524.087 621.715C524.879 624.78 526.849 628.163 529.175 630.425C536.28 637.325 544.342 643.264 551.035 650.513C556.981 656.958 555.052 663.714 548.016 666.881C540.649 670.198 533.003 673.223 526.377 677.649C518.842 682.68 512.812 689.874 505.184 694.744C497.428 699.7 488.739 703.433 480.021 706.765C476.062 708.279 470.505 700.698 471.537 695.709C474.506 681.38 476.615 666.672 480.902 652.916C484.14 642.529 475.076 625.989 465.425 617.403C453.794 607.066 441.634 609.321 429.137 607.237C412.491 604.467 395.243 600.046 379.615 592.547C364.71 585.389 351.051 574.049 337.78 563.27C327.086 554.583 317.829 543.954 307.862 534.263C295.852 522.579 283.343 511.379 271.854 499.199C263.001 489.817 256.141 478.46 247.081 469.344C226.686 448.815 217.361 422.854 204.952 398.32C203.154 394.766 199.945 390.944 196.582 389.048C161.677 369.359 126.678 349.882 91.5593 330.668C67.5718 317.544 51.1718 296.764 36.4855 274.484C11.3533 236.345 -1.77157 195.779 0.680791 152.49C0.818509 150.107 1.01365 147.705 1.48718 145.41C2.8573 138.747 4.4245 131.76 12.2505 130.843C20.0885 129.915 25.75 135.749 30.1102 141.818C42.1327 158.571 53.1964 175.99 65.4922 192.548C76.6432 207.574 89.8622 220.696 106.145 229.991C120.809 238.359 131.685 237.626 142.711 227.508C160.133 211.52 178.255 196.246 194.705 179.283C207.308 166.285 217.754 151.123 229.237 136.987C230.629 135.271 232.494 133.972 235.178 131.551C227.934 132.555 222.077 134.03 216.031 134.085C193.883 134.272 171.735 135.352 149.469 133.586C113.214 130.703 78.5356 135.548 43.5566 139.251C42.4431 139.372 41.3242 139.896 40.2558 139.677C36.3728 138.882 32.5041 137.845 28.6336 136.903C30.0028 133.13 30.1866 127.517 32.9358 125.886C47.8796 117.04 62.9582 108.202 78.9414 101.207C100.813 91.6367 123.608 83.8553 145.881 75.0496C170.027 65.5087 189.304 49.0721 208.387 32.4607C231.943 11.9455 260.28 1.94155 293.222 5.44637C338.558 10.2682 364.993 32.1964 379.664 80.6703C390.693 117.098 391.573 153.151 390.854 189.235C390.837 190.28 390.757 191.311 390.585 194.791C395.841 190.281 400.585 187.552 403.582 183.411C420.963 159.382 428.933 130.908 424.316 99.3524C420.742 74.9254 412.091 50.6105 405.683 26.2468C404.55 21.9186 403.045 17.6231 402.259 13.2742C400.551 3.7869 404.079 -1.60676 413.076 0.788253C426.776 4.41975 440.943 8.8625 453.468 16.0756L453.463 16.0734ZM555.092 452.054C529.769 404.064 494.627 367.194 443.453 348.665C429.138 343.477 414.318 338.522 402.987 326.271C383.808 305.538 373.618 280.488 369.58 254.803C364.891 225.012 363.826 195.016 362.439 165.215C361.366 142.111 364.201 119.263 357.388 95.8762C351.979 77.2892 345.243 58.7543 328.175 46.9968C291.693 21.8641 256.183 20.8762 222.407 40.533C218.989 42.5206 216.101 45.3431 211.109 49.2125C215.335 49.4026 216.966 49.4386 218.599 49.5517C227.978 50.2135 237.359 50.5619 246.74 51.7064C251.797 52.3273 254.977 55.6115 254.774 61.4482C254.607 66.2314 254.943 71.1142 255.266 75.9644C256.07 88.2429 257.532 90.6138 269.464 93.8647C281.808 97.2295 294.347 99.2594 306.715 102.52C309.268 103.192 312.311 106.357 313.617 108.999C316.671 115.189 313.94 119.031 308.589 121.337C292.848 128.138 276.169 133.537 261.668 142.258C230.912 160.74 209.89 187.959 201.702 224.98C193.157 263.624 199.174 303.163 209.171 343.187C219.721 385.408 236.556 425.146 264.587 460.174C296.842 500.476 334.224 535.5 375.472 565.969C400.132 584.185 425.9 594.546 454.415 587.35C457.892 586.473 464.013 589.168 467.199 592.156C473.54 598.098 478.677 605.406 484.334 612.132C488.481 617.063 492.96 619.468 497.914 615.191C503.184 610.65 501.306 604.637 499.136 598.447C495.324 587.567 488.661 576.217 488.711 565.805C488.81 545.051 496.885 526.919 509.731 512.078C516.924 503.766 518.31 504.34 525.78 514.271C528.707 518.16 532.11 521.709 536.312 526.593C534.904 509.761 543.064 504.684 556.731 511.851C560.105 513.624 563.322 515.815 566.756 517.388C567.608 517.775 569.948 516.717 570.027 515.946C572.419 493.813 565.861 472.465 555.086 452.052L555.092 452.054ZM231.313 92.0314C237.282 89.6176 239.269 78.9823 235.077 71.5654C231.86 65.8744 227.121 63.6148 221.588 65.8282C214.755 68.5606 212.783 78.2748 217.726 87.5587C220.674 92.4894 225.521 94.375 231.309 92.0331L231.313 92.0314Z" fill="black"/>
<path d="M439.744 345.714C489.818 362.674 524.089 399.155 548.69 447.472C559.159 468.028 565.488 489.715 563.039 512.571C562.955 513.364 560.653 514.55 559.826 514.189C556.467 512.712 553.324 510.59 550.025 508.905C536.66 502.09 528.64 507.65 529.942 524.903C525.846 520.052 522.527 516.542 519.675 512.662C512.4 502.755 511.042 502.217 503.955 511.064C491.298 526.852 483.296 545.832 483.102 567.181C483.004 577.891 489.483 589.291 493.169 600.324C495.267 606.602 497.08 612.709 491.893 617.595C487.017 622.196 482.638 619.907 478.597 615.006C473.083 608.32 468.082 601.014 461.894 595.162C458.787 592.224 452.798 589.699 449.386 590.744C421.406 599.311 396.194 589.707 372.106 571.988C331.816 542.342 295.338 507.853 263.909 467.725C236.598 432.853 220.279 392.67 210.134 349.68C200.519 308.933 194.807 268.509 203.362 228.415C211.56 190.005 232.288 161.152 262.524 140.883C276.781 131.324 293.149 125.085 308.613 117.445C313.868 114.853 316.564 110.79 313.599 104.549C312.333 101.89 309.365 98.7597 306.863 98.1691C294.756 95.3221 282.475 93.7481 270.391 90.7933C258.711 87.9386 257.286 85.5563 256.557 72.9653C256.263 67.9903 255.956 62.9823 256.143 58.0561C256.367 52.0411 253.265 48.7938 248.313 48.3662C239.121 47.5696 229.93 47.5995 220.74 47.3031C219.136 47.2556 217.535 47.2815 213.4 47.2611C218.308 43.0732 221.149 40.054 224.514 37.8718C257.712 16.272 292.51 15.8351 328.156 40.1866C344.828 51.5813 351.344 70.3677 356.564 89.2601C363.133 113.033 360.248 136.648 361.193 160.365C362.414 190.958 363.316 221.759 367.775 252.21C371.614 278.46 381.486 303.806 400.189 324.343C411.241 336.482 425.744 340.971 439.749 345.716L439.744 345.714Z" fill="white"/>
<path d="M285.748 42.7767C290.073 50.0475 288.149 60.5574 282.106 63.0008C276.245 65.3712 271.302 63.5586 268.265 58.7304C263.16 49.6261 265.077 40.0248 271.995 37.2583C277.597 35.0172 282.429 37.1977 285.752 42.775L285.748 42.7767Z" fill="white"/>
<path d="M435.747 667.859C435.747 667.859 410.642 711.788 418.023 715.141C421.464 716.704 424.571 717.834 449.574 701.971C449.574 701.971 460.631 696.64 473.002 690.686C473.002 690.686 493.577 685.865 485.38 679.944C485.38 679.944 441.716 653.146 435.744 667.855L435.747 667.859Z" fill="#CD1214"/>
<path d="M517.894 560.562C517.894 560.562 514.019 588.222 516.295 600.556C518.57 612.891 527.383 608.851 541.159 601.973C554.934 595.1 587.753 586.387 590.755 581.687C593.086 578.029 559.534 567.986 544.516 563.703C540.523 562.565 536.639 560.992 532.964 559.016C527.473 556.064 518.79 552.734 517.897 560.56L517.894 560.562Z" fill="#CD1214"/>
</svg>
