<svg width="30" height="30" viewBox="0 0 30 30" fill="none" xmlns="http://www.w3.org/2000/svg">
<path d="M21.9426 1.70338C18.4161 -0.137916 14.3026 -0.502907 10.507 0.6887C6.71145 1.88031 3.54468 4.5309 1.70338 8.05739C-0.137916 11.5839 -0.502907 15.6974 0.6887 19.493C1.88031 23.2886 4.5309 26.4553 8.05738 28.2966L15 15L21.9426 1.70338Z" fill="#A1CAD0"/>
<path d="M8.05739 28.2966C11.5839 30.1379 15.6974 30.5029 19.493 29.3113C23.2886 28.1197 26.4553 25.4691 28.2966 21.9426C30.1379 18.4161 30.5029 14.3026 29.3113 10.507C28.1197 6.71145 25.4691 3.54468 21.9426 1.70338L15 15L8.05739 28.2966Z" fill="#DA723A"/>
</svg>
