<svg xmlns="http://www.w3.org/2000/svg" xmlns:xlink="http://www.w3.org/1999/xlink" viewBox="0 0 501.09 499.48"><defs><style>.cls-1{fill:#6a6b68;}.cls-2{fill:url(#未命名漸層_172);}.cls-3{font-size:72px;fill:#fff;font-family:GenSenRoundedTW-M, GenSenRounded TW;}</style><linearGradient id="未命名漸層_172" x1="-989.32" y1="193.57" x2="-577.9" y2="193.57" gradientTransform="translate(-591.21 149.59) rotate(-166.67)" gradientUnits="userSpaceOnUse"><stop offset="0" stop-color="#903"/><stop offset="0.05" stop-color="#9e0033"/><stop offset="0.41" stop-color="#b70033"/><stop offset="0.74" stop-color="#c70033"/><stop offset="0.99" stop-color="#c03"/></linearGradient></defs><g id="圖層_2" data-name="圖層 2"><g id="圖層_1-2" data-name="圖層 1"><path class="cls-1" d="M427.61,76.3l-8.7,41.62-20.79,99.43L373,337.59,351.15,442c-3.52,16.83-7.45,33.63-10.58,50.54,0,.25-.1.49-.15.73-1.31,6.28,8.33,9,9.65,2.66l8.7-41.62,20.79-99.43L404.71,234.6l21.83-104.37c3.52-16.83,7.44-33.63,10.57-50.55,0-.24.1-.48.15-.72,1.31-6.28-8.33-9-9.65-2.66Z"/><ellipse class="cls-1" cx="431.45" cy="72.89" rx="11.81" ry="10.56"/><path class="cls-2" d="M43,72.89C102,50,191.62,38.4,242.78,83.46c51.33,44.35,113,55.21,185.87,43.52,1.48,30.33-28.06,69.47-26.81,97-86,0-116.37-33.28-167.75-69.05C182.92,118.2,52.27,156.12,0,169,0,120.44,45,118.3,43,72.89Z"/><text class="cls-3" transform="matrix(1.01, 0.03, -0.03, 1, 128.97, 131.98)">S</text><text class="cls-3" transform="translate(175.01 131.75) rotate(12.18) scale(1.01 1)">H</text><text class="cls-3" transform="translate(228.46 150.65) rotate(26.5) scale(1.01 1)">O</text><text class="cls-3" transform="matrix(0.97, 0.29, -0.29, 0.96, 286.7, 177.63)">P</text><text class="cls-3" transform="translate(337.49 192.67) rotate(11.66) scale(1.01 1)">S</text></g></g></svg>