<svg xmlns="http://www.w3.org/2000/svg" viewBox="0 0 322.99 245.06"><defs><style>.cls-1{fill:#6a6b68;}</style></defs><g id="圖層_2" data-name="圖層 2"><g id="圖層_1-2" data-name="圖層 1"><path class="cls-1" d="M134.64,156.44c5.76-1,5.8-4.3,7-5.61-.62-1.5-2.19-2-3.21-3.13-2.3-2.48-2.37-2.77.63-4.32,3.53-1.82,6-4.38,6.9-8.37a28.06,28.06,0,0,1,1.75-4.37c-.37-.53.46-1.42-.28-1.66s-1.11.62-1.49,1.2a2.55,2.55,0,0,1-.64.52c-4.73,6.32-10.65,10.46-18.85,10.39.93-.63,2-.92,3-1.48.53-.32,1.81,0,1.51-1.11-.18-.68-1.18-.61-1.88-.74a10.7,10.7,0,0,1-4.44-1.59c-1.58-1.11-1.71-1.95-.2-3.22a9.64,9.64,0,0,1,4.27-2.39c7.18-4.48,11.47-11.74,17.27-17.56a4.93,4.93,0,0,0-3.86,1c-4.17,3.11-8.65,2.61-13.24,1.32-.38,0-.8-.07-.88-.45-.12-.6.42-.42.7-.4a5.17,5.17,0,0,0,3.24-.93,15,15,0,0,1,2.12-1.45,15.84,15.84,0,0,0,6.23-4.72c2.59-3.52,5.23-7,7.85-10.49.9-1.69.34-2.4-1.49-2.87a10.24,10.24,0,0,1-7.48-6.54c-1.13-3.09.18-5.15,3.38-5.07a9.89,9.89,0,0,0,6.13-1.67c3.65-2.1,4.27-6.44,6.88-9.37,1.71-1.92,1.08-2.84-1.38-3.76a9.77,9.77,0,0,1-1.82-.63c-2.52-1.57-4.94-3.67-3.3-6.07,1.17-1.7,2.44-3.23,4.72-3.57a4,4,0,0,0,3.65-3.51,9.16,9.16,0,0,1,1-3.31,18.49,18.49,0,0,0,2.73-9.77c.07-2.19.12-4.38.23-6.57q.18-3.83.49-7.64c.06-.74.32-1.49,1.24-1.57s1,.59,1.11,1.13c.66,2.86,2.25,5.32,3.25,8,.82,1.28.34,2.7.37,4,.06,3.49-.32,7,1,10.39h0c.72.61.39,1.49.45,2.23a7.08,7.08,0,0,0,1.25,4.05A9.51,9.51,0,0,1,172.88,62c1,2.38,3.26,3.15,5.21,4.33s2.18,2,.93,4.22a5.52,5.52,0,0,1-1.25,1.89c-.76.89-1.75,2-.52,3.3.4,0,.74.18.8.6a6.66,6.66,0,0,0,5.15,5.8c1.31.38,2.53,1.07,3.81,1.58a16.55,16.55,0,0,1,7.1,4.89c1.16,1.43.93,2.5-.71,3.36a5.79,5.79,0,0,1-1,.46c-2,.5-3.16,1.31-1.42,3.39a.65.65,0,0,1,0,1c-.39.3-.79.07-1.21-.08-2.82-1-5.52-2.35-8.71-2.1-1.76.13-2.23.58-1.53,2.17a.17.17,0,0,1,.26.09c1.15,1.56,2.43,3,3.71,4.46,2.29,2.6,5.52,4.09,7.7,6.8a6.77,6.77,0,0,0,5.75,2.62,7.84,7.84,0,0,1,3.34.8,19.25,19.25,0,0,1,5.56,4.16c2.14,2,4.27,4,7.52,3.94,1.23,0,2.08,1,3.12,1.47.3.13.7.49.42.85s-.77.21-1.11-.13l-4.16.09a1.8,1.8,0,0,0-2,1.63l2.31,3c-1.17-.27-1.92-.34-2.34-1.14a8.32,8.32,0,0,1-3.28-.94c-2.75-1-5.3-2.55-8.35-2.57-2.55,0-2.55,0-1.9,2.36.85.56.6,1.7,1.24,2.38a9.39,9.39,0,0,1,2.64,4.38,26.2,26.2,0,0,0,7.17,6.91,5,5,0,0,1,2.34,3.23A46.29,46.29,0,0,0,205,140c-6.62-1.14-12-4.49-16.54-9.27-3.59-3.07-6.54-6.73-9.67-10.23-.47-.52-.9-1.45-1.69-1-.62.3-.19,1.16-.09,1.77.22,1.34.87,2.6.7,4,.79,1.1.65,2.52,1.24,3.7l3.64,6.51c1.71,1.67,3.68,3.26,4.51,5.51,1.31,3.56,4,5.74,6.75,8,1.77,1.5,3.41,3.14,5.16,4.66.8.69.38,1.52.28,2.21-.07.5-.71.12-1.06-.11-3.88-.28-7.75-.58-11.62-.81-.48,0-1.24-.42-1.46.44-.16.61.4.9.78,1.19.62.49,1.29.91,1.94,1.36,2.73,1.9,5.72,3.42,8.2,5.67-26.48,0-37.65-.73-64.13-.66C130.37,162.89,134.64,156.44,134.64,156.44Z"/><path class="cls-1" d="M8.5,239.68c4.36-.77,4.39-3.26,5.33-4.25-.47-1.13-1.66-1.54-2.43-2.37-1.74-1.88-1.8-2.1.48-3.27a9.21,9.21,0,0,0,5.22-6.34,22.16,22.16,0,0,1,1.32-3.31c-.28-.4.35-1.07-.21-1.25s-.84.47-1.12.91a2.16,2.16,0,0,1-.49.39C13,225,8.54,228.11,2.33,228.06c.7-.48,1.54-.7,2.26-1.13.41-.24,1.37,0,1.15-.83-.14-.52-.89-.47-1.43-.56A8.11,8.11,0,0,1,1,224.33c-1.2-.84-1.3-1.48-.16-2.44A7.38,7.38,0,0,1,4,220.08c5.43-3.39,8.68-8.88,13.07-13.29a3.73,3.73,0,0,0-2.92.73c-3.16,2.36-6.56,2-10,1-.29,0-.61-.05-.66-.34-.09-.45.31-.32.53-.3a3.83,3.83,0,0,0,2.45-.71,11.3,11.3,0,0,1,1.6-1.09,11.89,11.89,0,0,0,4.72-3.58c2-2.66,4-5.29,5.94-7.94.68-1.27.26-1.81-1.13-2.17A7.71,7.71,0,0,1,12,187.44c-.86-2.34.13-3.9,2.55-3.84a7.45,7.45,0,0,0,4.64-1.26c2.77-1.59,3.24-4.87,5.21-7.09,1.29-1.46.82-2.16-1-2.85a6.81,6.81,0,0,1-1.38-.48c-1.91-1.19-3.74-2.78-2.5-4.59.89-1.29,1.85-2.45,3.57-2.7A3,3,0,0,0,25.78,162a6.82,6.82,0,0,1,.78-2.51,14,14,0,0,0,2.06-7.39c.06-1.66.09-3.32.17-5,.1-1.93.22-3.86.38-5.79,0-.55.24-1.12.94-1.18s.74.44.84.85c.49,2.17,1.7,4,2.46,6.09.61,1,.25,2,.27,3.06,0,2.65-.24,5.31.76,7.86h0c.55.47.3,1.14.35,1.69a5.38,5.38,0,0,0,.94,3.07,7.19,7.19,0,0,1,1.72,5.46c.73,1.8,2.46,2.38,3.95,3.27s1.64,1.54.7,3.2a4.16,4.16,0,0,1-1,1.43c-.57.68-1.32,1.51-.39,2.5.3,0,.56.14.6.45a5,5,0,0,0,3.9,4.39c1,.29,1.92.81,2.89,1.2a12.53,12.53,0,0,1,5.37,3.7c.88,1.09.7,1.89-.54,2.55a4.12,4.12,0,0,1-.74.34c-1.5.39-2.39,1-1.08,2.57a.49.49,0,0,1,0,.74c-.3.22-.6.05-.92-.07-2.14-.76-4.18-1.78-6.59-1.59-1.33.1-1.69.44-1.16,1.64a.14.14,0,0,1,.2.07c.87,1.19,1.83,2.28,2.81,3.38,1.73,2,4.18,3.1,5.82,5.15a5.15,5.15,0,0,0,4.36,2,6.07,6.07,0,0,1,2.53.61,14.89,14.89,0,0,1,4.21,3.15c1.61,1.54,3.23,3,5.69,3,.93,0,1.57.74,2.36,1.11.23.1.53.37.32.65s-.58.15-.84-.1l-3.15.07a1.34,1.34,0,0,0-1.48,1.23c.51.68,1,1.35,1.75,2.29-.89-.2-1.46-.26-1.78-.86a6.33,6.33,0,0,1-2.48-.71c-2.08-.73-4-1.93-6.32-2-1.93,0-1.93,0-1.44,1.79.64.43.45,1.29.94,1.8a7.17,7.17,0,0,1,2,3.31,19.92,19.92,0,0,0,5.43,5.24,3.82,3.82,0,0,1,1.77,2.44c-1.26-.35-2.33-.75-3.43-.94a22.22,22.22,0,0,1-12.52-7,80,80,0,0,1-7.33-7.74c-.35-.4-.67-1.1-1.28-.8s-.13.88-.06,1.34a10.76,10.76,0,0,1,.52,3c.61.84.5,1.92.94,2.81l2.76,4.93c1.3,1.26,2.79,2.46,3.41,4.16,1,2.7,3,4.35,5.11,6.08,1.35,1.13,2.59,2.37,3.92,3.52.6.53.28,1.16.21,1.68s-.54.09-.81-.08c-2.93-.21-5.86-.44-8.8-.62-.36,0-.93-.32-1.1.33-.12.47.31.68.59.91.47.37,1,.68,1.47,1a57.67,57.67,0,0,1,6.21,4.3c-20,0-28.5-.55-48.55-.5C5.27,244.56,8.5,239.68,8.5,239.68Z"/><path class="cls-1" d="M49.77,216.75c4.73-.88,4.76-3.72,5.78-4.85-.52-1.29-1.8-1.75-2.64-2.7-1.89-2.14-1.95-2.39.52-3.73a10.41,10.41,0,0,0,5.66-7.23,25.35,25.35,0,0,1,1.43-3.77c-.3-.45.38-1.22-.23-1.43s-.91.54-1.22,1c-.11.19-.35.3-.53.44-3.87,5.46-8.73,9-15.46,9,.76-.54,1.68-.79,2.45-1.28.44-.27,1.49,0,1.24-1-.15-.59-1-.53-1.54-.64a8.43,8.43,0,0,1-3.64-1.37c-1.3-1-1.4-1.69-.16-2.78a7.79,7.79,0,0,1,3.5-2.07c5.89-3.86,9.41-10.13,14.17-15.16a3.91,3.91,0,0,0-3.17.84c-3.43,2.69-7.1,2.25-10.86,1.14-.32,0-.66-.06-.72-.39-.1-.52.34-.36.57-.34a4,4,0,0,0,2.65-.81,13,13,0,0,1,1.75-1.25,13,13,0,0,0,5.11-4.08c2.12-3,4.29-6,6.44-9,.73-1.46.27-2.07-1.23-2.48a8.53,8.53,0,0,1-6.13-5.64c-.93-2.67.15-4.45,2.77-4.38a7.85,7.85,0,0,0,5-1.44c3-1.81,3.51-5.56,5.64-8.09,1.4-1.66.89-2.45-1.13-3.24a8.28,8.28,0,0,1-1.49-.55c-2.07-1.35-4-3.17-2.71-5.24,1-1.47,2-2.79,3.87-3.08a3.37,3.37,0,0,0,3-3,8.19,8.19,0,0,1,.84-2.86,16.6,16.6,0,0,0,2.24-8.43c.06-1.89.1-3.78.19-5.67.1-2.2.23-4.41.4-6.6,0-.64.26-1.29,1-1.36s.81.51.91,1c.54,2.46,1.85,4.6,2.67,6.94.67,1.1.28,2.33.3,3.49,0,3-.26,6.06.82,9h0c.59.54.32,1.3.37,1.93a6.39,6.39,0,0,0,1,3.5,8.51,8.51,0,0,1,1.85,6.23c.79,2,2.68,2.71,4.28,3.73s1.79,1.75.76,3.65a4.75,4.75,0,0,1-1,1.63c-.61.77-1.43,1.72-.42,2.84a.62.62,0,0,1,.66.52,5.64,5.64,0,0,0,4.22,5c1.08.33,2.08.92,3.13,1.36a13.58,13.58,0,0,1,5.82,4.22c1,1.24.77,2.16-.58,2.91a4.54,4.54,0,0,1-.8.39c-1.63.44-2.59,1.14-1.17,2.93a.58.58,0,0,1,0,.84c-.33.25-.66.06-1-.07-2.32-.87-4.53-2-7.14-1.82-1.45.12-1.84.51-1.26,1.88a.13.13,0,0,1,.21.07c1,1.35,2,2.6,3,3.86,1.88,2.24,4.53,3.53,6.31,5.87a5.48,5.48,0,0,0,4.72,2.26,6.18,6.18,0,0,1,2.74.69,15.93,15.93,0,0,1,4.56,3.59c1.75,1.76,3.5,3.46,6.17,3.4,1,0,1.7.85,2.56,1.27.24.12.57.42.34.73s-.63.19-.91-.1l-3.41.07a1.49,1.49,0,0,0-1.6,1.41c.55.77,1.11,1.54,1.89,2.61-1-.23-1.57-.29-1.92-1a6.57,6.57,0,0,1-2.69-.81c-2.26-.84-4.35-2.2-6.85-2.22-2.1,0-2.1,0-1.56,2,.7.49.49,1.48,1,2.06a8.29,8.29,0,0,1,2.17,3.78,22.24,22.24,0,0,0,5.87,6,4.32,4.32,0,0,1,1.93,2.78,36.79,36.79,0,0,0-3.72-1.07c-5.44-1-9.83-3.88-13.57-8A91.1,91.1,0,0,1,86,185.7c-.38-.46-.73-1.26-1.38-.92s-.15,1-.07,1.53c.17,1.16.71,2.25.57,3.46.65,1,.53,2.18,1,3.2l3,5.62c1.41,1.44,3,2.82,3.7,4.75,1.08,3.08,3.31,5,5.54,6.93,1.45,1.29,2.8,2.71,4.24,4,.65.6.31,1.32.23,1.91-.06.43-.59.11-.88-.09-3.18-.24-6.35-.5-9.53-.71-.39,0-1-.36-1.19.39-.13.53.33.77.63,1,.51.42,1.07.78,1.6,1.17,2.23,1.64,4.69,2.95,6.73,4.89-21.73,0-30.89-.63-52.62-.57C46.27,222.31,49.77,216.75,49.77,216.75Z"/><path class="cls-1" d="M260.63,173.14c4.36-.77,4.39-3.25,5.33-4.25-.48-1.13-1.66-1.53-2.44-2.37-1.74-1.87-1.79-2.09.48-3.26a9.24,9.24,0,0,0,5.23-6.35,21,21,0,0,1,1.32-3.3c-.28-.4.35-1.07-.22-1.26s-.83.47-1.12.91c-.1.17-.32.27-.49.4-3.57,4.78-8.06,7.91-14.26,7.86.7-.47,1.54-.69,2.26-1.12.4-.24,1.37,0,1.14-.84-.14-.51-.89-.46-1.42-.56a8.19,8.19,0,0,1-3.36-1.2c-1.2-.85-1.29-1.48-.15-2.44a7.3,7.3,0,0,1,3.23-1.81c5.44-3.39,8.68-8.88,13.08-13.29a3.72,3.72,0,0,0-2.93.73c-3.16,2.36-6.55,2-10,1-.29,0-.61-.06-.67-.34-.09-.46.32-.32.53-.3a3.88,3.88,0,0,0,2.45-.71,12.38,12.38,0,0,1,1.61-1.1,11.76,11.76,0,0,0,4.71-3.57c2-2.66,4-5.3,5.95-7.94.68-1.28.25-1.81-1.13-2.17a7.76,7.76,0,0,1-5.66-5c-.86-2.34.13-3.9,2.56-3.84a7.54,7.54,0,0,0,4.64-1.27c2.76-1.59,3.23-4.87,5.2-7.09,1.3-1.45.82-2.15-1-2.84a8,8,0,0,1-1.38-.48c-1.9-1.19-3.73-2.78-2.49-4.59.88-1.3,1.84-2.45,3.57-2.71a3,3,0,0,0,2.76-2.66,6.77,6.77,0,0,1,.78-2.5,14,14,0,0,0,2.07-7.4c.05-1.65.09-3.31.17-5q.15-2.9.37-5.79c0-.55.24-1.12.94-1.19s.75.45.84.86c.5,2.16,1.71,4,2.46,6.08.62,1,.26,2,.28,3.07.05,2.64-.24,5.31.76,7.86h0c.55.47.29,1.13.34,1.69a5.39,5.39,0,0,0,.95,3.07,7.2,7.2,0,0,1,1.71,5.46c.73,1.8,2.47,2.38,3.95,3.27s1.65,1.54.7,3.2a4.07,4.07,0,0,1-1,1.43c-.57.67-1.32,1.5-.39,2.49.31,0,.56.14.61.46a5,5,0,0,0,3.9,4.39c1,.29,1.91.81,2.88,1.19a12.56,12.56,0,0,1,5.37,3.7c.88,1.09.71,1.9-.53,2.55a4.52,4.52,0,0,1-.74.35c-1.5.38-2.39,1-1.08,2.57a.49.49,0,0,1,0,.73c-.3.23-.61.05-.92-.06-2.14-.76-4.18-1.78-6.6-1.59-1.33.1-1.69.44-1.16,1.64a.13.13,0,0,1,.2.07c.87,1.18,1.84,2.28,2.81,3.38,1.74,2,4.18,3.09,5.83,5.14a5.13,5.13,0,0,0,4.36,2,5.87,5.87,0,0,1,2.52.61,14.26,14.26,0,0,1,4.21,3.15c1.62,1.53,3.23,3,5.69,3,.94,0,1.58.74,2.37,1.11.22.1.53.37.31.64s-.58.16-.84-.09c-1.05,0-2.09,0-3.14.07a1.35,1.35,0,0,0-1.49,1.23c.52.67,1,1.35,1.75,2.29-.88-.21-1.45-.26-1.77-.86a6.34,6.34,0,0,1-2.49-.72c-2.08-.73-4-1.92-6.31-1.94-1.94,0-1.94,0-1.45,1.78.65.43.46,1.3.94,1.81a7.14,7.14,0,0,1,2,3.31,19.74,19.74,0,0,0,5.42,5.24,3.76,3.76,0,0,1,1.77,2.44c-1.25-.35-2.32-.76-3.43-1a22.2,22.2,0,0,1-12.52-7,79.94,79.94,0,0,1-7.32-7.74c-.36-.39-.68-1.09-1.28-.8s-.14.89-.07,1.35a10.43,10.43,0,0,1,.53,3c.6.84.49,1.91.94,2.8l2.76,4.93c1.3,1.27,2.79,2.47,3.41,4.17,1,2.7,3.05,4.35,5.11,6.08,1.34,1.13,2.59,2.37,3.91,3.52.61.52.29,1.16.21,1.68s-.53.09-.81-.09c-2.93-.21-5.86-.44-8.79-.61-.36,0-.94-.32-1.1.33-.12.47.3.68.59.9.46.38,1,.69,1.47,1a61.21,61.21,0,0,1,6.21,4.29c-20.05,0-28.51-.55-48.56-.5C257.39,178,260.63,173.14,260.63,173.14Z"/><path class="cls-1" d="M184.47,167c7.32-1.29,7.37-5.46,8.94-7.13-.79-1.9-2.78-2.57-4.08-4-2.92-3.15-3-3.52.8-5.49,4.48-2.31,7.61-5.55,8.76-10.63a36.39,36.39,0,0,1,2.22-5.54c-.47-.67.58-1.8-.36-2.11s-1.4.79-1.88,1.53a3.39,3.39,0,0,1-.82.66c-6,8-13.52,13.27-23.93,13.19,1.18-.8,2.59-1.17,3.8-1.89.67-.4,2.3,0,1.92-1.4-.24-.86-1.5-.77-2.39-.94a13.64,13.64,0,0,1-5.63-2c-2-1.42-2.17-2.48-.26-4.09a12.42,12.42,0,0,1,5.42-3c9.12-5.68,14.56-14.89,21.93-22.29a6.33,6.33,0,0,0-4.91,1.23c-5.3,4-11,3.32-16.8,1.68-.49,0-1-.09-1.12-.57-.15-.77.53-.54.89-.5a6.5,6.5,0,0,0,4.1-1.19,19.81,19.81,0,0,1,2.7-1.84,20,20,0,0,0,7.91-6c3.29-4.46,6.64-8.88,10-13.31,1.14-2.14.42-3-1.9-3.65a13,13,0,0,1-9.49-8.3c-1.44-3.92.23-6.54,4.29-6.43a12.57,12.57,0,0,0,7.78-2.13c4.64-2.66,5.43-8.16,8.73-11.89,2.17-2.44,1.38-3.61-1.74-4.77a12.83,12.83,0,0,1-2.31-.8c-3.2-2-6.27-4.66-4.19-7.71,1.48-2.16,3.09-4.1,6-4.53a5.07,5.07,0,0,0,4.64-4.46,11.6,11.6,0,0,1,1.31-4.2,23.61,23.61,0,0,0,3.47-12.4c.09-2.78.14-5.56.28-8.34q.24-4.86.63-9.71c.07-.93.4-1.88,1.57-2,1-.09,1.26.75,1.42,1.43.82,3.63,2.85,6.77,4.12,10.21,1,1.63.43,3.43.46,5.14.09,4.43-.4,8.9,1.27,13.18h0c.93.78.5,1.9.58,2.83.17,1.86.4,3.69,1.59,5.15A12.07,12.07,0,0,1,233,47.11c1.23,3,4.14,4,6.63,5.48s2.75,2.58,1.17,5.37a6.81,6.81,0,0,1-1.59,2.4c-1,1.13-2.21,2.52-.65,4.18.51,0,.93.24,1,.76a8.44,8.44,0,0,0,6.54,7.37c1.67.48,3.21,1.36,4.84,2a21,21,0,0,1,9,6.21c1.47,1.83,1.18,3.18-.9,4.27a7,7,0,0,1-1.24.58c-2.52.64-4,1.67-1.81,4.31a.82.82,0,0,1,0,1.23c-.5.38-1,.09-1.54-.1-3.58-1.28-7-3-11.06-2.67-2.23.17-2.83.74-1.94,2.75a.22.22,0,0,1,.33.11c1.46,2,3.08,3.83,4.72,5.68,2.91,3.29,7,5.18,9.77,8.62a8.58,8.58,0,0,0,7.3,3.33,9.93,9.93,0,0,1,4.24,1c2.83,1.22,4.92,3.25,7.06,5.29,2.71,2.57,5.42,5.08,9.54,5,1.57,0,2.64,1.25,4,1.86.37.18.89.63.53,1.09s-1,.26-1.41-.16c-1.76,0-3.52.06-5.28.11a2.27,2.27,0,0,0-2.49,2.07l2.94,3.84c-1.49-.34-2.44-.44-3-1.45-1.53.1-2.8-.71-4.16-1.19-3.49-1.22-6.74-3.23-10.6-3.26-3.24,0-3.24,0-2.42,3,1.09.72.76,2.17,1.58,3a12,12,0,0,1,3.36,5.55c2.33,3.66,5.64,6.29,9.09,8.78a6.39,6.39,0,0,1,3,4.1c-2.11-.59-3.9-1.27-5.76-1.59-8.41-1.44-15.2-5.69-21-11.77-4.55-3.89-8.3-8.54-12.28-13-.59-.66-1.13-1.84-2.14-1.34-.78.39-.23,1.48-.11,2.25.27,1.7,1.1,3.3.88,5.09,1,1.4.83,3.21,1.58,4.7l4.62,8.27c2.18,2.12,4.68,4.14,5.73,7,1.66,4.52,5.11,7.28,8.56,10.19,2.25,1.89,4.34,4,6.56,5.91,1,.87.49,1.93.36,2.81-.1.63-.9.15-1.36-.14-4.91-.36-9.83-.74-14.75-1-.6,0-1.56-.53-1.84.56-.2.78.5,1.14,1,1.52.79.62,1.65,1.15,2.47,1.72,3.46,2.41,7.26,4.34,10.41,7.2-33.62,0-47.8-.92-81.42-.84C179.05,175.16,184.47,167,184.47,167Z"/><path class="cls-1" d="M87.75,173.56c4.63-.88,4.66-3.7,5.66-4.83-.51-1.28-1.76-1.74-2.59-2.69-1.84-2.13-1.9-2.37.51-3.71a10.29,10.29,0,0,0,5.54-7.19,26.23,26.23,0,0,1,1.4-3.76c-.29-.45.37-1.21-.22-1.42s-.89.53-1.19,1a2.28,2.28,0,0,1-.52.45c-3.79,5.43-8.55,9-15.13,8.92.75-.53,1.64-.78,2.4-1.27.43-.27,1.46,0,1.22-1-.15-.58-1-.52-1.51-.63a8.32,8.32,0,0,1-3.56-1.37c-1.27-1-1.37-1.68-.17-2.77A7.78,7.78,0,0,1,83,151.31c5.76-3.84,9.2-10.08,13.86-15.08a3.76,3.76,0,0,0-3.1.83c-3.35,2.68-6.94,2.25-10.62,1.14-.31,0-.65-.07-.71-.39-.1-.52.34-.36.56-.34a3.84,3.84,0,0,0,2.6-.81,12.49,12.49,0,0,1,1.7-1.24,12.67,12.67,0,0,0,5-4.06c2.08-3,4.2-6,6.3-9,.72-1.45.27-2.06-1.19-2.46a8.41,8.41,0,0,1-6-5.62c-.91-2.66.14-4.43,2.71-4.36a7.54,7.54,0,0,0,4.92-1.44c2.93-1.8,3.42-5.52,5.52-8,1.37-1.65.86-2.45-1.11-3.23a8.76,8.76,0,0,1-1.46-.54c-2-1.35-4-3.16-2.65-5.22.94-1.46,2-2.77,3.79-3.07a3.31,3.31,0,0,0,2.93-3,8.33,8.33,0,0,1,.82-2.85,16.8,16.8,0,0,0,2.2-8.39c0-1.88.09-3.76.18-5.64q.15-3.3.39-6.58c0-.62.26-1.27,1-1.34s.79.5.89,1c.52,2.45,1.81,4.58,2.61,6.91.65,1.1.27,2.32.29,3.47,0,3-.26,6,.8,8.92h0c.59.53.32,1.29.37,1.92a6.35,6.35,0,0,0,1,3.48,8.6,8.6,0,0,1,1.82,6.2c.77,2,2.62,2.7,4.19,3.71s1.74,1.75.74,3.64a4.8,4.8,0,0,1-1,1.62c-.6.77-1.4,1.71-.41,2.83a.6.6,0,0,1,.64.52,5.6,5.6,0,0,0,4.13,5,33.18,33.18,0,0,1,3.06,1.36,13.25,13.25,0,0,1,5.7,4.2c.93,1.23.74,2.15-.57,2.89a4.14,4.14,0,0,1-.79.39c-1.59.44-2.53,1.13-1.14,2.92a.59.59,0,0,1,0,.83c-.32.26-.64.06-1-.07-2.26-.87-4.43-2-7-1.81-1.41.12-1.79.5-1.23,1.87a.14.14,0,0,1,.22.07c.92,1.35,1.94,2.59,3,3.84,1.84,2.23,4.43,3.51,6.18,5.84a5.3,5.3,0,0,0,4.62,2.25,6.13,6.13,0,0,1,2.68.69,15.75,15.75,0,0,1,4.46,3.58c1.71,1.74,3.42,3.44,6,3.38,1,0,1.67.84,2.51,1.26.23.12.56.42.33.73s-.61.18-.89-.1l-3.33.07a1.47,1.47,0,0,0-1.58,1.4l1.86,2.6c-.94-.23-1.54-.29-1.89-1a6.34,6.34,0,0,1-2.63-.8c-2.2-.83-4.25-2.19-6.69-2.21-2,0-2,0-1.53,2,.68.49.48,1.47,1,2.05a8.2,8.2,0,0,1,2.13,3.76A21.7,21.7,0,0,0,146,157.7a4.37,4.37,0,0,1,1.88,2.77c-1.34-.4-2.47-.85-3.64-1.07-5.32-1-9.61-3.85-13.27-8a89.1,89.1,0,0,1-7.77-8.78c-.37-.45-.71-1.24-1.35-.91s-.15,1-.07,1.53a13.3,13.3,0,0,1,.56,3.44c.64.95.52,2.17,1,3.18l2.93,5.6c1.37,1.43,3,2.8,3.61,4.73,1,3.06,3.23,4.93,5.42,6.89,1.42,1.28,2.74,2.7,4.15,4,.64.6.3,1.31.22,1.9-.06.43-.57.11-.86-.09-3.11-.24-6.21-.5-9.32-.7-.38,0-1-.36-1.17.38-.13.53.32.77.62,1,.5.42,1,.77,1.56,1.16,2.19,1.63,4.59,2.94,6.59,4.87-21.26,0-30.22-.62-51.47-.57C84.33,179.09,87.75,173.56,87.75,173.56Z"/></g></g></svg>