<svg width="1439" height="193" viewBox="0 0 1439 193" fill="none" xmlns="http://www.w3.org/2000/svg">
<path d="M-5.10655 68.248C-3.54578 75.1731 -2.32853 82.1114 -2.16424 89.0575C-1.99995 96.0299 -2.84381 103.008 -2.97823 109.98C-3.23213 123.841 -2.51523 137.704 -1.54441 151.56C-1.17102 156.862 -0.215147 162.193 -0.431713 167.495C-0.558665 170.596 -1.31291 173.695 -1.94021 176.786C-3.0305 182.149 -4.30003 187.595 -3.87436 193H1451C1450.75 192.33 1450.51 191.663 1450.26 190.994C1444.6 176.455 1452.46 155.903 1448.25 141.297C1444.23 127.336 1442.67 119.169 1445.61 100.371C1447.41 88.8763 1444.74 75.4699 1446.49 60.7661C1448.22 46.199 1449.65 31.7368 1449.04 17.1565C1448.94 14.9217 1447.14 12.7183 1444.78 10.5229C1364.65 22.0017 1276.69 27.2409 1190.41 26.046C1138.56 25.3264 1089.18 20.6729 1039.98 15.0845C991.47 9.57486 943.153 3.54787 892.678 0.774674C866.257 -0.283659 839.888 -0.246892 813.467 0.819319C774.127 2.95962 735.929 6.95923 697.836 10.9877C661.505 14.8298 625.033 18.6482 587.545 20.8016C566.956 21.9834 546.18 23.0391 525.271 22.8185C506.146 22.6189 486.909 21.6577 468.179 20.2869C408.81 15.9432 354.012 5.76959 294.075 2.30834C278.453 1.73059 262.808 1.67806 247.17 2.25056C225.768 3.41919 204.574 4.987 183.022 5.95867C162.478 6.88569 141.867 7.5895 121.323 8.5139C99.5694 9.61162 77.5917 10.993 57.018 13.7452C33.0613 17.687 10.7177 22.8132 -13 26.8837C-12.649 40.7077 -8.20568 54.4739 -5.09908 68.248H-5.10655Z" fill="url(#paint0_linear_459_1477)"/>
<defs>
<linearGradient id="paint0_linear_459_1477" x1="724.048" y1="-77.542" x2="722.93" y2="257.973" gradientUnits="userSpaceOnUse">
<stop offset="0.11" stop-color="white"/>
<stop offset="0.19" stop-color="#F6F9F2"/>
<stop offset="0.34" stop-color="#E1EAD2"/>
<stop offset="0.54" stop-color="#BED29D"/>
<stop offset="0.78" stop-color="#90B256"/>
<stop offset="1" stop-color="#94BA63"/>
</linearGradient>
</defs>
</svg>
