<svg width="1439" height="130" viewBox="0 0 1439 130" fill="none" xmlns="http://www.w3.org/2000/svg">
<path d="M-5.10655 45.9702C-3.54578 50.6347 -2.32853 55.3082 -2.16424 59.9869C-1.99995 64.6833 -2.84381 69.3833 -2.97823 74.0798C-3.23213 83.416 -2.51523 92.754 -1.54441 102.087C-1.17102 105.658 -0.215147 109.249 -0.431713 112.82C-0.558665 114.91 -1.31291 116.997 -1.94021 119.079C-3.0305 122.691 -4.30003 126.36 -3.87436 130H1451C1450.75 129.549 1450.51 129.1 1450.26 128.649C1444.6 118.856 1452.46 105.013 1448.25 95.1739C1444.23 85.7704 1442.67 80.2691 1445.61 67.6073C1447.41 59.8649 1444.74 50.8346 1446.49 40.9306C1448.22 31.1185 1449.65 21.3771 1449.04 11.5562C1448.94 10.0509 1447.14 8.56676 1444.78 7.08796C1364.65 14.8198 1276.69 18.3488 1190.41 17.5439C1138.56 17.0593 1089.18 13.9248 1039.98 10.1605C991.47 6.44939 943.153 2.38976 892.678 0.521801C866.257 -0.191066 839.888 -0.166301 813.467 0.551873C774.127 1.99353 735.929 4.68756 697.836 7.40105C661.505 9.98896 625.033 12.5609 587.545 14.0114C566.956 14.8074 546.18 15.5185 525.271 15.3699C506.146 15.2355 486.909 14.5881 468.179 13.6647C408.81 10.739 354.012 3.88625 294.075 1.55484C278.453 1.16568 262.808 1.1303 247.17 1.51592C225.768 2.30308 204.574 3.35912 183.022 4.01361C162.478 4.63803 141.867 5.1121 121.323 5.73475C99.5694 6.47415 77.5917 7.40459 57.018 9.2584C33.0613 11.9135 10.7177 15.3664 -13 18.1082C-12.649 27.4197 -8.20568 36.6923 -5.09908 45.9702H-5.10655Z" fill="url(#paint0_linear_459_1477)"/>
<defs>
<linearGradient id="paint0_linear_459_1477" x1="724.048" y1="-52.2303" x2="723.541" y2="173.766" gradientUnits="userSpaceOnUse">
<stop offset="0.11" stop-color="white"/>
<stop offset="0.19" stop-color="#F6F9F2"/>
<stop offset="0.34" stop-color="#E1EAD2"/>
<stop offset="0.54" stop-color="#BED29D"/>
<stop offset="0.78" stop-color="#90B256"/>
<stop offset="1" stop-color="#94BA63"/>
</linearGradient>
</defs>
</svg>
