<?xml version="1.0" encoding="UTF-8"?>
<svg id="_圖層_2" data-name="圖層 2" xmlns="http://www.w3.org/2000/svg" xmlns:xlink="http://www.w3.org/1999/xlink" viewBox="0 0 1967.2 867.74">
  <defs>
    <style>
      .cls-1 {
        fill: #57654c;
      }

      .cls-2 {
        clip-path: url(#clippath);
      }

      .cls-3 {
        fill: none;
      }

      .cls-4 {
        fill: #94ba63;
      }
    </style>
    <clipPath id="clippath">
      <rect class="cls-3" x="4.44" width="1919.88" height="867.74"/>
    </clipPath>
  </defs>
  <g id="_圖層_1-2" data-name="圖層 1">
    <g class="cls-2">
      <g>
        <path class="cls-4" d="m1893.38,440.07c-45.67-22.03-113.43-55.41-115.55-60.5-3.2-7.7-79.99-70.81-79.99-70.81,0,0-55.54-22.52-64.35-28.06-8.82-5.54-58.9-31.73-65.32-40.91s-58-2.09-84.73-19.79c-26.73-17.71-15.51-19.28-54.69-39.36-39.18-20.08-74.2-21.1-76.49-29.04-2.29-7.94-96.82-38.22-126.59-51.47-29.77-13.25-44.37,6.86-54.2-5.95-9.83-12.81-25.23-17.66-36.94-15.74-11.71,1.91-17.3.43-17.3.43l-6.54-1.36s-32.24-5.11-50.14-7.1c-17.91-1.99-21.04-4.15-35.05,2.94-14.01,7.08-31.19,6.03-44.43,8.62-13.24,2.59-29.24,2.29-48.15-3.84-18.91-6.13-56.97,11.49-56.97,11.49,0,0-64.49,19.4-75.51,25.53-11.02,6.12-82,30.49-109.55,40.04s-32.3,13.27-32.3,13.27c0,0-44.99-3.86-50.65,2.72-5.67,6.58-22.69.08-28.86,9.48-6.17,9.4-14.65,18.57-21.93,24.59-7.28,6.02-80.16,23.08-94.76,27.57-14.6,4.5-86.44,26.61-86.44,26.61l-38.7,26.5-61.76,33.13s-116.53,87.3-135.53,84.16c-13.29-2.2-26.78,21.36-26.78,21.36l-35.07,9.69-11.34,1.76c-6.71.27-13.42.58-20.13.97-13.61.79-33.06,1.21-46.62,2.57v18.89h0v2.04l2.52,309.79c6.23,0,597.94-206.08,877.46-142.93,38.83,8.77,429.02,100.42,526.15,104.68,410.88,18.02,385.73-.76,526.77-39.34l-2.64-250.11c-20.84-.07-16.07-2.82-36.89-2.51Z"/>
        <g>
          <path class="cls-1" d="m1196.03,173.27c1.01-1.27,2.02-2.55,3.03-3.82,1.43.28,4.42-1.03,3.77,1.58-.79,3.18-4.33,1.97-6.8,2.24Z"/>
          <path class="cls-1" d="m962.56,336.72c.47,0,.94.01,1.42.02-.89-.02-1.33-.03-1.42-.02Z"/>
          <path class="cls-1" d="m264.42,634.51c-2.03-2.35-4.42-3.92-7.55-3.78-1.69.21-3.19-.39-4.65-1.23h0s0,0,0,0c-2.16-2.88-3.6-6.86-8.1-6.24-1.16-1.25-2.31-2.5-3.47-3.74,0,0,0,0,0,0,.35-5.17-1.75-7.9-6.71-7.4-2.24.23-3.55-1.09-4.91-2.54-1.64-2.76-3.44-5.26-6.95-5.02-1.55.03-3.09.05-4.64.08h0c-1.16-.01-2.33-.02-3.49-.04h0c-5.6-5.16-11.31-2.04-16.36.8-8.28,4.66-17.29,3.79-24.1-3.84-1.29-1.45-2.84-2.06-4.57-1.98,3.29,4.15,6.61,8.21,10.6,10.15-1.84-.08-3.6-.65-5.58-1.31-5.11-1.69-7.31-7.26-12.17-8.84.42-8.89-1.27-16.45-10.23-19.87-1.32-.5-2.21-2.21-3.43-3.16-5.55-4.33-9.92-10.27-17.25-12.15-4.03-1.03-8.87-.62-12.03-4.62-3.14-4.57-6.43-2.53-9.72-.24-1.64.9-1.73,5.21-4.55,3.09-4.19-3.15-8.14-1.57-12.24-.37.01,2.49.03,4.98.04,7.46,1.46,1.46,2.88.28,4.31-.09.49-.17.98-.33,1.46-.53,4.2-.8,8.23,3.26,12.59.46.59-.38,1.33,1.23,2.08,1.79,1.72,2.12,4.03,2.06,6.39,2.13,2.47.07,5.6-1.16,7.26.94,3.21,4.03,6.3,7.66,11.52,8.58,1.63.29,1.66,2.56,1.91,4.21.44,2.95,2.29,4.15,4.89,4.31,1.93.12,3.86-.21,5.8.01,3.72.27,3.37,2.79,3.08,5.75-.34,3.55-1.56,7.93,2.81,9.68,5.56,2.24,9.7,6.54,14.16,10.36,2.05,1.76,3.94,3.29,6.7,2.7,2.73-1.44,5.23-3.31,8.19-4.35,1.09-.38,2.18-.42,3.27-.45-2.46.85-4.73,2.32-6.87,4.3-.08,0-.15.14-.22.42-.07.28,0,.55.23.83,4.86-2.28,9.32-6.46,14.99-4.93,4.04-.76,7.55-2.91,10.64-6.19,0-.02,0-.03,0-.05,1.52.37,2.71,1.61,4.06,2.45.69.11,1.37.15,2.05.11-.39.6-.45,1.32.27,2.33,2.52-1.3,4.94-2.85,7.95-2.47,2.23.28,3.74.91,2.5,3.76.77.42,1.54.84,2.31,1.26h0c3.06,2.81,7.33-.19,10.42,2.49-.07,2.8.09,5.52,2.34,7.5,2.13,2.33,6.7-.3,7.7,4.66.92,4.59,3.92,5.51,7.78,3.84.75-.44,1.68-.6,2.49-.95,1.01.18,1.98.52,2.91,1.13.66.35,1.58.51,1.93,1.07.81,1.29,1.22,3.68,3.14,1.87,1.56-1.46,0-2.96-1.01-4.15Zm-71.01-20.12c-.11,0-.21.02-.32.02,1.41-.68,2.42-1.71,2.43-3.5,0-.65-.12-1.12-.32-1.47.91-.15,1.72-.08,1.82,1.52.14,2.3-1.95,3.38-3.62,3.42Zm24.42-4.56c.53-.95.73-2.02.58-3.2.81.32,1.78.34,2.29,1.23-.85.89-1.87,1.41-2.87,1.97Z"/>
          <path class="cls-1" d="m1930.28,504.79c3.76,2.09,7.67,3.69,10.27,7.86,2.17,3.48,1.9,5.48-1.47,7.22-4.88-1.6-9.59-4-14.94-3.3-4.26.56-5.13,2.67-2.34,6.04,4.02,4.86,7.46,10.15,10.82,15.52,3.96,2.41,6.6,6.23,7.99,10.61,2.21,6.99,6.34,12.33,11.05,17.36,1.33,3.08,4.72,2.82,6.74,4.79h0c2.87,2.6,7.05,3.43,8.83,7.51v3.78c-1.34,1.46-3.45,2.53-4.73,1.45-6.72-5.63-15.7-7.17-20.97-15.84-6.61-10.88-11.06-23.43-20.69-32.42-2.29.66-.81,3.8-2.33,5.12-7.98.11-10.16-7.78-14.67-12.41-.97-.99-1.17-2.83-2.41-3.8-6.15-8.57-13.69-16.17-16.53-27.08-.05-1.4.24-2.7,1.08-3.81,8.07,5.05,13.13,13.04,17.87,21.3.76,1.32,1.28,2.75,2.47,3.72-1.6-6.16,1-10.56,7.3-9.99,6.13.55,11.35-1.22,16.68-3.62Z"/>
          <path class="cls-1" d="m1917.94,540.72c0,.61,0,1.22.02,1.83,3.02,8.1,5.36,16.4,9.79,23.99,9.28,15.88,24.14,21.65,39.45,26.97v3.78c-1.76,1.49-3.52,1.65-5.28,0-7.83-4.78-17.43-3.87-25.13-9.2-11.28-7.81-18.33-18.74-21.3-32.69-1.65-7.74-3.87-15.31-9.64-20.49-3.55-3.19-3.1-8.84-7.24-11.24,1.17-1.21,2.35-1.05,3.53,0,4.85,6.12,9.65,12.3,15.78,17.06Z"/>
          <path class="cls-1" d="m736.53,417.95c-.02-3.77-.04-7.54-.07-11.32,6.22-1.82,12.22-4.22,18.56.56,4.27,3.22,4.41-3.32,6.89-4.69,4.99-3.47,9.98-6.57,14.74.36,4.78,6.06,12.12,5.44,18.23,7,11.1,2.84,17.73,11.86,26.15,18.42,1.85,1.44,3.19,4.03,5.2,4.8,13.57,5.18,16.14,16.65,15.5,30.12,7.36,2.4,10.69,10.85,18.45,13.4,4.63,1.53,8.43,2.8,13.2,1.42,4.45-1.29,9.12-1.92,13.8-1.49,2.51.23,5.75-.3,5.73,3.87-.02,3.19-2.13,4.79-4.86,5.81-3.36,1.25-6.87.2-10.3,1.41-4.49,1.59-8.28,4.42-12.42,6.6-4.18.9-7.06-1.42-10.16-4.09-6.76-5.8-13.03-12.32-21.46-15.72-6.63-2.67-4.77-9.31-4.26-14.68.43-4.49.97-8.31-4.68-8.72-2.93-.34-5.87.17-8.79-.02-3.93-.25-6.74-2.07-7.41-6.54-.37-2.51-.43-5.95-2.89-6.38-7.91-1.4-12.6-6.9-17.46-13-2.52-3.17-7.27-1.31-11.01-1.42-3.57-.11-7.07-.02-9.69-3.23-1.14-.86-2.27-3.29-3.16-2.72-6.61,4.24-12.72-1.9-19.08-.7-.73.29-1.47.54-2.21.8-2.17.56-4.32,2.35-6.54.14Z"/>
          <path class="cls-1" d="m1268.85,189.18c-2.01.46-4.33.62-5.96,1.44-3.28,1.66-11.28,1.28-9.66,4.26,2,3.69,10.97,3.42,14.8,2.2,9.23-2.93,15.62-2.55,22.35,2.93,2.75,2.24,8.03,2.92,12.1,4.39,4.72,1.7,2.57,4.79,2.73,7.33.13,2.2-2.12,2.99-4.94,2.99-10.13,0-15.96,6.76-26.15,7.98,15.97-.31,22.37,10.79,35.56,13.14.56.33.74.66.54.98-.19.32-.38.48-.57.48-6.59-.09-11.08,3.7-17.15,4.57-2.2.98-4.69,1.28-6.32-.24-1.2-1.13.57-2.1,1.96-2.8,3.52-3.28,6.58-6.08-2.43-7.95-5.18-1.08-8.43-5.39-14.71-5.52-1.92-1.53-1.7-3.06-.04-4.6,0-.49.02-.99.04-1.48,1.7-1.48,4.49-1.81,6.47-2.99h0c3.08-1.87,7.44-1.53,10.74-3.02h0c2.51-1.3,5.57-1.97,8.46-3.63-2.46-2.88-7.83-2.99-10.61-5.4-6.58-1.26-11.37-6.26-19.38-4.52-4.3,1.72-8.6,2.51-12.9,0-6.87-.78-13.86-.67-15.94-7.42-1.04-3.36-6.85-3.21-11.86-2.52-7.1.97-14.29,2.43-21.67.96-11.18.4-19.12-4.85-28.13-8.11-2.99-1.08-5.55-2.99-8.28-4.53-4.39-2.64-2.01-7.75-7.49-10.01-1.51-1.44-2.57-2.94-1.5-4.77,2.41-1.5,5.23-2.03,8.4-1.76,3.15.96,2.62,3.62,4.77,5.05,7.83,3.36,14.21,8.06,23.03,10.67,10.52,3.11,20.19,3.91,31.4,1.63,8.71-1.77,18.08-.16,24.51,5.07,5.04,4.11,12.77.48,17.85,3.68.7.34.93.67.7,1.01-.23.33-.47.5-.7.5Z"/>
          <path class="cls-1" d="m1051.52,66.5c7.57,1.04,15.43-1.39,22.55,2.3,7.14-.84,53.27,9.63,60.85,11.11,3.94.77-2.98,7.71-65.51,11.58-8.17.51-12.75,24.11-8.75,33.87,1.71,4.16,1.99,8.46,1.86,13.01-4.47,2.86-7.3-.4-9.48-5.39-1.18-2.71-2.62-5.6-3.07-8.51-2.06-13.26-8.41-22.88-13.49-33.58-.66-1.38-.93-2.9-.74-4.55,1.78-4.35,4.5-7.6,6.64-11.44-2.89,1.55-6.01,2.6-9.26,2.75-1.46-.37-2.57-1.26-2.74-3.6.25-3.61,2.65-2.14,4.4-3.47.41-.11-1.18-1.16-.59-.18-2.05,1.18-4.12,1.96-6.23.21-1.97-4.89.23-6.64,2.98-7.98,3.75-.53,7.43-.12,11,1.77,3,2.44,6.12,3.83,9.58,2.12Z"/>
          <path class="cls-1" d="m1525.8,576.52c-1.78-.43-3.23-6.43-5.36-.41-.95,2.69-2.53,4.11-5.23,4.03-3.98-.12-2.76-4.02-4-6.17-3.13-5.38-3.31-10.49.25-15.66,1.71-2.5,1.94-7.9,6.44-5.41,3.57,1.97,5.19,5.89,2.64,10.35-4.02,3.5-.39,4.34,1.72,5.71,8.97-7.24,2.92-17.45,4.15-26.18.51-3.63-3.22-5.95-7.4-6-3.6-.05-7.56,1.55-10.78-1.67,5.64-5.48,11.81-5.45,18.12-1.68,2.28,1.36,4.39,2.87,7.13,2.55,2.19-.14,4.47-1.04,6.4.92.12,3.33,1.45,8.04,4.58,4.51,8.5-9.62,19.67-12.6,30.41-17.04,2.05-.85,3.65-2.99,5.45-4.54,6.11-7.36,13.85-12.69,20.85-18.93,1.54-1.37,3.76-1.56,5.74-.32,1.78,2.7,1.3,5.09-.98,7.38,3.94-1.2,8.2-3.23,11.09,1.1,1.28,1.92-1.36,3.64-3.04,4.86-3.36,1.02-6.4,2.11-8.26,5.95-2.78,5.74-8.51,8.05-12.95,11.87-9.69,8.34-21.88,7.4-32.3,12.42-1.56.75-3.39.89-4.78,2.14-.58.63-1.16,1.26-1.75,1.89-5.8,5.78-11.22,11.94-15.85,18.86h.01c-2.76,2.58-6.84-2.9-9.25,1.75-1.91,2.17-.52,5.84-3.06,7.71Z"/>
          <path class="cls-1" d="m1453.52,252.69c-3.07,3.71-7.34,3.27-9.04.66-6.36-9.76-17.41-11.95-25.29-19.12-2.7-2.46-5.28-4.45-6.11-8.84-1-5.28-6.46-6.24-9.55-9.59-1.66-1.8-6.19-2.74-4.09-5.88,2.6-3.87,4.73.98,6.95,2.15,3.41,1.81,5.87,5.44,10.15,5.86-3.1-4.09-4.9-9.79-9.76-11.4-5.26-1.74-3.26-4.22-1.04-7.29,7.96.7,13.03,6.84,18.22,11.93,10.55,10.35,19.86,22.1,27.86,35.06,1.2,1.94,2.44,3.78,1.69,6.45Z"/>
          <path class="cls-1" d="m1613.74,512.29c.62-.96,1.24-1.93,1.86-2.89-3.27-1.06-6.51-2.02-9.08,1.6-.84,1.18-1.81,2.91-3.23,1.03-.99-1.3-2.28-3.13-.31-4.8.65-.56,1.64-.65,2.32-1.17,1.65-1.27,1.3-3.27,1.39-5.08-1.71-6.44,2.95-5.22,5.99-5.53,5.65-.58,11.5.99,16.91-1.95,3.5,0,6.99,0,10.49,0,3.53,1.39,7,2.88,9.38,6.25,13.61,6.63,27.13,13.49,42.01,16.36,1.62.86,2.98,2,3.61,3.92-1.63,5.73-8.69,3.16-10.81,8.16-1.59.98-3.28,1.08-5.02.64-4.47-3.24-9.42-2.68-14.37-2-5.71-4.91-11.84-8.77-19.47-8.78-1.19-.01-2.37-.02-3.56-.03-2.35-1.43-5.46-1.68-6.63-4.93-1.26-1.12-2.09-2.81-3.95-3.3.37,2.8,4.51,2.65,4,6.01-2.89,5.4-7.49,4.59-11.07,2.16-3.38-2.29-7.32-3.1-10.47-5.65Z"/>
          <path class="cls-1" d="m1145.97,225.4c-2.32-3.78-2.75-8.92-7.05-11.28-1.18-.14-2.11-.77-2.94-1.63-1.77-2.1-3.09-4.55-4.76-6.74-.49-.66-.92-1.35-1.34-2.06-7.24-12.45-17.34-22.19-26.84-32.48-5.95-8.03-13.27-14.76-18.92-23.08-1.69-2.49-4.14-4.41-4.51-7.77.3-5.14,3.39-4.45,6.56-3.65,2.91,1.07,5.27,2.95,7.02,5.69,6.29,7.61,12.64,15.16,18.85,22.86,18.6,23.08,37.14,46.23,55.74,69.31.74.91,1.86,1.47,2.8,2.19,1.64,2.03,3.92,3.54,4.52,6.42-2.52,8.99-6.67-.47-9.86,1.02-7.63-4.83-15.14-9.81-19.25-18.8Z"/>
          <path class="cls-1" d="m1112.57,512.35c-.15,1.92-1.03,4.94-2.24,4.5-6.93-2.52-12.42,3.55-18.88,3.11-1.4,1.81-3.08,2.87-5.36,2.3-5.16-3.83-8.51,1.27-12.54,2.99-5.15,2.64-7.8,9.64-14.49,9.63-8.07.53-15.32,1.38-14.35,13.63.36,4.57-6.85,8.41-10.81,6.68-4.86-2.13-2.55-6.09-1.9-9.61,1.31-7.05,3.21-13.85,6.8-20,3.5-6.95,9.95-9.63,16.22-8.99,6.82.7,9.65-2.32,11.82-8l-.02.02c8.23-4.86,17.42-2.97,26.14-3.8,5.5-.52,10.9-.36,15.91-3.23,3.05-.15,4.76,1.5,5.39,4.61.34,2.35-.3,4.38-1.71,6.17Z"/>
          <path class="cls-1" d="m617.7,355.18c3.67-2.45,8.94-1.81,11.3-6.81,4.83-4.05,10.68-5.81,16.1-8.55,5.88.07,9.86-4.41,14.51-7.28,7.78-6.36,15.13-13.25,22.49-20.13,2.1-1.97,3.79-6.45,7.14-4.09,3.27,2.31.94,6.17-.13,9.35-1.44,2.05-2.11,4.59-3.76,6.51-3.13,5.04-10.44,6.23-11.2,13.46-1.58,3.69-4.89,4.79-8.03,6.13-2.66,2.02-5.32,4.04-7.98,6.06-12.13,7.16-25.21,10.71-38.7,12.73-3.66-1.54-7.66-3-1.73-7.39Z"/>
          <path class="cls-1" d="m787.29,184.33c-1.1,2.89-4.14,4.61-6.52,5.32-9.16,2.73-18.21,4.23-25.47,1.64-5.53-1.97-2.28-11.4,5.04-15.4,2.28-1.25,4.79-1.89,7.18-2.87,2.02-.83,6.39.39,4.98-3.66-.78-2.22,1.43-7.91-5.89-4.79-9.26,3.95-17.62,10.52-27.32,13.65-3.79,1.23-9.29,6.45-4.86,9.62,5.45,3.9.22,5.98-4.27,8.42-2.05,1.11-4.19,1.95-6.3,2.91-6.24,2.87-12.44,5.87-18.6,9.06-2.8,1.45-5.49,2.69-5.74-.66,6.58-5.42,14.47-7.13,21.44-11.5,3.91-2.45,6.89-4.38,6.7-8.89-.24-5.67,4.61-11.02,13.07-14.63,4.56-1.94,8.66-4.75,13.1-6.73,4.76-1.35,9.36-3.33,13.92-6.09,2.65-1.61,5.61-3.12,8.42-2.74,2.02-.09,4.15-.41,6.02-.22,3.01.31,7.76-1.19,8.47,1.67.84,3.37-5.42,4.22-6.53,6.57-4.17,8.82-12.66,11.78-20.53,15.85-2.33,1.21-4.97,2.85-5.06,5.29-.07,1.98,2.12,2.37,3.96,2.59,2.1.24,4.46-.02,6.71-.07,2.52-1.63,4.94-2.31,7.2-1.72,3.6-.81,7.03,0,10.83-2.64Z"/>
          <path class="cls-1" d="m1784.87,457.92c1.59.93,3.19,1.85,4.78,2.78.89,5.18,5.3,6.72,8.75,8.26,5.66,2.53,10.91,4.54,10.84,12.58-.02,2.31,1.98,3.32,3.79,2.46,10.77-5.1,18.07,4.76,26.53,8.05,4.29,1.67,9.69,3.38,13.78,6.81,1.54,1.3,4.29,1.7,4.04,4.3-.3,3.01-3.12,3.49-5.34,3.82-2.58.39-5.24.17-7.86.21-4.77,3.94-8.83.99-12.45-1.97-4.05-3.31-8.4-5.22-13.39-5.68-4.17-.68-7.4-3.03-9.99-6.5-5.58-11.58-16.58-17.34-24.59-26.33-2.01-2.26-4.56-4.01-5.17-7.38.05-.97.49-1.67,1.28-2.13,1.72-.17,3.41-.05,5.02.72Z"/>
          <path class="cls-1" d="m959.54,561.45c9.5.19,17.75-8.38,27.9-4.32,3.28,1.31,6.3-1.4,8.81-3.3,7.78-5.86,15.95-7.11,24.83-3.75,3.5-.19,7.68-2.63,9.55,2.9,1.43,4.22-4.38,14.63-9.19,16.67-4.44,1.88-7-.16-8.81-4.58-.63-1.54-.67-4.79-3.84-3.66-5.34,2.22-10.66,4.5-16.03,6.63-1.31.52-3.33,1.32-4.11.69-8.85-7.08-18.4,1.47-27.35-1.64-4.01-.65-2.93-3.13-1.76-5.64Z"/>
          <path class="cls-1" d="m1731.64,425.97c15.71,8.56,31.18,17.53,45.7,28.3.91,1.12,2.87,1.67,1.77,3.85h0c-3.88,3.78-7.8.76-11.7.08-2.44.27-5.13-1.43-7.21,1.52-5.48,7.72-8.7,8.71-16.42,4.52-2.84-1.54-5.78-2.77-8.62-4.26h0c-9.18-3.85-15.49-11.78-22.52-18.59-4.57-4.43-8.58-9.17-15.56-8.41-1.64.18-3.09-1.55-4.14-3.12,6.77-2.96,14.06-2.54,21.09-3.82.33.26.66.52,1,.78,6.75,8.14,13.46,16.33,21.05,23.6,1.54,1.47,3.19,2.67,5.2,3.33,4.14,1.38,6.85-.86,8.71-4.3,2.26-4.17-1.33-5.4-3.66-6.97-4.65-3.14-10.02-5.22-13.12-10.57-1.05-1.82-2.63-3.47-1.58-5.93Z"/>
          <path class="cls-1" d="m1714.75,362.83c.42-.26.75-.17.98.29,2.21,7.88.58,13.32-7.9,14.56-4.58.67-8.87,3.26-13.67,2.43-2.28-.4-5.15-.79-5.61-3.54-.58-3.42,2.61-3.39,4.68-4.27,1.33-.56,2.55-1.39,3.98-2.19-1.74-3.34-5.29-5.9-7.05-3.92-8.29,9.32-15.27.67-22.71-1.04-1.66-.38-3.51-.66-4.83-1.66-3.65-2.77-4.25-6.91-2.27-10.82,2.18-4.31,5.83-2.49,8.28-.4,6.5,5.55,13.12,7.08,21.67,6.02,8.01-1,15.56,6.9,24.44,4.56Z"/>
          <path class="cls-1" d="m1065.1,167.46c-1.56,3.42-4.24,5.27-6.34,7.89-1.88,2.34-5.24.69-7.45-4.06-1.85-3.98-3.74-8.01-5.19-12.14-1.58-4.52-1.72-8.45,1.62-9.78,1.67-.67,3.26-1.54,4.85-2.4,1.81-.98,3.43-.16,4.57,2.96.92,2.52.71,3.88-1.28,4.54-3.13,1.04-3.24,9.15-.56,13.51,2.19,3.56,3.98,2.64,5.93-3.07.41-1.11,1.22-.55,2.01-.11.78.66,1.41,1.53,1.82,2.66Z"/>
          <path class="cls-1" d="m1137.16,212.21c.59.64,1.17,1.27,1.76,1.91,3.99,8.09-.87,12.85-5.87,17.33-2.7,2.42-6.72,2.79-8.67.11-1.52-2.09-.2-6.15,2.77-7.77,1.68-.91,2.86-2.01,3.67-3.75.91-1.95.73-3.67-1.07-4.84-1.72-1.11-2.54.26-3.45,1.57-1.12,1.61-1.43,4.88-4.11,3.86-3.05-1.16-2.71-4.52-2.57-7.29.48-9.32-3.61-14.64-12.01-16.49-3.38-.75-6.61-2.89-6.65-6.51-.07-6.44-3.82-11.62-4.24-17.79.32-.32.63-.65.95-.98,2.74-1.55,5.87-.81,7.29,1.29,4.39,6.5,10.46,11.2,15.2,16.98,3.91,4.77,7.44,10.19,11.75,14.78h0c2.04,2.28.99,7.05,5.26,7.57Z"/>
          <g>
            <path class="cls-1" d="m965.47,63.11c.22-1.03.34-2.06-.46-3.08-18.07,1.84-31.66,10.1-48.93,14.22-29.89,3.63-30.36,14.68-39.13,14.18-.69-.26-37.59,5.88-12.7,17.03,27.97-2.88,17.47-10.18,28.61-9.06,19.15,1.92,19.66-7.66,19.53,7.09-.04,4.37-.25,8.79-1.08,13.11-1.62,8.49,2.38,14.82,12.2,19.21,5.51-1.11,7.68-4.74,10.2-7.88,10.32-12.86,8.6-26.69,5.4-40.61-8-4.15-9.36.45-10.33,4.56-1.5,6.4.36,13.02-1.76,19.42-.06-6.42.82-12.88-.51-19.22-1.15-5.51,1.52-9.19,7.71-11.83,2.13-.98,3.15-2.77,5.09-3.88-2.21,2.16-1.8,4.22.41,6.23,3.51.5,5.09-3.22,8.69-2.5,0,.08.01.15.01.23-7.5,10.58-3.45,20.72,2.13,30.81,3.6.7,5.34-1.01,5.54-3.08.29-2.93.63-5.86.79-8.8.69,6.03-2.99,12.42,2.61,18.05v14.25c4.77-5.86.15-10.92,5.42-14.26,1.74-3.68,3.16-7.38,4.16-11.06-.02.13-.04.26-.06.39-.76,5-3.21,10.08,1.55,14.76v8.14c.55-8.39,8.65-15.35,8.54-23.69-.14-10.23,2.93-13.41-.48-23.3-1.97-5.71.46-5.21,5.78-4.48,11.28,1.54,11.34,13.74,18.65,19.12,1.73-1.19,20.59-16.02,20.53-17.71-6.96-13.48-40.32-20-58.12-16.35Zm-9.68,24.06c.31.83.49,1.68.61,2.52-.16-.84-.36-1.68-.61-2.52Zm.67,2.86s0-.02,0-.04c0,.01,0,.02,0,.04Zm14.13,7.14c.22-4.31-.3-8.57-1.82-12.74,2.31,3.94,2.39,8.27,1.82,12.74Z"/>
            <path class="cls-1" d="m970.58,131.41v-1.88c-.04.62-.05,1.24,0,1.88Z"/>
          </g>
          <path class="cls-1" d="m1239.33,154.19c-9.13.59-17.05-3.88-25.08-7.37-8.51-3.69-16.87-7.53-26.44-8.49,1.69,8.41,12.37,7.24,12.8,15.89-8.47-1.64-15.22-6.83-20.11-13.8-6.64-9.46-12.06-19.9-18.06-29.88-1.11-1.84-2.83-3.47-.75-5.72,1.97-2.14,3.78-.53,5.58.37,3.11,1.56,5.23,4.32,6.08,7.7,2.69,10.67,10.28,15.82,18.9,19.7,12.11,5.45,24.34,10.6,36.52,15.88,5.57-2.46,9.17-.73,10.56,5.71Z"/>
          <path class="cls-1" d="m1216.3,317.92c-3.5,2.35-6.28,6.08-4.53,10.02,1.98,4.45,3.79,10.51,9.95,10.63,5.12.1,8.28,3.03,7.76,7.86-.55,5.14-5.46,3.32-8.71,3.53-3.49.23-7.02.18-10.52,0-5.39-.28-9.39-3.69-9.46-9.09-.09-7.47-3.09-15.79,3.32-22.28,2.31-2.34-.11-4.58-.18-6.86-.09-2.99-4.06-7.26,1.81-8.91,8.59,1.53,10.76,4.64,10.55,15.1Z"/>
          <path class="cls-1" d="m1196.95,261.29c1.15-5.78,3.58-7.6,6.97-1.83,3.99,6.79,9.16,6.69,15.09,4.08,3.19-1.4,6.48-3.97,9.66-.66,2.92,3.03.13,6.62-.51,9.61-1.04,4.87-2.43,9.3-.96,14.49,1.12,3.97-1.95,7.04-4.59,9.18-2.11,1.71-3.54-.82-4.55-2.78-5.73-8.5-14.59-13.89-19.72-23.01-1.64-2.93-4.2-5.46-1.38-9.07Z"/>
          <path class="cls-1" d="m819.75,128.99c5.47,1.79,6.38,6.33,4.87,11.18-1.39,4.48-3.87,8.25-9.48,7.79-5.67-.46-11.32.9-15.85-5.04-2.92-3.83-8.14-2.75-12.49-2.56-5.05.21-7.86-1.8-7.49-7.59.44-.74.99-1.37,1.65-1.88,4.15-3.34,8.36-6.59,12.44-10.02,5.46-1.83,7.54,3.43,10.91,5.98,3.66,2.78,6.94,7.49,12.12,2.83,1.01-.76,2.05-1.38,3.32-.69Z"/>
          <path class="cls-1" d="m1684.08,527.37c-.67-9.32,8.2-3.06,10.55-7.44,10.96,2.6,23.76-1.94,32.34,10.04,2.02,2.82,5.76,2.59,8.98,2.67,4.09.1,7.5,1.27,8.49,6.24-1.11,3.79-3.41,3.04-5.85,1.79-4.59-.01-9.15-.57-13.21,2.96-1.81,1.57-4.43,1.3-6.19-1.09-2.08-2.3-3.52-5.63-7.49-2.21-4.35,3.75-8.46,2.59-11.39-2.63-4.45-5.19-12.93-3.07-16.22-10.33Z"/>
          <path class="cls-1" d="m1610.22,359.44c4.4,4.44,8.82,8.86,13.18,13.35,1.01,1.04,2.29,2.15,1.64,3.94-.68,1.86-2.38,1.54-3.75,1.54-8.72.05-17.47.44-26.17-.1-8.67-.54-7.97-10.42-11.91-15.69-2.14-2.85,2.58-4.93,4.33-5.46,4.93-1.49,9.24,2.27,13.75,3.83,2.71.93,4.14,1.69,5.41-1.42,1.17-1,2.34-1,3.51,0Z"/>
          <path class="cls-1" d="m724.17,265.26c2.22.12,4.49-.01,6.64.42,4.25.86,5.64,3.08,2.14,6.99-1.35.74-2.75,1.34-4.26,1.53-11.43,1.43-11.56,1.4-14.97,13.49-1.45,5.13-3.62,9.1-8.5,11.47-5.35,2.6-7.92,8.08-10.72,13.18-1.35,2.47-1.87,5.58-4.97,6.59-2.08-1.88-.49-4.04.16-5.78,1.37-3.68.53-6.7-1.25-9.67,7.3-9.39,14.7-18.71,20.68-29.13,3.82-5.35,8.89-8.26,15.04-9.09Z"/>
          <path class="cls-1" d="m1289.29,134.65c3.69,4.42,8.45,7.38,13.13,10.21-1.39,3.14-4.3,3.9-5.43,2.83-9.66-9.16-20.83.4-31.13-3.29-7.71-2.76-12.59-9.34-9.55-17.53,1.35-3.65,3.33-5.8,7.23-2.48,1.72,1.47,4.25,1.85,6.42,2.72,6.59,2.09,14.73-.39,19.35,7.55Z"/>
          <path class="cls-1" d="m1499.43,363.18c-4.23-7.78-12.46-4.06-18.33-7.25-1.89-1.03-4.68.31-6.3-2.15,8.76-.4,17.25,2.93,26.09,1.99,5.33-.57,6.88,6.66,11.76,7.29,6.05.78,11.95,2.38,18.18,2.16,10.47-.37,20.97-.59,31.36,1.69,2.22.49,4.81.4,6.38-2.02,1.64-2.51-.4-3.93-1.61-5.62-1.43-2-4.7-3.2-2.21-6.91,1.84-2.73,3.67-4.73,7.11-4.27,2.96.39,5.82-.2,8.44-1.86.59.69,1.04,1.48,1.37,2.34-6.17,7.89-4.26,22.87-18.23,23.96-12.6.32-25.22,1.59-37.64-1.81-1.87-2.71-4.6-1.61-7.03-1.86-6.35-2.29-14.02.56-19.35-5.69Z"/>
          <path class="cls-1" d="m1903.36,539.72c-18.28.02-36.56.32-54.82-.15-4.11-.1-8.18-2.84-12.24-4.42-4.67-1.82-9.92-2.28-13.06,1.73-4.51,5.75-7.11,2.84-10.26-.84-2.76-13.55-6.65-27.27,5.25-38.51,4.5,4.47,1.44,8.73-.81,12.41-3.82,6.24-3.46,12.04.11,18.02,28.14,6.86,56.44,11.07,85.31,6.13.75,1.8,1.51,3.6,2.26,5.4-.32.65-.68.9-1.09.75-.42-.15-.63-.32-.65-.52Z"/>
          <path class="cls-1" d="m1385.18,218.32c-.81-4.26-3.36-6.93-4.37-9.69-.94-2.56-3.38-4.93-4.24-7.74,3.8,2.69,9.95,12.18,10.6,16.49.42,2.78,1.93,5.89,2.83,8.8.21.67.31,1.46.14,1.77-.22.39-.83-.18-1.4-.97-4.52-6.38-9.61-12.03-13.51-19.21-.94-1.73-2.23-3.53-1.2-4.18.99-.63,2.29.74,3.61,2.82,2.24,3.54,4.48,7.08,7.53,11.91Z"/>
          <path class="cls-1" d="m864.59,493.46c5.99-4.79,12.56-7.61,20.18-7.79,2.92-.07,6.59-1.71,6.35-5.19-.28-4.12-4.2-1.54-6.45-2.03-1.96-.43-4.27-.68-6.08.02-16.47,6.37-26.7-4.24-36.84-15.26,3.04-.13,5.75.8,8.02,3,11.97,11.58,27.8,12.89,42.34,5.83,8.87-4.31,18.9-9.03,28.74-1.21-3.03,7.84-8.84,2.68-12.97,3.45,1.68.51,1.95,2.23,1.76,4.23-5.43,4.97-11.61,8.23-18.7,9.38-9.97-2.32-17.8,4.01-26.35,7.47-.4-.42-.53-.84-.4-1.26.13-.42.26-.63.39-.63Z"/>
          <path class="cls-1" d="m1566.25,370.75c5.23-2.34,9.13-5.29,7.22-12.63-.73-2.82.51-5.89,4.1-5.58,3.69.31,2.42-2.5,2.78-4.36,4.92-2.46,9.9-4.43,15.38-2.02,6.65,3.81,13.3,7.68,20.99,8.55,1.38.16,3.29.4,3.36-1.76.05-1.69-1.73-2.29-2.98-3.05-2.92-1.68-6.24-1.21-9.32-2.03-.8-.23-1.56-.57-2.3-.97-7.63-3.15-14.61-7.64-21.64-12.02h0c-1.02-1.01-2.82-1.6-1.78-3.75,5.45-.48,10.38.58,14.41,5,3.25,3.56,7.37,4.86,11.97,4.43,5.18,3.68,12.68.39,17.15,7.06,1.63,2.43,5.27,3.89,3.06,7.33-2.32,3.63-5,8.62-10.17,6.35-2.81-1.23-5.39-1.88-8.28-1.87-1.17,0-2.34,0-3.51,0-2.61.06-4.12-1.97-5.98-3.47-11.53-9.25-18.04-6.82-22.28,8.1-1.82,6.42-6.55,8.28-12.18,8.58-.45-.42-.6-.85-.45-1.27.15-.42.3-.64.45-.64Z"/>
          <path class="cls-1" d="m1743.84,538.78c-2.02-2.27-4.18-3.6-7.36-4.07-5.82-.87-12.01-1.55-15.52-8.12-1.18-2.21-3.61-3.2-6.09-2.89-7.11.88-13.71-1.14-20.24-3.77-1.17-.65-2.34-1.29-3.52-1.94-4.41-5.15-10.87-3.26-16.17-5.4-7.72-3.12-14.78-7.82-22.57-10.78-.5-.91-.48-1.81.04-2.69,16.27,3.97,32.48,8.19,46.98,17.55,2.23,1.44,3.91,4.03,6.9,2.51,8.9-4.52,14.29,2.85,20.23,7.3,2.83,2.12,4.31,4.84,8.77,3.94,8.95-1.81,19.05,11.26,17.36,21.57-.69.57-1.41.62-2.17.16-2.48-4.31-5.12-8.52-6.66-13.37Z"/>
          <path class="cls-1" d="m1849.38,468.96c-1.77-2.47-4.23-3.5-7.01-3.83-6.54-5.12-14.01-8.8-19.99-14.8-2.87-1.97-6.04-3.48-8.65-5.83-1.64-1.48-4.15-3.06-2.91-5.94,1.59-3.69,4.33-3.33,7.14-1.47,2.6,2.14,5.29,4.16,7.78,6.47,9.37,4.56,17.95,12.11,29.36,8.92.77.26,1.42.72,1.98,1.34,2.1,3.35-.17,7.38,1.46,10.81,1.73,5.21,6.33,6.78,10.07,9.56,4.24,3.16,10.38,4.89,9.97,12.45-.35.84-.91,1.44-1.73,1.75-9.14-6.5-19.37-11.23-27.47-19.44Z"/>
          <path class="cls-1" d="m1097.61,174.3c-14.74-1.25-26.32-13.06-28.17-28.59-.4-3.4-1.21-6.73-1.69-10.12-.43-3.05.75-4.1,3.47-2.81,2.48,1.18,4.16,3.47,5.56,5.69,6.58,10.41,14.1,19.95,22.18,29.03.67,2.53.33,4.83-1.37,6.81Z"/>
          <path class="cls-1" d="m981.35,140.96c-1.69.42-3.38.83-5.07,1.25-.37.34-.66.75-.88,1.19-.77-.41-1.62-.4-2.53-.1-.71.45-1.34,1-1.87,1.69-1.09,1.36-1.7,3.07-2.81,4.4,1.11-3.87,3.14-7.22,5.21-10.52,10.59-13.88,9.03-30.2,8-46.41-.15-2.41-1.3-4.06-3.36-4.99-.59-2.03,1.28-4.77-1.41-6.07-.32-.15-1.39,1.48-2.11,2.28-2.31,3.29-1.15,5.66,1.76,7.55.41,15.85,1.51,31.85-8.79,45.3-1.89,1.61-7.55,12.97-8.28,15.99-1.14,4.71.21,8.96,4.42,9.49,3.54.45,8.58-.32,9.03-6.36.24-3.23.35-6.3,3.63-7.8h0c.92,10.07-2.19,17.03-12.22,19.28-2.93.66-5.5,3.09-4.97,6.75.68,4.71,4.57,4.79,7.62,3.96,5.68-1.55,12,1.13,17.1-2.33,6.2-4.21,1.32-11.83,3.63-17.41.24-.57.47-1.16.63-1.76,1.99-7.25-8.73-8.12-6.71-15.39Z"/>
          <path class="cls-1" d="m1089.17,145.07c-.04,2.53-3.11,3.8-5.07,2.2-1.02-.83-1.97-1.78-3.14-2.29-7.67-4.72-11.98-12.75-15.98-20.52-8.03-15.62-14.36-32.27-25.21-46.11-.18-.23-.33-.49-.44-.76-1.07-2.72-1.76-5.46-1.41-8.28.22-1.75,1.89-2.94,3.63-2.63.26.05.52.09.77.14,2.09.38,3.12,2.65,2.16,4.53-.39.77-.63,1.63-.61,2.62.01.75.36,1.46.89,1.99.95.96,1.94,1.86,2.75,2.97.57,1.15,1.46,1.62,2.49,1.8.73.13,1.39.51,1.86,1.09,1.75,2.14,3.2,4.41,2.85,7.45-.08.7.11,1.39.48,1.98,3.47,5.56,5.21,12.5,11.68,15.76,1.66.83,3.37,4.28,3.13,6.25-1.1,9.05,5.61,14.7,7.79,22.28,1.25,4.34,5.34,4.4,8.82,5.29.89.22,1.65.83,2.01,1.66s.54,1.73.53,2.59Z"/>
          <g>
            <path class="cls-1" d="m957.01,192.91c0-1.27,0-2.54-.01-3.81-19.22,3.4-19.31,3.4-19.25,23.82.02,5.2-.38,9.46-4.94,12.88-4.37,3.28-5.9,8.92-7.6,14.32-1.57,4.96-.32,10.58-3.35,15.1-.25.34-.51.69-.76,1.03-.24,4.49-1.75,8.54-3.72,12.43-.66,1.23-.97,2.57-.98,3.99.02,1.99.53,3.77,1.92,5.17,5.74-.87,6.95-4.99,7.16-10.49.18-4.69-1.77-9.77,1.65-14.05.18,1.77-.46,4.22,1.69,4.74,2.06.5,3.06-1.5,3.36-3.42.28-1.83.55-3.83.16-5.59-1.89-8.53,1.63-11.48,9.14-10.87,4.16.34,6.43-1.61,6.83-6.41.43-5.24,1.38-10.43,1.95-15.67.67-6.2-1.7-14.34,7.02-17.4,2.38-.83.45-3.82-.24-5.78Z"/>
            <path class="cls-1" d="m897.19,300.5c-3.06.32-5.15,2.29-7.51,4.27-9.62,8.07-20.3,14.34-31.14,20.31-9.56,2.18-17.08,8.63-25.17,13.87-4.52,5-12.66,4.89-15.29,12.55,6.23,3.34,10.89-.89,15.83-3.79.61,4.93,3.14,9.75,7.72,7.11,8.24-4.75,17.14-.83,25.71-4.64,9.12-4.06,12.36-5.76,10.42-15.93-.92-4.8-2.59-8.93-7.92-3.56-2.6,2.62-5.83,4.07-9.54,3.79,4.83-9.43,14.25-12.3,22-17.47,7.49-5,13.51-12.08,22.37-15.48-3.28-3.78-5.34-.41-7.47-1.04Z"/>
          </g>
          <path class="cls-1" d="m1215.82,113.9c-6.44.2-14.03.56-14.47-10.93-.12-3.3.33-6.4,3.14-8.17,2.78-1.74,5.34.46,7.04,2.11,5.05,4.91,9.77,9.06,17.53,7.23,3.25-.77,3.63,2.6,1.74,5.71-3.59,5.89-8.77,4.66-14.98,4.04Z"/>
          <path class="cls-1" d="m1066.83,535c-1.15,1.82-2.85,1.97-4.65,1.71-15.04-2.1-16.17-1.05-16.43,15.27-.61,1.25-1.22,2.5-1.83,3.75-6.48,5.17-14.24,8.08-19.23,16.03-2.87,4.57-11.35.77-12.41-4.66-1.16-1.9-2.31-3.8-3.47-5.7,2.65-3,3.2.04,4.26,1.69,4.65,7.2,7.26,7.27,12.12.37,5.9-8.38,5.15-10.82-4.09-13.38,2.48-4.9,10.85-3.44,10.57-11.31.89-5.97,2.07-11.71,8.79-13.21-1.21,7.52-6.75,13.52-6.74,21.37,0,2.2-3.28,6.08,1.29,6.67,3.41.44,7.39-1.03,8.31-5.18,3.38-15.25,3.23-15.29,16.5-15.3,2.62-.52,5.07-.34,7.04,1.89Z"/>
          <path class="cls-1" d="m840.89,173.54c2.24,11.05-3.66,16.55-6.78,22.82-2.15,4.33-4.25,8.74-6.27,13.15-.92,2-.09,5.84-3.52,4.8-2.66-.8-2.79-5.15-1.67-6.46,6.43-7.44,1.08-14.52.13-21.74-.32-2.45-.59-5.09-.07-7.44.71-3.23,3.53-5.6,5.47-2.04,4.93,9.05,8.38,4.08,12.72-3.08Z"/>
          <path class="cls-1" d="m1636.6,512.32c1.75,1.89,3.5,3.79,5.25,5.68-8.64,3.14-16.9,3.41-25.4-1.48-3.73-2.15-7.74-.23-9.68,4.94-3.95,10.53-12.17,16.08-21.94,17.53-10.01,1.48-18.78,8-29.15,7.32,4.35-6.07,10.64-7.28,17.12-7.45,5.53-.14,9.58-1.8,13.64-6.53,4.3-5,12.47-4.63,16.5-11.18,2.59-4.21,6.07-7.48,10.78-8.87,3.69.11,6.99-.12,10.17,3.57,3.24,3.76,7.88,3.68,10.91-1.62-.39-1.69.12-2.42,1.78-1.91Z"/>
          <path class="cls-1" d="m767.36,417.99c2.58,5.57,7.22,3.6,11.11,3.63,6.65.06,10.94,1.8,15.34,9.2,3.78,6.36,13.61,6.94,16.55,17.1.89,3.1,7.67-.62,11.74.25,5.02,6.81,5.03,13.21.03,18.88-.15-6.94,2-15.57-9.48-11.08-5.2,2.04-6.19-5.31-7.48-9.19-2.19-6.59-4.87-11.13-11.82-10.02-1.59.25-3.72.02-4-2.3-1.19-9.9-7.6-9.52-13.72-8.85-6,.66-10.49-5.9-16.59-3.92,1.54-4.82,4.26-6.2,8.32-3.71Z"/>
          <path class="cls-1" d="m1216.27,293.39c1.8,6.91,8.35,11.25,8.83,18.87-3.56-.98-1.92,3.48-3.85,4.23-4.16-.62-4.88-4.67-6.45-7.71-1.59-3.06-3.94-5.08-6.54-6.93-4.13-8.95-13.71-13.87-15.72-24.39,1.56-2.85,4.65-2.33,6.94-3.6,7.09,5.03,12.6,11.63,16.79,19.53Z"/>
          <path class="cls-1" d="m1499.43,363.18c6.45,1.9,12.9,3.8,19.35,5.69-10.97,2-21.27-2.6-31.7-4.55-9.86-1.84-17.49-1.76-22.83,8.33-1.63,4.01-4.63,3.66-7.79,2.84-4.43-.42-9.07,2.52-13.32-.95-.59,0-1.17,0-1.76,0-3.21-.51-7.31,1.35-8.79-3.78,7.04-1.21,13.72,2.28,20.7,1.87,5.92-.35,11.26-1.54,10.97-9.83-.18-5.04,2.88-5.14,6.34-5.29,10.03-.45,19.21,3.77,28.81,5.67Z"/>
          <path class="cls-1" d="m1259.56,266.66c19.5,1.28,28.26,19.9,42.22,30.13-7.61-.35-13.76-3.02-17.55-10.89-2.82-5.86-10.01-6.87-13.38-12.7-1.07-1.85-5.19-1.99-6.97.6-1.76,2.56.47,4.69,2.18,6.31,1.74,1.65,3.78,2.93,5.5,4.23-2.5,4.74-5.98,5.01-8.5,6.8.05-4.77-1.63-9.07-3.58-13.15-1.88-3.95-2.12-7.57.08-11.33Z"/>
          <path class="cls-1" d="m1216.27,293.39c-7.58-4.45-9.93-14.5-17.55-18.9-4.05.07-5.33-3.5-7.21-6.29-5.51-8.82-13.42-15.77-17.42-25.76-2.3-1.09-3.51-2.96-3.52-5.68,11.85,4.39,17.67,16.25,26.39,24.53,1.11,7.38,5.19,13.62,10.49,17.06,5.87,3.81,8.39,8.96,10.61,15.02-.6,0-1.19.01-1.79.02Z"/>
          <path class="cls-1" d="m1067.69,121.46c-3.43-1.72-5.86-3.87-7.67-8.05-4.16-9.61-9.95-18.29-17.43-25.46-1.31-1.25-2.68-2.61-4.59-1.81-2.52,1.05-2.32,3.72-1.75,5.58,2.03,6.68,1.48,13.51,1.55,20.31-5.99-1.54-4.39-7.74-6.31-11.79-.27-.85-.47-1.71-.63-2.59-.59-3.93-.28-7.96-1.29-11.85-.2-1.39-.11-2.75.36-4.07.64-1.27,1.57-2.21,2.81-2.78,6.45-.65,11.5,2.5,16.11,6.85.94.89,1.82,1.85,2.69,2.82,7.74,9.3,15,18.9,16.92,31.78-.26.35-.51.71-.77,1.06Z"/>
          <path class="cls-1" d="m825.92,467.05c3.01-6.3,2.36-12.59-.03-18.88,5.53,1.31,7.53,4.14,5.99,10.73-1.45,6.21-3.15,12.66,6.96,15.02,6.4,1.49,12.08,8.31,17.17,13.73,2.65,2.81,5.59,4.12,8.59,5.82,0,.63,0,1.26,0,1.89-.75,1.51-2.07,1.81-3.5,1.87-5.25-1.71-12.18-3.55-14.7-6.99-5.45-7.42-10.58-13.51-19.46-15.78-2.23-.57-2.66-4.57-1.01-7.41h0Z"/>
          <path class="cls-1" d="m890.94,487.88c4.93-5.19,11.52-6.82,17.63-9.49,3.63-3.06,6.21-.54,8.82,1.87,1.32,1.42,2.53,3.15,4.82,2.12,3.81-1.59,7.71-3.35,11.78-1.98,3.31,1.11,7.42,2.58,2.71,7.39-7.84.38-15.69.62-23.2,4.71.08-3.41.77-7.43-3.5-8.14-4.66-.77-9.52,1.31-11.33,5.3-3.16,6.98-7.03,1.03-10.39,1.74-.8.17-.92-.49,2.65-3.52Z"/>
          <path class="cls-1" d="m970.97,140.29c7.53-13.19,10.31-27.47,8.86-42.84-.32-3.42-.06-6.88-1.8-9.97,1.59-1.18,2.65-4.03,5.27-1.89-.92,9.54,1.39,18.84,1.8,28.28,1.01,1.04,1.6,2.31,1.78,3.8-.32,3.8.53,7.79-1.57,11.3-.52.82-1.19,1.45-2.02,1.9-2.28.08-3.44,1.36-3.51,3.79-2.52,3-4.05,6.85-7.02,9.46h0c-3.03.04-2.96-1.59-1.8-3.83Z"/>
          <path class="cls-1" d="m1457.23,374.55c2.56.29,4.84-.6,7.03-1.89,2.38.02,5.06.15,6.22-2.49,4-9.08,10.21-2.88,15.18-2.16,2.55.37,4.05,4.48,1.22,7.63-2.3,2.56-5.35,5.07-8.43,4.32-7.02-1.7-14.49-.14-21.22-3.52-.62-.42-.82-.84-.62-1.26.2-.42.41-.63.62-.63Z"/>
          <path class="cls-1" d="m1145.97,225.4c6.45,5.67,12.89,11.34,19.34,17,.92,1.08,2.89,1.6,1.75,3.77-6.21,7.5-9.64,8.08-14.74-.31-3.54-5.83-11.18-11.26-6.35-20.47Z"/>
          <path class="cls-1" d="m1629.59,493.48c-3.98,5.03-9.45,3.32-14.49,3.81-3.07.3-7.31-1.95-8.42,3.68-3.31.43-6.31,1.84-8.43,4.5-4.99,6.28-11.17,10.72-17.95,14.36-.22-1.19-.93-3.2-.57-3.45,12.32-8.58,19.72-26.63,38.47-23.02,3.69.71,7.59.11,11.39.12Z"/>
          <path class="cls-1" d="m1539.87,536.89c-1.76.6-3.52,1.2-5.28,1.79-6.26-5.28-13.35-9.34-19.34-15.02-2.86-3.25-2.36-6.38.9-8.59,2.53-1.72,5.07-.88,6.65,2.11,2.64,5,8.22,5.45,12.04,8.86,3.56,3.17,5.62,5.99,5.04,10.85Z"/>
          <path class="cls-1" d="m943.72,478.37c2.06,2.2,4.04,4.2,7.44,3.86,7.53-.77,10.71,3.37,10.18,11.21.83,2.41-.49,3.79-2.32,3.99-2.35.26-1.74-2.83-3.01-3.95-4.69-4.06-11.16.48-15.8-3.78-1.68-1.95-.65-4.84-2.15-6.9-1.35-1.86-3.66-3.98-1.14-6.31,2.71-2.51,4.61.82,6.8,1.87Z"/>
          <path class="cls-1" d="m1161.56,173.45c7.39,4.47,14.94,8.69,22.1,13.56,2.51,1.71,4.59,3.77,7.76,3.52-2.54,3.07-5.26,1.41-8.04.46-2.77-.94-5.71-2.5-8.42-2.18-4.93.58-9.37,3.14-9.71-6.02-.16-4.3-6.28-3.56-9.73-4.85-4.51-1.68-5.71-3.28-1.02-6.35,2.63-.59,5.06-.29,7.06,1.87Z"/>
          <path class="cls-1" d="m1193.4,276.41c2.61,10.17,11.83,15.41,15.88,24.51.29.81.39,1.77-.5,2.01-1.5.4-2.27-.89-3.03-2-3.55-4.28-7.51-8.24-10.56-12.89-6.39-9.74-11.57-20.41-19.85-28.67-1.69-1.69-1.59-3.95.51-5.63,9.55,1.53,11.92,10.76,16.46,17.67.8,1.56,1.3,3.19,1.09,5.01Z"/>
          <path class="cls-1" d="m825.92,467.05c-.09,6.16,2.67,9.36,8.47,9.45,2.04.03,5.28-.37,5.61,1.6,2.16,12.82,15.69,10.77,21.09,19.13-10.17,1.72-17.26-3.15-21.35-14.78-.79-2.25-1.98-4.09-4.35-3.64-2.99.56-2.29,2.95-1.62,5.12.76,2.48,1.66,5.35-2.15,5.32-2.78-.02-4.35-2.47-3.54-5.21,1.04-3.5.48-5.58-2.21-8-2.78-2.5-2.56-6,.05-8.99Z"/>
          <path class="cls-1" d="m1395.42,204.08c-5.93.79-10.24,1.93-10.58-5.63-.18-4.01-3.61-3.5-6.12-2.47-3.41,1.41-6.88,1.04-10.36,1.09-3.52.06-4.8-2.08-4.05-5.43.54-2.43-.33-5.07,4.74-4.85,11.78.51,18.45,8.13,26.37,17.29Z"/>
          <path class="cls-1" d="m1684.08,527.37c5.28,4.4,13.38,2.8,17.57,9.5-3.51.71-7.03-2.91-10.54,0-9.65-3.96-20.54-2.25-29.9-7.55-.2-3.74-2.25-5.04-5.5-5.81-3.75-.89-8.15-.94-10.31-5.48,9.01-5.11,13.93,1.95,19.34,7.52,4.65.89,9.66-1.42,14.04,1.83,1.77,0,3.53,0,5.3,0Z"/>
          <path class="cls-1" d="m1893.35,518c0,.31-.02.62-.03.93-.19,6.07-4.77,5.93-7.3,4-4.93-3.77-10.5-8.07-9.36-16.07.48-3.38,1.58-7.15,6.13-3.95,3.95,4.68,10.18,7.54,10.56,15.1Z"/>
          <path class="cls-1" d="m1097.61,166.75c-12.52-7.99-18.48-21.86-26.38-33.98,0-1.26,0-2.51,0-3.77.37-.15.74-.3,1.11-.45,6.49,1.9,6.65,8.84,9.44,13.68,5.91,7.28,11.82,14.55,17.74,21.83,2.06,2.54,5.13,4.35,5.16,8.34-5.54,2.7-5.31-2.9-7.06-5.65Z"/>
          <path class="cls-1" d="m799.46,261.26c-5.36,4.28-9.71,9.92-15.75,13.28,2.92-9.93,12.89-13.62,17.18-22.73,2.77-5.86,9.3-9.28,11.29-16.43.79-2.84,3.28-5.45,6.69-2.38,2.01,2.29.27,4.16-.59,6.13-5.3,8.33-11.91,15.38-18.83,22.13Z"/>
          <path class="cls-1" d="m796.89,119.49c6.64-2.44,11.23-7.63,16.4-12.5,6.78-6.39,15.93-2.3,24.08-2.52-.01.63-.02,1.26-.03,1.89-6.26.58-12,2.8-17.76,5.48-3.96,1.84-6.21,4.06-6,8.73.94,7.18-1.61,8.45-7.06,4.82-3.04-2.26-6.56-3.66-9.62-5.89Z"/>
          <path class="cls-1" d="m956.01,493.48c1.79,1.4,3.59,4.82,5.33-.04,1.76,1.89,3.51,3.79,5.27,5.68-.35.45-.76.85-1.1,1.31.41-.39.77-.83,1.09-1.31,6.83-.93,9.01,5.09,12.29,9.47,2.21,5.17,7.64,1.03,10.65,4.14-.65,4.09-4.18,3.66-6.5,5.02-5.85,2.52-10.4,1.14-11.8-5.83-1.51-7.53-8.44-3.53-11.68-7.07-3.4-2.99-3.65-7.12-3.55-11.37Z"/>
          <path class="cls-1" d="m776.66,402.86c-5.09-2.88-9.84-2.8-14.07,1.85-3.09,2.49-6.25,1.83-9.43.26-5.01-3.72-12.33,0-16.67-5.9,0-1.25,0-2.51,0-3.76,4.45-1.18,7.52,2.57,11.34,3.62,7.49,2.07,14.51-.21,21.32-3.18,5.13-2.24,8.69.48,10.81,4.52,1.91,3.63-1.93,2.01-3.31,2.59Z"/>
          <path class="cls-1" d="m817.1,238.61c.59-1.87,1.19-3.74,1.78-5.61,8.52-7.55,12.49-18.36,17.61-28.34,3.83-.05,7.67-.64,5.59,6.14-1.01,3.31-.28,7.23-.34,10.87,0,0,0,0,0,0-.6.87-1.19.87-1.78-.01-.65-3.44,1.89-8.9-1.77-9.98-3.99-1.17-4.26,4.85-6.01,7.74-4.77,7.88-9.23,15.98-13.77,24.02-1.19,2.1-1.93,4.64-4.83,4.65-.56-3.89,2.02-6.44,3.5-9.46Z"/>
          <path class="cls-1" d="m1266.82,364.02c-.46-.36-1.25-.65-1.34-1.09-2.98-14.76-14.96-19.06-25.33-25.24.28-.55.56-1.11.84-1.66,6.4,4.22,13.84,6.32,19.83,11.47,1.24,1.07,2.49,4.3,4.97,2.09,1.74-1.55,1.75-3.85,1.17-6.1-.63-2.44-1.31-4.87-.01-7.31,1.53-.41,2.55.18,3.05,1.8,1.13,8.99,1.16,17.83-3.17,26.04Z"/>
          <path class="cls-1" d="m1515.26,523.67c7.71,3.13,15,6.88,19.34,15.02-1.97-.16-4.79.52-5.77-.62-6.24-7.22-13.42-4.67-20.6-2.96-1.16-.04-2.32-.09-3.49-.13-.01-1.88-.03-3.76-.05-5.64,1.18.63,2.35,1.25,3.53,1.88,1.85-1.79,3.28-4.03,5.28-5.66.59-.63,1.17-1.26,1.76-1.89Z"/>
          <path class="cls-1" d="m993.77,119.55c-.85-12.03,4.59-23.91.33-36.13,6.96,8.12,5.35,17.77,4.43,26.91-.44,4.31-1.12,8.61-1.17,12.98-2.73,1.69-.87,5.22-3.59,8.86v-12.62Z"/>
          <path class="cls-1" d="m1661.22,529.33c7.53-.24,14.78,2.99,22.39,1.95,3.96-.54,4.43,4.61,7.51,5.61-10.89,1.69-22.11,4.93-29.9-7.55Z"/>
          <path class="cls-1" d="m1566.25,370.75c0,.64,0,1.27,0,1.91-10.36,9.08-21.65-1.08-32.38,1.78-3.09.82-6.46.25-8.06-3.7,13.48,0,26.96.01,40.44.02Z"/>
          <path class="cls-1" d="m1191.68,272.61c-5.22-6.35-8.52-14.55-15.83-18.88-2.64-2.9-5.09-6.06-8.79-7.55-.58-1.26-1.16-2.52-1.75-3.77,2.93-2.48,5.83,8.14,8.78.03,7.26,7.43,13.04,16.21,19.3,24.54-1.4,1.59,0,4.16-1.72,5.64Z"/>
          <path class="cls-1" d="m1205.75,300.93c1.18.16,2.36,2.1,3.53-.01,6.04,3.22,7.77,10.49,12.3,15.13,1.82,1.44,2.89,3.15,1.77,5.65-.55,4.34,7.23,9.37,1.87,11.67-5.2,2.23-4.98-6.51-7.28-10.3-.89-1.47-1.11-3.42-1.63-5.15-2.13-6.15-3.57-12.86-10.55-15.1,0-.63,0-1.26,0-1.89Z"/>
          <path class="cls-1" d="m1893.35,518c-2.49-5.86-9.6-8-10.56-15.1-1.17-3.15-2.34-6.3-3.51-9.45,4.21-2.69,5.22,1.39,7.02,3.81,3.8,9.83,11.44,16.99,15.86,26.39-1.18,0-2.35,0-3.53,0-1.76-1.89-3.52-3.78-5.28-5.66Z"/>
          <path class="cls-1" d="m1289.29,134.65c-5.71-4.7-14.06-1.6-19.35-7.55.26-3.26-2.48-4.91-3.5-7.48,10.59.4,18.79,6.56,26.9,12.92-1.57.2-3.15.41-4.04,2.11Z"/>
          <path class="cls-1" d="m778.43,291.51c-8.21,5.03-16.42,10.06-24.62,15.09-3.03.05-2.94-1.58-1.77-3.79,7.03-5.65,14.06-11.3,21.09-16.95-3.34,7.4,2.28,5.12,5.3,5.66Z"/>
          <path class="cls-1" d="m1524.05,610.62c-.59-.04-1.17-.08-1.76-.12,4.99-3.63,12.1-.66,16.51-8.12,3.05-5.16,2.75-7.34-.69-10.72,2.62-2.21,5.45-3.36,8.77-1.94,1.5,12.66-4.08,20.35-15.11,20.78-2.58.1-5.15.09-7.73.12Z"/>
          <path class="cls-1" d="m959.55,504.84c6.78-.32,13.2-.88,14.6,9.45.7,5.18,4.99,3.66,8.26,1.8,3.26-1.11,6.54-2.33,8.79,1.91-5.96,6.86-14.43,3-18.03.01-4.56-3.78-9.17-8.63-13.62-13.18Z"/>
          <path class="cls-1" d="m1691.11,536.88c3.51-3.61,7.02-1.65,10.54,0,2.45,4.42,5.55,4.96,9.35,1.89,1.65-1.33.5-5.99,4.09-4.62,3.36,1.28,4.46,4.61,4.09,8.39-2.93-.11-5.85-.04-8.43,1.75-4.27,2.96-7.97,2.13-10.2-2.62-2.13-4.52-5.47-5.09-9.45-4.79Z"/>
          <path class="cls-1" d="m1020.23,89.35c0-1.25,0-2.5,0-3.75,7.96,1.68,7.01,10.26,10.43,15.47,1.03,6.11,6.1,11.75,1.92,18.48-6.15-5.93-8.44-14.05-10.43-22.17-.65-2.65-.61-5.51-1.91-8.02Z"/>
          <path class="cls-1" d="m917.34,482.14c-2.76-1.71-5.09-4.54-8.78-3.75.27-2.14-4.9-6.55,2.37-5.84,3.25.32,7.05,1.55,9.92-1.73,1.76.02,3.53.04,5.29.06.58.66,1.03,1.42,1.37,2.26.58,2.9-.14,5.37-2.11,7.43-.65.54-1.37.94-2.15,1.23-1.94.61-3.91.67-5.91.34Z"/>
          <path class="cls-1" d="m1432.6,370.77c2.28,3.01,6.28,1.4,8.79,3.78-.96.55-2.18,1.83-2.84,1.55-8.87-3.72-17.93-6.04-27.55-5.97-1.82.01-5.03-.89-5-3.9.01-1.65,2.41-.88,3.75-1.12,7.83.88,15.65,1.85,22.85,5.67Z"/>
          <path class="cls-1" d="m811,121.41c.68-7.1,9.23-14.09,18.55-14.99,2.57-.25,5.19-.05,7.78-.06-5.07,2.76-10.9,3.19-15.89,6.43-3.18,2.06-7.25,2.51-1.76,7,3.07,2.51.25,4.09-1.7,5.44-3.6,1.42-4.51-2.86-6.99-3.81Z"/>
          <path class="cls-1" d="m922.62,480.25c.59,0,1.17,0,1.76,0,2.1-1.64,4.73-2.39,6.71-4.48-1.13-2.01-3.86-1.08-4.94-3.07,0-.61,0-1.22,0-1.82,2.34-.04,4.69-.08,7.03-.12,5.33-.36,8.06,3.43,10.54,7.61-1.88-.44-3.76-.87-6.25-1.45.05,4.74,4.26,8.19,2.74,12.79-1.17-.64-2.34-1.27-3.5-1.91,1.89-4.32-.4-5.27-3.78-5.7-4.56-.58-8.23,1.78-12.05,3.75-2.01-2.81-.07-4.18,1.76-5.59Z"/>
          <path class="cls-1" d="m1538.1,567.06c1.74-9.71,7.85-15.2,15.85-18.86-.55,6.47-9.37,9.2-6.64,17.78.5,1.57-5.84,1.82-9.21,1.07Z"/>
          <path class="cls-1" d="m768.76,129c2.6-3.99,6.19-6.37,10.53-7.57,3.33-1.91,4.99.09,6.25,3.06-.04,3.66-1.72,6.3-4.48,8.27-.59,0-1.17,0-1.76,0-3.85-.16-7.5-1.01-10.55-3.77Z"/>
          <path class="cls-1" d="m1849.38,468.96c10.41,4.51,18.4,13.17,28.14,18.84.93,1.26.93,2.51,0,3.77-8.27-4.67-14.08-13.96-24.96-13.98-3.85,0-3.04-5.28-3.18-8.63Z"/>
          <path class="cls-1" d="m1511.38,329.34c-2.4-.62-6.52,4.34-7.01-2.33-.21-2.8-3.53-6.05-.06-8.32,2.45-1.6,5.45-.89,7.98,1.29,4.38,3.77.42,6.36-.91,9.35h0Z"/>
          <path class="cls-1" d="m1032.57,119.55c.79-6.72-3.67-12.29-3.59-18.86,3.59,4.51,2.1-1.88,3.57-1.91,3.18,3.77,1.59,9.71,5.25,13.25,0,2.1.07,4.19-.01,6.29-.28,7.44-3.01,3.11-5.23,1.24Z"/>
          <path class="cls-1" d="m985.12,117.67c0-1.27-.02-2.54-.02-3.81,3.92-7.81.22-16.42,2.79-26.85,4.22,12.04,1.67,22.48,2.44,32.54-.59,0-1.17,0-1.76,0-1.52.16-2.53-.77-3.45-1.88Z"/>
          <path class="cls-1" d="m1546.89,589.71c-2.92.65-5.85,1.3-8.77,1.94-2.27-2.19-5.52-2.72-3.68-8.38,1.32-4.06-5.77-4.17-8.65-6.76.44-3.19-1.15-6.8,1.75-9.46.47,5.99,4.89,8.44,8.8,11.36,1.16,6.29,5.02,9.69,10.54,11.3Z"/>
          <path class="cls-1" d="m991.2,518c-2.71-1.79-5.71-2.08-8.79-1.91,1.16-2.06,3.33-1.74,6.07-2.44-3.35-2.75-8.97.99-9.59-5.08,2.2,1.27,4.48,2.18,7.04,1.86,4.73-.21,8.37,2.17,11.44,5.74,1.55,1.8,3.91,4.08,1.54,6.3-2.92,2.74-3.54-.89-4.77-2.84-.54-.86-1.93-1.1-2.93-1.63Z"/>
          <path class="cls-1" d="m596.47,364.17c-.33,1.28-.4,2.51.58,3.5-4.34,4.83-10.72,2.65-15.61,5.61-.4-.11-.79-.22-1.19-.31.3-1.07.6-2.14.89-3.21,4.91-2.55,9.86-4.97,15.33-5.59Z"/>
          <path class="cls-1" d="m865.49,151.65c-4.69,5.03-9.39,10.07-14.08,15.1.04-14.48.58-15.07,14.08-15.1Z"/>
          <path class="cls-1" d="m1803.15,551.57c-4.07.31-8.21.38-11.19,4.1-2.12-1.84-.7-4.45-1.26-6.63.14-.92.57-1.65,1.24-2.23,6.15-1.77,12.22-6.29,18.58-.61-2.46,1.79-4.91,3.58-7.37,5.38Z"/>
          <path class="cls-1" d="m1516.67,318.03c5.65-.25,9.49,3.32,13.92,7.66-4.16,2.12-7.93,3.64-12.16,3.66,2.53-4.33-2.04-7.39-1.76-11.32Z"/>
          <path class="cls-1" d="m1223.34,321.69c-.59-1.88-1.18-3.77-1.77-5.65.15-2.36-.8-5.91,3.53-3.78,1.5,5.49,7.3,9.07,6.42,17.06-3.22-3.01-5.7-5.31-8.18-7.62Z"/>
          <path class="cls-1" d="m1161.56,154.59c-2.19,1.31-4.49,2.18-7.06,1.9-5.27,3.15-10.54,2.62-15.81.01l.02-.05c-.99-1.04-2.87-1.59-1.76-3.76.59,0,1.17,0,1.76-.01,6.72-1.97,13.57-.48,20.35-.82,1.64-.08,2.69.73,2.49,2.72Z"/>
          <path class="cls-1" d="m1750.92,551.97c.58,0,1.16.01,1.74.02,2.15,4.38,2.5,8.96.94,13.58-.47,1.39-2.51,1.5-2.95.71-2.43-4.35-3.38-9.2-3.27-14.28,1.17-1.29,2.36-.09,3.55-.03Z"/>
          <path class="cls-1" d="m1138.69,156.51c5.27,0,10.54-.01,15.81-.02.61,1.88,1.22,3.76,1.84,5.64.37,1.7-.19,2.39-1.81,1.9-4.19-2.33-8.29-4.81-13.36-3.82-2.82.55-3.54-1.01-2.47-3.71Z"/>
          <path class="cls-1" d="m1536.35,578.41c-6.13-.93-9.69-4.15-8.8-11.36,3.52-7.71,7.04.98,10.55,0-1.58,3.16-5.57.73-7.66,4.4.92,2.87,6.27,2.57,5.91,6.96Z"/>
          <path class="cls-1" d="m1138.83,89.89c5.62.75,10.16,4.01,14.69,7.28-8.75,3.29-15.3.03-14.69-7.28Z"/>
          <path class="cls-1" d="m767.86,417.99c-3.44-.14-6.5.78-8.81,3.71-2.18-1.25-4.44-2.14-6.98-1.88-2.37-2.79-6.55-.69-8.82-3.75,3.46-3.33,6.77-2.11,10.09.31,2.99,2.18,5.99,2.33,8.43-.83,4.37-5.64,4.49.39,6.09,2.43Z"/>
          <path class="cls-1" d="m1142.12,158.41c.6-.63,1.21-1.27,1.81-1.9,1.33.24,4.06-3.71,3.77.76-.25,3.82,2.23,6.89,1.46,10.57-2.45-.21-5.19.87-7.06-1.87,0-2.52.01-5.04.02-7.55Z"/>
          <path class="cls-1" d="m1750.92,551.97c-1.17,2.11-2.36.19-3.55.03-2.36-4.29-4.94-8.38-8.79-11.33,1.91-.11,4,.34,5.25-1.89,4,3.38,7.07,7.34,7.09,13.18Z"/>
          <path class="cls-1" d="m1165.57,155.59c-7.36-4.16-15.27-.79-22.85-1.9,7.33-3.83,15.08-1.84,22.57-1.37,4.47.28,3.72,5.32,3.78,8.95-2.32-1.08-3.49-2.96-3.5-5.68Z"/>
          <path class="cls-1" d="m959.54,561.45c.07,2.06-.29,4.29,1.76,5.64-2.58,2.44-3.77,9.81-6.72,7.52-4.24-3.29,1.43-7.7,2.9-11.6.26-.7,1.35-1.04,2.06-1.55Z"/>
          <path class="cls-1" d="m1823,451.94c0-.63,0-1.25,0-1.88,6.54,4.9,14.15,8.23,19.37,15.07-6.97-3.53-14.74-5.71-19.37-13.2Z"/>
          <path class="cls-1" d="m743.25,416.07c3.4.02,7.02-.59,8.82,3.75-6.29-1.6-9.94,5.13-15.55,5.69,0-.64-.01-1.28-.02-1.92,1.19-3.61,4.09-5.44,6.75-7.52h0Z"/>
          <path class="cls-1" d="m811,121.41c3.03-.21,4.56,2.74,6.99,3.81.59,1.26,1.17,2.51,1.76,3.77-.59.62-1.17,1.25-1.76,1.87-8.51,1.24-10.02.17-10.57-7.51,1.83,0,2.47,3.57,4.62,1.89.34-.27-.66-2.51-1.04-3.84Z"/>
          <path class="cls-1" d="m1652.42,499.13v1.88c-1.76,1.5-3.52,1.23-5.27-.01-1.25-3.7-4.92-4.78-7.07-7.51,4.99-.32,9.86-.35,12.34,5.64Z"/>
          <path class="cls-1" d="m1877.52,491.57c0-1.26,0-2.52,0-3.77l.02-.03c5.67-2.97,9.03-1.84,8.77,5.69,0,1.27-.01,2.54-.02,3.81-2.42-1.11-3.94-4.1-7.02-3.81-.58-.63-1.17-1.26-1.75-1.89Z"/>
          <path class="cls-1" d="m1136.95,152.7c.59,1.25,1.17,2.51,1.76,3.76-4.33-.35-8.87.94-14.59-1.74,5.07-3.02,9.09-1.6,12.83-2.02Z"/>
          <path class="cls-1" d="m985.12,117.67c1.43.03,2.71.38,3.45,1.88-.68,4.39,1.62,9.24-1.76,13.21-1.73-.65-2.18-2.67-3.49-3.77,2.05-3.51,1.74-7.45,1.79-11.32Z"/>
          <g>
            <path class="cls-1" d="m986.26,483.26c-2.28-5.38,2.58-12.85-3.21-17.41-4.98-3.92-11.3.27-16.85-2.21-2.98-1.33-5.68.37-6.59,4.14-1.09,4.56-3.06,4.9-5.84,1.39-6.08-7.68-13.86-3.24-20.97-3.18-1.09,0-.54,2.01.36,2.94,0,.61,0,1.22,0,1.82,3.09,3.23,7.19,5.25,9.61,9.27,2.05,2.95,4.9,4.26,8.22,4.39,5.16.19,7.79,3.33,8.86,8.42,1.09,3.03,2.91,5.38,5.54,7,.72.43,1.47.82,2.25,1.12,5.36,1.02,7.1,6.8,11.04,9.67,2.44,1.27,4.87,2.21,7.23-.19,0-.63,0-1.25,0-1.88-1.8-8.43,4.01-16.6.33-25.31Z"/>
            <path class="cls-1" d="m1086.18,521.81c-4.15.64-8.33,1.18-12.29,2.77-5.1.63-4.35,7.97-9.02,9.09-1.97.5-3.98.59-6.01.57-13.58-.15-16,3.14-13.11,17.75,2.15.48,3.14,4.03,6.25,2.56-.05-.84.03-1.75-.18-2.57-3.09-12.01-1.75-13.64,9.83-11.56,3.72.67,7.19-.06,9.93-2.55,3.55-3.22,7.7-3.7,11.56-2.58,4.11,1.2,6.51.38,8.59-3.44,2.25-4.13,3.14-8-.27-11.88-1.76.62-3.52,1.23-5.28,1.85Z"/>
            <path class="cls-1" d="m1005.79,493.48c-5.45-.17-10.09.38-10.74,7.06-.24,2.53,12.04,15.73,13.54,14.71,4.65-3.14,4.83-8.75,5.4-13.85.78-7.02-3.31-8.46-8.2-7.93Z"/>
            <path class="cls-1" d="m1043.92,555.73c-7.77,1.52-14.13,4.14-18.44,12.77-2.1,4.2-9.29,5.33-13.2-1.4-3.12,3.4-1.41,6.05,1.73,7.11,3.88,1.31,9.26,5.45,11.9.21,4.08-8.11,10.09-11.34,17.79-13.24,3.97-.98,3.71-3.44.23-5.44Z"/>
            <path class="cls-1" d="m1121.34,499.11v.03c-.2.35-.46.62-.75.85.25-.3.5-.59.75-.88-2.91-8.81-7.87-6.9-12.61-2.32-4.63,4.47-9.23,5.71-15.72,5.65-8.77-.08-18.46-.74-26.15,6.15h0c-3.42,1.43-5.11,6.42-9.65,5.53-13.81-2.71-19.4,8.84-26.47,17.68-1.85,2.32.04,4.72.92,6.97,3.1-4.27,4.05-10.2,8.79-13.21,4.32-4.49,9.6-8.58,15.42-7.01,9.07,2.45,11.02-1.94,10.99-9.94,10.66-1.81,21.43-1.75,32.17-1.86,3.85-.04,7.51,0,10-3.83,2.93-2.49,6.72-.94,9.95-2.05-1.6.66-3.29,1.23-3.22,3.77-1.75-.74-2.29,1.05-3.18,2.09,0,1.88,0,3.76,0,5.64,4.36.66,6.2-3.16,8.77-5.68,0,0,0,0,0,0h0c2.2-.14,5.42.53,5.7-2.39.34-3.57-2.73-4.77-5.71-5.17Z"/>
          </g>
          <path class="cls-1" d="m1538.37,340.95c-2.28,3.63,1.6,2.95,4.36,3.04-1.19.47-2.45,1.4-3.57,1.33-3.55-.24-9.56,1.72-10.01-1.58-.5-3.66,5.66-2.42,9.23-2.79Z"/>
          <path class="cls-1" d="m1763.23,422.26c1.16,0,2.32,0,3.48.01.26,2.19,4.17,3.59,1.72,6.17-3.8,4.02-5.49-2.89-8.75-2.4-.6-.41-.8-.82-.6-1.23.2-.41.39-.62.6-.62,1.46-.06,2.78-.42,3.56-1.93Z"/>
          <path class="cls-1" d="m1457.23,374.55c0,.63,0,1.26,0,1.89-4.66-.93-10.2,5.81-14.07-1.89,4.69,0,9.38,0,14.07,0Z"/>
          <path class="cls-1" d="m1513.5,525.56c.38,4.19-1.37,6.08-5.28,5.66.43-3.31-1.59-9.25,5.28-5.66Z"/>
          <path class="cls-1" d="m824.15,257.52c1.22-3.49,5.44-5.05,5.27-9.44.74-1.01,1.69-1.15,2.77-.77.25.26.5.52.76.77-.99,5.23-3.91,8.39-8.8,9.44Z"/>
          <path class="cls-1" d="m983.33,129c2.28.07,3.43,1.34,3.49,3.77-.15,1.5.27,4.26-1,4.11-3.18-.37-2.28-3.67-2.52-6.02,0-.62,0-1.25.04-1.87Z"/>
          <path class="cls-1" d="m972.76,144.12c1.63-3.76,3.18-7.59,7.02-9.46.27,3.29-2.55,4.92-3.51,7.55-.01.62-.02,1.24-.02,1.86-1.16.02-2.33.03-3.49.05Z"/>
          <path class="cls-1" d="m1535.96,359.49c.02-.61.03-1.22.03-1.84,4.7.63,3.29,4.52,3.49,7.55-3.59-.19-3.47-3.01-3.52-5.71Z"/>
          <path class="cls-1" d="m1759.67,424.19c0,.62,0,1.24,0,1.86-4.04-1.08-8.04-2.5-12.31-1.89,0-.63,0-1.26,0-1.89,4.17.11,8.47-.73,12.3,1.93Z"/>
          <path class="cls-1" d="m1518.42,329.34c-2.28,2.99-5.35,3.89-8.79,3.8.58-1.27,1.16-2.54,1.74-3.8h0c2.35,0,4.69,0,7.04,0Z"/>
          <path class="cls-1" d="m838.21,238.64c0,1.88-.01,3.77-.02,5.65-1.75,1.26-3.5,2.53-5.25,3.79,0,0-.03-.03-.03-.03-1.77-5.43.34-8.34,5.3-9.41Z"/>
          <path class="cls-1" d="m1071.22,129c-2.27-1.92-3.22-4.56-3.53-7.54,0,0,.02-.02.02-.02,5.14.38,5.66,3.24,3.53,7.54l-.02.02Z"/>
          <path class="cls-1" d="m1131.94,87.62c2.04.37,4.38-.31,5.87,1.96-2.32.62-5.52,4.26-5.87-1.96Z"/>
          <path class="cls-1" d="m987.04,89.35c-.6-.64-1.19-1.27-1.79-1.91-3.81-6.05-6.7-1.23-13.66.37-.58.62-3.33-6.62-3.91-5.99-1.56,4.26-16.1,14.54-18.92,9.4-5.44-9.9-12.41-6.4-19.84-12.77,4.16-2.13,16.69-14.91,21.24-14,1.97,1.67,2.9.59,3.46-1.5.15-2.82-1.32-5.94,1.34-8.29,2.51-.67,2.9-2.97,3.45-5.16.07-1.24.24-2.48.2-3.72-.45-12.13-.47-15.58,10.84-12.52,1.39.38,3.7,3.15,5.14,3.32,6.59,6.47-2.45,2.08-3.03,3.82-1.11,6.98,8.56,10.2,4.04,19.46-.73,1.5,4.17.42,6.19,1.65,2.22,3.32.26,7.41,1.72,10.87.92,4.47,11.74,3.93,13.84,7.54,2.47,4.26-5.3,8.27-10.29,9.44Z"/>
          <path class="cls-1" d="m1708.98,415.79c4.74-1.7,9.66-2.1,14.61-2.13,1,.69,1.99,1.38,2.98,2.07,3.63,7.68,10.46,11.21,16.86,15.47,2.2,1.47,7.68,1.26,5.17,6.53-1.98,4.16-4.3,8.36-9.95,8.56-8.04.29-12.67-6.17-15.64-11.5-4-7.16-14.21-8.75-14.03-19Z"/>
          <path class="cls-1" d="m980.14,62.8c.47-3.37,11.91-.59,42.51,2.01,9.16.78,22.58-1.95,22.32,2.9,0,1.25-20.92,15.67-20.92,16.92,2.27,4.15-.65,9.1,1.76,13.23,0,0,0-.01,0-.01-.26,1.37.67,3.3-.94,3.94-.57.23-1.74-1.3-2.63-2.03-4.1-4.24-3.87-11.37-8.76-15.08-5.32-10.65-15.89-16.35-28.07-15.15.56-1.17,1.12-2.33,1.67-3.5,2.13-.2-9.07-3.02-6.94-3.22Z"/>
          <path class="cls-1" d="m960.45,76.31c-2.88,8.38-8.28,8.48-14.72,5.15,4.54-2.93,9.54-4.32,14.72-5.15Z"/>
          <path class="cls-1" d="m979.72,83.69c1.03.23,2.95.35,2.02,1.84-1.62,2.6-3.8,2.66-5.47-.34,1.15-.5,2.3-1,3.46-1.5Z"/>
          <path class="cls-1" d="m1069.17,143.47c1.17,3.51.6,5.67-3.45,5.16-.12-2.69,1.38-4.14,3.45-5.16Z"/>
          <path class="cls-1" d="m1522.26,568.96c-2.77-.24-6.92,4.06-7.98-1.42-.81-4.22,3.37-4.08,6.25-4.29,2.03,1.4,1.72,3.61,1.72,5.71Z"/>
          <path class="cls-1" d="m1539.02,315.88c-2.25-.08-4.07-.95-4.11-3.6-.03-2.13,1.51-3.27,3.37-3.4,2.25-.16,4.04.9,4.1,3.54.05,2.16-1.53,3.1-3.36,3.47Z"/>
          <path class="cls-1" d="m1886.31,493.47c-1.35-4.7-4.42-6.33-8.77-5.69-.74-7.76-6.99-9.8-11.99-12.92-3.9-2.44-8.44-3.9-9.13-9.7-.45-3.77,3.83-7.55,0-11.32-10.27-4.23-21.75-3.78-31.65-9.44-2.56-1.56-5.74-2.25-7.03-5.64,2.18-1.33,4.46-2.23,7.03-1.92,10.03-.21,20.07,1.03,30.05-1.87,9.58-2.79,11.88-.52,10.98,10.32-.31,3.76,1.33,5.84,3.29,8.13.42.79.65,1.67.68,2.58-.22,2.78-2.88,3.66-3.96,5.77-.6,1.53-.06,2.6,1.2,3.38.58.62,1.16,1.25,1.75,1.87.53,2.88,2.25,3.76,4.79,3.28,13.87,13.46,29.68,23.53,46.76,31.54,3.28,1.54,6.84,1.3,9.98,2.96,0,0,0,0,0,0-2.29,6.43-8.41,7.03-12.51,6.06-4.72-1.12-7.53.9-11,2.52-.78,2.38,1.15,2.36,2.25,3.12,2.56,1.81,2.62,4.51.59,6.26-2.19,1.89-3.87-.44-4.67-2.47-4.18-10.59-13.58-16.95-18.62-26.82Z"/>
          <path class="cls-1" d="m1930.27,504.79c-10.34,2.33-17.91-8.1-27.99-7-7.23-12.56-22.21-15.18-30.04-26.97-.4-.42-.53-.84-.4-1.26.13-.42.26-.63.4-.63,8.12,3.13,13.12,11.1,20.8,15.09,12.58,6.54,24.84,13.81,37.23,20.77Z"/>
          <path class="cls-1" d="m1868.73,455.7c-2.66-3.91-5.38-7.06-3.9-13.2,1.64-6.75-2.81-8.66-8.64-6.52-10.38,3.81-20.87,4.27-31.43.85,15.74-2.48,31.55-3.89,47.47-3.74,1.6,2.86.84,5.82-1.23,7.41-7.1,5.48-3.51,9.37,1.26,13.32-.7,1.66-1.59,2.91-3.53,1.88Z"/>
          <path class="cls-1" d="m1868.73,455.7c1.18-.63,2.35-1.25,3.53-1.88,3.32.05,7.64.56,6.39,5-1.38,4.9-6.51,1.73-9.92,2.52-.93-1.24-1.06-2.49-.02-3.74,0-.63,0-1.26.01-1.9Z"/>
          <path class="cls-1" d="m1872.24,468.92v1.89c-1.12,1.61-2.6,2.51-4.12.97-1.61-1.63.27-3.19.62-4.78,1.17.64,2.33,1.28,3.5,1.92Z"/>
          <path class="cls-1" d="m1868.71,457.6c0,1.25.01,2.49.02,3.74-.59.64-1.17,1.28-1.76,1.92-1.48.04-2.57-.78-3.52-1.89.98-2.5,2.73-3.77,5.26-3.78Z"/>
          <path class="cls-1" d="m1863.45,461.38c1.45.04,2.76.37,3.52,1.89.01.62.02,1.25.03,1.87-4.29,2.12-3.43-1.35-3.55-3.76Z"/>
          <path class="cls-1" d="m753.8,402.85c2.71,1.84,5.7,2.1,8.79,1.86-1.63,2.88-3.26,5.76-4.81,8.51-4.7-1.94-6.99-12.83-14.53-3.96-.74.86-3.82-3.46-6.78-2.63,0-.64.01-1.28.02-1.93,5.4-4.57,11.39-2.93,17.31-1.86Z"/>
          <path class="cls-1" d="m753.8,402.85c-5.89-.69-11.57.93-17.31,1.86,0-1.88,0-3.75.01-5.63,5.6,2.13,11.9.62,17.3,3.78Z"/>
          <path class="cls-1" d="m743.25,416.07c-1.61,3.16-4,5.53-6.75,7.52,0-1.88.02-3.76.03-5.64,2.24-.63,4.48-1.25,6.72-1.88Z"/>
          <path class="cls-1" d="m1582.07,331.14c.59,1.25,1.19,2.5,1.78,3.75-7.37,1.07-12.25-1.78-16.79-8.61-5.47-8.24-12.29-15.81-22.36-18.25-2.66-.64-3.93-2.89-5.34-5.55-4.91-9.3-7.36-9.13-15.39-3.21-4.64,3.42-10.68,2.66-15.87.2-3.12-1.48-5.79-4.04-8.66-6.12,5.46-.16,9.65,3.99,14.76,5.01,4.07.81,7.91,2.39,7.99-5.25.08-6.93,5.42-3.56,8.86-3.49,17.19,7.7,29.52,22.01,42.23,35.8,2.93,1.91,5.86,3.81,8.79,5.72Z"/>
          <path class="cls-1" d="m1791.93,547.72c-3.21-5.12,2-6.46,3.66-9.4,1.93,1.84,3.94,2.11,6.39.94,6.57-3.13,9.25-.43,8.54,6.94-6.39-2.29-12.35,1.63-18.59,1.52Z"/>
          <path class="cls-1" d="m1583.85,334.88c7.89,3.15,16.12,5.54,22.88,11.33-3.25,2.41-7.2.44-10.59,1.94-5.26-3.01-10.52-.76-15.78.03-.01-.65-.02-1.3-.03-1.95.57-.09,1.27.02,1.69-.3,2.5-1.88,7.37-.06,7.93-3.9.53-3.61-4.32-4.4-6.1-7.16Z"/>
          <path class="cls-1" d="m768.39,408.58c-.72.39-1.44,1.08-2.15,1.08-.99,0-1.5-1.08-.9-1.87.43-.57,1.49-.67,2.29-.78.17-.02.44.88.76,1.57Z"/>
          <path class="cls-1" d="m1060.68,85.58c-1.59-2.97-4.25-5.47-3.52-9.43,5.21-2.1,10.56-3.22,16.41-2.65-5.86,2.33-6.52,10.63-12.89,12.08Z"/>
          <path class="cls-1" d="m1053.64,74.25c-2.28-.07-3.46-1.31-3.51-3.77,2.87,0,5.73,0,9.89,0-2.87,1.7-4.62,2.73-6.38,3.77Z"/>
          <path class="cls-1" d="m1647.15,501c1.76,0,3.51,0,5.27.01,11.33,2.8,20.83,11.48,33.04,11.66,2.68.04,4.43,2.72,5.65,5.32-15.81-2.22-29.9-9.57-43.96-17Z"/>
          <path class="cls-1" d="m1636.6,512.32c-.59.64-1.19,1.27-1.78,1.91-4.41.27-7.18-1.55-7.49-6.71,4.95-2.39,7.58.15,9.27,4.8Z"/>
          <path class="cls-1" d="m1678.78,527.38c-4.67-.69-9.71,1.94-14.04-1.83,4.98-2.1,9.99-4.39,14.04,1.83Z"/>
          <path class="cls-1" d="m1050.16,89.35c6.38-1.81,1.74-5.35.57-7.37-1.79-3.07-4.74-5.38-4.11-9.61,12.18,12.27,17.25,29.17,25.23,44.2,4.42,8.32,10.11,15.85,15.23,23.74-1.75.71-4.91-3.09-5.31,1.92-5.15-2.91-4.71-10.94-10.53-13.25.15-3.23-.36-6.1-3.53-7.54-3.49-12.19-10.22-22.33-17.56-32.09Z"/>
          <path class="cls-1" d="m1096.72,165.02c2.38,1.85,3.1,6.07,7.05,5.65,11.59,9.22,21.6,19.94,28.14,33.98-6.48-2.05-8.9-8.9-13.07-12.77-6.32-5.87-11.07-12.95-17.04-18.89-.98-.97-3.36-.32-5.09-.42v-7.55Z"/>
          <path class="cls-1" d="m1137.16,212.21q-5.01.79-5.26-7.58c3.15,1.41,3.82,4.8,5.26,7.58Z"/>
          <path class="cls-1" d="m817.1,238.61c-1.17,3.15-2.34,6.31-3.5,9.46-3.2,6.26-6.31,12.63-14.13,13.18,3.69-9.51,12.33-14.58,17.64-22.64Z"/>
          <path class="cls-1" d="m838.21,238.64c-2.3,2.79-4.87,5.4-5.3,9.41-1.16.01-2.33.02-3.49.03-3.2-9.92,6.65-13.46,8.79-20.77,2.05,2.52,1.48,5.04,0,7.57,0,1.25,0,2.51,0,3.76Z"/>
          <path class="cls-1" d="m1086.18,521.81c-2.88,5.89-8.06,3.09-12.32,3.77-.61-.42-.81-.85-.61-1.27.2-.42.4-.64.61-.64,1.6-4.48,6.12-4.44,9.23-6.23,3.5-2.02,2.7,2.28,3.09,4.37Z"/>
          <path class="cls-1" d="m838.22,234.88c0-2.52,0-5.04,0-7.57.59-1.89,1.17-3.78,1.76-5.66.59,0,1.18,0,1.78.01-.62,4.58,1.91,10.12-3.52,13.22Z"/>
          <path class="cls-1" d="m1073.86,523.67c0,.64,0,1.27,0,1.91-3.22,2.38-2.96,7.76-7.03,9.42-2.56.28-4.85-.6-7.04-1.89,6.22-.52,7.07-10.24,14.06-9.44Z"/>
          <path class="cls-1" d="m1116.07,504.77c-1.17.64-2.34,1.29-3.5,1.93-.09-2.44-1.24-3.74-3.54-3.8,2.87-5.87,8.04-3.12,12.3-3.77.34,4.13-4.04,3.19-5.26,5.64Z"/>
          <path class="cls-1" d="m807.42,123.36c.75,7,6.63,5.68,10.57,7.51-6.62,8.79-10.99.41-15.63-2.75-3.04-2.07-4.32-6.94-8.98-6.67-2.73,1.79-4.59,5.93-8.79,3.77-.98-2.52-2.76-3.77-5.29-3.78,1.27-2.19,3.37-1.78,5.29-1.94,4.1,0,8.21,0,12.31,0,4.12-.62,7.45,1.24,10.53,3.87Z"/>
          <path class="cls-1" d="m974.51,83.69c-.27,2.75.56,5.2,1.76,7.55-4.32.66-3.43,4.28-3.5,7.25-.13,5.62.17,11.28-.36,16.85-.26,2.67-2.12,5.93-5.17,4.93-2.61-.85-.42-3.64-.33-5.63.29-6.22,1.62-12.85.12-18.6-2.16-8.34,1.71-10.55,7.48-12.36Z"/>
          <path class="cls-1" d="m1806.5,471.72c-14.62-11.19-26.9-25.57-42.23-35.8,4.11.62,8.23,1.25,12.34,1.87,5.33,6.39,10.67,12.53,17.57,17.33,5.48,3.82,10.35,9.25,12.32,16.6Z"/>
          <path class="cls-1" d="m784.58,125.22c3.35-.14,4.93-5.02,8.79-3.77-1.84,6.61-7.68,8.21-12.31,11.32,1.17-2.52,2.35-5.03,3.52-7.55Z"/>
          <path class="cls-1" d="m1596.13,348.15c2.62-6.38,6.92-2.19,10.59-1.94,0,0-.02,0-.02,0,3.22,2.52,7.31-.46,10.55,1.91,3.45.78,7.83,1.51,6.59,6.52-1.23,4.97-5.79,3.05-8.88,2.33-6.77-1.57-13.46-3.67-18.83-8.82Z"/>
          <path class="cls-1" d="m1617.26,348.11c-3.52-.62-7.48,1.57-10.55-1.91,3.52.61,7.47-1.47,10.55,1.91Z"/>
          <path class="cls-1" d="m1824.76,444.39c8.78,1.58,17.66,2.45,26.2,5.5,2.32.83,4.39,1.4,5.45,3.93-12.78,5.47-22.03-2.7-31.65-9.44Z"/>
          <path class="cls-1" d="m1856.42,453.83c6.53,3.77,1.98,7.55,0,11.32-2.89-3.77,1.35-7.55,0-11.32Z"/>
          <path class="cls-1" d="m970.97,140.29c.05,1.57.37,3,1.8,3.83-1.09,4.5-3.21,8.2-8.39,12.2,2.1-6.86,1.69-12.58,6.59-16.03Z"/>
          <path class="cls-1" d="m1191.68,272.61c.71-1.83-2.94-5.19,1.72-5.64,1.77,2.51,3.55,5.01,5.32,7.52-.41,4.98-3.05,2.87-5.32,1.92-1.42-.82-1.68-2.25-1.72-3.79Z"/>
          <path class="cls-1" d="m1032.55,79.94c8.19-3.25,11.96-1.46,15.82,7.5-4.72-3.84-9.98-6.39-15.82-7.5Z"/>
          <path class="cls-1" d="m1032.56,98.78c-3.41-3.98-1.09-8.83-1.76-13.23,3.34,3.99,1.09,8.83,1.76,13.23Z"/>
          <path class="cls-1" d="m922.62,480.25c-.59,1.86-1.17,3.73-1.76,5.59-2.33.03-3.45-1.26-3.52-3.7,1.27-2.22,3.35-1.83,5.28-1.89Z"/>
          <path class="cls-1" d="m1854.66,431.17c2.93-2.79,5.86-2.79,8.79,0-2.93,0-5.86,0-8.79,0Z"/>
          <path class="cls-1" d="m966.6,499.11c-.2,7.2-3.55,3.05-6.54,2.66,1.84-3.77,4.48-2.16,6.54-2.66,0,0,0,0,0,0Z"/>
          <path class="cls-1" d="m926.15,472.7h9.68c-2.5,6.47-6.43,8.06-11.45,7.55,1.2-2.35,2.03-4.8,1.77-7.55Z"/>
          <path class="cls-1" d="m351.21,362.37c2.22-2.6,6.28-3.23,6.98-7.47,2.74-4.05,6.73-6.59,10.19-9.78,4.4-1.18,6.41-5.37,9.27-8.49,4.46-6.39,8.47-13.09,12.5-19.78,1.15-1.91,1.46-5.63,4.46-4.56,2.92,1.04,2,4.42,1.87,7.03-.64,1.84-.6,3.88-1.43,5.66-1.27,4.43-6.46,6.85-5.51,12.43-.4,3.09-2.63,4.61-4.69,6.28-1.55,2.07-3.11,4.14-4.66,6.21-7.52,7.9-16.51,13.3-26.14,17.65-3.05-.39-6.34-.64-2.85-5.17Z"/>
          <path class="cls-1" d="m575.09,511.75c-.1,1.26-.68,3.26-1.47,2.97-4.57-1.66-8.19,2.34-12.45,2.05-.92,1.2-2.03,1.89-3.53,1.52-3.41-2.53-5.61.84-8.27,1.97-3.4,1.74-5.15,6.36-9.56,6.35-5.32.35-10.11.91-9.47,8.99.24,3.01-4.52,5.55-7.13,4.41-3.2-1.4-1.68-4.01-1.25-6.34.86-4.65,2.12-9.14,4.49-13.19,2.31-4.58,6.56-6.35,10.7-5.93,4.5.46,6.37-1.53,7.8-5.28h-.01c5.43-3.19,11.49-1.95,17.24-2.49,3.63-.34,7.19-.23,10.49-2.13,2.01-.1,3.14.99,3.56,3.04.23,1.55-.2,2.89-1.12,4.07Z"/>
          <path class="cls-1" d="m411.54,272.72c1.68-.37,3.34-.95,5.03-1.08,3.35-.25,4.85,1.12,3.07,4.78-.85.84-1.76,1.58-2.85,2.04-8.21,3.47-8.32,3.47-8.3,13.24,0,4.15-.77,7.57-3.91,10.37-3.44,3.07-4.2,7.71-5.2,12.11-.49,2.13-.22,4.57-2.31,5.98-1.95-.97-1.22-2.92-1.1-4.36.25-3.04-1.02-5.13-2.97-6.98,3.46-8.56,7-17.09,9.26-26.14,1.72-4.8,4.88-8.05,9.29-9.96Z"/>
          <path class="cls-1" d="m419.65,278.93c-5.2.44-9.47,4.72-10.35,11.09-.89,6.4-2.01,12.48-6.79,17.13-3.21,3.12-2.64,7.51-2.59,11.62-2.25,2.82-.97,6.17-1.09,9.26-.14,3.63-.94,6.34-4.72,6.92-.92-.93-1.25-2.1-1.26-3.41,0-.93.21-1.82.65-2.63,1.3-2.56,2.3-5.24,2.45-8.2.17-.23.34-.45.5-.68,2-2.98,1.18-6.68,2.21-9.96,1.13-3.56,2.13-7.28,5.02-9.45,3.01-2.26,3.27-5.07,3.26-8.5-.04-13.47.02-13.47,12.7-15.71,0,.84,0,1.68,0,2.51Z"/>
          <path class="cls-1" d="m544.92,526.69c-.76,1.2-1.88,1.3-3.07,1.13-9.92-1.39-10.67-.69-10.84,10.07-.4.82-.81,1.65-1.21,2.47-4.28,3.41-9.39,5.33-12.68,10.58-1.89,3.02-7.48.5-8.19-3.08-.76-1.25-1.53-2.51-2.29-3.76,1.75-1.98,2.11.03,2.81,1.11,3.07,4.75,4.79,4.8,7.99.24,3.89-5.53,3.39-7.14-2.7-8.83,1.63-3.23,7.16-2.27,6.97-7.46.59-3.94,1.37-7.72,5.8-8.72-.8,4.96-4.45,8.91-4.45,14.09,0,1.45-2.16,4.01.85,4.4,2.25.29,4.87-.68,5.48-3.42,2.23-10.06,2.13-10.09,10.88-10.09,1.72-.34,3.34-.22,4.64,1.25Z"/>
          <path class="cls-1" d="m347.73,449.52c1.8,3.68,5.05,2.37,7.77,2.4,4.65.04,7.65,1.18,10.73,6.07,2.64,4.19,9.52,4.58,11.57,11.28.62,2.04,5.36-.41,8.21.16,3.51,4.49,3.52,8.71.02,12.45-.11-4.58,1.4-10.27-6.62-7.31-3.63,1.34-4.33-3.5-5.23-6.06-1.53-4.35-3.4-7.34-8.27-6.61-1.11.17-2.6.01-2.79-1.52-.83-6.53-5.31-6.28-9.59-5.83-4.19.43-7.33-3.89-11.6-2.58,1.07-3.18,2.98-4.09,5.81-2.45Z"/>
          <path class="cls-1" d="m508.94,547.87c2.58,4.44,7.32,3.69,8.7.92,2.84-5.69,7.04-7.42,12.16-8.42,2.3,1.32,2.47,2.94-.15,3.59-5.07,1.26-9.04,3.38-11.73,8.73-1.74,3.46-5.29.73-7.85-.14-2.07-.7-3.2-2.44-1.14-4.69Z"/>
          <path class="cls-1" d="m354.71,366.1c-5.41,3.32-10.83,6.64-16.24,9.95-2,.03-1.94-1.04-1.17-2.5,4.64-3.73,9.28-7.46,13.91-11.18-2.2,4.88,1.51,3.38,3.5,3.73Z"/>
          <path class="cls-1" d="m337.3,373.55c.03,1.03.23,1.96,1.17,2.5-2.22,4.53-7.43,4.24-10.44,7.47-.32,0-.64,0-.96.02,0-.86,0-1.73-.01-2.59,3.12-2.94,6.29-5.78,10.24-7.4Z"/>
          <path class="cls-1" d="m577.4,506.76c-.77.42-1.54.85-2.31,1.27-.06-1.61-.82-2.47-2.33-2.51,1.89-3.87,5.3-2.06,8.11-2.49.22,2.72-2.66,2.1-3.47,3.72Z"/>
          <path class="cls-1" d="m610.3,225.52c-.1,1.26-.68,3.26-1.47,2.97-4.57-1.66-8.19,2.34-12.45,2.05-.92,1.2-2.03,1.89-3.53,1.52-3.41-2.53-5.61.84-8.27,1.97-3.4,1.74-5.15,6.36-9.56,6.35-5.32.35-10.11.91-9.47,8.99.24,3.01-4.52,5.55-7.13,4.41-3.2-1.4-1.68-4.01-1.25-6.34.86-4.65,2.12-9.14,4.49-13.19,2.31-4.58,6.56-6.35,10.7-5.93,4.5.46,6.37-1.53,7.8-5.28h-.01c5.43-3.19,11.49-1.95,17.24-2.49,3.63-.34,7.19-.23,10.49-2.13,2.01-.1,3.14.99,3.56,3.04.23,1.55-.2,2.89-1.12,4.07Z"/>
          <path class="cls-1" d="m544.15,261.64c2.58,4.44,7.32,3.69,8.7.92,2.84-5.69,7.04-7.42,12.16-8.42,2.3,1.32,2.47,2.94-.15,3.59-5.07,1.26-9.04,3.38-11.73,8.73-1.74,3.46-5.29.73-7.85-.14-2.07-.7-3.2-2.44-1.14-4.69Z"/>
          <path class="cls-1" d="m123.5,641.34c.38-.38.75-.76,1.13-1.14,1.74-1.75,3.75-3.12,5.69-4.58,1.59-1.2,3.99-2.53,3.03-4.94-1.13-2.86-3.85-1.63-5.85-1.03-4.21,1.25-8.33,2.85-12.31,4.87-4.62,2.34-9.46,3.99-14.58,4.54-1.72-.15-3.37.85-5.1.38-1.76-1.49-.87-2.72.39-3.76,1.46-1.2,3.04-2.25,2.87-4.61-.29-1.29-.94-2.52-.53-3.92,1.57-5.03,1.22-5.49-4.6-5.97h0c-1.53-2.05-3.1-3.96-.58-6.58,1.38-1.42,2.13-3.55.54-5.31-1.61-1.77-4.01-1.79-5.58-.29-2.88,2.75-6.69,4.52-8.73,8.04-2.29,3.93-5.58,5.53-9.43,6.5-.51.17-.99.4-1.47.64-3.15,1.47-5.82,4.24-9.66,3.82-1.84-.2-3.55-.18-4.87-2.06-2.57-3.66-5.81-2.82-7.92.1-3.03,4.2-6.96,6.72-11.09,9.26-3.68,2.27-6.84,5.43-9.24,9.19-2.18,3.41-5.01,5.06-8.74,5.26-.57.14-1.1.35-1.62.62-1.89,1.19-4.31,2.46-3.9,5.05.62,3.95,4.63,2.85,6.97,4.35,1.37.63,2.84.82,4.3,1.06,2.76.45,3.69,1.7,2.73,4.9-1.45,4.84.23,7.4,5.01,6.67,8.63-1.34,17.33-.13,25.91-1.46,3.27-.51,6.32-1.46,9.31-3.35,5.74-3.63,12.52-2.07,18.78-3.25,1.47-.03,2.91-.34,4.34-.72,2.34-.61,3.66-.32,3.83,2.97.27,5.16,3.14,7.96,7.5,6.58,5.72-1.81,11.66-1.25,17.32-2.92,4.6-1.35,6.17-5.67,3.63-9.99-1.16-1.98-2.65-1.76-4.31-1.14-1.73.65-3.4,1.55-5.27,1.6-3.71.1-6.87-3.86-5.91-7.36,1.44-5.24,12.36-12.53,18-12.02Z"/>
        </g>
      </g>
    </g>
  </g>
</svg>