<?xml version="1.0" encoding="UTF-8"?>
<svg id="_圖層_2" data-name="圖層 2" xmlns="http://www.w3.org/2000/svg" xmlns:xlink="http://www.w3.org/1999/xlink" viewBox="0 0 2012.98 3955.4">
  <defs>
    <style>
      .cls-1 {
        fill: url(#_未命名漸層_54);
      }

      .cls-2 {
        filter: url(#drop-shadow-1);
      }

      .cls-3 {
        filter: url(#drop-shadow-2);
      }

      .cls-4 {
        fill: #f5dea8;
      }

      .cls-5 {
        clip-path: url(#clippath);
      }

      .cls-6 {
        fill: none;
      }
    </style>
    <filter id="drop-shadow-1" filterUnits="userSpaceOnUse">
      <feOffset dx="7" dy="7"/>
      <feGaussianBlur result="blur" stdDeviation="5"/>
      <feFlood flood-color="#000" flood-opacity=".5"/>
      <feComposite in2="blur" operator="in"/>
      <feComposite in="SourceGraphic"/>
    </filter>
    <clipPath id="clippath">
      <rect class="cls-6" x="66.82" width="1946.16" height="3955.4"/>
    </clipPath>
    <filter id="drop-shadow-2" filterUnits="userSpaceOnUse">
      <feOffset dx="2" dy="2"/>
      <feGaussianBlur result="blur-2" stdDeviation="2"/>
      <feFlood flood-color="#000" flood-opacity=".1"/>
      <feComposite in2="blur-2" operator="in"/>
      <feComposite in="SourceGraphic"/>
    </filter>
    <linearGradient id="_未命名漸層_54" data-name="未命名漸層 54" x1="305.24" y1="614.9" x2="1454.67" y2="4154.42" gradientUnits="userSpaceOnUse">
      <stop offset="0" stop-color="#fff"/>
      <stop offset=".14" stop-color="#fbf4e3"/>
      <stop offset=".32" stop-color="#f8eac9"/>
      <stop offset=".5" stop-color="#f6e3b6"/>
      <stop offset=".68" stop-color="#f5dfab"/>
      <stop offset=".88" stop-color="#f5dea8"/>
    </linearGradient>
  </defs>
  <g id="_圖層_1-2" data-name="圖層 1">
    <g class="cls-2">
      <g class="cls-5">
        <g class="cls-3">
          <path class="cls-4" d="m158.81,1131.8s-173.72,127.81,631.62,461.98C1959.71,2078.95,107.06,2716.9,106.97,2757.54c-.09,37.61,7.29,217.64,7.29,217.64v438.09c-7.29,24.64-45.63,518.8-45.63,518.8,0,0,2058.42-1547.69,1914.74-2194.2-88.03-396.09-345.48-501.37-545.48-558.39-219.82-62.68-493.65-64.7-537.05-189.8,0,0-263.26-10.72-370.95,14.37-107.69,25.09-313.69,84.92-371.08,127.76Z"/>
          <path class="cls-1" d="m1949.94,1696.86c-52.79-311.01-359.57-544.55-559.29-599.24-185.31-50.74-367.62-83.29-481.68-124.96-313.69-114.6-315.94-458.5-110.53-551.92,207.78-94.5,436.23-138.27,283.68-356,0,0,97.29,155.42-63.19,207.34,0,0-363.11,103.07-460.28,145.75-25.21,11.07-87.4,38.18-128.31,64.37-40.79,26.12-502.01,192.38-420.77,564.68.11.49.17.96.66.93l16.7,9.72c.76-.05,2.27,6.18,1.57,6.46-35.72,14.05,51.11-17.84,34.43-5.39,0,0-114.8,144.74,690.54,478.91C1922.76,2022.69,70.11,2660.63,70.02,2701.27c-.09,37.61,7.29,217.64,7.29,217.64v438c0,.06,0,.11-.02.17-7.05,24.83-10.49,496.84-10.69,525.44,0,.55.63.87,1.07.53,52.6-40.32,2008.62-1441.9,1882.27-2186.19Z"/>
        </g>
      </g>
    </g>
  </g>
</svg>