<svg width="29" height="29" viewBox="0 0 29 29" fill="none" xmlns="http://www.w3.org/2000/svg">
<circle cx="14.5" cy="14.5" r="14.5" fill="white"/>
<path d="M15.5872 7.84677C15.5872 7.28149 15.129 6.82324 14.5637 6.82324C13.9984 6.82324 13.5402 7.28149 13.5402 7.84677V13.4122H7.84677C7.28149 13.4122 6.82324 13.8705 6.82324 14.4357C6.82324 15.001 7.28149 15.4593 7.84677 15.4593H13.5402V21.1527C13.5402 21.7179 13.9984 22.1762 14.5637 22.1762C15.129 22.1762 15.5872 21.7179 15.5872 21.1527V15.4593H21.1527C21.7179 15.4593 22.1762 15.001 22.1762 14.4357C22.1762 13.8705 21.7179 13.4122 21.1527 13.4122H15.5872V7.84677Z" fill="#4C4C4C"/>
</svg>
