<?xml version="1.0" encoding="UTF-8"?>
<svg id="_圖層_2" data-name="圖層 2" xmlns="http://www.w3.org/2000/svg" viewBox="0 0 597.18 277.1">
  <defs>
    <style>
      .cls-1 {
        fill: #db465f;
      }

      .cls-2 {
        fill: none;
        stroke: #f5dfa5;
        stroke-miterlimit: 10;
      }

      .cls-3 {
        fill: #f5dfa5;
      }
    </style>
  </defs>
  <g id="_圖層_1-2" data-name="圖層 1">
    <path class="cls-2" d="m597.1,246.25C534.1,257.25,167.1,210.25,24.1,3.25"/>
    <g>
      <path class="cls-1" d="m515.82,275.65l-10.99-32.02c-.51-1.48.68-2.99,2.24-2.84l27.84,2.63c1.56.15,2.44,1.86,1.67,3.22l-16.84,29.39c-.92,1.61-3.3,1.38-3.91-.37Z"/>
      <path class="cls-3" d="m472.1,270.87l-9.36-33.98c-.41-1.5.86-2.94,2.4-2.7l28.81,4.39c1.55.24,2.34,2,1.48,3.31l-19.45,29.59c-1.02,1.55-3.38,1.17-3.88-.61Z"/>
      <path class="cls-3" d="m553.79,270.86l-9.48-24.17c-.57-1.46.56-3.02,2.12-2.94l21.39,1.17c1.56.09,2.51,1.75,1.8,3.14l-11.91,23.01c-.85,1.64-3.24,1.52-3.92-.2Z"/>
      <path class="cls-1" d="m425.88,266.67l-9.51-40.41c-.36-1.52.96-2.9,2.49-2.61l33.73,6.34c1.54.29,2.27,2.08,1.36,3.36l-24.22,34.06c-1.07,1.51-3.43,1.05-3.85-.75Z"/>
      <path class="cls-3" d="m379.18,255.89l-6.04-41.01c-.23-1.53,1.19-2.8,2.69-2.39l33.08,8.93c1.52.41,2.1,2.26,1.09,3.47l-27.04,32.07c-1.2,1.42-3.51.76-3.78-1.07Z"/>
      <path class="cls-1" d="m334.48,241.33l-3.88-41.24c-.15-1.54,1.33-2.73,2.81-2.25l32.57,10.5c1.5.48,1.99,2.37.91,3.52l-28.69,30.74c-1.27,1.36-3.54.58-3.72-1.27Z"/>
      <path class="cls-3" d="m291.55,227.49l-1.61-41.38c-.06-1.54,1.47-2.64,2.92-2.1l31.94,12.12c1.48.56,1.87,2.47.73,3.56l-30.33,29.26c-1.34,1.29-3.58.39-3.65-1.47Z"/>
      <path class="cls-1" d="m250.11,211.87l-1.61-41.38c-.06-1.54,1.47-2.64,2.92-2.1l31.94,12.12c1.48.56,1.87,2.47.73,3.56l-30.33,29.26c-1.34,1.29-3.58.39-3.65-1.47Z"/>
      <path class="cls-3" d="m208.26,193.84l1.86-41.36c.07-1.54,1.68-2.51,3.07-1.85l30.82,14.52c1.43.67,1.67,2.61.45,3.61l-32.69,26.84c-1.44,1.18-3.6.1-3.52-1.76Z"/>
      <path class="cls-1" d="m168.71,173.64l4.12-41.21c.15-1.53,1.81-2.41,3.16-1.68l29.98,16.04c1.4.75,1.54,2.69.26,3.63l-34.11,25.17c-1.5,1.11-3.61-.09-3.42-1.95Z"/>
      <path class="cls-3" d="m130.46,150.61l7.13-40.83c.26-1.51,1.97-2.27,3.27-1.45l28.73,18c1.34.84,1.35,2.79.01,3.64l-35.86,22.83c-1.58,1.01-3.6-.34-3.28-2.19Z"/>
      <path class="cls-1" d="m94.99,127.1l8.96-40.5c.33-1.49,2.06-2.17,3.32-1.31l27.89,19.16c1.3.9,1.23,2.85-.14,3.64l-36.86,21.33c-1.62.94-3.59-.5-3.18-2.33Z"/>
      <path class="cls-3" d="m61.59,100.74l12.44-39.64c.46-1.45,2.24-1.99,3.42-1.02l26.13,21.3c1.23,1,.99,2.94-.44,3.61l-38.57,18.35c-1.7.81-3.54-.8-2.98-2.59Z"/>
      <path class="cls-1" d="m35.78,70.73l12.78-33.73c.54-1.42,2.34-1.85,3.47-.83l21.53,19.64c1.17,1.06.83,2.98-.63,3.58l-34.31,14.09c-1.74.72-3.5-.99-2.83-2.76Z"/>
      <path class="cls-1" d="m17.33,20.21l-15.55-2.74c-1.68-.3-2.36-2.33-1.21-3.58L12.79.69c1.19-1.28,3.33-.69,3.69,1.02l3.34,15.93c.31,1.49-.98,2.83-2.48,2.56Z"/>
      <path class="cls-3" d="m11.24,40.86l14.79-30.08c.68-1.39,2.56-1.63,3.56-.45l18.63,21.64c1.04,1.21.45,3.1-1.11,3.49l-33.43,8.44c-1.78.45-3.27-1.39-2.46-3.04Z"/>
    </g>
  </g>
</svg>