<?xml version="1.0" encoding="UTF-8"?>
<svg id="_圖層_2" data-name="圖層 2" xmlns="http://www.w3.org/2000/svg" viewBox="0 0 784.23 237.35">
  <defs>
    <style>
      .cls-1 {
        fill: #db465f;
      }

      .cls-2 {
        fill: none;
        stroke: #f5dfa5;
        stroke-miterlimit: 10;
      }

      .cls-3 {
        fill: #f5dfa5;
      }
    </style>
  </defs>
  <g id="_圖層_1-2" data-name="圖層 1">
    <path class="cls-2" d="m.39,17.01C242.12,315.39,647.93,181.02,783.83.3"/>
    <path class="cls-3" d="m66.19,125.75l31.24-14.97c1.43-.68,1.65-2.62.42-3.62l-22.71-18.37c-1.22-.99-3.05-.38-3.44,1.14l-8.54,33.34c-.45,1.77,1.37,3.27,3.02,2.48Z"/>
    <path class="cls-3" d="m11.85,75.71l29.13-11.3c1.45-.56,1.84-2.43.74-3.53l-17.51-17.51c-1.09-1.09-2.94-.71-3.52.72l-11.62,28.81c-.71,1.75,1.02,3.5,2.78,2.81Z"/>
    <path class="cls-1" d="m35.21,104.2l33.71-16.16c1.4-.67,1.65-2.57.47-3.58l-22.5-19.28c-1.17-1-2.99-.49-3.45.99l-11.21,35.44c-.57,1.8,1.28,3.41,2.98,2.59Z"/>
    <path class="cls-3" d="m129.33,176.8l3.06-43c.11-1.55,1.78-2.48,3.16-1.75l30.21,15.98c1.36.72,1.55,2.6.35,3.58l-33.27,27.02c-1.46,1.19-3.64.06-3.51-1.82Z"/>
    <path class="cls-1" d="m95.31,150.01l6.11-36.88c.25-1.54,2-2.3,3.3-1.45l24.79,16.23c1.29.85,1.3,2.74.02,3.59l-30.91,20.65c-1.57,1.05-3.63-.28-3.32-2.14Z"/>
    <path class="cls-3" d="m210.89,209.6l-6.5-42.62c-.23-1.54,1.19-2.81,2.69-2.4l32.99,8.92c1.49.4,2.09,2.2,1.13,3.41l-26.48,33.7c-1.17,1.48-3.54.86-3.82-1.01Z"/>
    <path class="cls-1" d="m166.88,196.18l2.79-43.9c.1-1.51,1.69-2.46,3.06-1.82l28.54,13.31c1.36.64,1.67,2.44.59,3.49l-31.33,30.59c-1.41,1.38-3.78.29-3.65-1.68Z"/>
    <path class="cls-3" d="m297.74,230.18l-11.94-41.42c-.43-1.5.82-2.94,2.36-2.73l33.86,4.59c1.53.21,2.35,1.91,1.56,3.24l-21.92,36.83c-.96,1.62-3.4,1.31-3.92-.5Z"/>
    <path class="cls-1" d="m250.32,222.66l-4.79-43.73c-.17-1.51,1.24-2.71,2.7-2.31l30.4,8.22c1.45.39,2.07,2.12,1.18,3.34l-25.61,35.51c-1.15,1.6-3.67.94-3.89-1.03Z"/>
    <path class="cls-3" d="m387.38,234.99l-18.7-38.84c-.68-1.4.31-3.04,1.87-3.09l34.15-1.14c1.54-.05,2.64,1.49,2.08,2.93l-15.45,39.98c-.68,1.76-3.13,1.86-3.95.16Z"/>
    <path class="cls-1" d="m342.98,235.87l-13.91-41.73c-.48-1.44.64-2.91,2.15-2.83l31.45,1.62c1.5.08,2.47,1.63,1.86,3.01l-17.54,40.12c-.79,1.81-3.39,1.69-4.02-.18Z"/>
    <path class="cls-3" d="m471.13,226.41l-23.65-36.04c-.85-1.3-.09-3.05,1.45-3.31l33.7-5.62c1.52-.25,2.81,1.13,2.45,2.63l-10.05,41.67c-.44,1.83-2.86,2.25-3.89.68Z"/>
    <path class="cls-1" d="m431.1,233.84l-20.98-38.66c-.72-1.33.12-2.98,1.63-3.16l31.25-3.9c1.49-.19,2.71,1.18,2.36,2.64l-10.27,42.56c-.46,1.92-3.05,2.26-3.99.52Z"/>
    <path class="cls-3" d="m552.24,208.02l-28.74-32.13c-1.04-1.16-.54-3,.94-3.48l32.5-10.57c1.47-.48,2.95.7,2.81,2.24l-3.75,42.7c-.17,1.88-2.49,2.65-3.75,1.25Z"/>
    <path class="cls-1" d="m510.47,219.88l-24.14-36.78c-.83-1.27-.13-2.98,1.36-3.29l30.82-6.49c1.47-.31,2.8.95,2.57,2.44l-6.68,43.27c-.3,1.95-2.85,2.5-3.93.85Z"/>
    <path class="cls-3" d="m697.01,129.91l-30.55-16.34c-1.4-.75-1.54-2.69-.26-3.63l23.5-17.35c1.26-.93,3.07-.24,3.39,1.29l7.05,33.69c.37,1.79-1.51,3.2-3.12,2.34Z"/>
    <path class="cls-3" d="m755.38,79.26l-29.13-11.3c-1.45-.56-1.84-2.43-.74-3.53l17.51-17.51c1.09-1.09,2.94-.71,3.52.72l11.62,28.81c.71,1.75-1.02,3.5-2.78,2.81Z"/>
    <path class="cls-1" d="m731.22,108.7l-33.71-16.16c-1.4-.67-1.65-2.57-.47-3.58l22.5-19.28c1.17-1,2.99-.49,3.45.99l11.21,35.44c.57,1.8-1.28,3.41-2.98,2.59Z"/>
    <path class="cls-3" d="m631.09,177.19l-1.23-43.09c-.04-1.56-1.67-2.55-3.08-1.88l-30.86,14.68c-1.39.66-1.66,2.53-.5,3.56l32.09,28.42c1.41,1.25,3.63.21,3.58-1.67Z"/>
    <path class="cls-1" d="m666.21,152.95l-4.04-37.17c-.17-1.55-1.87-2.41-3.22-1.63l-25.66,14.82c-1.34.77-1.45,2.66-.22,3.59l29.7,22.35c1.51,1.13,3.64-.08,3.44-1.95Z"/>
    <path class="cls-1" d="m593.6,193.82l.18-43.99c0-1.52-1.52-2.56-2.93-2.02l-29.37,11.36c-1.4.54-1.83,2.32-.83,3.44l29.19,32.63c1.32,1.47,3.75.55,3.76-1.43Z"/>
  </g>
</svg>