<?xml version="1.0" encoding="UTF-8"?>
<svg id="_圖層_2" data-name="圖層 2" xmlns="http://www.w3.org/2000/svg" viewBox="0 0 573.5 277.31">
  <defs>
    <style>
      .cls-1 {
        fill: #db465f;
      }

      .cls-2 {
        fill: none;
        stroke: #f5dfa5;
        stroke-miterlimit: 10;
      }

      .cls-3 {
        fill: #f5dfa5;
      }
    </style>
  </defs>
  <g id="_圖層_1-2" data-name="圖層 1">
    <path class="cls-2" d="m.09,243.28C63.09,254.28,430.09,207.28,573.09.28"/>
    <path class="cls-1" d="m50.95,275.94l12.82-32.67c.57-1.45-.54-3-2.09-2.94l-27.79,1.16c-1.54.06-2.52,1.68-1.86,3.08l14.97,31.51c.81,1.7,3.26,1.62,3.95-.14Z"/>
    <path class="cls-3" d="m94.51,273.48l11.31-34.8c.48-1.48-.72-2.97-2.27-2.81l-28.85,2.93c-1.54.16-2.41,1.83-1.67,3.18l17.55,31.87c.91,1.65,3.35,1.42,3.94-.37Z"/>
    <path class="cls-1" d="m140.52,271.75l11.83-41.45c.43-1.5-.82-2.94-2.37-2.72l-33.85,4.68c-1.53.21-2.35,1.92-1.55,3.24l22.01,36.78c.97,1.62,3.4,1.3,3.92-.51Z"/>
    <path class="cls-3" d="m187.4,263.23l8.43-42.28c.3-1.53-1.06-2.86-2.58-2.52l-33.36,7.41c-1.51.33-2.18,2.1-1.29,3.36l24.93,34.87c1.1,1.53,3.5,1.02,3.86-.83Z"/>
    <path class="cls-1" d="m232.53,250.68l6.3-42.65c.23-1.54-1.2-2.8-2.7-2.39l-32.94,9.07c-1.49.41-2.07,2.21-1.12,3.42l26.64,33.58c1.17,1.48,3.54.84,3.82-1.02Z"/>
    <path class="cls-3" d="m275.85,238.77l4.05-42.92c.15-1.55-1.35-2.74-2.82-2.25l-32.42,10.79c-1.46.49-1.96,2.31-.93,3.47l28.37,32.13c1.25,1.41,3.58.65,3.76-1.22Z"/>
    <path class="cls-1" d="m317.81,224.91l4.05-42.92c.15-1.55-1.35-2.74-2.82-2.25l-32.42,10.79c-1.46.49-1.96,2.31-.93,3.47l28.37,32.13c1.25,1.41,3.58.65,3.76-1.22Z"/>
    <path class="cls-3" d="m360.32,208.6l.61-43.11c.02-1.56-1.56-2.62-3-2.01l-31.45,13.35c-1.42.6-1.76,2.46-.65,3.53l30.85,29.76c1.36,1.31,3.62.37,3.65-1.52Z"/>
    <path class="cls-1" d="m400.68,189.91l-1.64-43.08c-.06-1.55-1.7-2.54-3.1-1.85l-30.72,14.97c-1.39.68-1.63,2.55-.47,3.56l32.36,28.11c1.42,1.24,3.64.18,3.56-1.71Z"/>
    <path class="cls-3" d="m439.93,168.22l-4.65-42.86c-.17-1.55-1.87-2.41-3.22-1.63l-29.59,17.09c-1.34.77-1.45,2.66-.22,3.59l34.25,25.77c1.51,1.13,3.64-.08,3.44-1.95Z"/>
    <path class="cls-1" d="m476.45,145.86l-6.49-42.62c-.23-1.54-1.97-2.33-3.29-1.49l-28.83,18.34c-1.3.83-1.34,2.72-.06,3.59l35.32,24.28c1.55,1.07,3.63-.24,3.35-2.1Z"/>
    <path class="cls-3" d="m511.1,120.44l-10-41.93c-.36-1.51-2.16-2.16-3.4-1.22l-27.21,20.67c-1.23.93-1.11,2.82.23,3.59l37.21,21.27c1.64.94,3.6-.54,3.16-2.37Z"/>
    <path class="cls-1" d="m538.45,90.79l-10.69-35.82c-.44-1.49-2.28-2.03-3.46-1.02l-22.56,19.21c-1.18,1-.95,2.88.43,3.57l33.25,16.61c1.69.84,3.57-.74,3.03-2.54Z"/>
  </g>
</svg>