<svg xmlns="http://www.w3.org/2000/svg" viewBox="0 0 1919.17 344.33"><defs><style>.cls-1{fill:#d01b2e;}.cls-2{fill:#f3cdd0;}.cls-3{fill:#fdf9f9;}.cls-4{fill:#fcf8f7;}.cls-5{fill:#f6dedf;}.cls-6{fill:#faf0ef;}.cls-7{fill:#cf2030;}.cls-8{fill:#d1162d;}.cls-9{fill:#d0192e;}.cls-10{fill:#cc1021;}.cls-11{fill:#d1192e;}.cls-12{fill:#ca0a1b;}.cls-13{fill:#ca0a1c;}.cls-14{fill:#d1172d;}.cls-15{fill:#cc1223;}.cls-16{fill:#d01a2e;}.cls-17{fill:#cb0d1e;}.cls-18{fill:#d0182d;}.cls-19{fill:#d1152d;}.cls-20{fill:#ca0719;}.cls-21{fill:#ce192a;}.cls-22{fill:#ca091a;}.cls-23{fill:#cb0c1e;}.cls-24{fill:#d0182e;}.cls-25{fill:#d1142c;}.cls-26{fill:#ce1829;}.cls-27{fill:#cd1324;}.cls-28{fill:#c12;}.cls-29{fill:#bd1e2d;}.cls-30{fill:#fefdfd;}.cls-31{fill:#fefcfd;}.cls-32{fill:#ce1a2b;}.cls-33{fill:#cd1627;}.cls-34{fill:#cb0b1d;}.cls-35{fill:#cd192a;}.cls-36{fill:#ce1b2c;}.cls-37{fill:#ce1c2c;}.cls-38{fill:#cf1e2e;}.cls-39{fill:#cb1122;}.cls-40{fill:#cc1324;}.cls-41{fill:#cf1c2c;}.cls-42{fill:#eba4aa;}.cls-43{fill:#cd1728;}.cls-44{fill:#cc1425;}.cls-45{fill:#cb0c1c;}.cls-46{fill:#cd1828;}.cls-47{fill:#cb0f20;}.cls-48{fill:#dd636d;}.cls-49{fill:#d84b58;}.cls-50{fill:#cb0c1d;}.cls-51{fill:#cd1829;}.cls-52{fill:#cb1020;}.cls-53{fill:#ce1728;}.cls-54{fill:#cb1021;}.cls-55{fill:#eca7ae;}.cls-56{fill:#cd1626;}.cls-57{fill:#ea9fa6;}.cls-58{fill:#e5858e;}.cls-59{fill:#d52131;}.cls-60{fill:#cd1223;}.cls-61{fill:#ea9ca2;}.cls-62{fill:none;stroke:#f5dfa5;stroke-miterlimit:10;}.cls-63{fill:#db465f;}.cls-64{fill:#f5dfa5;}</style></defs><g id="圖層_2" data-name="圖層 2"><g id="圖層_1-2" data-name="圖層 1"><path class="cls-1" d="M1030.59,83.54v2.1c-.33.45-.58,1-1.3.88a1.88,1.88,0,0,1-.72-.88c-.31-3.07-1.12-6.18.64-9.11.77-.38,1,.23,1.38.71v2.1A5.29,5.29,0,0,0,1030.59,83.54Z"/><path class="cls-2" d="M1030.59,77.24l-.82-.67a4.61,4.61,0,0,1,.08-5.62h.74Z"/><path class="cls-3" d="M868,76.54h-.59v-4.9c.2,0,.4,0,.6,0l.46.4C869.1,73.64,869.36,75.18,868,76.54Z"/><path class="cls-4" d="M1030.59,94H1030c-1.42-1.42-1.16-3-.49-4.65a.77.77,0,0,1,1.08-.26Z"/><path class="cls-5" d="M1030.59,83.54a3.09,3.09,0,0,1,0-4.2Z"/><path class="cls-6" d="M1030.59,89.14H1030a1.92,1.92,0,0,1-.23-2.81l.82-.7Z"/><path class="cls-7" d="M1029.85,71c0,1.88-.06,3.75-.08,5.62-1.21,3.2-.31,6.52-.58,9.77a66.55,66.55,0,0,1,.06,14.18c0,2-.09,4.1-.13,6.14a123.82,123.82,0,0,0,0,18.17c-.46,6.63-.28,8.51-7.91,8.58-3.55,0-7.11.76-10.71.61-1.63.72-3.44-.18-5.07.57l-2.63.13c-1.63.71-3.44-.16-5.07.55l-3.34.15c-2.11.74-4.36-.2-6.47.55-7.19,1.33-14.53.42-21.76,1.37a220.51,220.51,0,0,0-25.19.09c-4.44.8-8.87,0-13.3-.06a.54.54,0,0,1-.21-.58c-1.29-.21-2.63.11-3.89-.38-2.13.11-4.28-.3-6.39.24-2,0-4,.6-5.9-.46-1-1-2.23-.23-3.34-.5-1.35.12-2.74-.25-4.07.25a3.77,3.77,0,0,1-2.85-.47c-2-1-4.14-.41-6.23-.29a4.81,4.81,0,0,1-3-.47c-1.32-.84-2.7-.41-4.06-.17a5.33,5.33,0,0,1-3-.49c-1.06-.79-2.18-.51-3.3-.19-2.93.44-5.74-.68-8.66-.69a3.28,3.28,0,0,1-3.1-2.77c.46-5.28,0-10.57.21-15.36a1.32,1.32,0,0,1-.48.89c-.69-3.08-.44-6.21-.48-9.32.55-4.41.09-8.84.24-13.24,0-1.93,0-3.86,0-5.79,0-.47.06.13,0-.33s-.26-.36-.44,0a37.67,37.67,0,0,1-.49-10,15.68,15.68,0,0,0,.07-5.59l-.29,0c.63-.79,1.06-1.81,2.25-2a4.05,4.05,0,0,0,1.92.21,1.86,1.86,0,0,0,1-.11.8.8,0,0,1-1-.31,4.81,4.81,0,0,1,3-.48,13.17,13.17,0,0,0,3.81.18c.46,0,.74-.18.28-.11a2.13,2.13,0,0,1-.11-.32,3.2,3.2,0,0,1,2.33-.44c1.87.22,3.74.53,5.57-.21,3.57-1.31,7.36-.82,11-1.19,8.2-.84,16.47-1,24.72-1.45a9.24,9.24,0,0,0,4.84,0c12.3-1.18,24.61-.8,36.92-.51a11.82,11.82,0,0,1,2.36.54c2.81.73,5.73-.22,8.55.54l1.94.11a25.56,25.56,0,0,0,8.37.07c4.95,1.09,10,.34,15,1.08,3.36.5,6.84.5,10.24,1,1.64.71,3.44-.15,5.08.55l1.22.11c1.86.82,3.9-.16,5.77.59C1025.45,69.41,1027.87,69.18,1029.85,71Z"/><path class="cls-8" d="M975.42,66c-2.85-.19-5.77.7-8.55-.54C969.72,65.53,972.64,64.63,975.42,66Z"/><path class="cls-9" d="M985.73,66.15a12.22,12.22,0,0,1-8.37-.07Z"/><path class="cls-10" d="M879.1,68.74c.29.19,1,.58.71.62-1.55.18-3.2.64-4.69-.37Z"/><path class="cls-11" d="M1023.06,69.47c-1.92-.17-4,.71-5.77-.59C1019.23,69,1021.25,68.17,1023.06,69.47Z"/><path class="cls-12" d="M887,68.09c-1.81,1.21-3.68,1-5.57.21Z"/><path class="cls-13" d="M927.59,65.4a4.55,4.55,0,0,1-4.84,0Z"/><path class="cls-14" d="M1016.07,68.77c-1.7-.14-3.49.64-5.08-.55C1012.7,68.25,1014.49,67.56,1016.07,68.77Z"/><path class="cls-15" d="M872.14,69.47a1.79,1.79,0,0,1,.62.18c.34.23.3.51-.11.54-.85,0-1.75.25-2.43-.51Z"/><path class="cls-16" d="M940.92,137.43c.7-.85,1.68-.67,2.59-.67h20.32a2.75,2.75,0,0,1,2.28.58Z"/><path class="cls-17" d="M869.37,115.93l.34-3.68c.12,6.07,1.13,12.13-.07,18.15Z"/><path class="cls-18" d="M1029.07,124.83a54.59,54.59,0,0,1,0-18.17Q1029.09,115.75,1029.07,124.83Z"/><path class="cls-19" d="M1029.25,100.52l-.06-14.18h.58l.23,2.81v4.9C1029.44,96.17,1030.67,98.5,1029.25,100.52Z"/><path class="cls-20" d="M869.46,92.65c-.33,4.64.74,9.35-.57,14l-.07-14C869,92.32,869.25,92.32,869.46,92.65Z"/><path class="cls-17" d="M869.46,92.65h-.64c0-1.81-.09-3.62-.14-5.43.08-.44.16-.88.25-1.32l.53,0Z"/><path class="cls-21" d="M917.13,136.65c2.24-1.21,4.66-.33,7-.59a.7.7,0,0,1,.34.61.37.37,0,0,1-.53.3Z"/><path class="cls-22" d="M894.74,135.18c2.12-.71,4.22-1.15,6.23.29Z"/><path class="cls-1" d="M987.87,136c2.07-1.23,4.31-.38,6.47-.55C992.27,136.68,990,135.88,987.87,136Z"/><path class="cls-10" d="M868.26,71.62a6.31,6.31,0,0,1-.07,5.59l-.23-.67Z"/><path class="cls-23" d="M887.72,134.54c1.44-1.1,3.09-.41,4.65-.53,0,0,.11.13.16.19l-.75.51Z"/><path class="cls-24" d="M1005.38,134.59c1.57-1.22,3.37-.42,5.07-.57C1008.88,135.24,1007.09,134.55,1005.38,134.59Z"/><path class="cls-25" d="M997.68,135.27c1.58-1.19,3.38-.4,5.07-.55C1001.18,135.94,999.39,135.23,997.68,135.27Z"/><path class="cls-26" d="M908,135.36c1.27,0,2.54,0,3.81,0,.56,0,.37.38.08.59a2,2,0,0,1-.66.2L908,136c-.23-.13-.3-.27-.23-.41S907.92,135.36,908,135.36Z"/><path class="cls-27" d="M881.4,133.86a3.62,3.62,0,0,1,3.76-.47c1,.36-.3.4-.46.66Z"/><path class="cls-28" d="M908,135.36V136l-4.18,0C905.09,134.86,906.61,135.55,908,135.36Z"/><path class="cls-29" d="M927.61,136.76c0,.2,0,.4,0,.61-1.25,0-2.55.55-3.7-.4l.22-.25A4.2,4.2,0,0,1,927.61,136.76Z"/><path class="cls-30" d="M969,103.14c.16-1.66-.33-3.17-1.36-5.64,0,8.12-.17,15.24.08,22.35.11,3.16-1.58,2.9-3.65,2.93s-3.64.11-3.59-3c.19-12.58.14-25.17,0-37.75,0-2.39.78-2.85,3-2.85,8.24,0,8.22-.06,9.78,8,.81,4.21,1.73,8.4,2.6,12.6,1,.78.75,1.61.28,2.4,1.13-.92,0-2.86,1.35-3.81,1.59-5.36,2.06-10.92,3.07-16.39.39-2.1,1.05-3,3.3-2.82,2.89.23,5.8.13,8.7.18.8.43.57,1.2.57,1.86q0,19.51,0,39a2.22,2.22,0,0,1-.41,1.64c-2.15,1.64-4.58.52-6.88.72-.85-.68-.74-1.65-.74-2.57-.05-6.36.1-12.71-.3-19-.16,1.21-.13,2.46-1.21,3.3-1.17,5.18-2.48,10.34-3.45,15.57-.43,2.35-1.49,2.86-3.71,2.9s-3.13-.7-3.64-3c-.85-3.75-.72-7.8-3-11.17A5.67,5.67,0,0,1,969,103.14Z"/><path class="cls-31" d="M914.4,96.14c4.55,1.75,5.5,1.17,5.5-3.31,0-3.6.11-7.21,0-10.81-.09-2.06.41-3,2.67-2.79,1.84.2,3.71.11,5.57.15.86.58.54,1.47.54,2.23q0,19.47,0,38.93c0,.74.39,1.66-.6,2.16-8.14.19-8.14.19-8.14-7.94v-6.24c0-4.45-1-5-5.5-3.27a3.25,3.25,0,0,1,.52,1.19c-.17,5.21.78,10.45-.57,15.61-2.24,1.43-4.71.47-7.07.64-1.34.1-1.29-1-1.29-2,0-13.13,0-26.27,0-39.4,0-1.48.44-2.13,2-2,2.09.1,4.18.08,6.28.12,1.38,1.72.7,3.74.75,5.62.08,3.31.13,6.63-.05,10A3.37,3.37,0,0,1,914.4,96.14Z"/><path class="cls-30" d="M946.69,79.38c8.13-.43,8.13-.43,8.13,7.63,0,8.27,0,16.54,0,24.81,0,4.31-.43,8.56-5,10.69s-11.31.82-14.92-2.64c-.88-.71-1.67-1.45-1-2.72-.09-11.63,0-23.27-.34-34.89-.12-4.19,2.58-2.75,4.57-3,2.4-.29,3.74.06,3.66,3.18-.24,9.42-.1,18.85-.07,28.28,0,1.24-.38,2.57.56,3.68h0c2.18,2.28,2.94,2.14,4.2-.75-.66-8.34-.21-16.68-.24-25C946.22,85.54,945.61,82.41,946.69,79.38Z"/><path class="cls-30" d="M1006.76,115.06c2.34,1.59,3.37.43,3.76-1.85.56-3.26-.94-5.51-3.51-7.36a23.85,23.85,0,0,1-7.16-7.23c-3.07-5.37-2.78-11.13-.12-16.37,2.43-4.81,7.45-4,11.84-3.59,3.78.33,5.64,2.85,6,6.44.26,2.42.23,4.87.32,7.31a11.27,11.27,0,0,1-7.6,0c-.07-1.62-.06-3.25-.22-4.86a1.89,1.89,0,0,0-1.91-1.71,1.77,1.77,0,0,0-2,1.55c-.32,2.65-.73,5.36,1.87,7.31,1.93,1.45,3.78,3,5.65,4.53,5.32,4.31,5.48,10.12,4.72,16.19-.1.8-.28,1.59-.43,2.38-.73,4.41-4.31,5.37-7.81,6.44a18.17,18.17,0,0,1-3.9-.06,2.09,2.09,0,0,1-1.4-.88c-6-2.31-8.34-6.47-7.35-12.9.18-1.14.57-1.67,1.73-1.61a13.25,13.25,0,0,0,2.44,0c2.82-.39,4.54.31,3.94,3.63-.07.4.24.87.37,1.3C1006.57,114,1006.32,114.74,1006.76,115.06Z"/><path class="cls-30" d="M892.71,114.62c1.16-2,.55-4.09.56-6.14,0-1.77.47-2.49,2.37-2.42,7,.25,6-1.06,5.88,5.81-.2,9-4,12.28-13,11.37-5.62-.56-8.25-3-8.39-8.56-.22-9-.27-18,0-26.91.2-6.12,3.69-9.22,10.2-9.33,6.66-.11,10.26,2.92,10.9,9.15.09.93.18,1.86.18,2.79,0,5.91.47,4.64-4.72,5-2.88.19-3.73-.86-3.37-3.52a16.48,16.48,0,0,0,0-3.14c-.08-1.26-.57-2.31-1.95-2.54s-2.62-.19-2.93,1.57c0,8.87,0,17.73.05,26.6,1,2.18,2.4,2,4,.7Q892.21,114.59,892.71,114.62Z"/><path class="cls-32" d="M888.44,114.34a156.48,156.48,0,0,1-.05-26.6,4.57,4.57,0,0,1,.66,1.52q.06,11.76,0,23.54A4.8,4.8,0,0,1,888.44,114.34Z"/><path class="cls-33" d="M959.73,80.26v41.55h-.34V80.14Z"/><path class="cls-34" d="M928,122.7l.06-43.32c1.24.62.9,1.79.9,2.78q0,18.9,0,37.8C929,121,929.33,122.13,928,122.7Z"/><path class="cls-35" d="M905.1,80.27v41.55h-.35V80.13Z"/><path class="cls-36" d="M992.69,121.93q-.09-21.27-.17-42.53a1.6,1.6,0,0,1,.93,1.69q0,20.14,0,40.3a.83.83,0,0,1-.2.59C993.16,122.07,992.89,122,992.69,121.93Z"/><path class="cls-7" d="M1010.27,123.45a9.78,9.78,0,0,0,7.73-5.6,1.32,1.32,0,0,1,.41,1.82c-1.66,3.34-9,7-12.71,6.28-1.08-.22-2.42-.7-2.51-2-.06-.79,1.11-.38,1.7-.59l1.18.1A5.33,5.33,0,0,0,1010.27,123.45Z"/><path class="cls-37" d="M914.37,106l0-.71c5.34,0,4.78-.52,4.8,4.92a65.67,65.67,0,0,1-.69,11.78c0-4.32,0-8.64,0-13,0-1.12.62-3-1.44-2.88s-1.27,1.89-1.3,3c-.12,4.28-.11,8.57-.16,12.85,0,.06-.16.16-.24.17a.84.84,0,0,1-.33-.1c-.73-4-.14-8-.35-12C914.59,108.68,915,107.28,914.37,106Z"/><path class="cls-38" d="M933.22,117.15c-.22-.39-.63-.78-.63-1.18,0-11.94,0-23.88.63-35.83v37Z"/><path class="cls-39" d="M942.29,114.4V79.72c1.09,1.28.71,2.28.71,3.14q.06,14,0,27.93c0,1.22.47,2.59-.72,3.6Z"/><path class="cls-40" d="M946.69,79.38l-.21,34.26c-.84-.71-.65-1.68-.65-2.59q0-14.43,0-28.87C945.84,81.18,945.51,80,946.69,79.38Z"/><path class="cls-41" d="M914.38,95.45q-.09-8-.16-16.08c2,.21,1.46,1.76,1.47,2.92,0,4.38,0,8.77,0,13.15A.89.89,0,0,1,914.38,95.45Z"/><path class="cls-42" d="M984.38,99.68a2.43,2.43,0,0,1,1.43-2.93v25.9l-.74.1c-.72-2-.35-4.12-.32-6.17C984.83,110.94,984.46,105.31,984.38,99.68Z"/><path class="cls-43" d="M984.38,99.68c1.24.84.63,2.12.64,3.19.06,6.62,0,13.25.05,19.88-1.42-1.74-.54-3.78-.69-5.67-.34-4.24.63-8.56-.82-12.72A10,10,0,0,1,984.38,99.68Z"/><path class="cls-44" d="M879.09,88.63V114.3h-.35V88.58Z"/><path class="cls-45" d="M969,103.14c.25,1.86.51,3.71.76,5.57-1.63,2.58-.5,5.42-.77,8.13a33.51,33.51,0,0,1-.36,4.46C968.73,115.24,967.4,109.16,969,103.14Z"/><path class="cls-41" d="M914.37,106c1.38,3.91.31,8,.62,11.94.1,1.37,0,2.77,0,4.15h-.66Z"/><path class="cls-46" d="M918.5,95.44V80.19h.65V95.46A.38.38,0,0,1,918.5,95.44Z"/><ellipse class="cls-47" cx="986.81" cy="78.3" rx="7.3" ry="0.23"/><path class="cls-48" d="M1020.05,123.42c1.84-1.26,2.67.11,3.53,1.37.67,1.22.12,1.91-1,2.36-1.14-.18-1.5-1.23-2.17-1.93C1020.06,124.67,1019.64,124.13,1020.05,123.42Z"/><path class="cls-49" d="M1020.05,123.42l.69,1.26c-.07,1.24.84,2.24.87,3.46-.47.61-1,.76-1.62.21-.52.22-1.1.76-1.36-.29a4.55,4.55,0,0,1,.54-4.39Z"/><path class="cls-47" d="M970.88,78.45h-9.62v-.34h9.62Z"/><path class="cls-26" d="M892.71,114.62a.33.33,0,0,1-.27.42c-1.26-2.76-.2-5.56-.58-8.34h.85Z"/><path class="cls-50" d="M977.45,98.43a9.43,9.43,0,0,1-1.35,5c-.13-1.65-.2-2.65-.28-3.64l.78-1.76c.11-.23,0-.73.48-.49C977.29,97.71,977.33,98.14,977.45,98.43Z"/><path class="cls-51" d="M913.59,124h-6.83A12.48,12.48,0,0,1,913.59,124Z"/><path class="cls-52" d="M906.63,78.12h6.79v.27h-6.78Z"/><path class="cls-52" d="M927.41,78.45h-6.78v-.34h6.82Z"/><path class="cls-52" d="M954,78.45h-6.78v-.34h6.82Z"/><path class="cls-51" d="M927.42,124h-6.79v-.35h6.82Z"/><path class="cls-36" d="M894.31,104.68h6.55A10.68,10.68,0,0,1,894.31,104.68Z"/><ellipse class="cls-53" cx="892.24" cy="91.59" rx="0.22" ry="4.37"/><path class="cls-54" d="M934.82,78.11h6.09v.34h-6.14Z"/><path class="cls-28" d="M1011.65,77.74h-6.11v-.28h6.11Z"/><path class="cls-32" d="M903,106.82v6h-.35v-6Z"/><path class="cls-37" d="M998.56,107.52h6.09v.35h-6.14Z"/><path class="cls-51" d="M991.91,124h-6v-.35h6Z"/><path class="cls-15" d="M1010.32,92.46l7.6,0A7.06,7.06,0,0,1,1010.32,92.46Z"/><path class="cls-51" d="M966.69,124h-5.31v-.34h5.32Z"/><path class="cls-47" d="M893.16,77.78h-4.61v-.33h4.59Z"/><path class="cls-55" d="M1022.17,127.08a2.16,2.16,0,0,0,1.41-2.29c1.43,1.5.85,2.64-.66,3.59-.56.3-.82,0-1-.48A.87.87,0,0,1,1022.17,127.08Z"/><path class="cls-51" d="M978.61,124H974v-.34h4.63Z"/><path class="cls-56" d="M1006.76,115.06c-.68-.19-.76-.71-.74-1.31v-4.13l.74,0Z"/><path class="cls-57" d="M1019.17,123.67l-.54,4.4C1017.16,126.4,1017.66,125,1019.17,123.67Z"/><path class="cls-58" d="M1022.2,127.61l.72.77c-1,1.42-2,2.23-2.93,0,.58,0,1.16,0,1.43-.66A.52.52,0,0,1,1022.2,127.61Z"/><path class="cls-59" d="M927.61,136.76l-3.47,0q0-.33,0-.66H929c-.18.28-.26.56-.4.6A5.71,5.71,0,0,1,927.61,136.76Z"/><path class="cls-60" d="M918.5,95.44l.65,0c-1.43,1.32-3.17.39-4.75.68l0-.69h4.12Z"/><path class="cls-38" d="M933.91,117.15c.32.91.65,1.81,1,2.72-1.56-.29-1.69-1.46-1.66-2.72h.69Z"/><path class="cls-7" d="M1010.27,123.45a3.17,3.17,0,0,1-4.2,0Z"/><path class="cls-61" d="M1022.2,127.61l-.78.08c-2.11-.57-1.64-1.73-.68-3a2.45,2.45,0,0,1,1.43,2.4A4.71,4.71,0,0,1,1022.2,127.61Z"/><path class="cls-62" d="M.09,244.3c63,11,430-36,573-243"/><path class="cls-62" d="M573.09,1.3c245,293,644,171,775-1"/><path class="cls-63" d="M42.47,290.51l18.1-46.15a2.15,2.15,0,0,0-2.09-2.94l-39.26,1.63a2.16,2.16,0,0,0-1.86,3.08l21.16,44.52A2.16,2.16,0,0,0,42.47,290.51Z"/><path class="cls-64" d="M93.48,284.5l13-45.62a2.15,2.15,0,0,0-2.36-2.72l-37.25,5.15a2.15,2.15,0,0,0-1.55,3.24L89.56,285A2.15,2.15,0,0,0,93.48,284.5Z"/><path class="cls-63" d="M292.93,281.75l13.21-100.12a2.16,2.16,0,0,0-2.74-2.35l-76.83,22.45a2.15,2.15,0,0,0-1.06,3.43l63.62,77.67A2.15,2.15,0,0,0,292.93,281.75Z"/><path class="cls-64" d="M401.59,239.53v-101a2.16,2.16,0,0,0-3-2l-73.23,32.31a2.16,2.16,0,0,0-.61,3.54L398,241.11A2.16,2.16,0,0,0,401.59,239.53Z"/><path class="cls-63" d="M509.67,179.86l-19.82-99a2.15,2.15,0,0,0-3.35-1.34L421,125.55a2.15,2.15,0,0,0,.1,3.59l85.29,53A2.15,2.15,0,0,0,509.67,179.86Z"/><path class="cls-64" d="M597.85,106.47,561.34,12.32a2.15,2.15,0,0,0-3.53-.75l-56.6,56.6a2.16,2.16,0,0,0,.72,3.52L595,109.24A2.15,2.15,0,0,0,597.85,106.47Z"/><path class="cls-62" d="M1919.09,254.3c-63,11-430-36-573-243"/><path class="cls-63" d="M1850.93,342.85l-31.61-95.91a2.16,2.16,0,0,1,2.26-2.82l79.66,7.76a2.16,2.16,0,0,1,1.69,3.18l-48.06,88.15A2.16,2.16,0,0,1,1850.93,342.85Z"/><path class="cls-64" d="M1738.78,325.63l-22.35-98.48a2.15,2.15,0,0,1,2.51-2.59l78.57,15.29a2.15,2.15,0,0,1,1.37,3.32l-56.21,83.19A2.16,2.16,0,0,1,1738.78,325.63Z"/><path class="cls-63" d="M1626.24,295.75,1613,195.63a2.16,2.16,0,0,1,2.74-2.35l76.83,22.45a2.15,2.15,0,0,1,1.06,3.43l-63.61,77.67A2.16,2.16,0,0,1,1626.24,295.75Z"/><path class="cls-64" d="M1517.59,253.53v-101a2.15,2.15,0,0,1,3-2l73.23,32.31a2.15,2.15,0,0,1,.61,3.54l-73.24,68.68A2.15,2.15,0,0,1,1517.59,253.53Z"/><path class="cls-63" d="M1409.5,193.86l19.82-99a2.15,2.15,0,0,1,3.35-1.34l65.47,46.05a2.15,2.15,0,0,1-.1,3.59l-85.29,53A2.15,2.15,0,0,1,1409.5,193.86Z"/><path class="cls-64" d="M1321.32,120.47l36.51-94.15a2.16,2.16,0,0,1,3.53-.75l56.6,56.6a2.15,2.15,0,0,1-.72,3.52l-93.11,37.55A2.15,2.15,0,0,1,1321.32,120.47Z"/><path class="cls-63" d="M609.61,156.21l87.12-51.06a2.15,2.15,0,0,0,.17-3.6L632,54.7A2.15,2.15,0,0,0,628.64,56l-22.22,97.91A2.15,2.15,0,0,0,609.61,156.21Z"/><path class="cls-64" d="M713.64,220l77.76-64.43A2.16,2.16,0,0,0,791,152l-71.6-35.77a2.15,2.15,0,0,0-3.11,1.79l-6.15,100.21A2.15,2.15,0,0,0,713.64,220Z"/><path class="cls-63" d="M825.91,253.59l64-78.12a2.16,2.16,0,0,0-1.09-3.44l-77.13-21.41A2.15,2.15,0,0,0,809,153l13.14,99.54A2.15,2.15,0,0,0,825.91,253.59Z"/><path class="cls-64" d="M943.16,264.23l44.43-90.69a2.16,2.16,0,0,0-1.85-3.1l-80-3.2a2.15,2.15,0,0,0-2.1,2.91L939.21,264A2.15,2.15,0,0,0,943.16,264.23Z"/><path class="cls-63" d="M1058.9,251.49l30.18-96.37a2.15,2.15,0,0,0-2.3-2.78l-79.54,8.94a2.15,2.15,0,0,0-1.63,3.2L1055,251.9A2.15,2.15,0,0,0,1058.9,251.49Z"/><path class="cls-64" d="M1175.24,214.11l13.81-100a2.16,2.16,0,0,0-2.73-2.37l-77,22a2.16,2.16,0,0,0-1.08,3.43l63.16,78A2.15,2.15,0,0,0,1175.24,214.11Z"/><path class="cls-63" d="M1306.56,149l-28.88-96.77a2.15,2.15,0,0,0-3.46-1l-60.94,51.89a2.16,2.16,0,0,0,.44,3.57l89.81,44.87A2.15,2.15,0,0,0,1306.56,149Z"/></g></g></svg>