<svg width="1440" height="168" viewBox="0 0 1440 168" fill="none" xmlns="http://www.w3.org/2000/svg">
<path d="M38.9602 163.184L48.5523 144.021C48.6496 143.825 48.683 143.613 48.6495 143.404C48.616 143.195 48.5166 142.996 48.3604 142.825C48.2041 142.654 47.996 142.515 47.7545 142.423C47.5131 142.33 47.2459 142.286 46.9773 142.295L26.1359 142.976C25.8689 142.984 25.6088 143.045 25.379 143.151C25.1492 143.258 24.9568 143.408 24.8192 143.587C24.6817 143.767 24.6031 143.97 24.5907 144.179C24.5784 144.388 24.6326 144.596 24.7484 144.785L35.9979 163.289C36.1374 163.51 36.356 163.694 36.6268 163.819C36.8976 163.944 37.209 164.005 37.5231 163.993C37.8371 163.982 38.1401 163.9 38.3953 163.756C38.6505 163.612 38.8468 163.413 38.9602 163.184Z" fill="#DB465F"/>
<path d="M71.6362 161.733L80.1108 141.296C80.1931 141.097 80.2106 140.884 80.1617 140.678C80.1129 140.472 79.9993 140.278 79.8311 140.115C79.6629 139.952 79.4454 139.824 79.1983 139.743C78.9512 139.662 78.6824 139.631 78.4159 139.652L56.7718 141.373C56.5069 141.394 56.2531 141.467 56.0327 141.584C55.8123 141.702 55.6321 141.86 55.5083 142.044C55.3844 142.229 55.3207 142.435 55.3226 142.643C55.3246 142.852 55.3922 143.057 55.5194 143.24L68.6814 161.956C68.8347 162.172 69.0648 162.348 69.3438 162.462C69.6228 162.577 69.9384 162.625 70.252 162.602C70.5655 162.578 70.8636 162.483 71.1094 162.329C71.3553 162.175 71.5383 161.967 71.6362 161.733Z" fill="#F5DFA5"/>
<path d="M10.9795 159.002L19.1242 144.544C19.2304 144.35 19.2732 144.14 19.2489 143.93C19.2245 143.721 19.1338 143.519 18.9848 143.344C18.8358 143.169 18.6332 143.026 18.3956 142.928C18.158 142.83 17.8929 142.779 17.6242 142.782H1.62742C1.35947 142.781 1.09551 142.832 0.858965 142.931C0.62242 143.029 0.420776 143.172 0.272139 143.347C0.123503 143.521 0.0324245 143.722 0.00719799 143.931C-0.0180285 144.14 0.0232837 144.35 0.127493 144.544L7.9796 158.996C8.09759 159.232 8.3036 159.435 8.57064 159.578C8.83769 159.721 9.15341 159.798 9.47697 159.799C9.80054 159.799 10.117 159.724 10.3849 159.582C10.6529 159.44 10.86 159.238 10.9795 159.002Z" fill="#F5DFA5"/>
<path d="M106.142 160.717L115.014 136.375C115.089 136.173 115.099 135.959 115.041 135.753C114.984 135.547 114.862 135.356 114.686 135.197C114.51 135.037 114.286 134.915 114.034 134.841C113.782 134.766 113.511 134.743 113.244 134.772L87.8578 137.52C87.5935 137.549 87.3425 137.629 87.1269 137.752C86.9113 137.875 86.7381 138.038 86.6223 138.226C86.5065 138.414 86.4519 138.622 86.4634 138.831C86.4748 139.04 86.552 139.243 86.688 139.423L103.187 161.022C103.349 161.236 103.587 161.409 103.873 161.517C104.159 161.626 104.479 161.667 104.794 161.634C105.108 161.602 105.404 161.497 105.644 161.334C105.884 161.171 106.057 160.957 106.142 160.717Z" fill="#DB465F"/>
<path d="M141.293 155.714L147.615 130.884C147.668 130.678 147.654 130.464 147.575 130.263C147.495 130.062 147.353 129.88 147.161 129.733C146.968 129.586 146.732 129.479 146.474 129.421C146.215 129.364 145.942 129.358 145.68 129.404L120.661 133.756C120.401 133.801 120.16 133.896 119.958 134.033C119.757 134.169 119.601 134.343 119.506 134.537C119.411 134.732 119.379 134.943 119.413 135.149C119.447 135.356 119.546 135.553 119.702 135.723L138.391 156.201C138.575 156.401 138.829 156.555 139.123 156.644C139.417 156.733 139.737 156.752 140.045 156.701C140.353 156.649 140.635 156.528 140.857 156.353C141.078 156.177 141.23 155.955 141.293 155.714Z" fill="#F5DFA5"/>
<path d="M175.139 148.343L179.864 123.302C179.903 123.094 179.875 122.882 179.783 122.684C179.691 122.486 179.538 122.309 179.337 122.17C179.136 122.03 178.894 121.931 178.633 121.883C178.371 121.835 178.098 121.838 177.839 121.893L153.135 127.225C152.877 127.28 152.641 127.384 152.448 127.528C152.255 127.672 152.11 127.851 152.026 128.05C151.943 128.248 151.924 128.46 151.971 128.665C152.018 128.871 152.129 129.064 152.295 129.228L172.274 148.948C172.471 149.14 172.735 149.284 173.034 149.36C173.334 149.436 173.655 149.443 173.959 149.379C174.263 149.315 174.536 149.183 174.746 148.999C174.955 148.815 175.092 148.587 175.139 148.343Z" fill="#DB465F"/>
<path d="M207.627 141.349L210.665 116.149C210.691 115.94 210.65 115.728 210.545 115.535C210.441 115.341 210.276 115.17 210.066 115.039C209.855 114.908 209.607 114.819 209.342 114.783C209.077 114.746 208.805 114.761 208.55 114.828L184.236 121.165C183.982 121.23 183.752 121.343 183.568 121.495C183.384 121.647 183.251 121.832 183.181 122.035C183.111 122.237 183.106 122.449 183.167 122.653C183.229 122.857 183.353 123.046 183.531 123.203L204.807 142.071C205.017 142.255 205.291 142.387 205.595 142.451C205.898 142.515 206.22 142.508 206.519 142.431C206.818 142.355 207.082 142.212 207.279 142.019C207.476 141.827 207.597 141.594 207.627 141.349Z" fill="#F5DFA5"/>
<path d="M239.096 133.21L242.141 108.004C242.164 107.795 242.121 107.584 242.015 107.391C241.909 107.198 241.743 107.029 241.532 106.898C241.322 106.768 241.073 106.681 240.809 106.644C240.545 106.607 240.273 106.623 240.018 106.689L215.704 113.025C215.451 113.091 215.222 113.205 215.039 113.357C214.855 113.509 214.723 113.695 214.654 113.897C214.585 114.099 214.581 114.311 214.643 114.515C214.704 114.718 214.829 114.907 215.007 115.063L236.276 133.932C236.486 134.116 236.759 134.248 237.063 134.312C237.367 134.375 237.688 134.369 237.987 134.292C238.286 134.215 238.55 134.072 238.747 133.88C238.944 133.688 239.065 133.455 239.096 133.21Z" fill="#DB465F"/>
<path d="M270.977 123.637L271.434 98.3201C271.436 98.1103 271.37 97.9036 271.244 97.7184C271.119 97.5331 270.936 97.3752 270.713 97.2588C270.49 97.1424 270.234 97.0711 269.967 97.0514C269.7 97.0316 269.431 97.064 269.184 97.1456L245.598 104.986C245.352 105.067 245.135 105.194 244.968 105.357C244.8 105.52 244.686 105.712 244.637 105.918C244.588 106.123 244.605 106.335 244.686 106.534C244.768 106.733 244.911 106.914 245.103 107.059L268.24 124.536C268.467 124.706 268.754 124.82 269.064 124.865C269.373 124.91 269.693 124.883 269.983 124.787C270.274 124.692 270.523 124.532 270.699 124.328C270.875 124.124 270.972 123.884 270.977 123.637Z" fill="#F5DFA5"/>
<path d="M301.245 112.661L300.016 87.3617C300.005 87.1512 299.928 86.946 299.791 86.7647C299.654 86.5834 299.461 86.4316 299.23 86.3232C299 86.2148 298.738 86.1531 298.469 86.1437C298.2 86.1343 297.933 86.1775 297.691 86.2693L274.659 95.0783C274.419 95.1695 274.211 95.306 274.055 95.4755C273.899 95.6449 273.799 95.8422 273.764 96.0494C273.729 96.2566 273.76 96.4673 273.855 96.6628C273.95 96.8582 274.105 97.0322 274.307 97.169L298.576 113.677C298.814 113.84 299.109 113.944 299.422 113.977C299.736 114.01 300.055 113.969 300.34 113.861C300.625 113.753 300.862 113.581 301.023 113.368C301.184 113.154 301.262 112.909 301.245 112.661Z" fill="#DB465F"/>
<path d="M330.689 99.9174L327.194 74.7473C327.164 74.5385 327.068 74.3388 326.915 74.1663C326.761 73.9938 326.556 73.8537 326.316 73.7588C326.077 73.6639 325.811 73.617 325.543 73.6225C325.275 73.6279 325.012 73.6855 324.779 73.7899L302.588 83.8264C302.357 83.9306 302.163 84.078 302.022 84.2553C301.882 84.4327 301.8 84.6346 301.784 84.8429C301.767 85.0512 301.817 85.2593 301.929 85.4488C302.04 85.6383 302.21 85.8033 302.423 85.9288L328.109 101.069C328.362 101.216 328.664 101.303 328.978 101.318C329.293 101.333 329.606 101.276 329.88 101.154C330.154 101.032 330.377 100.85 330.52 100.63C330.664 100.411 330.723 100.163 330.689 99.9174Z" fill="#F5DFA5"/>
<path d="M358.07 86.792L353.203 61.7627C353.161 61.5548 353.055 61.3584 352.892 61.191C352.729 61.0236 352.516 60.8904 352.271 60.8036C352.026 60.7168 351.758 60.6791 351.49 60.6938C351.222 60.7085 350.963 60.7751 350.736 60.8877L329.114 71.6582C328.889 71.7702 328.703 71.9243 328.572 72.1066C328.442 72.289 328.371 72.4938 328.367 72.7028C328.362 72.9118 328.424 73.1183 328.547 73.304C328.669 73.4896 328.849 73.6486 329.069 73.7665L355.558 88.0252C355.818 88.1634 356.124 88.2394 356.438 88.2438C356.752 88.2483 357.062 88.181 357.328 88.0503C357.594 87.9196 357.806 87.731 357.938 87.5076C358.07 87.2842 358.116 87.0356 358.07 86.792Z" fill="#DB465F"/>
<path d="M384.064 71.858L376.564 47.2338C376.503 47.0284 376.377 46.8383 376.198 46.6807C376.019 46.5231 375.792 46.4031 375.539 46.3319C375.285 46.2606 375.013 46.2403 374.747 46.2727C374.48 46.3051 374.229 46.3892 374.015 46.5174L353.608 58.6561C353.396 58.7822 353.226 58.9475 353.115 59.1373C353.004 59.3271 352.955 59.5355 352.972 59.7438C352.989 59.9521 353.072 60.1538 353.213 60.3309C353.354 60.508 353.549 60.6549 353.781 60.7586L381.687 73.2498C381.961 73.3716 382.274 73.4282 382.588 73.4128C382.903 73.3973 383.204 73.3104 383.457 73.1627C383.709 73.015 383.901 72.8129 384.009 72.5812C384.117 72.3495 384.136 72.0982 384.064 71.858Z" fill="#F5DFA5"/>
<path d="M404.568 54.4454L396.551 33.4036C396.473 33.2028 396.332 33.0205 396.14 32.8732C395.949 32.7258 395.714 32.618 395.457 32.5597C395.199 32.5014 394.927 32.4944 394.665 32.5392C394.403 32.5841 394.159 32.6792 393.956 32.8164L377.037 44.0979C376.834 44.2341 376.678 44.4073 376.582 44.6023C376.485 44.7972 376.452 45.0079 376.484 45.2153C376.517 45.4228 376.615 45.6208 376.769 45.7916C376.923 45.9624 377.128 46.1007 377.367 46.1943L402.303 55.9489C402.586 56.0604 402.905 56.1043 403.219 56.075C403.533 56.0458 403.83 55.9448 404.071 55.7844C404.313 55.6241 404.489 55.4116 404.577 55.1735C404.666 54.9354 404.662 54.6822 404.568 54.4454Z" fill="#DB465F"/>
<path d="M435.902 18.2699L426.812 5.93726C426.676 5.75375 426.483 5.59994 426.25 5.49008C426.018 5.38021 425.755 5.31777 425.484 5.30842C425.213 5.29907 424.943 5.34315 424.7 5.4366C424.456 5.53004 424.246 5.66982 424.09 5.84321L415.435 15.4745C415.28 15.6469 415.182 15.8469 415.151 16.0564C415.12 16.266 415.157 16.4783 415.257 16.6739C415.358 16.8696 415.52 17.0423 415.728 17.1765C415.936 17.3106 416.183 17.4018 416.448 17.4417L434.199 20.155C434.505 20.2032 434.823 20.1808 435.113 20.0904C435.403 20.0001 435.654 19.8457 435.834 19.6461C436.014 19.4465 436.117 19.2101 436.129 18.9658C436.141 18.7215 436.062 18.4798 435.902 18.2699Z" fill="#DB465F"/>
<path d="M424.142 37.0799L414.453 18.2052C414.352 18.0068 414.188 17.8317 413.977 17.6963C413.766 17.5608 413.515 17.4693 413.247 17.4306C412.979 17.3919 412.702 17.4071 412.444 17.4747C412.185 17.5424 411.952 17.6605 411.768 17.8177L396.918 30.4263C396.734 30.5816 396.602 30.7709 396.536 30.9767C396.469 31.1825 396.47 31.3979 396.538 31.6034C396.606 31.8089 396.739 31.9976 396.925 32.1521C397.111 32.3066 397.343 32.4221 397.601 32.4876L422.14 38.7596C422.433 38.8339 422.747 38.8412 423.045 38.7808C423.343 38.7204 423.613 38.5947 423.823 38.4185C424.033 38.2422 424.175 38.0227 424.231 37.7856C424.288 37.5485 424.257 37.3037 424.142 37.0799Z" fill="#F5DFA5"/>
<path d="M480.825 63.8535L504.261 55.0445C504.506 54.9522 504.718 54.8129 504.875 54.6394C505.033 54.466 505.133 54.2641 505.164 54.0525C505.196 53.8409 505.158 53.6264 505.055 53.4292C504.952 53.232 504.788 53.0583 504.576 52.9244L487.544 42.1305C487.333 41.9983 487.084 41.9095 486.818 41.8721C486.552 41.8348 486.278 41.85 486.022 41.9166C485.766 41.9831 485.535 42.0988 485.35 42.2531C485.165 42.4074 485.033 42.5953 484.964 42.7999L478.567 62.3853C478.486 62.619 478.492 62.8661 478.586 63.097C478.679 63.328 478.855 63.5331 479.093 63.6879C479.331 63.8426 479.621 63.9405 479.928 63.9699C480.235 63.9992 480.546 63.9588 480.825 63.8535Z" fill="#F5DFA5"/>
<path d="M1379.04 167.136L1370.79 148.343C1370.71 148.144 1370.68 147.93 1370.73 147.721C1370.77 147.513 1370.88 147.316 1371.05 147.15C1371.22 146.984 1371.44 146.854 1371.68 146.771C1371.93 146.688 1372.2 146.655 1372.47 146.676L1393.35 148.22C1393.62 148.24 1393.88 148.313 1394.1 148.431C1394.32 148.549 1394.51 148.709 1394.63 148.897C1394.75 149.084 1394.82 149.293 1394.81 149.504C1394.8 149.715 1394.73 149.922 1394.6 150.105L1381.99 167.353C1381.84 167.567 1381.61 167.742 1381.33 167.855C1381.05 167.969 1380.74 168.017 1380.43 167.994C1380.11 167.971 1379.82 167.878 1379.57 167.726C1379.33 167.573 1379.14 167.369 1379.04 167.136Z" fill="#DB465F"/>
<path d="M1346.26 164.335L1339.24 144.368C1339.17 144.164 1339.16 143.95 1339.22 143.745C1339.29 143.539 1339.41 143.349 1339.59 143.191C1339.77 143.033 1340 142.913 1340.25 142.842C1340.5 142.77 1340.78 142.75 1341.04 142.782L1362.65 145.366C1362.92 145.398 1363.17 145.482 1363.38 145.611C1363.6 145.739 1363.77 145.908 1363.88 146.102C1363.99 146.295 1364.03 146.508 1364.01 146.719C1363.99 146.93 1363.9 147.133 1363.75 147.31L1349.16 164.687C1348.99 164.89 1348.75 165.051 1348.47 165.149C1348.19 165.248 1347.87 165.281 1347.57 165.243C1347.26 165.206 1346.98 165.101 1346.74 164.94C1346.51 164.778 1346.34 164.569 1346.26 164.335Z" fill="#F5DFA5"/>
<path d="M1407.53 164.323L1400.41 150.129C1400.31 149.931 1400.28 149.717 1400.31 149.507C1400.35 149.296 1400.45 149.096 1400.61 148.925C1400.77 148.753 1400.98 148.615 1401.22 148.524C1401.47 148.432 1401.74 148.391 1402.01 148.402L1418.05 149.089C1418.32 149.101 1418.58 149.165 1418.81 149.276C1419.04 149.387 1419.23 149.541 1419.36 149.725C1419.5 149.908 1419.57 150.115 1419.57 150.326C1419.58 150.537 1419.52 150.746 1419.39 150.933L1410.46 164.44C1410.32 164.656 1410.1 164.835 1409.83 164.955C1409.56 165.076 1409.25 165.134 1408.94 165.121C1408.64 165.109 1408.34 165.027 1408.09 164.885C1407.83 164.744 1407.64 164.549 1407.53 164.323Z" fill="#F5DFA5"/>
<path d="M1311.6 161.868L1304.47 138.137C1304.4 137.932 1304.41 137.718 1304.48 137.515C1304.55 137.312 1304.68 137.126 1304.87 136.973C1305.05 136.821 1305.29 136.707 1305.54 136.643C1305.8 136.578 1306.07 136.565 1306.33 136.604L1331.63 140.327C1331.9 140.367 1332.15 140.458 1332.36 140.593C1332.57 140.728 1332.73 140.902 1332.83 141.099C1332.93 141.296 1332.97 141.51 1332.94 141.72C1332.91 141.931 1332.81 142.133 1332.65 142.306L1314.49 162.309C1314.31 162.509 1314.07 162.665 1313.78 162.757C1313.49 162.849 1313.17 162.873 1312.86 162.826C1312.56 162.78 1312.27 162.664 1312.05 162.494C1311.82 162.324 1311.67 162.106 1311.6 161.868Z" fill="#DB465F"/>
<path d="M1276.58 155.532L1272.04 131.454C1272 131.245 1272.03 131.033 1272.12 130.835C1272.21 130.637 1272.36 130.461 1272.56 130.321C1272.77 130.181 1273.01 130.082 1273.27 130.034C1273.53 129.986 1273.8 129.989 1274.06 130.044L1298.87 135.294C1299.13 135.35 1299.37 135.456 1299.57 135.604C1299.76 135.751 1299.91 135.934 1299.99 136.136C1300.07 136.339 1300.08 136.554 1300.03 136.762C1299.98 136.97 1299.86 137.164 1299.68 137.326L1279.43 156.166C1279.23 156.359 1278.97 156.503 1278.67 156.578C1278.36 156.654 1278.04 156.658 1277.74 156.59C1277.43 156.522 1277.16 156.386 1276.95 156.198C1276.75 156.009 1276.61 155.778 1276.58 155.532Z" fill="#F5DFA5"/>
<path d="M1243.04 146.987L1240.13 122.768C1240.1 122.559 1240.15 122.35 1240.25 122.157C1240.36 121.965 1240.52 121.795 1240.73 121.664C1240.94 121.533 1241.18 121.444 1241.45 121.405C1241.71 121.366 1241.98 121.378 1242.23 121.441L1266.66 127.613C1266.92 127.678 1267.15 127.793 1267.34 127.948C1267.53 128.103 1267.66 128.293 1267.73 128.499C1267.8 128.706 1267.8 128.922 1267.73 129.129C1267.66 129.335 1267.53 129.525 1267.34 129.68L1245.83 147.733C1245.62 147.91 1245.35 148.035 1245.05 148.093C1244.74 148.152 1244.43 148.141 1244.13 148.062C1243.84 147.984 1243.58 147.841 1243.39 147.65C1243.19 147.459 1243.07 147.229 1243.04 146.987Z" fill="#DB465F"/>
<path d="M1210.86 138.859L1209.65 114.558C1209.64 114.349 1209.69 114.142 1209.81 113.954C1209.93 113.766 1210.1 113.604 1210.32 113.482C1210.53 113.359 1210.78 113.281 1211.05 113.254C1211.31 113.226 1211.58 113.251 1211.83 113.325L1235.79 120.448C1236.05 120.524 1236.27 120.648 1236.45 120.81C1236.63 120.973 1236.75 121.167 1236.8 121.376C1236.86 121.584 1236.84 121.8 1236.76 122.004C1236.68 122.207 1236.54 122.391 1236.34 122.539L1213.59 139.722C1213.36 139.891 1213.08 140.006 1212.77 140.053C1212.47 140.099 1212.15 140.075 1211.86 139.984C1211.57 139.892 1211.33 139.738 1211.15 139.538C1210.97 139.339 1210.87 139.103 1210.86 138.859Z" fill="#F5DFA5"/>
<path d="M1179.77 129.68L1178.56 105.379C1178.55 105.17 1178.61 104.963 1178.73 104.775C1178.84 104.587 1179.02 104.425 1179.23 104.303C1179.45 104.182 1179.7 104.104 1179.97 104.078C1180.23 104.051 1180.5 104.077 1180.75 104.152L1204.71 111.269C1204.96 111.345 1205.19 111.469 1205.36 111.631C1205.54 111.793 1205.66 111.988 1205.71 112.197C1205.77 112.405 1205.76 112.621 1205.68 112.825C1205.59 113.028 1205.45 113.212 1205.25 113.36L1182.5 130.543C1182.27 130.71 1181.99 130.822 1181.69 130.867C1181.38 130.912 1181.07 130.888 1180.78 130.797C1180.49 130.706 1180.25 130.553 1180.07 130.355C1179.89 130.157 1179.78 129.923 1179.77 129.68Z" fill="#DB465F"/>
<path d="M1148.38 119.092L1149.79 94.8023C1149.8 94.5941 1149.87 94.3913 1150.01 94.212C1150.15 94.0328 1150.34 93.8826 1150.56 93.775C1150.79 93.6674 1151.05 93.6059 1151.32 93.5955C1151.58 93.5852 1151.85 93.6266 1152.09 93.716L1175.2 102.243C1175.45 102.334 1175.66 102.472 1175.82 102.644C1175.98 102.817 1176.08 103.018 1176.12 103.23C1176.15 103.442 1176.12 103.657 1176.02 103.855C1175.91 104.053 1175.75 104.228 1175.54 104.363L1151 120.125C1150.76 120.276 1150.47 120.369 1150.16 120.394C1149.85 120.419 1149.54 120.375 1149.27 120.266C1148.99 120.157 1148.76 119.989 1148.61 119.78C1148.45 119.572 1148.37 119.333 1148.38 119.092Z" fill="#F5DFA5"/>
<path d="M1118.75 107.229L1121.84 83.0276C1121.87 82.8207 1121.96 82.6221 1122.11 82.4494C1122.26 82.2767 1122.46 82.1351 1122.69 82.0375C1122.92 81.9399 1123.19 81.8892 1123.45 81.8898C1123.72 81.8904 1123.98 81.9424 1124.21 82.0411L1146.71 91.4373C1146.95 91.5386 1147.16 91.6859 1147.3 91.8654C1147.45 92.045 1147.54 92.2509 1147.56 92.4642C1147.58 92.6775 1147.53 92.8911 1147.42 93.0853C1147.3 93.2795 1147.13 93.448 1146.91 93.575L1121.33 108.356C1121.08 108.505 1120.78 108.593 1120.47 108.61C1120.16 108.628 1119.85 108.573 1119.57 108.453C1119.3 108.334 1119.07 108.154 1118.93 107.937C1118.78 107.719 1118.72 107.473 1118.75 107.229Z" fill="#DB465F"/>
<path d="M1090.04 93.7042L1095.38 69.7261C1095.43 69.5223 1095.54 69.3302 1095.7 69.1671C1095.86 69.004 1096.07 68.8747 1096.32 68.7906C1096.56 68.7065 1096.82 68.6701 1097.09 68.6848C1097.35 68.6994 1097.6 68.7646 1097.83 68.8746L1119.38 79.4454C1119.61 79.5591 1119.8 79.7167 1119.94 79.9036C1120.07 80.0906 1120.14 80.3007 1120.14 80.5143C1120.14 80.7278 1120.07 80.9378 1119.94 81.1248C1119.8 81.3117 1119.61 81.4693 1119.38 81.583L1092.5 94.9903C1092.24 95.1254 1091.93 95.1969 1091.61 95.1958C1091.3 95.1947 1090.99 95.1212 1090.73 94.9843C1090.47 94.8474 1090.26 94.6531 1090.14 94.4256C1090.01 94.198 1089.98 93.9472 1090.04 93.7042Z" fill="#F5DFA5"/>
<path d="M1063.44 79.9035L1070.19 56.1192C1070.25 55.9169 1070.37 55.7286 1070.54 55.5709C1070.71 55.4132 1070.93 55.2911 1071.18 55.215C1071.42 55.139 1071.69 55.1115 1071.95 55.135C1072.21 55.1585 1072.46 55.2323 1072.68 55.3498L1093.6 66.6018C1093.82 66.7223 1094.01 66.8857 1094.13 67.0766C1094.25 67.2676 1094.31 67.4798 1094.3 67.6934C1094.29 67.9071 1094.21 68.1151 1094.07 68.2981C1093.93 68.481 1093.73 68.633 1093.49 68.7395L1065.86 81.2717C1065.59 81.403 1065.27 81.4681 1064.95 81.4589C1064.63 81.4497 1064.32 81.3666 1064.07 81.2201C1063.81 81.0735 1063.61 80.8702 1063.5 80.6358C1063.39 80.4014 1063.37 80.1466 1063.44 79.9035Z" fill="#DB465F"/>
<path d="M1038.39 64.4231L1047.72 41.1381C1047.8 40.9422 1047.94 40.765 1048.13 40.6216C1048.32 40.4783 1048.55 40.3731 1048.8 40.3152C1049.05 40.2574 1049.32 40.2487 1049.58 40.2897C1049.84 40.3308 1050.08 40.4204 1050.28 40.5508L1069.88 53.0596C1070.09 53.1944 1070.25 53.3688 1070.35 53.5666C1070.46 53.7644 1070.49 53.9792 1070.46 54.1908C1070.43 54.4025 1070.33 54.6042 1070.17 54.7771C1070.01 54.95 1069.79 55.0884 1069.55 55.1796L1040.62 65.9559C1040.34 66.0614 1040.02 66.0993 1039.7 66.0651C1039.39 66.0308 1039.1 65.9259 1038.86 65.7631C1038.62 65.6003 1038.45 65.3868 1038.37 65.1487C1038.28 64.9107 1038.29 64.6585 1038.39 64.4231Z" fill="#F5DFA5"/>
<path d="M1019.01 46.7933L1028.59 26.9848C1028.68 26.792 1028.84 26.6199 1029.03 26.4836C1029.23 26.3473 1029.47 26.2508 1029.72 26.2027C1029.98 26.1546 1030.25 26.1564 1030.5 26.2077C1030.76 26.2591 1030.99 26.3585 1031.19 26.4974L1047.34 38.0313C1047.54 38.1751 1047.69 38.3563 1047.78 38.5583C1047.87 38.7602 1047.89 38.9763 1047.84 39.1862C1047.79 39.3962 1047.68 39.593 1047.51 39.7587C1047.34 39.9244 1047.11 40.0535 1046.86 40.1338L1021.13 48.4142C1020.84 48.5061 1020.52 48.5297 1020.21 48.482C1019.9 48.4343 1019.62 48.3174 1019.39 48.1456C1019.17 47.9739 1019.01 47.7546 1018.94 47.5145C1018.88 47.2744 1018.9 47.0238 1019.01 46.7933Z" fill="#DB465F"/>
<path d="M1009.95 19.233L998.278 17.6239C997.993 17.5832 997.727 17.4832 997.507 17.3345C997.288 17.1857 997.124 16.9936 997.032 16.7782C996.94 16.5627 996.924 16.332 996.985 16.1099C997.045 15.8878 997.181 15.6825 997.378 15.5156L1006.54 7.77547C1006.73 7.60419 1006.99 7.47937 1007.28 7.41459C1007.56 7.34982 1007.86 7.34761 1008.15 7.40829C1008.43 7.46896 1008.69 7.59003 1008.9 7.75841C1009.1 7.92678 1009.24 8.13591 1009.3 8.36274L1011.81 17.7178C1011.86 17.9209 1011.86 18.1319 1011.79 18.3321C1011.71 18.5322 1011.58 18.7154 1011.4 18.8653C1011.21 19.0152 1010.98 19.1273 1010.73 19.1915C1010.48 19.2556 1010.21 19.2699 1009.95 19.233Z" fill="#DB465F"/>
<path d="M1000.63 29.2577L1011.72 11.5926C1011.83 11.4042 1012.01 11.2415 1012.23 11.1195C1012.45 10.9975 1012.7 10.9199 1012.96 10.8937C1013.23 10.8675 1013.5 10.8935 1013.75 10.9694C1014 11.0453 1014.22 11.1687 1014.39 11.3284L1028.37 24.0368C1028.55 24.2001 1028.67 24.3969 1028.72 24.6081C1028.78 24.8194 1028.77 25.0382 1028.68 25.2437C1028.6 25.4492 1028.45 25.6346 1028.25 25.7821C1028.05 25.9296 1027.8 26.0343 1027.53 26.0863L1002.47 31.043C1002.17 31.1006 1001.86 31.0904 1001.57 31.0136C1001.27 30.9368 1001.02 30.7964 1000.82 30.6091C1000.63 30.4218 1000.51 30.1952 1000.47 29.9559C1000.44 29.7165 1000.49 29.4744 1000.63 29.2577Z" fill="#F5DFA5"/>
<path d="M440.079 34.4666L461.925 27.8363C462.176 27.7604 462.399 27.6366 462.573 27.4761C462.747 27.3157 462.867 27.1238 462.922 26.9178C462.977 26.7118 462.966 26.4984 462.888 26.2967C462.811 26.0951 462.671 25.9116 462.481 25.7632L449.349 15.4745C449.159 15.3276 448.927 15.2196 448.671 15.16C448.416 15.1005 448.145 15.0913 447.884 15.1331C447.623 15.1749 447.379 15.2665 447.174 15.3998C446.969 15.5331 446.809 15.704 446.709 15.8973L437.994 32.8163C437.875 33.0453 437.845 33.2965 437.907 33.5389C437.968 33.7813 438.12 34.0042 438.342 34.1799C438.564 34.3556 438.846 34.4764 439.155 34.5273C439.464 34.5783 439.785 34.5572 440.079 34.4666Z" fill="#F5DFA5"/>
<path d="M457.598 51.2331L482.88 41.7429C483.121 41.6513 483.33 41.5141 483.487 41.3436C483.645 41.1731 483.745 40.9746 483.78 40.7661C483.815 40.5576 483.783 40.3457 483.688 40.1492C483.592 39.9527 483.435 39.7778 483.232 39.6405L466.358 28.318C466.154 28.1823 465.91 28.0882 465.649 28.0443C465.387 28.0003 465.116 28.0078 464.859 28.0659C464.602 28.1241 464.367 28.2312 464.176 28.3776C463.985 28.5241 463.843 28.7053 463.763 28.9052L455.356 49.7179C455.265 49.9529 455.263 50.2035 455.35 50.4394C455.437 50.6752 455.61 50.8863 455.848 51.0467C456.085 51.2071 456.377 51.3101 456.688 51.3432C456.998 51.3763 457.315 51.338 457.598 51.2331Z" fill="#DB465F"/>
<path d="M528.177 93.8335L530.48 68.581C530.499 68.3714 530.584 68.1686 530.728 67.9913C530.872 67.814 531.071 67.6677 531.305 67.5656C531.54 67.4636 531.803 67.4089 532.072 67.4068C532.34 67.4046 532.605 67.455 532.842 67.5533L555.499 76.9496C555.734 77.0471 555.935 77.1889 556.084 77.3622C556.232 77.5355 556.324 77.7349 556.35 77.9426C556.376 78.1503 556.336 78.3598 556.233 78.5524C556.13 78.7449 555.968 78.9146 555.761 79.0461L530.81 94.9023C530.565 95.0567 530.268 95.1518 529.955 95.1763C529.643 95.2008 529.327 95.1536 529.048 95.0403C528.769 94.927 528.538 94.7526 528.384 94.5383C528.229 94.324 528.157 94.0791 528.177 93.8335Z" fill="#F5DFA5"/>
<path d="M502.671 78.1065L507.261 56.4423C507.304 56.2348 507.413 56.0389 507.578 55.8728C507.743 55.7066 507.958 55.5754 508.203 55.4908C508.449 55.4062 508.718 55.371 508.986 55.3885C509.253 55.4059 509.511 55.4754 509.736 55.5906L528.327 65.1278C528.55 65.2428 528.733 65.3993 528.86 65.5833C528.986 65.7673 529.052 65.9731 529.052 66.1821C529.052 66.391 528.986 66.5967 528.86 66.7806C528.733 66.9646 528.55 67.1211 528.327 67.2361L505.146 79.3631C504.884 79.4971 504.579 79.5688 504.266 79.5693C503.954 79.5698 503.648 79.4991 503.386 79.366C503.124 79.2329 502.916 79.0429 502.79 78.8193C502.663 78.5957 502.622 78.3481 502.671 78.1065Z" fill="#DB465F"/>
<path d="M589.352 113.102L584.477 88.0724C584.437 87.8645 584.463 87.6519 584.554 87.454C584.645 87.2561 584.797 87.0791 584.998 86.9391C585.198 86.7991 585.44 86.7004 585.701 86.6522C585.963 86.604 586.236 86.6077 586.495 86.663L611.244 91.8955C611.5 91.9509 611.736 92.0551 611.929 92.1989C612.122 92.3426 612.267 92.5213 612.351 92.7193C612.435 92.9174 612.455 93.1286 612.409 93.3342C612.364 93.5398 612.255 93.7334 612.091 93.898L592.232 113.689C592.037 113.885 591.774 114.031 591.474 114.111C591.174 114.191 590.851 114.2 590.545 114.138C590.239 114.075 589.962 113.944 589.75 113.76C589.538 113.575 589.4 113.347 589.352 113.102Z" fill="#F5DFA5"/>
<path d="M556.346 105.215L558.438 79.4336C558.455 79.2282 558.536 79.029 558.673 78.8535C558.81 78.678 559.001 78.5315 559.227 78.4267C559.453 78.3219 559.709 78.262 559.971 78.2522C560.234 78.2424 560.495 78.2831 560.733 78.3706L582.137 86.1872C582.374 86.2736 582.58 86.4037 582.739 86.5664C582.897 86.7291 583.002 86.9194 583.046 87.121C583.089 87.3226 583.07 87.5295 582.988 87.7239C582.907 87.9182 582.767 88.0942 582.58 88.2367L559.083 106.201C558.85 106.38 558.553 106.5 558.231 106.543C557.909 106.587 557.578 106.553 557.281 106.446C556.984 106.339 556.735 106.164 556.569 105.944C556.402 105.724 556.324 105.47 556.346 105.215Z" fill="#DB465F"/>
<path d="M654.524 125.182L645.524 100.857C645.449 100.655 645.44 100.441 645.497 100.235C645.555 100.029 645.677 99.8381 645.853 99.6788C646.029 99.5194 646.253 99.397 646.505 99.3228C646.756 99.2486 647.028 99.2248 647.294 99.2538L672.688 101.949C672.952 101.977 673.203 102.056 673.419 102.179C673.635 102.301 673.808 102.464 673.924 102.652C674.04 102.839 674.095 103.047 674.083 103.255C674.072 103.464 673.994 103.667 673.858 103.846L657.419 125.475C657.254 125.677 657.019 125.839 656.742 125.94C656.465 126.042 656.156 126.079 655.852 126.048C655.549 126.018 655.263 125.92 655.027 125.766C654.792 125.613 654.617 125.41 654.524 125.182Z" fill="#F5DFA5"/>
<path d="M618.923 120.765L615.331 95.0901C615.303 94.8855 615.339 94.6786 615.435 94.4873C615.532 94.296 615.686 94.1259 615.886 93.9918C616.085 93.8577 616.323 93.7636 616.579 93.7175C616.835 93.6715 617.102 93.6751 617.356 93.7277L640.155 98.555C640.408 98.6075 640.641 98.7075 640.833 98.8464C641.026 98.9852 641.173 99.1586 641.261 99.3518C641.348 99.5449 641.375 99.7517 641.338 99.9547C641.301 100.158 641.201 100.35 641.047 100.516L621.841 121.37C621.648 121.576 621.381 121.732 621.074 121.817C620.766 121.903 620.433 121.913 620.118 121.848C619.803 121.783 619.52 121.644 619.307 121.451C619.094 121.258 618.96 121.019 618.923 120.765Z" fill="#DB465F"/>
<path d="M721.706 128.006L707.682 105.197C707.565 105.007 707.511 104.798 707.524 104.588C707.538 104.378 707.617 104.174 707.757 103.995C707.896 103.815 708.09 103.666 708.322 103.56C708.554 103.454 708.816 103.395 709.084 103.388L734.695 102.719C734.962 102.711 735.228 102.756 735.467 102.848C735.707 102.941 735.913 103.079 736.068 103.25C736.223 103.42 736.321 103.618 736.353 103.826C736.386 104.034 736.352 104.244 736.255 104.439L724.668 127.93C724.554 128.16 724.355 128.359 724.098 128.502C723.84 128.644 723.535 128.725 723.219 128.733C722.904 128.741 722.592 128.677 722.323 128.547C722.054 128.418 721.84 128.23 721.706 128.006Z" fill="#F5DFA5"/>
<path d="M688.415 128.529L677.983 104.022C677.899 103.827 677.878 103.618 677.921 103.415C677.964 103.211 678.07 103.019 678.23 102.855C678.39 102.691 678.598 102.56 678.838 102.474C679.077 102.388 679.34 102.349 679.603 102.361L703.189 103.306C703.448 103.318 703.7 103.379 703.923 103.483C704.145 103.587 704.333 103.731 704.47 103.904C704.606 104.077 704.688 104.272 704.708 104.475C704.728 104.677 704.686 104.881 704.584 105.068L691.43 128.623C691.299 128.857 691.081 129.054 690.805 129.19C690.529 129.325 690.207 129.392 689.881 129.382C689.556 129.372 689.242 129.285 688.98 129.133C688.718 128.981 688.521 128.77 688.415 128.529Z" fill="#DB465F"/>
<path d="M783.915 122.239L766.179 101.098C766.032 100.921 765.943 100.719 765.921 100.509C765.899 100.3 765.944 100.089 766.052 99.8959C766.16 99.703 766.327 99.5342 766.539 99.4047C766.751 99.2752 767.001 99.1891 767.266 99.154L792.54 95.8477C792.803 95.814 793.073 95.8317 793.325 95.8993C793.578 95.9668 793.805 96.0821 793.987 96.2349C794.168 96.3877 794.299 96.5733 794.367 96.7752C794.436 96.977 794.439 97.1891 794.378 97.3922L786.878 121.864C786.806 122.109 786.642 122.333 786.407 122.505C786.171 122.678 785.876 122.791 785.558 122.832C785.24 122.872 784.914 122.837 784.621 122.732C784.329 122.626 784.083 122.455 783.915 122.239Z" fill="#F5DFA5"/>
<path d="M754.884 126.286L739.135 103.576C739.01 103.396 738.943 103.194 738.939 102.988C738.936 102.783 738.997 102.58 739.117 102.397C739.237 102.214 739.412 102.057 739.626 101.939C739.841 101.821 740.09 101.746 740.35 101.72L763.786 99.4301C764.046 99.4043 764.309 99.4283 764.554 99.4999C764.799 99.5715 765.017 99.6886 765.192 99.8411C765.366 99.9937 765.49 100.177 765.553 100.375C765.617 100.574 765.618 100.782 765.556 100.98L757.862 125.974C757.781 126.219 757.61 126.44 757.368 126.607C757.127 126.775 756.827 126.883 756.507 126.916C756.187 126.95 755.862 126.908 755.573 126.795C755.284 126.683 755.044 126.505 754.884 126.286Z" fill="#DB465F"/>
<path d="M843.598 110.265L822.044 91.4021C821.865 91.2453 821.738 91.056 821.676 90.8514C821.613 90.6468 821.617 90.4333 821.686 90.23C821.755 90.0267 821.888 89.8401 822.072 89.6869C822.256 89.5338 822.486 89.4188 822.741 89.3526L847.115 83.1453C847.369 83.0801 847.64 83.0654 847.903 83.1025C848.166 83.1397 848.413 83.2274 848.622 83.3579C848.831 83.4883 848.995 83.6573 849.1 83.8498C849.205 84.0423 849.247 84.2523 849.222 84.4607L846.41 109.537C846.383 109.783 846.264 110.017 846.068 110.21C845.873 110.404 845.609 110.548 845.31 110.626C845.011 110.703 844.689 110.711 844.385 110.646C844.08 110.582 843.807 110.45 843.598 110.265Z" fill="#F5DFA5"/>
<path d="M813.299 118.181L795.202 96.5817C795.057 96.41 794.968 96.213 794.943 96.0081C794.917 95.8031 794.956 95.5963 795.056 95.4058C795.155 95.2152 795.313 95.0468 795.515 94.915C795.717 94.7832 795.958 94.6921 796.215 94.6496L819.329 90.8383C819.584 90.796 819.848 90.8028 820.1 90.8582C820.351 90.9135 820.581 91.0158 820.77 91.1561C820.96 91.2964 821.103 91.4708 821.188 91.664C821.272 91.8571 821.296 92.0635 821.256 92.2654L816.247 117.676C816.199 117.93 816.054 118.167 815.83 118.354C815.607 118.542 815.316 118.672 814.996 118.727C814.676 118.782 814.342 118.759 814.039 118.661C813.736 118.564 813.478 118.397 813.299 118.181Z" fill="#DB465F"/>
<path d="M952.958 66.7309L930.939 55.9312C930.708 55.8175 930.518 55.6599 930.386 55.4729C930.254 55.286 930.185 55.0759 930.185 54.8623C930.185 54.6488 930.254 54.4387 930.386 54.2518C930.518 54.0649 930.708 53.9073 930.939 53.7936L949.41 44.5734C949.638 44.459 949.9 44.3915 950.17 44.377C950.44 44.3625 950.71 44.4014 950.956 44.4904C951.202 44.5793 951.415 44.7154 951.576 44.886C951.737 45.0565 951.841 45.2559 951.878 45.4661L955.425 65.486C955.467 65.7251 955.42 65.9685 955.291 66.1877C955.162 66.4069 954.956 66.5928 954.697 66.7235C954.438 66.8542 954.137 66.9243 953.829 66.9256C953.521 66.927 953.218 66.8594 952.958 66.7309Z" fill="#F5DFA5"/>
<path d="M999.448 37.3149L977.601 30.6787C977.351 30.6028 977.128 30.479 976.954 30.3186C976.78 30.1581 976.66 29.9663 976.605 29.7603C976.55 29.5543 976.561 29.3406 976.639 29.139C976.716 28.9374 976.856 28.754 977.046 28.6056L990.178 18.3226C990.368 18.1758 990.6 18.0679 990.856 18.0083C991.111 17.9488 991.382 17.9396 991.643 17.9814C991.904 18.0232 992.148 18.1148 992.353 18.2481C992.558 18.3813 992.718 18.5522 992.818 18.7454L1001.53 35.6646C1001.65 35.8936 1001.68 36.1448 1001.62 36.3872C1001.56 36.6296 1001.41 36.8524 1001.19 37.0281C1000.96 37.2038 1000.68 37.3247 1000.37 37.3756C1000.06 37.4266 999.742 37.4055 999.448 37.3149Z" fill="#F5DFA5"/>
<path d="M979.581 53.8465L954.293 44.3563C954.051 44.2647 953.842 44.1275 953.685 43.957C953.528 43.7865 953.427 43.588 953.392 43.3795C953.357 43.171 953.389 42.959 953.485 42.7625C953.58 42.566 953.737 42.3912 953.94 42.2538L970.814 30.9313C971.018 30.7957 971.262 30.7018 971.523 30.6578C971.785 30.6138 972.056 30.6211 972.313 30.6793C972.57 30.7374 972.805 30.8445 972.996 30.991C973.187 31.1374 973.329 31.3187 973.409 31.5186L981.816 52.3255C981.908 52.5602 981.911 52.8106 981.825 53.0466C981.739 53.2825 981.567 53.4938 981.33 53.6548C981.094 53.8158 980.803 53.9197 980.492 53.9537C980.182 53.9877 979.865 53.9504 979.581 53.8465Z" fill="#DB465F"/>
<path d="M904.48 92.7234L903.565 67.4182C903.556 67.2082 903.48 67.0033 903.345 66.8219C903.21 66.6404 903.019 66.4881 902.79 66.3787C902.561 66.2692 902.301 66.206 902.033 66.1947C901.765 66.1835 901.498 66.2244 901.255 66.314L878.111 74.9293C877.871 75.0198 877.663 75.1554 877.505 75.324C877.348 75.4927 877.246 75.6891 877.209 75.896C877.172 76.1028 877.201 76.3137 877.293 76.5097C877.385 76.7058 877.537 76.881 877.736 77.0199L901.795 93.7101C902.031 93.8748 902.323 93.9816 902.636 94.0173C902.948 94.053 903.267 94.016 903.553 93.9109C903.839 93.8058 904.08 93.6372 904.244 93.426C904.409 93.2149 904.491 92.9706 904.48 92.7234Z" fill="#F5DFA5"/>
<path d="M930.826 79.0226L927.826 57.1938C927.796 56.985 927.7 56.7855 927.547 56.613C927.393 56.4405 927.188 56.3004 926.948 56.2055C926.709 56.1106 926.443 56.0637 926.175 56.0692C925.907 56.0746 925.644 56.1321 925.411 56.2366L906.167 64.9399C905.936 65.0441 905.742 65.1915 905.602 65.3689C905.462 65.5463 905.379 65.7481 905.363 65.9563C905.347 66.1646 905.397 66.3729 905.508 66.5624C905.62 66.7519 905.789 66.9167 906.002 67.0423L928.276 80.1677C928.528 80.3101 928.826 80.3928 929.136 80.4056C929.446 80.4184 929.754 80.3609 930.024 80.24C930.293 80.1191 930.512 79.9399 930.654 79.724C930.796 79.508 930.856 79.2645 930.826 79.0226Z" fill="#DB465F"/>
<path d="M875.606 102.055L875.741 76.2154C875.739 76.0107 875.674 75.8094 875.55 75.6288C875.427 75.4482 875.25 75.2937 875.035 75.1783C874.819 75.0629 874.57 74.9901 874.311 74.9661C874.051 74.9422 873.788 74.9679 873.544 75.0408L851.51 81.7121C851.266 81.7863 851.049 81.9057 850.877 82.0599C850.705 82.2141 850.583 82.3986 850.522 82.5977C850.461 82.7968 850.462 83.0045 850.526 83.2031C850.589 83.4017 850.713 83.5854 850.887 83.7383L872.764 102.912C872.982 103.109 873.272 103.248 873.595 103.311C873.918 103.374 874.258 103.358 874.569 103.264C874.879 103.17 875.146 103.004 875.331 102.788C875.517 102.571 875.613 102.316 875.606 102.055Z" fill="#DB465F"/>
</svg>
