<svg width="69" height="70" viewBox="0 0 69 70" fill="none" xmlns="http://www.w3.org/2000/svg">
<path d="M0 3.28125C0 1.46289 1.29273 0 2.89959 0H8.39673C11.0547 0 13.4106 1.75 14.51 4.375H64.1655C67.3429 4.375 69.6626 7.79297 68.829 11.2656L63.8755 32.0879C62.8486 36.3809 59.4053 39.375 55.4788 39.375H20.6233L21.2757 43.2715C21.5415 44.8164 22.7376 45.9375 24.127 45.9375H58.9583C60.5652 45.9375 61.8579 47.4004 61.8579 49.2187C61.8579 51.0371 60.5652 52.5 58.9583 52.5H24.127C19.9468 52.5 16.3585 49.1367 15.5853 44.5019L9.35117 7.45117C9.2666 6.93164 8.86791 6.5625 8.39673 6.5625H2.89959C1.29273 6.5625 0 5.09961 0 3.28125ZM15.4645 63.4375C15.4645 62.5757 15.6145 61.7223 15.9059 60.9261C16.1973 60.1299 16.6245 59.4065 17.163 58.7971C17.7015 58.1877 18.3408 57.7043 19.0444 57.3745C19.748 57.0447 20.5021 56.875 21.2637 56.875C22.0252 56.875 22.7793 57.0447 23.4829 57.3745C24.1865 57.7043 24.8258 58.1877 25.3643 58.7971C25.9028 59.4065 26.33 60.1299 26.6214 60.9261C26.9128 61.7223 27.0628 62.5757 27.0628 63.4375C27.0628 64.2993 26.9128 65.1527 26.6214 65.9489C26.33 66.7451 25.9028 67.4685 25.3643 68.0779C24.8258 68.6873 24.1865 69.1707 23.4829 69.5005C22.7793 69.8303 22.0252 70 21.2637 70C20.5021 70 19.748 69.8303 19.0444 69.5005C18.3408 69.1707 17.7015 68.6873 17.163 68.0779C16.6245 67.4685 16.1973 66.7451 15.9059 65.9489C15.6145 65.1527 15.4645 64.2993 15.4645 63.4375ZM56.0587 56.875C57.5967 56.875 59.0718 57.5664 60.1594 58.7971C61.2469 60.0278 61.8579 61.697 61.8579 63.4375C61.8579 65.178 61.2469 66.8472 60.1594 68.0779C59.0718 69.3086 57.5967 70 56.0587 70C54.5207 70 53.0456 69.3086 51.9581 68.0779C50.8705 66.8472 50.2595 65.178 50.2595 63.4375C50.2595 61.697 50.8705 60.0278 51.9581 58.7971C53.0456 57.5664 54.5207 56.875 56.0587 56.875ZM30.4457 21.875C30.4457 23.3789 31.533 24.6094 32.862 24.6094H38.1779V30.625C38.1779 32.1289 39.2653 33.3594 40.5942 33.3594C41.9232 33.3594 43.0106 32.1289 43.0106 30.625V24.6094H48.3265C49.6555 24.6094 50.7428 23.3789 50.7428 21.875C50.7428 20.3711 49.6555 19.1406 48.3265 19.1406H43.0106V13.125C43.0106 11.6211 41.9232 10.3906 40.5942 10.3906C39.2653 10.3906 38.1779 11.6211 38.1779 13.125V19.1406H32.862C31.533 19.1406 30.4457 20.3711 30.4457 21.875Z" fill="#B61C31"/>
</svg>
