<?xml version="1.0" encoding="UTF-8"?>
<svg id="_圖層_2" data-name="圖層 2" xmlns="http://www.w3.org/2000/svg" viewBox="0 0 363.35 176.17">
  <defs>
    <style>
      .cls-1 {
        fill: #ee833c;
      }

      .cls-2 {
        fill: #ffe86f;
      }

      .cls-3 {
        fill: none;
        stroke: #4c4c4c;
        stroke-miterlimit: 10;
        stroke-width: .5px;
      }

      .cls-4 {
        fill: #f7b763;
      }

      .cls-5 {
        fill: #f9dc5f;
      }
    </style>
  </defs>
  <g id="_圖層_1-2" data-name="圖層 1">
    <g>
      <path class="cls-4" d="m93.14,7.64S30.18,148.77,8.6,150.23l117.72,25.94L202.29,1.83s-69.46,10.07-109.16,5.81Z"/>
      <polygon class="cls-5" points="126.32 176.17 350.56 145.23 202.29 1.83 126.32 176.17"/>
      <polygon class="cls-1" points="163.48 169.15 318.59 147.86 216.03 49.2 163.48 169.15"/>
      <path class="cls-2" d="m216.03,49.2s13.09,70.81-20.87,80.1v37.53s-33.76,2.32-32.61,2.32,53.48-119.96,53.48-119.96Z"/>
      <path class="cls-2" d="m216.81,48.78s19.46,56.44,53.43,65.72l19.23,37.36s31.07-3.95,29.92-3.95-102.59-99.13-102.59-99.13Z"/>
      <path class="cls-1" d="m140.2,76.01c2.32-15.85-2.16-23.93-16.96-28.32-24.95-7.4-44.94,36.47-44.94,36.47l-8.18,20.73,59.92,7.11s9.43-31.03,10.16-35.99Z"/>
      <path class="cls-3" d="m202.29,1.83s-68.77,157.8-96.85,169.74"/>
      <path class="cls-3" d="m202.29.18s132.88,131.34,160.96,143.28"/>
      <path class="cls-3" d="m94.13,6.43S28.18,139.92.1,151.86"/>
    </g>
  </g>
</svg>