<svg width="1439" height="170" viewBox="0 0 1439 170" fill="none" xmlns="http://www.w3.org/2000/svg">
<g opacity="0.3">
<g clip-path="url(#clip0_459_1697)">
<path d="M0.780273 145.773C48.0271 152.303 323.258 124.403 430.501 1.51953" stroke="#F5DFA5" stroke-miterlimit="10"/>
<path d="M431.438 0.19043C612.724 177.32 900.779 99.7613 1010.21 7.43872" stroke="#F5DFA5" stroke-miterlimit="10"/>
<path d="M38.9226 165.144L48.5145 145.774C48.6118 145.575 48.6452 145.361 48.6117 145.15C48.5782 144.939 48.4789 144.737 48.3226 144.564C48.1664 144.391 47.9582 144.251 47.7168 144.158C47.4753 144.064 47.2081 144.02 46.9395 144.028L26.0986 144.717C25.8317 144.726 25.5715 144.787 25.3417 144.894C25.1119 145.002 24.9196 145.154 24.782 145.335C24.6444 145.516 24.5659 145.722 24.5535 145.933C24.5411 146.144 24.5953 146.355 24.7111 146.545L35.9604 165.251C36.0999 165.474 36.3185 165.66 36.5893 165.786C36.8601 165.912 37.1715 165.974 37.4855 165.963C37.7996 165.951 38.1026 165.868 38.3578 165.722C38.613 165.577 38.8092 165.376 38.9226 165.144Z" fill="#DB465F"/>
<path d="M71.5975 163.678L80.0719 143.019C80.1542 142.817 80.1716 142.603 80.1228 142.394C80.074 142.186 79.9603 141.99 79.7921 141.825C79.6239 141.66 79.4065 141.531 79.1594 141.449C78.9123 141.368 78.6435 141.336 78.377 141.357L56.7334 143.096C56.4685 143.118 56.2147 143.192 55.9943 143.31C55.7739 143.429 55.5937 143.589 55.4699 143.775C55.346 143.962 55.2823 144.17 55.2842 144.381C55.2862 144.592 55.3538 144.799 55.481 144.984L68.6427 163.903C68.796 164.121 69.0262 164.299 69.3051 164.415C69.5841 164.531 69.8997 164.58 70.2133 164.556C70.5268 164.532 70.8248 164.436 71.0707 164.28C71.3165 164.124 71.4996 163.915 71.5975 163.678Z" fill="#F5DFA5"/>
<path d="M10.9421 160.917L19.0866 146.302C19.1929 146.106 19.2357 145.893 19.2113 145.681C19.187 145.469 19.0963 145.266 18.9473 145.089C18.7983 144.912 18.5957 144.767 18.3581 144.668C18.1205 144.569 17.8554 144.518 17.5868 144.521H1.59028C1.32233 144.52 1.05838 144.571 0.821837 144.671C0.585297 144.771 0.383658 144.915 0.235024 145.092C0.0863907 145.268 -0.00468561 145.471 -0.0299115 145.682C-0.0551375 145.893 -0.0138261 146.106 0.0903806 146.302L7.94233 160.911C8.06031 161.149 8.26631 161.354 8.53335 161.499C8.80039 161.644 9.1161 161.721 9.43966 161.722C9.76322 161.723 10.0797 161.646 10.3476 161.503C10.6156 161.359 10.8226 161.155 10.9421 160.917Z" fill="#F5DFA5"/>
<path d="M106.103 162.651L114.975 138.045C115.05 137.84 115.059 137.624 115.002 137.416C114.944 137.208 114.822 137.015 114.646 136.854C114.47 136.693 114.246 136.569 113.994 136.494C113.743 136.419 113.471 136.395 113.205 136.424L87.8188 139.202C87.5545 139.232 87.3034 139.312 87.0879 139.437C86.8723 139.561 86.699 139.726 86.5833 139.916C86.4675 140.107 86.4129 140.316 86.4243 140.528C86.4358 140.739 86.513 140.944 86.649 141.126L103.148 162.96C103.31 163.176 103.548 163.35 103.834 163.46C104.119 163.57 104.439 163.611 104.754 163.578C105.069 163.545 105.365 163.44 105.604 163.275C105.844 163.11 106.017 162.893 106.103 162.651Z" fill="#DB465F"/>
<path d="M141.253 157.593L147.575 132.494C147.628 132.285 147.614 132.069 147.534 131.866C147.455 131.663 147.313 131.479 147.12 131.33C146.928 131.181 146.692 131.073 146.433 131.015C146.175 130.957 145.902 130.951 145.64 130.998L120.622 135.397C120.362 135.443 120.12 135.539 119.918 135.677C119.717 135.815 119.562 135.99 119.467 136.187C119.371 136.384 119.34 136.596 119.374 136.806C119.408 137.015 119.507 137.214 119.662 137.385L138.35 158.086C138.534 158.288 138.789 158.444 139.083 158.533C139.377 158.623 139.697 158.643 140.005 158.59C140.313 158.538 140.595 158.416 140.817 158.239C141.038 158.062 141.19 157.837 141.253 157.593Z" fill="#F5DFA5"/>
<path d="M175.099 150.143L179.823 124.83C179.862 124.62 179.835 124.405 179.743 124.205C179.651 124.005 179.498 123.827 179.297 123.685C179.096 123.544 178.854 123.444 178.592 123.396C178.331 123.347 178.058 123.35 177.798 123.406L153.095 128.796C152.838 128.851 152.602 128.956 152.408 129.102C152.215 129.247 152.07 129.428 151.987 129.629C151.904 129.83 151.884 130.043 151.931 130.251C151.978 130.459 152.089 130.655 152.255 130.82L172.234 150.754C172.431 150.949 172.695 151.093 172.994 151.171C173.294 151.248 173.615 151.255 173.919 151.19C174.222 151.125 174.496 150.991 174.705 150.805C174.915 150.62 175.052 150.389 175.099 150.143Z" fill="#DB465F"/>
<path d="M207.586 143.072L210.623 117.6C210.65 117.388 210.609 117.174 210.504 116.978C210.399 116.782 210.234 116.61 210.024 116.477C209.814 116.344 209.565 116.255 209.301 116.218C209.036 116.181 208.763 116.196 208.508 116.264L184.195 122.669C183.941 122.735 183.711 122.85 183.527 123.003C183.343 123.157 183.21 123.344 183.14 123.549C183.07 123.753 183.066 123.968 183.127 124.174C183.188 124.38 183.313 124.571 183.49 124.729L204.766 143.803C204.976 143.988 205.249 144.122 205.553 144.186C205.857 144.251 206.178 144.244 206.477 144.167C206.776 144.089 207.041 143.944 207.237 143.75C207.434 143.556 207.555 143.32 207.586 143.072Z" fill="#F5DFA5"/>
<path d="M1439.93 151.71C1392.69 158.24 1117.45 130.339 1010.21 7.45605" stroke="#F5DFA5" stroke-miterlimit="10"/>
<path d="M239.054 134.845L242.099 109.366C242.122 109.155 242.079 108.942 241.973 108.747C241.866 108.552 241.701 108.38 241.49 108.249C241.28 108.117 241.031 108.028 240.767 107.991C240.503 107.954 240.231 107.97 239.976 108.037L215.663 114.442C215.409 114.508 215.18 114.624 214.997 114.778C214.814 114.931 214.682 115.119 214.613 115.323C214.543 115.527 214.539 115.742 214.601 115.948C214.663 116.153 214.788 116.344 214.965 116.502L236.234 135.575C236.444 135.761 236.717 135.894 237.021 135.959C237.325 136.024 237.646 136.017 237.945 135.939C238.244 135.862 238.508 135.717 238.705 135.523C238.902 135.329 239.023 135.093 239.054 134.845Z" fill="#DB465F"/>
<path d="M270.934 125.169L271.391 99.5773C271.393 99.3652 271.327 99.1562 271.201 98.969C271.076 98.7817 270.893 98.6221 270.67 98.5045C270.447 98.3868 270.191 98.3147 269.924 98.2948C269.657 98.2748 269.388 98.3075 269.141 98.39L245.556 106.315C245.309 106.397 245.093 106.526 244.925 106.69C244.757 106.855 244.644 107.05 244.595 107.257C244.546 107.465 244.563 107.679 244.644 107.88C244.725 108.082 244.868 108.264 245.061 108.411L268.197 126.077C268.425 126.249 268.711 126.365 269.021 126.41C269.33 126.455 269.65 126.428 269.94 126.332C270.231 126.235 270.48 126.074 270.656 125.867C270.832 125.661 270.929 125.418 270.934 125.169Z" fill="#F5DFA5"/>
<path d="M301.202 114.073L299.972 88.4991C299.962 88.2862 299.884 88.0788 299.747 87.8956C299.61 87.7123 299.418 87.5589 299.187 87.4493C298.956 87.3398 298.695 87.2774 298.426 87.2679C298.157 87.2584 297.889 87.302 297.647 87.3948L274.616 96.2994C274.376 96.3915 274.169 96.5296 274.012 96.7009C273.856 96.8722 273.756 97.0715 273.721 97.281C273.686 97.4905 273.717 97.7035 273.812 97.901C273.907 98.0986 274.062 98.2744 274.264 98.4128L298.532 115.1C298.771 115.265 299.065 115.37 299.379 115.403C299.693 115.436 300.012 115.395 300.296 115.286C300.581 115.176 300.819 115.003 300.98 114.787C301.141 114.572 301.218 114.323 301.202 114.073Z" fill="#DB465F"/>
<path d="M330.645 101.191L327.15 75.7478C327.12 75.5367 327.024 75.3349 326.871 75.1605C326.717 74.9861 326.512 74.8445 326.272 74.7486C326.033 74.6527 325.767 74.6053 325.499 74.6108C325.231 74.6163 324.968 74.6745 324.735 74.7801L302.544 84.9254C302.314 85.0307 302.119 85.1797 301.979 85.359C301.839 85.5383 301.757 85.7424 301.74 85.9529C301.724 86.1635 301.774 86.3739 301.885 86.5654C301.997 86.757 302.167 86.9237 302.38 87.0506L328.065 102.355C328.318 102.504 328.62 102.592 328.934 102.607C329.249 102.622 329.562 102.565 329.836 102.441C330.11 102.318 330.332 102.134 330.476 101.912C330.62 101.69 330.679 101.439 330.645 101.191Z" fill="#F5DFA5"/>
<path d="M358.026 87.9235L353.158 62.6226C353.117 62.4125 353.01 62.214 352.847 62.0448C352.684 61.8756 352.471 61.7409 352.226 61.6532C351.982 61.5655 351.713 61.5274 351.445 61.5422C351.177 61.557 350.918 61.6243 350.691 61.7381L329.07 72.6255C328.845 72.7388 328.659 72.8945 328.528 73.0788C328.398 73.2631 328.327 73.4702 328.322 73.6815C328.318 73.8927 328.38 74.1015 328.503 74.2892C328.625 74.4768 328.805 74.6375 329.025 74.7567L355.513 89.1701C355.773 89.3098 356.079 89.3866 356.393 89.3911C356.708 89.3956 357.017 89.3276 357.283 89.1955C357.549 89.0633 357.761 88.8728 357.893 88.6469C358.025 88.421 358.071 88.1697 358.026 87.9235Z" fill="#DB465F"/>
<path d="M384.019 72.8273L376.52 47.936C376.459 47.7283 376.333 47.5361 376.154 47.3768C375.974 47.2176 375.748 47.0962 375.494 47.0242C375.24 46.9522 374.968 46.9316 374.702 46.9644C374.436 46.9971 374.184 47.0822 373.97 47.2118L353.564 59.4822C353.351 59.6096 353.182 59.7767 353.071 59.9686C352.96 60.1604 352.911 60.3711 352.928 60.5816C352.945 60.7922 353.028 60.9961 353.169 61.1751C353.31 61.3542 353.505 61.5027 353.736 61.6075L381.642 74.2342C381.916 74.3573 382.229 74.4146 382.543 74.3989C382.858 74.3833 383.16 74.2955 383.412 74.1462C383.664 73.9969 383.856 73.7926 383.964 73.5583C384.072 73.3241 384.091 73.0701 384.019 72.8273Z" fill="#F5DFA5"/>
<path d="M404.523 55.226L396.506 33.956C396.428 33.7529 396.286 33.5687 396.095 33.4197C395.904 33.2707 395.669 33.1618 395.412 33.1029C395.154 33.0439 394.882 33.0369 394.62 33.0822C394.358 33.1275 394.114 33.2237 393.911 33.3623L376.992 44.7662C376.79 44.9039 376.633 45.079 376.537 45.2761C376.441 45.4732 376.407 45.6861 376.44 45.8958C376.473 46.1055 376.57 46.3056 376.724 46.4783C376.878 46.6509 377.084 46.7908 377.322 46.8854L402.258 56.7458C402.541 56.8586 402.859 56.9029 403.174 56.8733C403.488 56.8438 403.785 56.7416 404.026 56.5795C404.268 56.4175 404.444 56.2027 404.532 55.962C404.62 55.7213 404.617 55.4653 404.523 55.226Z" fill="#DB465F"/>
<path d="M435.855 18.658L426.766 6.1916C426.63 6.0061 426.436 5.85061 426.204 5.73956C425.972 5.6285 425.709 5.56538 425.438 5.55593C425.167 5.54648 424.897 5.59104 424.654 5.6855C424.41 5.77996 424.2 5.92125 424.044 6.09652L415.389 15.8323C415.234 16.0065 415.137 16.2087 415.105 16.4205C415.074 16.6324 415.111 16.847 415.212 17.0448C415.312 17.2425 415.474 17.4172 415.682 17.5527C415.89 17.6883 416.137 17.7805 416.402 17.8209L434.153 20.5635C434.459 20.6123 434.777 20.5896 435.067 20.4983C435.357 20.407 435.607 20.251 435.787 20.0492C435.968 19.8474 436.07 19.6085 436.082 19.3615C436.094 19.1145 436.015 18.8702 435.855 18.658Z" fill="#DB465F"/>
<path d="M424.096 37.6717L414.407 18.5923C414.306 18.3917 414.142 18.2147 413.931 18.0778C413.72 17.9409 413.469 17.8484 413.201 17.8092C412.933 17.7701 412.656 17.7855 412.398 17.8539C412.139 17.9223 411.906 18.0416 411.722 18.2005L396.873 30.9459C396.688 31.103 396.556 31.2943 396.49 31.5023C396.423 31.7103 396.424 31.9281 396.492 32.1358C396.56 32.3435 396.693 32.5343 396.879 32.6905C397.065 32.8467 397.297 32.9634 397.555 33.0296L422.093 39.3696C422.386 39.4447 422.7 39.4521 422.999 39.3911C423.297 39.33 423.567 39.203 423.777 39.0248C423.987 38.8466 424.129 38.6247 424.185 38.3851C424.242 38.1455 424.211 37.8979 424.096 37.6717Z" fill="#F5DFA5"/>
<path d="M480.778 64.7361L504.214 55.8315C504.459 55.7382 504.67 55.5974 504.828 55.4221C504.986 55.2467 505.085 55.0426 505.117 54.8287C505.148 54.6148 505.111 54.3981 505.008 54.1987C504.905 53.9994 504.74 53.8238 504.529 53.6884L487.497 42.7774C487.286 42.6438 487.037 42.554 486.771 42.5163C486.505 42.4785 486.231 42.4939 485.975 42.5612C485.719 42.6284 485.488 42.7454 485.303 42.9013C485.118 43.0573 484.986 43.2473 484.917 43.4541L478.52 63.252C478.439 63.4883 478.446 63.738 478.539 63.9714C478.632 64.2049 478.808 64.4122 479.046 64.5687C479.284 64.7251 479.574 64.8241 479.881 64.8538C480.188 64.8834 480.499 64.8426 480.778 64.7361Z" fill="#F5DFA5"/>
<path d="M1378.98 169.14L1370.73 150.143C1370.64 149.941 1370.62 149.725 1370.66 149.514C1370.71 149.303 1370.82 149.105 1370.99 148.937C1371.15 148.769 1371.37 148.637 1371.62 148.553C1371.87 148.47 1372.14 148.437 1372.41 148.457L1393.29 150.018C1393.55 150.039 1393.81 150.112 1394.04 150.232C1394.26 150.351 1394.44 150.513 1394.56 150.703C1394.69 150.892 1394.75 151.103 1394.74 151.317C1394.74 151.53 1394.67 151.739 1394.53 151.924L1381.92 169.359C1381.77 169.575 1381.54 169.752 1381.26 169.867C1380.99 169.982 1380.67 170.03 1380.36 170.007C1380.05 169.984 1379.75 169.89 1379.51 169.736C1379.26 169.582 1379.08 169.375 1378.98 169.14Z" fill="#DB465F"/>
<path d="M1346.2 166.307L1339.18 146.124C1339.1 145.918 1339.1 145.702 1339.16 145.494C1339.22 145.286 1339.35 145.094 1339.53 144.934C1339.7 144.775 1339.93 144.653 1340.18 144.581C1340.44 144.509 1340.71 144.488 1340.98 144.521L1362.58 147.133C1362.85 147.165 1363.1 147.25 1363.32 147.38C1363.53 147.51 1363.7 147.681 1363.81 147.877C1363.92 148.072 1363.97 148.287 1363.95 148.5C1363.92 148.714 1363.83 148.919 1363.69 149.098L1349.1 166.664C1348.93 166.869 1348.69 167.031 1348.41 167.131C1348.12 167.23 1347.81 167.263 1347.5 167.226C1347.2 167.188 1346.91 167.082 1346.68 166.919C1346.45 166.756 1346.28 166.544 1346.2 166.307Z" fill="#F5DFA5"/>
<path d="M1407.46 166.296L1400.34 151.947C1400.24 151.748 1400.21 151.531 1400.25 151.319C1400.28 151.106 1400.38 150.904 1400.54 150.73C1400.7 150.557 1400.91 150.417 1401.16 150.325C1401.4 150.233 1401.67 150.19 1401.94 150.202L1417.98 150.897C1418.25 150.908 1418.51 150.973 1418.74 151.085C1418.97 151.198 1419.16 151.354 1419.29 151.539C1419.43 151.725 1419.5 151.933 1419.51 152.147C1419.51 152.36 1419.45 152.571 1419.32 152.761L1410.39 166.414C1410.25 166.632 1410.03 166.813 1409.76 166.935C1409.49 167.057 1409.19 167.115 1408.88 167.102C1408.57 167.09 1408.27 167.007 1408.02 166.864C1407.77 166.721 1407.57 166.524 1407.46 166.296Z" fill="#F5DFA5"/>
<path d="M1311.53 163.814L1304.4 139.825C1304.34 139.618 1304.34 139.402 1304.41 139.197C1304.48 138.991 1304.62 138.803 1304.8 138.649C1304.99 138.495 1305.22 138.38 1305.48 138.315C1305.73 138.25 1306.01 138.237 1306.27 138.276L1331.57 142.04C1331.83 142.08 1332.08 142.172 1332.29 142.308C1332.5 142.445 1332.66 142.62 1332.77 142.819C1332.87 143.019 1332.9 143.235 1332.87 143.448C1332.84 143.661 1332.74 143.865 1332.59 144.04L1314.43 164.259C1314.25 164.462 1314 164.62 1313.71 164.713C1313.42 164.806 1313.11 164.83 1312.8 164.783C1312.49 164.736 1312.21 164.619 1311.98 164.447C1311.76 164.275 1311.6 164.055 1311.53 163.814Z" fill="#DB465F"/>
<path d="M1276.51 157.409L1271.97 133.07C1271.94 132.859 1271.96 132.644 1272.05 132.444C1272.15 132.244 1272.3 132.066 1272.5 131.924C1272.7 131.783 1272.94 131.684 1273.21 131.635C1273.47 131.586 1273.74 131.589 1274 131.645L1298.81 136.952C1299.07 137.008 1299.31 137.116 1299.5 137.265C1299.7 137.413 1299.84 137.599 1299.92 137.803C1300 138.008 1300.02 138.225 1299.97 138.436C1299.91 138.646 1299.79 138.842 1299.62 139.006L1279.37 158.05C1279.17 158.245 1278.9 158.39 1278.6 158.467C1278.3 158.543 1277.98 158.547 1277.67 158.479C1277.37 158.411 1277.09 158.273 1276.89 158.082C1276.68 157.892 1276.55 157.658 1276.51 157.409Z" fill="#F5DFA5"/>
<path d="M1242.98 148.772L1240.06 124.29C1240.04 124.079 1240.08 123.867 1240.19 123.673C1240.29 123.478 1240.46 123.307 1240.67 123.174C1240.87 123.041 1241.12 122.951 1241.38 122.912C1241.65 122.873 1241.92 122.885 1242.17 122.948L1266.6 129.188C1266.86 129.253 1267.09 129.37 1267.28 129.527C1267.46 129.683 1267.6 129.875 1267.67 130.083C1267.73 130.292 1267.73 130.511 1267.67 130.72C1267.6 130.928 1267.47 131.12 1267.28 131.277L1245.77 149.526C1245.56 149.704 1245.28 149.831 1244.98 149.89C1244.68 149.949 1244.36 149.938 1244.07 149.859C1243.78 149.779 1243.52 149.635 1243.32 149.442C1243.13 149.249 1243.01 149.016 1242.98 148.772Z" fill="#DB465F"/>
<path d="M1210.79 140.555L1209.59 115.991C1209.57 115.78 1209.63 115.57 1209.75 115.38C1209.86 115.19 1210.04 115.026 1210.25 114.902C1210.47 114.779 1210.72 114.7 1210.99 114.672C1211.25 114.644 1211.52 114.669 1211.77 114.744L1235.73 121.945C1235.98 122.021 1236.21 122.147 1236.39 122.311C1236.56 122.475 1236.68 122.671 1236.74 122.882C1236.79 123.093 1236.78 123.311 1236.7 123.517C1236.62 123.723 1236.47 123.909 1236.28 124.058L1213.52 141.428C1213.3 141.599 1213.02 141.715 1212.71 141.762C1212.41 141.809 1212.09 141.784 1211.8 141.692C1211.51 141.6 1211.26 141.443 1211.08 141.242C1210.91 141.04 1210.8 140.802 1210.79 140.555Z" fill="#F5DFA5"/>
<path d="M1179.71 131.277L1178.5 106.712C1178.49 106.501 1178.55 106.291 1178.66 106.102C1178.78 105.912 1178.96 105.748 1179.17 105.625C1179.39 105.502 1179.64 105.424 1179.91 105.397C1180.17 105.37 1180.44 105.396 1180.69 105.472L1204.64 112.667C1204.9 112.743 1205.12 112.869 1205.3 113.033C1205.48 113.196 1205.6 113.393 1205.65 113.604C1205.71 113.815 1205.69 114.033 1205.61 114.239C1205.53 114.445 1205.39 114.631 1205.19 114.78L1182.44 132.15C1182.21 132.318 1181.93 132.432 1181.63 132.477C1181.32 132.523 1181.01 132.498 1180.72 132.406C1180.43 132.314 1180.18 132.159 1180 131.959C1179.83 131.759 1179.72 131.522 1179.71 131.277Z" fill="#DB465F"/>
<path d="M1148.32 120.574L1149.72 96.0213C1149.74 95.8107 1149.81 95.6058 1149.95 95.4246C1150.09 95.2434 1150.28 95.0916 1150.5 94.9828C1150.73 94.8741 1150.99 94.8118 1151.26 94.8014C1151.52 94.7909 1151.79 94.8328 1152.03 94.9231L1175.14 103.543C1175.39 103.634 1175.6 103.774 1175.76 103.948C1175.92 104.123 1176.02 104.326 1176.06 104.54C1176.09 104.754 1176.05 104.972 1175.95 105.172C1175.85 105.372 1175.69 105.549 1175.48 105.686L1150.94 121.619C1150.7 121.771 1150.41 121.866 1150.1 121.891C1149.79 121.916 1149.48 121.871 1149.21 121.761C1148.93 121.651 1148.7 121.481 1148.55 121.27C1148.39 121.06 1148.31 120.818 1148.32 120.574Z" fill="#F5DFA5"/>
<path d="M1118.69 108.582L1121.78 84.118C1121.81 83.9088 1121.9 83.7081 1122.05 83.5334C1122.19 83.3588 1122.4 83.2157 1122.63 83.1171C1122.86 83.0184 1123.13 82.9672 1123.39 82.9678C1123.66 82.9684 1123.92 83.0209 1124.15 83.1207L1146.65 92.6189C1146.89 92.7213 1147.09 92.8702 1147.24 93.0516C1147.39 93.2331 1147.48 93.4413 1147.5 93.6569C1147.52 93.8725 1147.47 94.0884 1147.35 94.2847C1147.24 94.481 1147.06 94.6514 1146.85 94.7798L1121.27 109.722C1121.02 109.872 1120.72 109.961 1120.41 109.978C1120.1 109.996 1119.78 109.941 1119.51 109.82C1119.24 109.699 1119.01 109.517 1118.87 109.297C1118.72 109.077 1118.66 108.829 1118.69 108.582Z" fill="#DB465F"/>
<path d="M1089.98 94.9113L1095.32 70.673C1095.37 70.4669 1095.48 70.2728 1095.64 70.1079C1095.8 69.943 1096.01 69.8124 1096.26 69.7273C1096.5 69.6423 1096.76 69.6056 1097.03 69.6204C1097.29 69.6352 1097.54 69.7011 1097.77 69.8123L1119.32 80.4978C1119.55 80.6127 1119.74 80.772 1119.87 80.961C1120.01 81.1499 1120.08 81.3623 1120.08 81.5782C1120.08 81.7941 1120.01 82.0064 1119.87 82.1953C1119.74 82.3843 1119.55 82.5436 1119.32 82.6585L1092.44 96.2113C1092.18 96.3479 1091.87 96.4201 1091.55 96.419C1091.24 96.4179 1090.93 96.3436 1090.67 96.2052C1090.41 96.0668 1090.2 95.8704 1090.08 95.6404C1089.95 95.4104 1089.92 95.1569 1089.98 94.9113Z" fill="#F5DFA5"/>
<path d="M1063.38 80.9604L1070.13 56.9181C1070.19 56.7136 1070.31 56.5232 1070.48 56.3639C1070.65 56.2045 1070.87 56.081 1071.12 56.0042C1071.36 55.9273 1071.63 55.8995 1071.89 55.9233C1072.15 55.947 1072.4 56.0216 1072.62 56.1404L1093.54 67.5144C1093.76 67.6362 1093.95 67.8015 1094.07 67.9944C1094.19 68.1874 1094.25 68.402 1094.24 68.6179C1094.23 68.8339 1094.15 69.0442 1094.01 69.2291C1093.87 69.4141 1093.67 69.5676 1093.43 69.6754L1065.8 82.3435C1065.53 82.4762 1065.21 82.5421 1064.89 82.5328C1064.57 82.5235 1064.26 82.4394 1064.01 82.2913C1063.75 82.1432 1063.55 81.9377 1063.44 81.7007C1063.33 81.4638 1063.31 81.2062 1063.38 80.9604Z" fill="#DB465F"/>
<path d="M1038.33 65.3116L1047.66 41.7739C1047.74 41.5759 1047.88 41.3968 1048.07 41.2518C1048.26 41.1069 1048.49 41.0006 1048.74 40.9421C1048.99 40.8837 1049.26 40.8748 1049.52 40.9163C1049.78 40.9578 1050.02 41.0484 1050.22 41.1802L1069.82 53.8248C1070.03 53.961 1070.19 54.1373 1070.29 54.3372C1070.4 54.5372 1070.43 54.7543 1070.4 54.9683C1070.37 55.1822 1070.27 55.3861 1070.11 55.5609C1069.95 55.7357 1069.73 55.8756 1069.49 55.9677L1040.56 66.861C1040.28 66.9677 1039.96 67.0059 1039.65 66.9713C1039.33 66.9367 1039.04 66.8306 1038.8 66.6661C1038.57 66.5015 1038.39 66.2857 1038.31 66.0451C1038.23 65.8044 1038.23 65.5495 1038.33 65.3116Z" fill="#F5DFA5"/>
<path d="M1018.95 47.4908L1028.53 27.4674C1028.63 27.2725 1028.78 27.0985 1028.97 26.9607C1029.17 26.8229 1029.41 26.7254 1029.67 26.6768C1029.92 26.6282 1030.19 26.63 1030.44 26.6819C1030.7 26.7338 1030.93 26.8343 1031.13 26.9746L1047.28 38.6338C1047.48 38.7791 1047.63 38.9623 1047.72 39.1664C1047.81 39.3705 1047.83 39.589 1047.78 39.8012C1047.73 40.0134 1047.62 40.2124 1047.45 40.3799C1047.28 40.5474 1047.05 40.6779 1046.8 40.759L1021.07 49.1292C1020.78 49.2221 1020.46 49.246 1020.15 49.1978C1019.84 49.1496 1019.56 49.0314 1019.33 48.8578C1019.11 48.6841 1018.95 48.4625 1018.88 48.2198C1018.82 47.9771 1018.84 47.7237 1018.95 47.4908Z" fill="#DB465F"/>
<path d="M1009.89 19.6313L998.22 18.0047C997.935 17.9635 997.669 17.8625 997.449 17.7121C997.23 17.5617 997.066 17.3675 996.974 17.1497C996.882 16.932 996.866 16.6987 996.927 16.4742C996.988 16.2497 997.123 16.0422 997.32 15.8735L1006.48 8.04938C1006.68 7.87624 1006.93 7.75007 1007.22 7.68459C1007.5 7.61911 1007.8 7.61688 1008.09 7.67821C1008.38 7.73954 1008.63 7.86193 1008.84 8.03213C1009.04 8.20233 1009.18 8.41373 1009.24 8.64302L1011.75 18.0996C1011.81 18.3049 1011.8 18.5182 1011.73 18.7205C1011.66 18.9229 1011.52 19.108 1011.34 19.2595C1011.15 19.411 1010.92 19.5244 1010.67 19.5892C1010.42 19.6541 1010.15 19.6685 1009.89 19.6313Z" fill="#DB465F"/>
<path d="M1000.57 29.7646L1011.66 11.908C1011.78 11.7175 1011.95 11.553 1012.17 11.4297C1012.39 11.3063 1012.64 11.2279 1012.91 11.2014C1013.17 11.1749 1013.44 11.2012 1013.69 11.2779C1013.94 11.3547 1014.16 11.4794 1014.34 11.6409L1028.31 24.4871C1028.49 24.6522 1028.61 24.8511 1028.67 25.0647C1028.72 25.2782 1028.71 25.4994 1028.62 25.7071C1028.54 25.9149 1028.39 26.1022 1028.19 26.2514C1027.99 26.4005 1027.74 26.5063 1027.47 26.5589L1002.41 31.5693C1002.11 31.6276 1001.8 31.6172 1001.51 31.5396C1001.22 31.462 1000.96 31.3201 1000.76 31.1307C1000.57 30.9414 1000.45 30.7124 1000.41 30.4704C1000.38 30.2285 1000.43 29.9837 1000.57 29.7646Z" fill="#F5DFA5"/>
<path d="M440.033 35.0302L461.879 28.328C462.129 28.2512 462.352 28.1261 462.526 27.9639C462.7 27.8018 462.82 27.6078 462.875 27.3996C462.93 27.1913 462.919 26.9756 462.842 26.7717C462.765 26.5679 462.624 26.3824 462.434 26.2324L449.302 15.832C449.113 15.6836 448.88 15.5744 448.625 15.5142C448.369 15.454 448.099 15.4447 447.838 15.487C447.577 15.5292 447.333 15.6218 447.128 15.7565C446.923 15.8913 446.763 16.0641 446.662 16.2594L437.948 33.362C437.829 33.5935 437.798 33.8475 437.86 34.0925C437.922 34.3375 438.073 34.5629 438.295 34.7405C438.517 34.9181 438.8 35.0401 439.109 35.0916C439.418 35.1432 439.739 35.1218 440.033 35.0302Z" fill="#F5DFA5"/>
<path d="M457.551 51.9788L482.832 42.3856C483.074 42.293 483.283 42.1543 483.44 41.982C483.597 41.8096 483.698 41.609 483.733 41.3982C483.768 41.1874 483.736 40.9732 483.64 40.7746C483.545 40.5759 483.388 40.3992 483.185 40.2604L466.311 28.815C466.107 28.6779 465.863 28.5828 465.602 28.5383C465.34 28.4939 465.069 28.5014 464.812 28.5602C464.555 28.619 464.32 28.7272 464.129 28.8753C463.938 29.0233 463.796 29.2066 463.716 29.4086L455.309 50.4471C455.218 50.6847 455.216 50.938 455.303 51.1764C455.391 51.4148 455.563 51.6282 455.801 51.7903C456.038 51.9525 456.33 52.0566 456.641 52.0901C456.952 52.1235 457.268 52.0848 457.551 51.9788Z" fill="#DB465F"/>
<path d="M528.129 95.0416L530.432 69.5152C530.45 69.3032 530.536 69.0983 530.68 68.9191C530.824 68.7398 531.022 68.592 531.257 68.4888C531.492 68.3856 531.755 68.3304 532.023 68.3282C532.292 68.326 532.557 68.377 532.794 68.4763L555.45 77.9745C555.685 78.0731 555.887 78.2165 556.035 78.3916C556.184 78.5668 556.275 78.7683 556.301 78.9783C556.327 79.1883 556.287 79.4 556.184 79.5947C556.081 79.7894 555.919 79.9609 555.712 80.0938L530.762 96.1221C530.517 96.2781 530.22 96.3743 529.907 96.399C529.594 96.4238 529.279 96.376 529 96.2615C528.721 96.147 528.49 95.9707 528.336 95.7541C528.181 95.5375 528.109 95.2899 528.129 95.0416Z" fill="#F5DFA5"/>
<path d="M502.624 79.1437L507.214 57.2444C507.257 57.0347 507.366 56.8367 507.531 56.6688C507.695 56.5008 507.91 56.3682 508.156 56.2827C508.402 56.1972 508.671 56.1616 508.938 56.1792C509.206 56.1968 509.464 56.2671 509.688 56.3836L528.28 66.0242C528.502 66.1405 528.685 66.2987 528.812 66.4847C528.938 66.6706 529.005 66.8787 529.005 67.0899C529.005 67.3011 528.938 67.509 528.812 67.695C528.685 67.881 528.502 68.0392 528.28 68.1554L505.099 80.414C504.837 80.5494 504.532 80.6219 504.219 80.6224C503.907 80.6229 503.601 80.5515 503.339 80.4169C503.076 80.2823 502.869 80.0903 502.742 79.8643C502.616 79.6382 502.574 79.3879 502.624 79.1437Z" fill="#DB465F"/>
<path d="M589.302 114.518L584.428 89.2176C584.387 89.0074 584.413 88.7925 584.504 88.5925C584.595 88.3924 584.748 88.2136 584.948 88.072C585.149 87.9305 585.39 87.8308 585.652 87.782C585.913 87.7333 586.186 87.737 586.445 87.7929L611.193 93.0822C611.45 93.1382 611.686 93.2436 611.879 93.3888C612.072 93.5341 612.217 93.7147 612.301 93.9149C612.385 94.1151 612.405 94.3287 612.359 94.5365C612.314 94.7444 612.205 94.94 612.041 95.1064L592.182 115.112C591.988 115.31 591.724 115.458 591.425 115.539C591.125 115.619 590.802 115.629 590.495 115.566C590.189 115.502 589.913 115.37 589.701 115.183C589.489 114.997 589.35 114.766 589.302 114.518Z" fill="#F5DFA5"/>
<path d="M556.298 106.546L558.39 80.4857C558.407 80.278 558.487 80.0767 558.625 79.8993C558.762 79.7219 558.952 79.5738 559.178 79.4679C559.405 79.3619 559.66 79.3013 559.923 79.2915C560.185 79.2816 560.447 79.3227 560.685 79.4112L582.088 87.3125C582.325 87.3999 582.531 87.5315 582.69 87.6959C582.848 87.8603 582.953 88.0527 582.997 88.2565C583.04 88.4603 583.021 88.6695 582.939 88.8659C582.858 89.0624 582.718 89.2402 582.531 89.3843L559.035 107.544C558.802 107.725 558.504 107.845 558.182 107.89C557.86 107.934 557.529 107.9 557.232 107.792C556.935 107.683 556.687 107.506 556.52 107.284C556.353 107.062 556.276 106.804 556.298 106.546Z" fill="#DB465F"/>
<path d="M654.473 126.73L645.473 102.142C645.398 101.937 645.389 101.721 645.446 101.513C645.504 101.305 645.626 101.112 645.802 100.95C645.978 100.789 646.202 100.666 646.454 100.591C646.705 100.516 646.977 100.492 647.243 100.521L672.636 103.246C672.901 103.274 673.152 103.353 673.367 103.477C673.583 103.601 673.757 103.766 673.873 103.955C673.989 104.145 674.043 104.355 674.032 104.566C674.02 104.777 673.943 104.982 673.806 105.163L657.368 127.027C657.203 127.231 656.968 127.394 656.691 127.497C656.413 127.599 656.105 127.637 655.801 127.606C655.497 127.575 655.211 127.476 654.976 127.321C654.741 127.166 654.566 126.961 654.473 126.73Z" fill="#F5DFA5"/>
<path d="M618.873 122.265L615.281 96.3115C615.253 96.1047 615.288 95.8956 615.385 95.7022C615.482 95.5088 615.636 95.3368 615.836 95.2013C616.035 95.0657 616.273 94.9706 616.529 94.924C616.785 94.8775 617.052 94.8811 617.306 94.9343L640.104 99.814C640.357 99.8671 640.59 99.9682 640.783 100.109C640.975 100.249 641.122 100.424 641.21 100.619C641.298 100.815 641.324 101.024 641.287 101.229C641.25 101.434 641.15 101.629 640.997 101.797L621.79 122.877C621.598 123.085 621.331 123.243 621.023 123.329C620.716 123.415 620.383 123.426 620.068 123.36C619.753 123.294 619.47 123.154 619.257 122.959C619.044 122.763 618.91 122.522 618.873 122.265Z" fill="#DB465F"/>
<path d="M721.654 129.585L707.63 106.528C707.514 106.337 707.46 106.126 707.473 105.913C707.486 105.701 707.566 105.495 707.705 105.313C707.844 105.132 708.038 104.981 708.27 104.873C708.502 104.766 708.764 104.707 709.032 104.7L734.643 104.023C734.91 104.016 735.175 104.061 735.415 104.154C735.654 104.248 735.861 104.387 736.015 104.56C736.17 104.732 736.268 104.933 736.301 105.143C736.334 105.353 736.3 105.566 736.203 105.763L724.616 129.508C724.501 129.741 724.303 129.942 724.045 130.086C723.788 130.23 723.482 130.312 723.167 130.32C722.852 130.328 722.54 130.263 722.271 130.132C722.002 130.002 721.788 129.812 721.654 129.585Z" fill="#F5DFA5"/>
<path d="M688.363 130.114L677.931 105.341C677.848 105.143 677.826 104.932 677.869 104.727C677.912 104.521 678.018 104.327 678.178 104.161C678.338 103.995 678.547 103.863 678.786 103.776C679.026 103.689 679.288 103.649 679.551 103.661L703.137 104.617C703.396 104.629 703.648 104.69 703.87 104.796C704.093 104.901 704.281 105.047 704.418 105.221C704.554 105.396 704.636 105.594 704.656 105.799C704.676 106.003 704.633 106.209 704.532 106.398L691.378 130.209C691.247 130.445 691.03 130.645 690.753 130.781C690.477 130.918 690.155 130.986 689.83 130.976C689.504 130.965 689.19 130.878 688.928 130.724C688.667 130.57 688.47 130.358 688.363 130.114Z" fill="#DB465F"/>
<path d="M783.862 123.755L766.125 102.384C765.979 102.206 765.89 102.002 765.868 101.79C765.846 101.577 765.891 101.364 765.998 101.169C766.106 100.974 766.274 100.804 766.486 100.673C766.698 100.542 766.948 100.455 767.213 100.42L792.486 97.0773C792.749 97.0433 793.019 97.0612 793.271 97.1295C793.524 97.1978 793.751 97.3143 793.933 97.4688C794.114 97.6232 794.245 97.8108 794.313 98.0149C794.382 98.219 794.385 98.4333 794.324 98.6387L786.824 123.376C786.752 123.624 786.588 123.85 786.353 124.024C786.118 124.199 785.822 124.313 785.504 124.354C785.186 124.395 784.86 124.36 784.568 124.253C784.275 124.147 784.029 123.973 783.862 123.755Z" fill="#F5DFA5"/>
<path d="M754.831 127.846L739.082 104.89C738.957 104.707 738.89 104.503 738.887 104.296C738.884 104.088 738.945 103.883 739.064 103.698C739.184 103.513 739.359 103.354 739.574 103.235C739.789 103.116 740.037 103.04 740.297 103.014L763.733 100.699C763.993 100.673 764.256 100.697 764.501 100.769C764.745 100.842 764.964 100.96 765.138 101.114C765.313 101.268 765.437 101.454 765.5 101.654C765.564 101.855 765.565 102.065 765.503 102.266L757.809 127.531C757.728 127.778 757.557 128.001 757.315 128.171C757.074 128.341 756.774 128.449 756.454 128.483C756.134 128.517 755.809 128.474 755.52 128.361C755.231 128.247 754.991 128.068 754.831 127.846Z" fill="#DB465F"/>
<path d="M843.543 111.651L821.99 92.5837C821.81 92.4251 821.684 92.2338 821.622 92.027C821.559 91.8201 821.563 91.6044 821.632 91.3989C821.701 91.1934 821.834 91.0047 822.018 90.8499C822.202 90.695 822.432 90.5788 822.687 90.5119L847.06 84.2372C847.314 84.1714 847.585 84.1565 847.848 84.194C848.111 84.2316 848.358 84.3203 848.567 84.4522C848.776 84.584 848.94 84.7548 849.045 84.9494C849.15 85.144 849.192 85.3563 849.168 85.567L846.355 110.915C846.328 111.164 846.209 111.4 846.014 111.596C845.818 111.792 845.555 111.938 845.255 112.016C844.956 112.094 844.634 112.102 844.33 112.037C844.026 111.972 843.752 111.838 843.543 111.651Z" fill="#F5DFA5"/>
<path d="M813.245 119.654L795.148 97.8198C795.003 97.6461 794.914 97.4471 794.889 97.2399C794.863 97.0327 794.902 96.8236 795.002 96.631C795.101 96.4384 795.259 96.2682 795.461 96.1349C795.663 96.0017 795.904 95.9096 796.161 95.8667L819.274 92.014C819.529 91.9712 819.794 91.9781 820.045 92.0341C820.296 92.0901 820.526 92.1934 820.716 92.3353C820.905 92.4771 821.049 92.6533 821.133 92.8486C821.218 93.0439 821.241 93.2525 821.202 93.4566L816.192 119.143C816.145 119.4 815.999 119.639 815.776 119.829C815.553 120.018 815.261 120.15 814.941 120.205C814.621 120.261 814.287 120.237 813.984 120.139C813.681 120.041 813.423 119.871 813.245 119.654Z" fill="#DB465F"/>
<path d="M952.9 67.6444L930.882 56.7275C930.651 56.6126 930.461 56.4532 930.329 56.2643C930.197 56.0753 930.128 55.8629 930.128 55.647C930.128 55.4311 930.197 55.2188 930.329 55.0299C930.461 54.8409 930.651 54.6816 930.882 54.5667L949.353 45.2465C949.581 45.1308 949.842 45.0626 950.113 45.0479C950.383 45.0332 950.653 45.0726 950.899 45.1626C951.145 45.2525 951.358 45.3901 951.519 45.5624C951.68 45.7348 951.784 45.9364 951.821 46.1488L955.368 66.386C955.409 66.6277 955.363 66.8737 955.234 67.0953C955.105 67.3168 954.899 67.5047 954.64 67.6369C954.381 67.769 954.08 67.8399 953.772 67.8412C953.464 67.8426 953.161 67.7742 952.9 67.6444Z" fill="#F5DFA5"/>
<path d="M999.389 37.9101L977.543 31.2019C977.293 31.1252 977.07 31 976.896 30.8379C976.722 30.6757 976.602 30.4817 976.547 30.2735C976.492 30.0653 976.503 29.8493 976.58 29.6455C976.658 29.4417 976.798 29.2564 976.988 29.1064L990.12 18.7118C990.309 18.5634 990.542 18.4543 990.798 18.3941C991.053 18.3339 991.323 18.3246 991.584 18.3668C991.845 18.4091 992.089 18.5017 992.294 18.6364C992.499 18.7712 992.659 18.9438 992.76 19.1392L1001.47 36.2419C1001.59 36.4734 1001.62 36.7274 1001.56 36.9724C1001.5 37.2174 1001.35 37.4426 1001.13 37.6202C1000.9 37.7978 1000.62 37.92 1000.31 37.9715C1000 38.023 999.683 38.0017 999.389 37.9101Z" fill="#F5DFA5"/>
<path d="M979.524 54.6203L954.236 45.0271C953.994 44.9345 953.785 44.7959 953.628 44.6235C953.471 44.4512 953.37 44.2505 953.335 44.0397C953.3 43.829 953.332 43.6147 953.428 43.4161C953.523 43.2175 953.68 43.0407 953.883 42.9019L970.757 31.4565C970.961 31.3194 971.204 31.2244 971.466 31.18C971.727 31.1355 971.999 31.1429 972.256 31.2017C972.513 31.2605 972.747 31.3688 972.939 31.5168C973.13 31.6649 973.272 31.8481 973.352 32.0502L981.759 53.0828C981.851 53.32 981.854 53.5732 981.767 53.8117C981.681 54.0502 981.509 54.2637 981.273 54.4265C981.036 54.5892 980.745 54.6943 980.435 54.7287C980.124 54.7631 979.808 54.7254 979.524 54.6203Z" fill="#DB465F"/>
<path d="M904.424 93.9189L903.509 68.3391C903.5 68.1269 903.424 67.9198 903.289 67.7364C903.154 67.553 902.963 67.399 902.734 67.2884C902.505 67.1777 902.245 67.1138 901.977 67.1024C901.709 67.091 901.442 67.1324 901.199 67.223L878.056 75.9318C877.815 76.0233 877.607 76.1603 877.45 76.3308C877.292 76.5013 877.191 76.6998 877.153 76.9089C877.116 77.118 877.145 77.3312 877.237 77.5294C877.329 77.7276 877.481 77.9046 877.681 78.045L901.739 94.9163C901.975 95.0828 902.267 95.1908 902.58 95.2269C902.892 95.263 903.211 95.2256 903.497 95.1194C903.783 95.0131 904.024 94.8426 904.188 94.6292C904.353 94.4158 904.435 94.1688 904.424 93.9189Z" fill="#F5DFA5"/>
<path d="M930.769 80.0701L927.77 58.0045C927.739 57.7934 927.643 57.5917 927.49 57.4173C927.337 57.243 927.131 57.1014 926.892 57.0054C926.652 56.9095 926.386 56.8621 926.118 56.8676C925.85 56.8731 925.587 56.9313 925.355 57.0369L906.111 65.8346C905.88 65.94 905.686 66.089 905.545 66.2683C905.405 66.4476 905.323 66.6515 905.307 66.8621C905.29 67.0726 905.34 67.2831 905.452 67.4747C905.563 67.6662 905.733 67.8329 905.946 67.9598L928.219 81.2276C928.471 81.3716 928.77 81.4551 929.079 81.4681C929.389 81.481 929.697 81.4229 929.967 81.3007C930.236 81.1785 930.455 80.9974 930.597 80.7791C930.739 80.5608 930.799 80.3146 930.769 80.0701Z" fill="#DB465F"/>
<path d="M875.551 103.353L875.686 77.2325C875.683 77.0256 875.618 76.8222 875.495 76.6396C875.372 76.457 875.195 76.3009 874.979 76.1842C874.763 76.0676 874.515 75.9939 874.255 75.9697C873.995 75.9455 873.732 75.9715 873.488 76.0452L851.455 82.7889C851.211 82.8639 850.994 82.9846 850.822 83.1405C850.65 83.2964 850.528 83.4829 850.467 83.6841C850.406 83.8854 850.407 84.0953 850.471 84.296C850.534 84.4968 850.658 84.6825 850.832 84.837L872.708 104.219C872.927 104.418 873.217 104.559 873.54 104.622C873.863 104.686 874.203 104.669 874.513 104.575C874.824 104.48 875.09 104.312 875.276 104.093C875.461 103.874 875.557 103.616 875.551 103.353Z" fill="#DB465F"/>
</g>
</g>
<defs>
<clipPath id="clip0_459_1697">
<rect width="1440" height="170" fill="white"/>
</clipPath>
</defs>
</svg>
